<svg xmlns="http://www.w3.org/2000/svg" viewBox="0 0 800 350.48"><defs><style>.cls-1{fill:#231f20;}</style></defs><g id="Layer_2" data-name="Layer 2"><g id="Layer_1-2" data-name="Layer 1"><g id="w4IDso.tif"><path class="cls-1" d="M173.13,46.13C162.39,67.54,152.18,87.88,142,108.22Q83.74,224.61,25.5,341C21.87,348.23,8.82,352.93,2,349.11c-3.75-2.08-1.15-5,.05-7.46q13.44-27,27-54Q99.41,146.88,169.83,6.11c.94-1.87,2.1-3.63,3.55-6.11,13.65,27.3,27,53.94,40.3,80.57Q278.53,210.27,343.37,340c4.55,9.12,4.32,8.93-5.94,9.61-8.94.58-13.93-2.45-18.06-10.78Q248.65,196.22,177.18,54C176.1,51.82,175,49.7,173.13,46.13Z"/><path class="cls-1" d="M173.3,92.47c14.39,28.75,28.37,56.71,42.36,84.66q30.27,60.47,60.54,120.94c4.11,8.23,3.66,8.16-5.45,9.05-10.07,1-15.17-3.19-19.51-12-24.45-49.83-49.5-99.36-74.35-149-1.08-2.16-2.21-4.28-3.77-7.29l-25.36,50.63q-27.51,54.93-55,109.87c-3.23,6.44-17.4,10.9-23.33,7.22-3.44-2.12-1-4.72.07-6.94q14.23-28.65,28.59-57.25,35.77-71.53,71.57-143.07C170.61,97.33,171.69,95.44,173.3,92.47Z"/><path class="cls-1" d="M173.21,185.79c10.75,21.41,21,41.93,31.34,62.46,1.85,3.68,3.81,7.31,5.51,11.05,1.57,3.44.81,5.26-3.5,5.62-15.37,1.27-16.54.73-23.54-13.32L173.2,232c-4.63,9.21-8.78,17.65-13.09,26-3,5.75-17.69,10-23,6.47-3.28-2.14-.93-4.75.19-7q13.28-26.67,26.66-53.29C166.85,198.34,169.8,192.53,173.21,185.79Z"/><path class="cls-1" d="M598.29,311.38c0,12.32-.2,22.57.09,32.8.12,4.33-1.57,5.33-5.52,5.26-3.72-.07-4.43-1.84-4.42-5,.06-16.24,0-32.48,0-48.73,0-1.82-.5-4.21,2-4.91,2.28-.65,3.39,1.46,4.69,2.81,9.4,9.79,18.75,19.63,28.19,29.38,1.61,1.66,2.83,3.87,6.44,4.95,0-10.46.08-20.46,0-30.46,0-3.48,0-6.06,4.8-6,4.47,0,5.15,2.16,5.13,5.87-.12,15.76,0,31.51-.08,47.27,0,1.9.46,4.27-1.7,5.15s-3.41-1.26-4.71-2.61q-14.1-14.68-28.17-29.4C603.39,316.09,601.66,314.58,598.29,311.38Z"/><path class="cls-1" d="M787.43,318.6c12.83,0,15.19,3.74,10,15.85-5.46,12.76-20.19,19.07-34.06,14.6a29.64,29.64,0,0,1-20.27-26.63c-.71-12.6,5.71-23.69,16.76-29A29.6,29.6,0,0,1,793,298.18c2.06,1.93,4.88,3.62,1.71,7.07-2.9,3.16-4.86,3.24-8.2.07-6.85-6.52-15.71-7.21-23.43-2.79a20.69,20.69,0,0,0,6.48,38.17,16.09,16.09,0,0,0,13-2.95c2.77-2.05,6.06-4.87,5.29-8s-5-1.31-7.66-1.45c-3.38-.18-5.54-.85-5.54-4.89s1.93-5,5.45-4.8C782.58,318.72,785,318.6,787.43,318.6Z"/><path class="cls-1" d="M691.05,316.26c0,7-.08,17.11,0,27.23,0,3.59-.33,6-5,6-4.42,0-5.19-2-5.15-5.79.14-15.77,0-31.54.08-47.31,0-1.86-.65-4.19,1.45-5.28,2.67-1.39,3.86,1.19,5.27,2.64,11,11.3,21.91,22.66,32.88,34,.06.07.38-.11,1.49-.43,0-9.54.06-19.37,0-29.2,0-3.68-.07-6.58,5.13-6.62,5.36,0,5,3.12,5,6.65-.05,15.29,0,30.57-.06,45.86,0,2.06.93,4.83-1.73,5.77s-3.67-1.73-5.24-3.13C713.4,336.13,701.62,325.67,691.05,316.26Z"/><path class="cls-1" d="M550.81,328.41c0,5.36-.13,10.56,0,15.75.12,3.57-.91,5.32-4.9,5.29-3.69,0-5.19-1.12-5.15-5,.15-16,.12-32,0-48,0-3.31,1-5,4.57-4.84,4.6.26,9.25,0,13.8.59,7.16.88,12,4.92,14,12,2,7.31-.19,14.75-6.59,18.51-4.29,2.52-4,4.16-1.23,7.41a98,98,0,0,1,8.08,11.2c1.38,2.19,5.61,4.88,2.36,7.13-3.05,2.11-7.82,2.41-10.77-2.14-3.16-4.88-6.53-9.64-10-14.32C554.18,330.7,553.82,328.75,550.81,328.41Zm-.56-19c2.51,2.11-2.93,8.32,4.78,7.79,5.21-.36,9-2.64,9.08-8.14.09-5.65-3.83-7.75-9-8.06C547.64,300.61,552.28,306.47,550.25,309.46Z"/><path class="cls-1" d="M717.67,236c0-7.51.17-15-.07-22.54-.13-4.22,1-6.26,5.68-6.07,7.26.29,14.55.25,21.82,0,3.71-.12,5.28,1.1,5.27,4.91,0,4.14-2.27,4.7-5.63,4.51-3.14-.18-6.37.38-9.44-.12-6.7-1.1-8.33,1.81-7.76,7.95.31,3.34,1,4.79,4.57,4.58,4.35-.25,8.73,0,13.09-.07,2.88-.06,4.54.73,4.48,4.08-.07,3-.39,5.33-4.2,5.21a65,65,0,0,0-8.72.06c-3,.29-7.6-1.79-8.54,1.46-1.29,4.47-.62,9.6-.21,14.41.17,2.09,2.7,1.46,4.3,1.48,4.12.07,8.24.15,12.36,0,3.33-.13,5.69.4,5.71,4.53,0,3.8-1.61,5-5.3,4.92-7.27-.21-14.56-.28-21.82,0-4.65.18-5.79-1.83-5.66-6.06C717.85,251.51,717.67,243.75,717.67,236Z"/><path class="cls-1" d="M453,291.6c3.64,0,7.28.12,10.91-.05,3.23-.15,4.94.72,4.93,4.39s-1.19,5.38-5.06,5.11c-3.38-.24-6.79-.06-10.18-.05-7.15,0-9,2.63-7.39,9.61.68,2.95,2.6,2.35,4.37,2.38,4.37.09,8.73.07,13.09,0,3.4,0,4.66,1.58,4.64,4.93s-1.54,4.83-4.84,4.73c-2.42-.08-4.85,0-7.27,0-10,0-9.6,0-10.07,9.9-.28,5.88,1.12,8.5,7.42,7.55,3.32-.49,6.79.1,10.16-.12,3.75-.25,5.2,1.14,5.13,5-.07,3.56-1.53,4.53-4.87,4.45q-11.26-.28-22.54,0c-3.58.08-5.27-.91-5.23-4.88q.24-24,0-48c0-3.86,1.51-5.17,5.17-5C445.19,291.75,449.08,291.61,453,291.6Z"/><path class="cls-1" d="M482.67,266.4c-12.78-.49-22.15-6.37-27.45-18.09a29.54,29.54,0,0,1,6.41-32.92c9.2-8.92,20.07-11.2,32.23-7.12,2.59.88,5.08,2.06,4.91,5.45-.1,1.87.74,4.07-1,5.47s-3.55-.11-5.29-.88c-13.15-5.78-25.82,0-29.06,13.23-2,8.3.21,15.54,6.79,20.91s14,6.18,21.76,2.23c2-1,4.79-4.53,6.4-.24,1.19,3.17,1.7,7.31-2.92,9.28A29.7,29.7,0,0,1,482.67,266.4Z"/><path class="cls-1" d="M504.39,309.92c-5.58,12.25-10.58,23.28-15.64,34.29-.79,1.71-1.07,4.09-3.07,4.7-2.51.77-5.53,1.35-7.65-.49s0-4.12.81-5.94Q489.78,318.71,501,295c.79-1.68,1.21-4.07,3.56-4.15,2.87-.09,3.09,2.69,3.94,4.57,7,15.45,14,30.91,20.84,46.42,1,2.3,4.13,5.6-.24,7.11-3.09,1.08-7,1.58-8.93-3.37-4.09-10.36-8.76-20.49-13.22-30.71C506.34,313.63,505.65,312.41,504.39,309.92Z"/><path class="cls-1" d="M422.31,225.8c-5.51,12.08-10.6,23.28-15.72,34.47-1.08,2.36-1.73,4.86-5.3,5.07-5.79.35-7.18-1.12-4.76-6.41,7.36-16,14.84-32,22.3-48,.8-1.72,1.37-4.16,3.55-4.19,2.61,0,3.07,2.64,3.95,4.6,7.05,15.64,14.19,31.24,21.09,46.94.87,2,4,5.16-.3,6.54-3.24,1.05-7.1,1.66-9.05-3.16-3.91-9.62-8.19-19.1-12.34-28.62C424.79,230.89,423.73,228.79,422.31,225.8Z"/><path class="cls-1" d="M597.82,243.4c4.12-10.16,8.24-20.4,12.44-30.62,1.06-2.59,1.63-5.49,5.71-5.41,4.63.08,7.11.78,4.81,6.22-6.91,16.26-13.58,32.63-20.39,48.93-.71,1.69-1.12,4.08-3.69,3.81-2.4-.25-2.58-2.63-3.28-4.35q-9.79-23.84-19.46-47.74c-.89-2.19-3.43-5.34.81-6.45,3-.79,6.79-1.63,8.54,2.94,3.74,9.71,7.7,19.34,11.57,29C595.4,241,595.43,242.66,597.82,243.4Z"/><path class="cls-1" d="M645,227.42c-4.92,10.78-9.89,21.69-14.9,32.58-.7,1.53-1.24,3.52-2.48,4.32a7.43,7.43,0,0,1-8.27,0c-2.39-1.68-.11-4.07.71-5.84,7.28-15.85,14.71-31.64,22.12-47.43.81-1.72,1.27-4.15,3.45-4.33,2.79-.24,3.17,2.57,4,4.46,7.1,15.67,14.18,31.35,21.12,47.09.9,2.06,4,5.17-.25,6.52-3.15,1-7,1.78-9-3.17-4.16-10.34-8.79-20.48-13.32-30.66C647.64,229.77,647.62,228,645,227.42Z"/><path class="cls-1" d="M685.54,239.84c0-5.56-.32-11.15.1-16.68.38-5-1.13-7-6.3-6.45-3.26.37-6.93,1-6.93-4.57s3.62-4.66,6.93-4.67c8,0,16,.1,23.95-.06,3.56-.07,5.35.9,5.34,4.86,0,4.18-2.3,5.08-5.57,4.47-6.94-1.28-7.84,2.18-7.63,8.06.41,11.59,0,23.21.18,34.81.06,3.85-.83,5.75-5.17,5.76-4.55,0-5-2.33-5-5.95C685.66,252.9,685.54,246.37,685.54,239.84Z"/><path class="cls-1" d="M396.69,320.6c0-8,.14-16-.07-24-.09-3.77,1.27-5.13,5-5.14s5.13,1.5,5.09,5.18c-.12,12.34.17,24.69-.17,37-.14,5,1.24,7.06,6.4,6.4,2.86-.37,5.81.07,8.71-.09,3.55-.19,4.52,1.51,4.56,4.82.05,3.54-1.39,4.64-4.75,4.56-6.77-.16-13.56-.17-20.33,0-3.61.09-4.57-1.57-4.52-4.84C396.78,336.57,396.69,328.58,396.69,320.6Z"/><path class="cls-1" d="M520.36,241c0-4.35-.27-8.72.06-13.05.55-7.1.58-13.25-9.6-11.25-3,.59-3.41-1.83-3.42-4.26,0-2.61.08-4.9,3.64-4.89,9.43,0,18.87.05,28.3,0,3.53,0,3.74,2.14,3.77,4.78,0,2.8-.66,5.09-4,4.45-9.19-1.76-9.29,3.64-9,10.38.39,10.86,0,21.76.18,32.64.06,3.92-1.08,5.65-5.34,5.61s-4.66-2.18-4.59-5.51C520.46,253.54,520.37,247.25,520.36,241Z"/><path class="cls-1" d="M552.51,235.48c0-7.77.11-15.53,0-23.29-.06-3.33.93-4.85,4.53-4.8,3.43.06,5.54.71,5.52,4.76q-.15,24.39,0,48.77c0,3.69-2,4.37-5.1,4.38s-5-.55-4.95-4.35C552.64,252.47,552.51,244,552.51,235.48Z"/><path class="cls-1" d="M655.33,320.44c0-7.76.15-15.53-.06-23.28-.11-4,1.14-5.68,5.36-5.67s4.72,1.94,4.69,5.41q-.18,23.64,0,47.3c0,3.59-.79,5.31-4.8,5.24-3.66-.06-5.32-1.12-5.24-5C655.45,336.45,655.33,328.44,655.33,320.44Z"/></g></g></g></svg>