<?xml version="1.0" encoding="utf-8"?>
<!-- Generator: Adobe Illustrator 25.2.1, SVG Export Plug-In . SVG Version: 6.00 Build 0)  -->
<svg version="1.1" id="Layer_1" xmlns="http://www.w3.org/2000/svg" xmlns:xlink="http://www.w3.org/1999/xlink" x="0px" y="0px"
	 viewBox="0 0 1200 522" style="enable-background:new 0 0 1200 522;" xml:space="preserve">
<style type="text/css">
	.st0{fill:#040403;}
	.st1{fill:#040404;}
	.st2{fill:#020202;}
	.st3{fill:#050505;}
	.st4{fill:#030303;}
	.st5{fill:#FDC753;}
	.st6{fill:#FCC753;}
	.st7{fill:#FCFCFC;}
	.st8{fill:#D63B3A;}
	.st9{fill:#FBFBFB;}
	.st10{fill:#FDFDFD;}
	.st11{fill:#02A8D9;}
	.st12{fill:#1C9F4E;}
	.st13{fill:#FAFAFA;}
</style>
<g id="vumeOk.tif">
	<g>
		<path class="st0" d="M270.9884644,2.0618868c3.1973877,1.9448223,6.9888,1.2381694,10.415741,2.4090438
			c15.2428284,5.2080321,25.1751709,15.4910965,28.5704956,31.11796c3.40802,15.6855927-1.3829041,29.387085-13.4073486,39.9927673
			c-4.1339417,3.6461716-4.9276428,6.8308411-3.164917,11.7563934c3.3218079,9.2820587,8.2758179,17.562088,14.0914307,25.4386673
			c7.8905334,10.6868057,14.0665894,22.2220306,14.8284607,35.7722931
			c1.1547852,20.5387268-7.3044128,36.8420715-23.22052,49.4189911c-2.7744141,2.1923676-2.9789124,3.2567291-0.55896,5.9784851
			c35.6482544,40.0944977,60.0671387,85.9160309,69.9980469,138.9148102
			c3.9407349,21.0307312,6.317627,42.3400879,2.6668091,63.5937805
			c-5.0067749,29.1473694-32.3218079,47.4945984-61.434845,42.006012c-2.8641663-0.5399475-2.6231689,1.0540466-2.8290405,2.6087036
			c-0.9463501,7.1455688-1.4412537,14.3339539-3.54422,21.3210754c-8.3504944,27.7444153-33.550293,46.5341797-62.460495,45.4025879
			c-20.0084381-0.7831421-35.9677734-9.9794312-47.7305908-26.2277222
			c-1.6695251-2.3062134-3.0905609-4.7918091-4.6440887-7.2217102c-1.6795959,0.4885254-1.9202118,2.1800842-2.6714172,3.3986816
			c-13.2440186,21.4848633-37.6145325,33.5202942-60.1982269,29.6823425
			c-26.5171738-4.5064697-47.2936783-23.8083801-52.8526382-49.047699
			c-1.2324677-5.5957031-1.7643127-11.2739563-2.2351456-16.9622498c-0.2040939-2.4657288-0.8287354-3.1657104-3.7444916-2.6376343
			c-32.2840385,5.8471069-61.5297012-17.9442749-62.7375107-50.7697754
			C1.7400315,333.1899719,22.8731327,276.053833,61.0489616,224.5394745
			c5.2979546-7.1490631,11.068264-13.9750519,16.9789085-20.6326904c2.4603806-2.771347,1.9860611-3.904541-0.68927-6.0263977
			c-17.2365189-13.6705933-25.3838806-31.3654327-22.6238899-53.4585571
			c1.4753418-11.8098145,7.1769981-21.9052505,14.0831413-31.3357468
			c5.9776764-8.1626587,11.1899109-16.6417084,14.4600143-26.3392334c1.5996628-4.7437744,0.6920013-7.663887-3.015358-10.9145279
			C68.4907913,65.5283127,63.4929123,52.38937,66.3505478,36.9626427
			C69.3540192,20.7485638,79.0953522,9.8232269,94.8148651,4.7124143
			c19.3222198-6.2821484,40.2880096,2.5503597,49.4830627,20.8254757c1.5522156,3.0850525,2.8213348,3.58848,5.9155426,2.5717373
			c25.5980682-8.411417,51.2309265-8.1260624,76.7871704,0.215023c2.5006256,0.8161564,3.467865,0.590498,4.7939911-2.0165787
			c6.9726868-13.7077818,18.1672974-21.6526833,33.6248932-23.2960091c0.6904602-0.0734034,1.3138123-0.156162,1.5256958-0.9501753
			C268.2929688,2.0618868,269.6407166,2.0618868,270.9884644,2.0618868z M88.7895889,110.1220322
			c-4.9986725,7.119072-10.4749298,13.9242783-14.6249466,21.6062698
			c-10.3486023,19.1560822-5.1825104,43.3435516,11.4714661,54.0044708
			c1.4047394,1.1591644,2.7004776,2.4985504,4.2433014,3.4294586c1.721756,1.0388794,3.3499985,3.1835785,5.7781677,1.3769379
			c3.7269745-2.773056,7.9688187-4.8772736,11.0637741-8.4732056c11.1991959-7.4034729,20.6057587-16.8956146,30.3570633-25.9860992
			c5.9028168-5.6118622,11.5489502-11.4645844,16.7161865-17.7667084
			c9.369873-9.6487885,17.8050232-20.0830154,25.9297791-30.7780304c4.9424438-5.7629318,9.4876099-11.815033,13.3840485-18.3393402
			c10.1980743-13.9550858,19.0455475-28.7142181,26.6128998-44.2531624
			c1.0600281-2.1766739,1.5003967-3.4148941-1.4662476-4.2107315c-8.9537201-2.4019661-18.0145874-3.9602547-27.2873535-4.3024406
			c-1.4198914-0.0523949-2.5572357,0.2047539-3.6589661,1.1618347
			c-9.9015656,8.6015549-20.7907715,15.8667374-31.6234894,23.2065659
			c-5.4141235,3.2050171-10.8282623,6.4100342-16.2424011,9.6150436
			c-12.7665024,6.2247238-25.7496948,11.9275818-39.3256302,16.186409
			c-1.2015305,0.3769302-2.2719879,0.6849899-2.0308304,2.2657394
			C95.392662,96.127449,92.3203354,103.2247314,88.7895889,110.1220322z M188.3125458,366.3433838
			c6.4635773-11.4729614,14.9454041-19.8705139,25.9617767-25.6808777
			c11.8037262-6.2256165,24.4510498-8.2581482,37.6258698-7.383606c3.0843048,0.2047424,3.4950562-0.5932617,2.332489-3.2854919
			c-2.8643494-6.6331482-5.9493103-13.144928-9.4534302-19.4694824c-2.783905-5.0245972-2.0428467-9.2111511,1.7728424-11.418457
			c4.0688477-2.3536987,8.1186066-0.7387085,11.0492249,4.5252686c5.3995667,9.698822,10.0511169,19.7453003,13.559082,30.2829285
			c0.903717,2.7146606,2.3181458,4.3661804,5.0578613,5.6110535c25.2350159,11.4662476,39.0661011,35.86203,36.0770264,63.3617859
			c-0.9621582,8.8520508-1.7659912,17.7452393-3.3256836,26.4981384c-0.740448,4.1548767,0.9328613,4.7955627,4.1592712,5.4009399
			c19.3409424,3.6290283,40.2702332-10.4492798,43.7321777-30.0070496
			c2.600708-14.6922607,1.657135-29.5412598-0.2232056-44.2220154
			c-7.4210205-57.9394226-32.9566345-107.318985-71.8634033-150.2944336
			c-1.5471191-1.7088776-2.7871704-2.178421-5.1276855-1.2823792c-9.9116821,3.7944946-19.238678,8.7077637-28.5935669,13.677475
			c-41.875412,22.2460175-83.8691101,22.4615173-125.7320328-0.1272583
			c-9.1732635-4.9497986-18.3890076-9.7481842-28.1643753-13.4360046c-2.351326-0.8870544-3.7000275-0.6754913-5.5180511,1.3250275
			c-33.4247131,36.7801361-57.1003876,78.742157-67.8516693,127.4975586
			c-4.6875687,21.2574158-7.2379055,42.7888489-4.5369987,64.568512
			c2.5538254,20.5935974,23.4573917,35.8385315,43.8536453,32.3719177c2.9426994-0.5001221,5.3949547-0.918457,4.5872536-5.2116089
			c-1.2403946-6.5930176-1.7403641-13.3222046-2.6468887-19.9811401
			c-4.5500374-33.4224854,6.4402313-55.1061707,35.9001923-70.4137878c2.1032715-1.0928955,2.7286148-2.6552429,3.3987198-4.5938721
			c3.6799698-10.6461792,8.2275467-20.9133606,13.7361832-30.7493286c2.9976654-5.3525391,6.8632584-7.1165771,10.9093246-4.9534607
			c4.1087189,2.1965942,4.7957458,6.463501,1.8972626,11.8110352c-3.9063416,7.2069092-7.6063843,14.5061646-10.4608078,22.7253723
			C149.5177917,331.0058289,172.646637,340.3996277,188.3125458,366.3433838z M101.8042679,194.5114899
			c0.7173996,1.7086182,2.076828,1.7789001,3.0689926,2.1315765c9.8635788,3.5063171,18.9388199,8.6026917,28.0968933,13.5643616
			c34.6915436,18.7951508,70.0625305,19.5095215,105.4846344,2.6584625
			c12.7155304-6.049057,25.0486603-12.8291168,38.0888519-18.3214111
			c17.0750427-7.1917419,29.1690674-19.2010345,31.1815491-38.7793121
			c1.3832092-13.4564514-4.6537781-24.4549561-12.2589417-34.7792664
			c-6.3116455-8.5683365-11.5488892-17.6455994-15.372406-27.627182
			c-4.3563538-11.3726883-2.7176514-20.6501083,6.8973694-28.8757095
			c9.1569519-7.8337288,11.8332214-18.1097565,7.6291199-29.6577797
			c-3.7127075-10.1983356-13.5835571-17.2149105-24.2828979-17.6074848
			c-11.2883911-0.4141922-21.3536377,5.9886036-26.2631226,17.0162106
			c-2.6690369,5.9951401-6.9365845,9.3872223-13.5813904,9.312851c-2.151413-0.0240784-3.1648407,0.6911697-4.1454315,2.6685829
			c-23.9047241,48.2058678-57.2294617,89.2200165-96.4848175,125.6826019
			C121.0290985,180.1030884,111.55513,187.5386047,101.8042679,194.5114899z M180.8809357,427.1639709
			c0-12.2457581,0.0444641-22.1720276-0.0129242-32.0977783c-0.053772-9.296875-2.4177246-18.026886-7.714447-25.6703186
			c-13.107666-18.9148865-31.7855835-24.2611389-53.5804901-20.8946228
			c-25.2535782,3.9007874-43.1119156,25.2313232-41.007637,49.9497986
			c1.8232193,21.4168396,4.4184647,42.8014526,7.6114426,64.0596313
			c3.4519653,22.9823608,24.864975,41.1618652,47.008728,41.1170044
			c22.7919159-0.0461731,42.8216705-17.5411072,46.8659515-41.0132446
			C182.2122955,450.0738525,180.086441,437.4236755,180.8809357,427.1639709z M298.2422485,397.541748
			c-0.1263733-8.0745544-1.0788574-14.2017822-3.6110535-19.9596863
			c-8.4664917-19.2516785-24.1404724-28.3014221-44.3320465-29.8612976
			c-31.4880066-2.4324951-55.1048737,19.5003357-54.687088,48.8742371
			c0.2389832,16.8028564,0.1996002,33.6139526-0.0303802,50.4170227c-0.0900574,6.5812683,0.0069733,13.0648804,1.655426,19.4618225
			c6.0935669,23.6468201,28.4101562,39.7181396,50.9585266,36.694397
			c20.9739838-2.8125916,38.0945282-18.8703918,41.9639435-39.9662476
			c1.6923523-9.2267761,2.5050964-18.6174011,3.6340332-27.9436646
			C295.3866272,422.0989685,296.9024048,408.9302979,298.2422485,397.541748z M175.6915283,37.3902245
			c-1.3052979,0.0770378-2.6299286,0.0378532-3.9126892,0.2506027c-6.6430359,1.1017799-13.1164856,2.8845253-19.5317688,4.9108238
			c-9.4324188,2.9792671-15.8039398-0.0017242-20.0628052-8.9634857
			c-4.9063797-10.3242378-13.1893463-15.9590378-24.6556168-16.3260956
			c-10.8493423-0.3473072-21.2051773,6.7016506-25.3766174,16.78022c-4.3442459,10.4960251-1.9673996,21.6851082,6.6990433,29.97995
			c4.1638336,3.9852982,8.4787979,7.7292404,9.542984,13.7913208c0.4043808,2.3035583,1.7012405,1.8067474,3.3321533,1.275444
			C129.05159,70.1871338,153.2862396,55.7385101,175.6915283,37.3902245z"/>
		<path class="st1" d="M1197.9033203,320.0514832c-3.8352051,5.1836853-8.2907715,8.9727783-15.4349365,8.1233826
			c-6.3878174-0.7594604-10.3642578-3.9560242-10.9129639-10.4129333
			c-0.5388184-6.3434753-0.3956299-12.7493896-0.4459229-19.1287231
			c-0.1308594-16.6322937,0.4145508-33.2982178-0.4777832-49.8880768
			c-0.8468018-15.7408447-12.8184814-26.0696259-27.5872803-25.4295807
			c-14.6085205,0.6331177-25.8599854,12.6266937-25.9645996,28.0740662
			c-0.1411133,20.843689,0.0269775,41.68927-0.0617676,62.5334778
			c-0.0440674,10.3240051-7.4542236,16.1186218-17.4591064,13.9108276
			c-6.1237793-1.3514099-9.1724854-5.3107605-9.2958984-12.5450745c-0.1289062-7.5623779-0.0303955-15.1286621-0.0303955-22.6932068
			c-0.0002441-25.3833618,0.0539551-50.766922-0.0380859-76.1499329c-0.0230713-6.342514,0.4952393-12.5176544,7.1646729-15.2861176
			c6.3458252-2.6340942,12.5556641-2.1433411,17.2446289,3.8317871c1.9104004,2.4344482,3.3548584,0.0717621,4.7235107-0.5973511
			c20.2487793-9.8990479,44.3455811-7.0017242,61.3291016,7.6519318
			c8.6702881,7.4808655,14.2680664,16.8401337,16.286499,28.2049255c0.1383057,0.7792969-0.0913086,1.7176666,0.9603271,2.069809
			C1197.9033203,268.230957,1197.9033203,294.1412354,1197.9033203,320.0514832z"/>
		<path class="st2" d="M791.5131836,132.4540863c-21.5440063,0-43.0884399-0.0736084-64.6314087,0.0782166
			c-3.2871704,0.0231476-4.1484375-0.8249664-4.1387329-4.1234131c0.118103-40.3417587,0.1122437-80.684082,0.0087891-121.0259247
			c-0.0081177-3.1898913,0.6639404-4.2439079,4.0935059-4.2339401c43.0875244,0.1252387,86.1756592,0.1265972,129.2632446,0.0002563
			c3.5592041-0.0104363,4.4407349,0.9621086,4.4299927,4.4589505c-0.123291,40.1736374-0.1274414,80.3479614,0.0067139,120.5215302
			c0.0117798,3.5264587-0.8424072,4.4431915-4.4009399,4.4135895
			C834.6018066,132.3641052,813.0571899,132.4540863,791.5131836,132.4540863z M833.003479,90.7886505
			c-2.2093506-0.0335236-3.2636719,1.1762009-4.5506592,1.8608093c-12.8117065,6.815155-26.2081909,10.294342-40.7908325,7.3004532
			c-15.6296387-3.2088394-25.5056763-14.1109161-26.874939-29.7633514
			c-1.2323608-14.087162,7.6263428-27.4603348,21.9616089-32.6387939
			c11.0240479-3.9822845,22.1184692-3.0870514,33.1409912,0.3202858c5.4157715,1.6741638,10.3773804,4.4321976,16.102356,7.0197182
			c0-5.2209702-0.0600586-9.8639832,0.0325928-14.5039501c0.0323486-1.6228256-0.651062-2.4186249-2.0717773-2.9705048
			c-16.994751-6.6014442-34.2420654-9.8065262-52.15271-3.8496494c-19.2993164,6.418726-32.8587036,23.209095-33.7412109,41.6994324
			c-0.9450073,19.799324,9.6290283,37.3008118,28.1749878,45.3263931
			c16.4889526,7.1353836,33.4291992,6.3237305,50.2516479,0.944664
			c10.5682373-3.3792419,10.5181885-3.5354919,10.5180054-14.4103851
			C833.00354,95.1091995,833.003479,93.0946426,833.003479,90.7886505z"/>
		<path class="st3" d="M633.2474976,132.4617767c-21.2091675,0-42.4188843-0.0829926-63.6268311,0.0780334
			c-3.7299805,0.0283203-5.1389771-0.6278687-5.1199951-4.830246c0.1796875-39.8404312,0.1583862-79.6821594,0.0245361-119.5229492
			c-0.0128174-3.8347263,0.7902832-5.0824175,4.9185791-5.0662203c42.7542725,0.1677446,85.5097046,0.1751297,128.263855-0.0079858
			c4.2836914-0.0183468,4.8278198,1.4755292,4.8171997,5.1584797c-0.1151123,39.8408813-0.1245117,79.6823959,0.015564,119.5231171
			c0.0130005,3.6974792-0.7796631,4.8044128-4.6565552,4.7671356
			C676.3400879,132.3539734,654.7932739,132.4617615,633.2474976,132.4617767z M649.8029175,65.1632462
			c0.2081299-1.2333374,1.3540649-1.4516869,2.1366577-2.019928c7.7791748-5.6482506,10.8325806-13.741909,8.1941528-22.9885483
			c-3.1549683-11.0570812-11.5238647-16.3337479-22.1830444-17.8001995
			c-11.354187-1.5620556-22.8673706-0.3120499-34.3059082-0.6088276c-2.4642944-0.0639381-2.6246948,1.3313942-2.62323,3.2008076
			c0.0221558,28.759367,0.0426636,57.5188217-0.0339355,86.2780075c-0.0066528,2.4593201,0.7837524,3.1211243,3.1636963,3.0924225
			c11.9539795-0.1441803,23.9107666-0.0624008,35.8646851-0.2123337c4.572937-0.0573578,8.9984131-1.2080612,13.2150269-2.9707413
			c9.6646118-4.0401459,15.5704956-11.0536728,16.0957031-21.7230453
			c0.4891968-9.9370117-5.3824463-18.2434616-15.4414062-22.6603928
			C652.5455322,66.162178,651.156311,65.6862411,649.8029175,65.1632462z"/>
		<path class="st2" d="M474.852478,132.4554901c-21.3859558,0-42.7727356-0.0967407-64.1570129,0.0938263
			c-3.627655,0.0322876-4.354126-0.9940948-4.3430481-4.4490662c0.1283875-40.1929626,0.132843-80.3866425-0.0043945-120.5795441
			c-0.0123291-3.60727,1.0032349-4.3821859,4.4818726-4.3721056c42.9399109,0.1244321,85.8804932,0.1308627,128.8203125-0.0075812
			c3.6690674-0.0118296,4.3453979,1.1190438,4.3355103,4.5144763c-0.1169434,40.1930161-0.1287842,80.3866882,0.0151367,120.5795212
			c0.0131226,3.6504364-1.076355,4.327652-4.4860229,4.3021545
			C517.961731,132.3761597,496.4067993,132.4555054,474.852478,132.4554901z M491.0292053,64.9364395
			c6.4665222-4.0000191,10.6223145-8.7505951,11.4182129-15.8252487
			c1.5482483-13.7618828-7.9620056-25.0766888-23.2514038-26.8530445
			c-11.2059021-1.3019333-22.5134277-0.1958637-33.7677612-0.5490646c-2.8491516-0.0894184-2.7825317,1.4476089-2.7805786,3.445055
			c0.027832,28.5614052,0.0448303,57.1229095-0.0272522,85.684166c-0.0061951,2.4511795,0.3768921,3.5492783,3.2266541,3.5044861
			c11.6046753-0.1823578,23.2140503-0.0425644,34.8204041-0.1555176c5.2515564-0.0511093,10.3452454-1.270874,15.125824-3.3892365
			c8.3989563-3.7217178,13.8306274-9.9649582,15.0620422-19.2735672
			C512.4129028,79.7503815,505.8208618,70.70961,491.0292053,64.9364395z"/>
		<path class="st2" d="M648.8737793,426.800415c0,3.3826294,0,5.3163452,0,7.250061
			c-0.000061,22.2061768,0.0362549,44.4124146-0.0162354,66.6184692
			c-0.024292,10.2877197-5.515625,16.4686279-14.3461304,16.4008789
			c-8.5010986-0.0651855-13.7494507-5.7384949-13.7663574-15.1811523
			c-0.0505371-28.2622986-0.0182495-56.5247803-0.0182495-84.7871399c0-10.2619629-0.0012207-20.5238953,0.0004272-30.7858582
			c0.0014648-9.1447449,2.725769-14.2183838,8.8338013-16.4611816c6.8649902-2.5206909,16.2926025-0.2233887,21.2515869,5.4815979
			c7.6390991,8.7882996,13.3059082,18.9610291,19.6860352,28.6268616
			c11.8406372,17.9383545,23.5706177,35.9496155,35.4876099,54.1459351c1.496582-1.4679871,0.7801514-3.214325,0.7836304-4.7051697
			c0.0535278-22.7106934-0.0253296-45.4218445,0.0646973-68.1322937
			c0.0429077-10.8371277,5.895813-16.8614807,15.4191284-16.2654724c6.8936157,0.4313965,11.5788574,4.8790588,12.5823364,12.138855
			c0.2977295,2.1539917,0.2730103,4.3623352,0.2739258,6.5458069c0.0150757,36.84198,0.0108032,73.68396,0.0106812,110.5259399
			c0,0.8411255,0.0174561,1.6828003-0.0053101,2.5233154c-0.1773682,6.5573425-1.6350708,12.7314453-8.5046387,15.1893311
			c-7.0323486,2.5161133-14.012207,1.6259766-19.8764038-3.4365234c-3.8425903-3.3172607-6.5884399-7.6104126-9.3518066-11.8356018
			c-15.1651001-23.1880188-30.324646-46.3797302-45.492981-69.5657043
			C651.2089233,430.0509949,650.4613647,429.0542908,648.8737793,426.800415z"/>
		<path class="st1" d="M805.7020264,209.1235962c0-8.0383606-0.0633545-15.4130402,0.0147095-22.7862396
			c0.1193237-11.2693787,9.2938843-17.4343262,19.7844849-13.3537292c4.9018555,1.9067078,6.6223145,5.9781342,6.9360962,10.7566986
			c0.2420654,3.6843109,0.0750122,7.3959351,0.0751953,11.0954285c0.0021973,39.5206146,0.0178833,79.0412292-0.0097656,118.5618286
			c-0.0072021,10.2250061-5.708374,15.6143188-15.3660889,14.7006836
			c-5.1882935-0.4907837-7.8449707-2.6287231-11.0773315-8.9899902
			c-16.5091553,10.7882996-34.4609375,13.040863-53.114502,7.6106873
			c-22.5460205-6.5632935-40.1275024-29.3454895-42.2366333-53.3826294
			c-1.5218506-17.3439484,0.7475586-33.8205414,10.7999878-48.5855408
			c17.3394165-25.467926,52.298645-33.6571045,79.2111206-18.5490265
			C802.1608276,207.0109863,803.5726929,207.8729248,805.7020264,209.1235962z M738.1157837,263.0742188
			c0.0289307,8.2470093,1.0534668,15.3799133,4.1112671,22.0485229c5.491272,11.9750061,14.5126953,19.225647,28.0686035,19.568512
			c13.6604004,0.3455811,23.6375732-5.8885193,29.3623047-18.2036743
			c6.9749756-15.0046692,6.8685303-30.3378296-0.0599976-45.2793579
			c-5.4512939-11.7558441-15.1478882-17.54422-28.2242432-17.5566406
			c-13.0688477-0.0123901-22.4421997,5.8987885-28.3459473,17.4438477
			C739.345459,248.2962189,738.2510376,256.0574646,738.1157837,263.0742188z"/>
		<path class="st2" d="M1092.2614746,398.085907c0-8.1471863-0.0783691-15.5350037,0.019043-22.9205017
			c0.1343994-10.2031555,6.3878174-15.438385,16.420166-13.8908386c6.7995605,1.0488586,10.2452393,5.0684814,10.3270264,12.6220093
			c0.1270752,11.7750854,0.03479,23.5525208,0.03479,35.3289795c0.0002441,31.1234741,0.0239258,62.2469788-0.0133057,93.3703918
			c-0.0123291,10.1522827-6.28479,15.6084595-16.1879883,14.3352661c-5.2950439-0.6807251-8.2987061-3.9848633-10.2214355-9.0458069
			c-9.3922119,6.2458801-19.4768066,9.6798401-30.5935059,10.2323914
			c-30.1186523,1.4968872-54.7087402-15.5571289-62.4701538-44.8378906
			c-6.578064-24.8163757-3.0012207-47.9434204,14.9732666-67.6711121
			c18.6107788-20.4258728,51.3283081-22.3240967,72.5211792-10.5326538
			C1088.5135498,395.8789062,1089.928833,396.7312927,1092.2614746,398.085907z M1090.9091797,453.227417
			c0.1274414-7.6562805-1.0128174-15.0921021-4.230957-22.0848389
			c-5.6099854-12.1898499-15.2508545-18.5613403-28.6368408-18.637146
			c-12.8900146-0.0730286-22.7912598,5.5110474-28.3928223,17.3468018
			c-6.4904785,13.7140808-6.78479,27.9244385-1.692749,42.1012878
			c5.0023193,13.9272766,15.8505859,21.6540222,29.6027832,21.7287292
			c13.8861084,0.0753784,24.614502-7.4752197,30.0333252-21.2251892
			C1090.0233154,466.2877197,1091.022583,459.8456726,1090.9091797,453.227417z"/>
		<path class="st2" d="M1029.0544434,275.8032837c-11.6208496,0-23.2460938,0.1834106-34.8600464-0.0983276
			c-4.1315308-0.1002502-4.3239136,1.3458862-3.3070679,4.5856628c8.4945679,27.0646667,33.7791748,28.086853,49.8303223,19.8021851
			c4.0218506-2.0759583,7.7712402-4.6869507,11.822998-6.6952209c5.7426758-2.846405,11.199707-2.2525024,14.536377,1.1748962
			c3.8861084,3.9916077,4.6312256,11.0611267,1.7525635,16.452179c-1.7148438,3.2113953-4.2297363,5.7221375-7.3466797,7.4509888
			c-20.2470703,11.2302551-41.6449585,14.9577026-63.4986572,6.2775574
			c-20.2543335-8.0448303-31.8405762-24.1983337-35.8109131-45.4365234
			c-4.3632202-23.3401031-0.3984985-44.8173523,16.2211304-62.8297577
			c16.5088501-17.8924103,46.0964966-23.2220764,69.4553833-12.528656
			c21.5938721,9.8854523,33.1114502,32.5311432,31.6293945,57.7021942
			c-0.5478516,9.3052979-5.5863037,13.9022217-15.0584717,14.0635681
			c-11.7856445,0.2007446-23.5772705,0.0481567-35.366333,0.0481567
			C1029.0544434,275.7825317,1029.0544434,275.7929077,1029.0544434,275.8032837z M1020.7243652,251.2463531
			c9.0800781,0,18.1627197-0.1190948,27.2388916,0.0679932c2.9665527,0.0611572,3.8354492-0.8912659,3.5396729-3.7256775
			c-0.5925293-5.6809387-2.3707275-10.8390198-6.4492188-14.9356537
			c-9.0450439-9.0851593-20.1895752-11.0869751-32.1022339-8.1440582
			c-12.0613403,2.9796295-18.5827637,11.8815613-22.1338501,23.2870789
			c-0.7744751,2.4874115-0.3172607,3.5708771,2.6676636,3.513504
			C1002.5620117,251.1351013,1011.6442871,251.2463226,1020.7243652,251.2463531z"/>
		<path class="st2" d="M813.7315063,464.5779419c-11.9519043,0.0001221-23.9042358,0.0607605-35.8552246-0.0445862
			c-2.8083496-0.0247803-3.7728882,0.2476807-2.8528442,3.5563354
			c7.3580933,26.4608154,32.0050659,30.0821228,49.9401245,21.0575256
			c4.0374756-2.0315857,7.7659912-4.6746521,11.8004761-6.7129517c6.0594482-3.0612488,11.4472656-2.4506226,14.8678589,1.3252258
			c3.8953857,4.2998352,4.526123,11.0733643,1.4732056,16.4410706c-1.8742065,3.2952881-4.5792847,5.8778381-7.8637695,7.6359253
			c-19.675354,10.5317993-40.4382935,14.3510132-61.6607056,6.2897949
			c-23.0560303-8.7576294-34.8898926-27.0525818-37.8260498-50.9906616
			c-3.0701904-25.0299683,2.7626953-47.5646973,23.5858765-63.4067993
			c20.482666-15.5829468,43.5927734-16.6792603,65.9951782-4.9501343
			c22.0325928,11.5354614,29.366272,32.0923767,28.382019,55.9564514
			c-0.3796997,9.2079163-5.6967163,13.7734985-15.140625,13.8269958
			C836.9621582,464.6279297,825.3466797,464.5778503,813.7315063,464.5779419z M774.5059814,440.0213013
			c19.2512207,0,38.0924683,0.0000305,56.9337769-0.0000305c0.6733398,0,1.3562622-0.0745239,2.0182495,0.0116882
			c2.5062866,0.326355,2.741394-1.115448,2.5405884-3.0594788c-0.6596069-6.3878174-2.7365112-12.2645264-7.6030884-16.5575562
			c-9.8562622-8.6947021-21.5267334-10.129364-33.5356445-6.1630249
			C782.8887939,418.2067566,777.227356,427.8805237,774.5059814,440.0213013z"/>
		<path class="st2" d="M940.0046387,464.5770569c-11.9581299,0.0010376-23.918335,0.1226807-35.8731079-0.0752563
			c-3.4580688-0.0572205-3.8793335,0.9828186-3.0422363,4.0183411
			c6.1246338,22.2097473,29.5165405,31.9535522,49.8302612,20.6351929
			c3.5185547-1.9605408,6.8664551-4.2298584,10.4051514-6.1506348c7.0490723-3.8260498,13.2332153-3.2006531,16.9348755,1.5353394
			c4.0288086,5.1547241,3.3813477,13.7007751-1.6541748,18.9682922
			c-5.4056396,5.6547241-12.4953613,8.3514404-19.7609253,10.6051941
			c-16.6973267,5.1793823-33.5285645,6.3873291-49.807373-0.9041748
			c-19.7290649-8.8368835-31.0135498-24.7170105-34.6743164-45.7835999
			c-3.8902588-22.387146-0.2693481-43.1148071,15.2206421-60.7800293
			c15.3634644-17.520874,42.5819702-23.9220581,66.2693481-15.5475159
			c20.7285767,7.3284912,34.7451172,27.1614075,35.8325806,50.7801819c0.1389771,3.0187378,0.2192993,6.0602112,0.0194702,9.0707703
			c-0.5762939,8.6798401-5.5945435,13.5039673-14.3314819,13.5960693
			C963.5849609,464.6694336,951.7943115,464.5760498,940.0046387,464.5770569z M931.3978271,440.0210876
			c9.0903931,0,18.1808472,0.0185852,27.2711182-0.016571c1.7002563-0.0065613,3.6896362,0.6953735,3.34375-2.627655
			c-0.9104004-8.7445984-4.4959106-15.7244873-12.1463623-20.3558044
			c-18.6118164-11.2671204-41.1867065-2.7554626-48.2036133,18.0078125
			c-1.2719116,3.7638245-1.2269897,5.2873535,3.4782104,5.0949402
			C913.8800049,439.7664185,922.644104,440.0213318,931.3978271,440.0210876z"/>
		<path class="st1" d="M514.5879517,250.0608978c0-21.1878815-0.0415039-42.375885,0.0170898-63.5636292
			c0.0303345-10.9413757,7.487915-16.5941315,18.1171265-13.9414215c5.0227661,1.2535553,7.9251099,4.5017548,8.2547607,9.5362549
			c0.4053955,6.1912231,0.5392456,12.4229889,0.3399048,18.6227875c-0.1306763,4.0619049,0.5551758,4.8321686,4.5841675,3.1021729
			c23.5257568-10.1016693,49.0443726-4.2007294,64.9818115,14.7674103
			c7.4091797,8.8181458,11.2626953,19.0518036,11.3397217,30.5208435
			c0.145874,21.6913757,0.1018677,43.3846741,0.0151367,65.0766907c-0.0388794,9.7209778-5.9780273,14.8890381-15.5861206,13.899353
			c-7.3633423-0.7584229-11.1102905-5.2876892-11.1644897-14.1096191
			c-0.1086426-17.6558533,0.0272827-35.3131714-0.0708618-52.9691162
			c-0.0297241-5.3512115,0.5349121-10.716095-0.8374634-16.0539856
			c-3.5940552-13.9797363-14.46875-21.9264679-29.0004272-20.9380646
			c-12.7261353,0.8655853-23.1087646,10.7888489-23.6328125,24.5296173
			c-0.7810669,20.4797058-0.4210815,41.0028076-0.5444946,61.5074463c-0.0111084,1.8497009,0.1027222,3.7073364-0.0298462,5.5477905
			c-0.5765381,8.0031738-5.8394775,12.6707153-14.0430908,12.5380554
			c-8.1518555-0.1318359-12.5649414-4.5089111-12.7059326-12.9960632
			c-0.1480103-8.9099121-0.0339355-17.8241577-0.0341187-26.7365112
			C514.5878296,275.6208801,514.5879517,262.8408813,514.5879517,250.0608978z"/>
		<path class="st4" d="M391.2052307,253.9386444c0.3112183-23.3969116,6.6582336-44.4704285,24.572052-60.6469727
			c24.9420471-22.5231934,66.2614746-18.3150177,86.4483643,8.5289917
			c4.1838074,5.5635071,4.6780701,12.8267822,1.252655,18.4076385c-5.4550781,8.8877258-15.9551086,9.2121277-22.4899292,0.4420776
			c-5.5046082-7.3874664-12.3739929-12.1746216-21.6941223-13.1254883
			c-12.0131531-1.2255859-21.8540649,2.6411285-29.025238,12.5032654
			c-12.7335205,17.5118866-13.1045227,49.4624939-0.8678589,67.3591919
			c11.9530334,17.481842,38.4712524,18.5496521,50.383606,1.5286865c4.8754883-6.9663696,13.1714172-9.2864075,19.5846252-5.1002808
			c6.4905396,4.2366028,8.7758484,14.0443726,4.3884888,21.0827332
			c-6.4450989,10.3393555-15.8141785,17.4414062-27.3362732,21.1684265
			c-31.5219421,10.1961365-63.9230652-0.9979248-79.1273804-38.1619568
			C392.8516846,277.065979,391.1193237,265.6624451,391.2052307,253.9386444z"/>
		<path class="st1" d="M445.0021667,453.2712097c-0.0000305-16.48172,0.0619812-32.9638062-0.0319214-49.4450073
			c-0.0353088-6.1983643,1.5859375-11.5431213,7.7140198-13.980896c6.0802002-2.4187317,12.049408-1.8709717,16.3806458,3.7142944
			c2.1243286,2.7394104,3.5872803,0.4482422,5.1059265-0.2220459c20.5810852-9.0843811,40.317749-8.0267029,58.5944214,5.4985352
			c13.5952759,10.0608521,20.0245361,24.056427,20.0717773,40.9175415
			c0.0588989,21.0224609,0.0614014,42.0453491-0.0081177,63.067749
			c-0.0296021,8.9341736-5.1043701,14.1907043-13.4356689,14.2528992
			c-9.0658569,0.067688-13.4735107-4.4920654-13.5054932-14.3175049
			c-0.0678101-20.8543091,0.1235962-41.7103271-0.0645752-62.5632019
			c-0.1661987-18.4270935-13.8778687-30.0168762-31.9336853-27.3590088
			c-12.4867554,1.8380127-21.8138733,13.4178467-21.8788452,27.4962463
			c-0.094635,20.5176086,0.0305176,41.0362549-0.047821,61.5540161
			c-0.0389099,10.1903687-5.270874,15.5028076-14.6069336,15.1774902
			c-8.1427917-0.2837524-12.3004456-4.6741333-12.3344116-13.336853
			C444.9555359,486.9076233,445.0021667,470.0892944,445.0021667,453.2712097z"/>
		<path class="st1" d="M844.6057129,263.8583984c0-16.4728699-0.0880127-32.9463654,0.0322876-49.4183502
			c0.074646-10.2095642,5.7064209-15.365097,15.5394897-14.478714c1.6352539,0.1474152,4.0006714,0.3237915,4.703125,1.3724823
			c4.5924072,6.8549042,9.3735352,2.6981659,14.4478149,0.8648529c30.2941895-10.9452209,63.4917603,5.3224487,71.3459473,34.849884
			c2.411499,9.0660248,2.1541138,18.3493958,1.4387817,27.5502319c-0.5380859,6.920166-6.4827271,11.1630249-13.9882812,10.8805847
			c-7.6802979-0.2890625-11.7548828-4.1343689-12.2805176-11.7814331
			c-0.2530518-3.6809998-0.3418579-7.3786316-0.3598022-11.0694733
			c-0.0841675-17.2607422-10.7802734-28.8609314-26.7663574-28.9638672
			c-15.6177979-0.1005554-27.0784912,11.7644348-27.2522583,28.7226257
			c-0.203186,19.8325958-0.0481567,39.6688385-0.0488892,59.5034943c-0.000061,1.3447266,0.0744019,2.6946106-0.0159912,4.0333252
			c-0.4825439,7.1420288-5.6427002,12.0206299-12.8619385,12.2094421
			c-8.4458008,0.2208862-13.4041748-3.3128357-13.6018677-11.3419495
			c-0.4341431-17.6347656-0.1347046-35.2875366-0.1347046-52.9329529
			C844.7369385,263.8585205,844.6713257,263.8584595,844.6057129,263.8583984z"/>
		<path class="st3" d="M700.5911255,249.8842621c0,21.3469086,0.0336304,42.6938629-0.0166626,64.0406647
			c-0.0200806,8.4859924-4.7588501,13.8068542-12.409668,14.2072449c-9.520874,0.4981995-14.335022-4.0188293-14.3656616-13.8398743
			c-0.072876-23.3637085-0.0235596-46.7277832-0.0236206-70.0917206c-0.000061-19.1617889-0.0388184-38.3236847,0.0149536-57.485321
			c0.0309448-11.0605469,7.1625366-16.6635895,17.8648071-14.1813965c6.0054932,1.392868,8.9061279,5.6002045,8.9212646,13.3097382
			C700.6184692,207.1904297,700.5911255,228.5373688,700.5911255,249.8842621z"/>
		<path class="st4" d="M406.4382324,456.9789734c0.0044861-15.4703064-0.1500854-30.942688,0.0578918-46.4102173
			c0.1428528-10.6210022,8.6654663-16.3864746,18.7816772-13.1558533c4.043335,1.2911987,6.6707153,3.8919373,7.4372559,8.0410156
			c0.5155334,2.7902222,0.8154907,5.6618042,0.8212585,8.4978027c0.0580444,28.5864258,0.0529175,57.1730042,0.0046387,85.7594299
			c-0.0042419,2.5017395-0.2069397,5.0518494-0.7214661,7.4945984c-1.3973083,6.6333008-6.3201904,10.0681152-13.7523499,9.8590088
			c-7.3186951-0.2059326-11.3590393-3.6212769-12.3837891-10.6605225c-0.2887878-1.9838257-0.2374573-4.0256958-0.2399597-6.0410461
			C406.425415,485.9017944,406.4337769,471.4403687,406.4382324,456.9789734z"/>
		<path class="st4" d="M661.1644897,267.6693726c-0.0009766,15.2964172,0.1281738,30.5943298-0.0440063,45.8888245
			c-0.1259155,11.1854248-8.1651611,17.0222473-18.6069336,13.9141235c-4.2822876-1.2746887-6.9376831-4.0133362-7.6922607-8.379303
			c-0.4550171-2.6328125-0.7558594-5.3287048-0.7607422-7.9969482c-0.0527954-28.7437744-0.0484009-57.4876862-0.0042114-86.2314606
			c0.0036011-2.3351135,0.2112427-4.7106476,0.6740723-6.9967041c1.413147-6.9801025,6.6174316-10.4850922,14.5968018-10.029892
			c7.0230103,0.40065,11.1094971,4.1534882,11.6044922,11.4305725c0.4099121,6.0254974,0.2113647,12.0943298,0.2268677,18.1440887
			C661.1842651,247.4981842,661.1655273,257.5838013,661.1644897,267.6693726z"/>
		<path class="st3" d="M662.1781616,186.0253296c0.132019,8.1450348-6.4017944,14.9037018-14.4168701,14.9129486
			c-7.6607056,0.0088501-14.8180542-7.2078552-14.744873-14.8671722c0.069519-7.2818909,6.8327026-14.0089417,14.2979736-14.2216034
			C654.7518311,171.637619,662.0578003,178.605545,662.1781616,186.0253296z"/>
		<path class="st3" d="M420.2600403,389.8644104c-7.8453064,0.081665-14.7540588-6.7356873-14.8395996-14.643219
			c-0.0830383-7.6788025,6.6433411-14.3082275,14.5098877-14.3006897
			c7.6709595,0.0073242,14.7587585,6.9489441,14.6516113,14.3493958
			C434.4677734,383.1593323,427.9666138,389.7841797,420.2600403,389.8644104z"/>
		<path class="st5" d="M188.3125458,366.3433838c-15.6659088-25.9437561-38.794754-35.3375549-67.8875961-32.853241
			c2.8544235-8.2192078,6.5544662-15.5184631,10.4608078-22.7253723c2.8984833-5.3475342,2.2114563-9.6144409-1.8972626-11.8110352
			c-4.0460663-2.1631165-7.9116592-0.3990784-10.9093246,4.9534607
			c-5.5086365,9.835968-10.0562134,20.1031494-13.7361832,30.7493286c-0.670105,1.9386292-1.2954483,3.5009766-3.3987198,4.5938721
			c-29.4599609,15.3076172-40.4502296,36.9913025-35.9001923,70.4137878
			c0.9065247,6.6589355,1.4064941,13.3881226,2.6468887,19.9811401c0.8077011,4.2931519-1.6445541,4.7114868-4.5872536,5.2116089
			c-20.3962517,3.4666138-41.2998199-11.7783203-43.8536453-32.3719177
			c-2.7009068-21.7796631-0.1505699-43.3110962,4.5369987-64.568512
			c10.7512798-48.7554016,34.4269562-90.7174225,67.8516693-127.4975586
			c1.8180237-2.0005188,3.1667252-2.2120819,5.5180511-1.3250275c9.7753677,3.6878204,18.9911118,8.4862061,28.1643753,13.4360046
			c41.8629227,22.5887756,83.8566208,22.3732758,125.7320328,0.1272583
			c9.3548889-4.9697113,18.6818848-9.8829803,28.5935669-13.677475c2.3405151-0.8960419,3.5805664-0.4264984,5.1276855,1.2823792
			c38.9067688,42.9754486,64.4423828,92.355011,71.8634033,150.2944336
			c1.8803406,14.6807556,2.8239136,29.5297546,0.2232056,44.2220154
			c-3.4619446,19.5577698-24.3912354,33.6360779-43.7321777,30.0070496
			c-3.2264099-0.6053772-4.8997192-1.2460632-4.1592712-5.4009399c1.5596924-8.7528992,2.3635254-17.6460876,3.3256836-26.4981384
			c2.9890747-27.4997559-10.8420105-51.8955383-36.0770264-63.3617859c-2.7397156-1.244873-4.1541443-2.8963928-5.0578613-5.6110535
			c-3.5079651-10.5376282-8.1595154-20.5841064-13.559082-30.2829285
			c-2.9306183-5.2639771-6.9803772-6.8789673-11.0492249-4.5252686c-3.8156891,2.2073059-4.5567474,6.3938599-1.7728424,11.418457
			c3.5041199,6.3245544,6.5890808,12.8363342,9.4534302,19.4694824c1.1625671,2.6922302,0.7518158,3.4902344-2.332489,3.2854919
			c-13.1748199-0.8745422-25.8221436,1.1579895-37.6258698,7.383606
			C203.2579498,346.4728699,194.776123,354.8704224,188.3125458,366.3433838z"/>
		<path class="st6" d="M101.8042679,194.5114899c9.7508621-6.9728851,19.2248306-14.4084015,28.058403-22.6134949
			c39.2553558-36.4625854,72.5800934-77.476738,96.4848175-125.6826019
			c0.9805908-1.9774132,1.9940186-2.6926613,4.1454315-2.6685829c6.6448059,0.0743713,10.9123535-3.3177109,13.5813904-9.312851
			c4.9094849-11.027607,14.9747314-17.4304028,26.2631226-17.0162106
			c10.6993408,0.3925743,20.5701904,7.4091492,24.2828979,17.6074848
			c4.2041016,11.5480232,1.527832,21.8240509-7.6291199,29.6577797
			c-9.6150208,8.2256012-11.2537231,17.5030212-6.8973694,28.8757095c3.8235168,9.9815826,9.0607605,19.0588455,15.372406,27.627182
			c7.6051636,10.3243103,13.6421509,21.3228149,12.2589417,34.7792664
			c-2.0124817,19.5782776-14.1065063,31.5875702-31.1815491,38.7793121
			c-13.0401917,5.4922943-25.3733215,12.2723541-38.0888519,18.3214111
			c-35.4221039,16.851059-70.7930908,16.1366882-105.4846344-2.6584625
			c-9.1580734-4.9616699-18.2333145-10.0580444-28.0968933-13.5643616
			C103.8810959,196.29039,102.5216675,196.220108,101.8042679,194.5114899z M191.8101959,201.4055634
			c12.4081879-0.0825806,24.4467316-9.2114868,28.260376-21.4262543c0.5655823-1.8115082,1.1082153-3.71521-0.7868805-5.0205536
			c-1.8218079-1.2548523-3.4463348-0.3226624-5.0489044,0.8206024
			c-15.0211639,10.7159729-30.1601257,12.1411591-45.4544983,0.5106049
			c-1.4883423-1.1318054-3.1342621-2.1637573-5.0179291-0.7010803c-1.8470154,1.4342651-1.287323,3.316864-0.7215424,5.0668945
			C166.9285583,192.6813965,179.1753845,201.4896545,191.8101959,201.4055634z M192.2930756,134.4278564
			c-4.9357605,0.2492218-9.8109131,0.4408417-14.4959564,1.9477234c-3.1834106,1.0238953-5.8253326,2.7566986-6.478653,6.3384857
			c-0.6809387,3.7332153,1.1402283,6.4177246,3.8907013,8.6905365c11.8013916,9.7518921,22.7824707,9.6733704,34.4607239-0.2788239
			c5.7368317-4.8889313,4.5662537-11.9743958-2.5305786-14.6001434
			C202.3517151,134.7542725,197.2577515,134.7375946,192.2930756,134.4278564z M234.4605255,91.4365845
			c-7.8722534,0.050148-14.1101379,6.3316269-13.9563293,14.0538712c0.147583,7.4092407,6.5667725,13.6858215,13.9749298,13.6644516
			c7.4565277-0.0214996,13.8811798-6.3248062,13.9586029-13.6949692
			C248.5198059,97.6495438,242.2776489,91.3867722,234.4605255,91.4365845z M241.779953,76.7476425
			c-2.446701-0.3220367-5.3437042,0.5930099-8.2234955,1.5458603c-2.2600555,0.7477875-5.0453644,1.4925995-3.8083801,4.6739731
			c1.0864563,2.7942963,3.434967,1.6675262,5.5970764,0.9634247c10.0773468-3.2817459,13.7711639-1.0017471,15.2466888,9.2558746
			c0.0715027,0.4969177,0.0349426,1.0083542,0.0801697,1.5101929c0.1691895,1.8778152,1.32164,2.6181488,3.0812378,2.5356522
			c1.6041565-0.0751877,2.3500214-1.1442642,2.6706696-2.5669174
			C258.3466797,86.1346207,251.1132812,76.8784561,241.779953,76.7476425z"/>
		<path class="st5" d="M180.8809357,427.1639709c-0.7944946,10.2597046,1.3313599,22.9098816-0.8293762,35.45047
			c-4.044281,23.4721375-24.0740356,40.9670715-46.8659515,41.0132446
			c-22.1437531,0.0448608-43.5567627-18.1346436-47.008728-41.1170044
			c-3.1929779-21.2581787-5.7882233-42.6427917-7.6114426-64.0596313
			c-2.1042786-24.7184753,15.7540588-46.0490112,41.007637-49.9497986
			c21.7949066-3.3665161,40.4728241,1.9797363,53.5804901,20.8946228c5.2967224,7.6434326,7.660675,16.3734436,7.714447,25.6703186
			C180.9253998,404.9919434,180.8809357,414.9182129,180.8809357,427.1639709z"/>
		<path class="st6" d="M298.2422485,397.541748c-1.3398438,11.3885498-2.8556213,24.5572205-4.4486389,37.7165833
			c-1.1289368,9.3262634-1.9416809,18.7168884-3.6340332,27.9436646
			c-3.8694153,21.0958557-20.9899597,37.153656-41.9639435,39.9662476
			c-22.5483704,3.0237427-44.8649597-13.0475769-50.9585266-36.694397
			c-1.6484528-6.3969421-1.7454834-12.8805542-1.655426-19.4618225c0.2299805-16.8030701,0.2693634-33.6141663,0.0303802-50.4170227
			c-0.4177856-29.3739014,23.1990814-51.3067322,54.687088-48.8742371
			c20.1915741,1.5598755,35.8655548,10.6096191,44.3320465,29.8612976
			C297.1633911,383.3399658,298.1158752,389.4671936,298.2422485,397.541748z"/>
		<path class="st7" d="M155.6852722,60.7978554c10.8327179-7.3398323,21.7219238-14.6050148,31.6234894-23.2065697
			c1.1017303-0.9570808,2.2390747-1.2142296,3.6589661-1.1618347c9.2727661,0.342186,18.3336334,1.9004745,27.2873535,4.3024406
			c2.9666443,0.7958374,2.5262756,2.0340576,1.4662476,4.2107315
			c-7.5673523,15.5389442-16.4148254,30.2980766-26.6121368,44.2526054
			c-5.4620972-0.9843445-10.1040955,0.4412994-13.2169037,5.151001c-2.8041992,4.242775-3.0970917,8.7551575-0.1679077,13.1888962
			c-8.1247559,10.695015-16.559906,21.1292419-25.9300537,30.7780457
			c-5.6784515-6.2459869-13.5158081-6.9822083-18.8507233-1.770752c-5.5687866,5.4399109-4.6875763,13.5045929,2.1348114,19.5374451
			c-9.7513046,9.0904846-19.1578674,18.5826263-30.3589401,25.985733
			c-6.8633804-7.8639374-17.4351578-6.024765-21.0833664,3.6671753
			C68.982132,175.0718536,63.81604,150.8843842,74.1646423,131.728302
			c4.1500168-7.6819916,9.6262741-14.4871979,14.6261597-21.6061554c4.6291122,3.7648697,9.6770782,4.4531784,14.3381348,1.9549942
			c4.4930115-2.4081192,6.8666382-7.3014526,6.1723633-12.7245255c-0.6974716-5.4479752-4.2400589-8.7608109-11.2148895-10.4875717
			c-0.2411575-1.5807495,0.8292999-1.8888092,2.0308304-2.2657394c13.5759354-4.2588272,26.5591278-9.9616852,39.3257828-16.186409
			C148.1081848,72.4168472,153.4249878,69.2693863,155.6852722,60.7978554z M202.4134521,58.5437737
			c-0.0899811-7.0443802-5.4003754-12.1399231-12.572113-12.0634727
			c-7.0824432,0.0755005-12.1062927,5.3407364-12.020401,12.5978889c0.0801086,6.7657814,5.397522,12.1902809,12.0297089,12.2719688
			C196.9910431,71.438118,202.5063477,65.8158951,202.4134521,58.5437737z M155.9013214,101.3341217
			c0.0417175-7.0310516-5.4467316-12.5279465-12.4297791-12.4488678
			c-6.7721863,0.0766754-12.0943298,5.452507-12.1208191,12.2430649c-0.0278625,7.1395035,5.2913666,12.4382095,12.411911,12.364006
			C150.6802979,113.4202499,155.8603973,108.2318115,155.9013214,101.3341217z M97.1382599,133.1822968
			c-7.0216217-0.0031128-12.1316452,4.993988-12.2423706,11.9718628c-0.1132202,7.1343842,5.177948,12.5008545,12.297287,12.4723206
			c7.0092468-0.0281372,12.1097488-5.0705872,12.1789093-12.040329
			C109.4454575,138.1921997,104.5074387,133.1855621,97.1382599,133.1822968z"/>
		<path class="st6" d="M175.6915283,37.3902245c-22.4052887,18.3482857-46.6399384,32.7969093-73.9653168,41.6987801
			c-1.6309128,0.5313034-2.9277725,1.0281143-3.3321533-1.275444c-1.0641861-6.0620804-5.3791504-9.8060226-9.542984-13.7913208
			c-8.6664429-8.2948418-11.0432892-19.4839249-6.6990433-29.97995c4.1714401-10.0785694,14.5272751-17.1275272,25.3766174-16.78022
			c11.4662704,0.3670578,19.7492371,6.0018578,24.6556168,16.3260956
			c4.2588654,8.9617615,10.6303864,11.9427528,20.0628052,8.9634857c6.4152832-2.0262985,12.8887329-3.8090439,19.5317688-4.9108238
			C173.0615997,37.4280777,174.3862305,37.4672623,175.6915283,37.3902245z"/>
		<path class="st8" d="M98.0864105,88.8650436c6.9748306,1.7267609,10.5174179,5.0395966,11.2148895,10.4875717
			c0.6942749,5.4230728-1.6793518,10.3164062-6.1723633,12.7245255c-4.6610565,2.4981842-9.7090225,1.8098755-14.3381348-1.9549942
			C92.3203354,103.2247314,95.392662,96.127449,98.0864105,88.8650436z"/>
		<path class="st8" d="M137.0784149,156.0798645c-6.8223877-6.0328522-7.703598-14.0975342-2.1348114-19.5374451
			c5.3349152-5.2114563,13.1722717-4.475235,18.8507233,1.770752
			C148.6273651,144.6152802,142.9812317,150.4680023,137.0784149,156.0798645z"/>
		<path class="st8" d="M85.6361084,185.7327728c3.6482086-9.6919403,14.219986-11.5311127,21.0833664-3.6671753
			c-3.0930786,3.5962982-7.3349228,5.7005157-11.0618973,8.4735718c-2.4281693,1.8066406-4.0564117-0.3380585-5.7781677-1.3769379
			C88.336586,188.2313232,87.0408478,186.8919373,85.6361084,185.7327728z"/>
		<path class="st8" d="M179.7243805,107.5351257c-2.929184-4.4337387-2.6362915-8.9461212,0.1679077-13.1888962
			c3.1128082-4.7097015,7.7548065-6.1353455,13.2169037-5.151001
			C189.2119904,95.7200928,184.6668243,101.7721939,179.7243805,107.5351257z"/>
		<path class="st8" d="M155.6852722,60.7978516c-2.2602844,8.4715347-7.5770874,11.6189957-16.2422485,9.6150436
			C144.8570099,67.2078857,150.2711487,64.0028687,155.6852722,60.7978516z"/>
		<path class="st9" d="M833.003479,90.7886505c0,2.3059921,0.000061,4.320549,0.000061,6.3351212
			c0.0001831,10.8748932,0.0502319,11.0311432-10.5180054,14.4103851
			c-16.8224487,5.3790665-33.7626953,6.1907196-50.2516479-0.944664
			c-18.5459595-8.0255814-29.1199951-25.5270691-28.1749878-45.3263931
			c0.8825073-18.4903374,14.4418945-35.2807083,33.7412109-41.6994324c17.9106445-5.9568768,35.157959-2.7517948,52.15271,3.8496494
			c1.4207153,0.5518799,2.104126,1.3476791,2.0717773,2.9705048c-0.0926514,4.639967-0.0325928,9.28298-0.0325928,14.5039501
			c-5.7249756-2.5875206-10.6865845-5.3455544-16.102356-7.0197182c-11.022522-3.4073372-22.1169434-4.3025703-33.1409912-0.3202858
			c-14.3352661,5.1784592-23.1939697,18.5516319-21.9616089,32.6387939
			c1.3692627,15.6524353,11.2453003,26.554512,26.874939,29.7633514c14.5826416,2.9938889,27.979126-0.4852982,40.7908325-7.3004532
			C829.7398071,91.9648514,830.7941284,90.755127,833.003479,90.7886505z"/>
		<path class="st7" d="M649.8029175,65.1632462c1.3533936,0.522995,2.7426147,0.9989319,4.0823975,1.5872192
			c10.05896,4.4169312,15.930603,12.723381,15.4414062,22.6603928
			c-0.5252075,10.6693726-6.4310913,17.6828995-16.0957031,21.7230453
			c-4.2166138,1.7626801-8.6420898,2.9133835-13.2150269,2.9707413
			c-11.9539185,0.1499329-23.9107056,0.0681534-35.8646851,0.2123337c-2.3799438,0.0287018-3.1703491-0.6331024-3.1636963-3.0924225
			c0.0765991-28.7591858,0.0560913-57.5186386,0.0339355-86.2780075c-0.0014648-1.8694134,0.1589355-3.2647457,2.62323-3.2008076
			c11.4385376,0.2967777,22.9517212-0.953228,34.3059082,0.6088276
			c10.6591797,1.4664516,19.0280762,6.7431183,22.1830444,17.8001995c2.6384277,9.2466393-0.414978,17.3402977-8.1941528,22.9885483
			C651.1569824,63.7115593,650.0110474,63.9299088,649.8029175,65.1632462z M617.5327759,86.1074448
			c0,4.2625046-0.0187988,7.7915497,0.0111084,11.3201828c0.0093384,1.0973206-0.3519897,2.6090317,1.5009766,2.5143433
			c8.5076294-0.4347382,17.1854248,1.4517899,25.4956055-1.6356964c5.2410278-1.9471741,8.0223999-5.8845444,8.0205078-11.0328445
			c-0.0020142-5.3560638-2.8803101-8.6837158-7.6394043-10.7423706c-4.7902222-2.0721741-9.8264771-2.0128326-14.8708496-1.9398727
			c-4.0022583,0.0578842-9.2134399-1.266098-11.6744385,0.7364731
			C615.755188,77.4604568,617.9089966,82.8772812,617.5327759,86.1074448z M617.5269165,47.8571548
			c0,3.193882,0.015625,6.3878746-0.0070801,9.5815964c-0.0101929,1.4420509,0.0646362,2.7091904,2.0349731,2.6841545
			c5.7033691-0.0724754,11.4852295,0.5263786,16.9772949-1.5632668c7.6762695-2.920723,10.2776489-12.7971077,4.9952393-18.6789398
			c-2.9900513-3.3293381-18.3949585-6.6493111-22.5500488-3.7333298c-3.5153198,2.4670296-0.7944946,7.4216042-1.4484253,11.2060966
			C617.5006104,47.5167046,617.5252686,47.6890526,617.5269165,47.8571548z"/>
		<path class="st10" d="M491.0292053,64.9364395c14.7916565,5.7731705,21.3836975,14.813942,19.8261414,26.588028
			c-1.2314148,9.308609-6.6630859,15.5518494-15.0620422,19.2735672c-4.7805786,2.1183624-9.8742676,3.3381271-15.125824,3.3892365
			c-11.6063538,0.1129532-23.2157288-0.0268402-34.8204041,0.1555176c-2.849762,0.0447922-3.2328491-1.0533066-3.2266541-3.5044861
			c0.0720825-28.5612564,0.0550842-57.1227608,0.0272522-85.684166c-0.0019531-1.9974461-0.068573-3.5344734,2.7805786-3.445055
			c11.2543335,0.3532009,22.5618591-0.7528687,33.7677612,0.5490646
			c15.2893982,1.7763557,24.7996521,13.0911617,23.2514038,26.8530445
			C501.6515198,56.1858444,497.4957275,60.9364204,491.0292053,64.9364395z M458.8243103,87.0192032
			c0.0577698,0.0023117,0.115509,0.0046234,0.1732788,0.0069351c0,3.3627853-0.0381165,6.7262268,0.0203552,10.0879974
			c0.0208435,1.2001343-0.5929871,2.9638443,1.6660156,2.8538132c8.2037048-0.3996582,16.5303345,1.1955795,24.6009216-1.2453613
			c5.6651001-1.7134018,8.9890747-6.0922318,9.0552063-11.3899841c0.0647888-5.1884689-3.3207703-9.5072708-9.0292053-11.4092026
			c-4.5543518-1.5174103-9.286499-1.483078-13.9962463-1.3190765c-3.9818726,0.138649-9.3934326-1.7650986-11.5440063,0.7697983
			C457.7217712,77.7890244,459.0056458,83.0240326,458.8243103,87.0192032z M458.9944153,48.0660744
			c0,3.1961403,0.0033875,6.3922806-0.0017395,9.5884132c-0.0019531,1.2098846-0.0633545,2.4611931,1.6870117,2.4422684
			c6.36203-0.0687714,12.8387451,0.7392044,18.8607178-2.1572571c4.6812744-2.2515984,6.7427979-6.4664803,6.2029114-12.1211281
			c-0.4817505-5.0459518-3.4481506-7.931366-8.1165161-9.0546455c-2.5884094-0.6228142-5.323761-0.8220673-7.9987793-0.8678246
			c-10.6337585-0.1818886-10.634613-0.1316719-10.6346436,10.656208
			C458.9933777,47.0567627,458.9933777,47.5614204,458.9944153,48.0660744z"/>
		<path class="st0" d="M191.8101959,201.4055634c-12.6348114,0.0840912-24.8816376-8.7241669-28.7693787-20.7497864
			c-0.5657806-1.7500305-1.125473-3.6326294,0.7215424-5.0668945c1.883667-1.462677,3.5295868-0.4307251,5.0179291,0.7010803
			c15.2943726,11.6305542,30.4333344,10.205368,45.4544983-0.5106049c1.6025696-1.1432648,3.2270966-2.0754547,5.0489044-0.8206024
			c1.8950958,1.3053436,1.3524628,3.2090454,0.7868805,5.0205536
			C216.2569275,192.1940765,204.2183838,201.3229828,191.8101959,201.4055634z"/>
		<path class="st0" d="M192.2930756,134.4278564c4.9646759,0.3097382,10.0586395,0.326416,14.8462372,2.0977783
			c7.0968323,2.6257477,8.2674103,9.7112122,2.5305786,14.6001434
			c-11.6782532,9.9521942-22.6593323,10.0307159-34.4607239,0.2788239c-2.750473-2.2728119-4.57164-4.9573212-3.8907013-8.6905365
			c0.6533203-3.5817871,3.2952423-5.3145905,6.478653-6.3384857
			C182.4821625,134.8686981,187.3573151,134.6770782,192.2930756,134.4278564z"/>
		<path class="st0" d="M234.4605255,91.4365845c7.8171234-0.0498123,14.0592804,6.2129593,13.9772034,14.0233536
			c-0.0774231,7.370163-6.5020752,13.6734695-13.9586029,13.6949692
			c-7.4081573,0.0213699-13.8273468-6.2552109-13.9749298-13.6644516
			C220.3503876,97.7682114,226.5882721,91.4867325,234.4605255,91.4365845z M241.6960449,100.4271698
			c-0.1766205-2.2505188-1.3340149-3.7921295-3.6290283-3.9665146c-2.2714539-0.1725998-3.9828033,1.1042099-4.2028961,3.35289
			c-0.2421265,2.4738159,1.113327,4.0665894,3.7809143,4.2006683
			C240.1398315,104.1396103,241.1568604,102.589119,241.6960449,100.4271698z"/>
		<path class="st3" d="M241.779953,76.7476425c9.3333282,0.1308136,16.5667267,9.3869781,14.6439667,17.9180603
			c-0.3206482,1.4226532-1.0665131,2.4917297-2.6706696,2.5669174c-1.7595978,0.0824966-2.9120483-0.6578369-3.0812378-2.5356522
			c-0.0452271-0.5018387-0.008667-1.0132751-0.0801697-1.5101929c-1.4755249-10.2576218-5.169342-12.5376205-15.2466888-9.2558746
			c-2.1621094,0.7041016-4.5106201,1.8308716-5.5970764-0.9634247c-1.2369843-3.1813736,1.5483246-3.9261856,3.8083801-4.6739731
			C236.4362488,77.3406525,239.333252,76.4256058,241.779953,76.7476425z"/>
		<path class="st11" d="M202.4134521,58.5437737c0.0928955,7.2721214-5.4224091,12.8943443-12.5628052,12.806385
			c-6.6321869-0.0816879-11.9496002-5.5061874-12.0297089-12.2719688
			c-0.0858917-7.2571526,4.9379578-12.5223885,12.020401-12.5978889
			C197.0130768,46.4038506,202.3234711,51.4993935,202.4134521,58.5437737z"/>
		<path class="st12" d="M155.9013214,101.3341217c-0.0409241,6.8976898-5.2210236,12.0861282-12.1386871,12.1582031
			c-7.1205444,0.0742035-12.4397736-5.2245026-12.411911-12.364006c0.0264893-6.7905579,5.3486328-12.1663895,12.1208191-12.2430649
			C150.4545898,88.8061752,155.9430389,94.3030701,155.9013214,101.3341217z"/>
		<path class="st5" d="M97.1382599,133.1822968c7.3691788,0.0032654,12.3071976,5.009903,12.2338257,12.4038544
			c-0.0691605,6.9697418-5.1696625,12.0121918-12.1789093,12.040329c-7.119339,0.0285339-12.4105072-5.3379364-12.297287-12.4723206
			C85.0066147,138.1762848,90.1166382,133.179184,97.1382599,133.1822968z"/>
		<path class="st2" d="M617.5327759,86.1074448c0.3762207-3.2301636-1.7775879-8.6469879,0.8435059-10.7797852
			c2.4609985-2.0025711,7.6721802-0.6785889,11.6744385-0.7364731c5.0443726-0.0729599,10.0806274-0.1323013,14.8708496,1.9398727
			c4.7590942,2.0586548,7.6373901,5.3863068,7.6394043,10.7423706c0.0018921,5.1483002-2.77948,9.0856705-8.0205078,11.0328445
			c-8.3101807,3.0874863-16.9879761,1.2009583-25.4956055,1.6356964c-1.8529663,0.0946884-1.4916382-1.4170227-1.5009766-2.5143433
			C617.5139771,93.8989944,617.5327759,90.3699493,617.5327759,86.1074448z"/>
		<path class="st3" d="M617.526062,47.8571548c-0.0007935-0.1681023-0.0254517-0.3404503,0.0028076-0.5036888
			c0.6539307-3.7844925-2.0668945-8.7390671,1.4484253-11.2060966c4.1550903-2.9159813,19.5599976,0.4039917,22.5500488,3.7333298
			c5.2824097,5.8818321,2.6810303,15.7582169-4.9952393,18.6789398c-5.4920654,2.0896454-11.2739258,1.4907913-16.9772949,1.5632668
			c-1.9703369,0.0250359-2.045166-1.2421036-2.0349731-2.6841545
			C617.5425415,54.2450294,617.5269165,51.0510368,617.526062,47.8571548z"/>
		<path class="st4" d="M458.8243103,87.0192032c0.1813354-3.9951706-1.1025391-9.2301788,0.9463196-11.6450806
			c2.1505737-2.5348969,7.5621338-0.6311493,11.5440063-0.7697983c4.7097473-0.1640015,9.4418945-0.1983337,13.9962463,1.3190765
			c5.7084351,1.9019318,9.0939941,6.2207336,9.0292053,11.4092026c-0.0661316,5.2977524-3.3901062,9.6765823-9.0552063,11.3899841
			c-8.0705872,2.4409409-16.3972168,0.8457031-24.6009216,1.2453613c-2.2590027,0.1100311-1.6451721-1.6536789-1.6660156-2.8538132
			c-0.0584717-3.3617706-0.0203552-6.7252121-0.0203552-10.0879974
			C458.9398193,87.0238266,458.8820801,87.0215149,458.8243103,87.0192032z"/>
		<path class="st3" d="M458.993866,48.0660744c-0.0004883-0.5046539-0.0004883-1.0093117-0.0004883-1.5139656
			c0.0000305-10.7878799,0.000885-10.8380966,10.6346436-10.656208c2.6750183,0.0457573,5.4103699,0.2450104,7.9987793,0.8678246
			c4.6683655,1.1232796,7.6347656,4.0086937,8.1165161,9.0546455c0.5398865,5.6546478-1.521637,9.8695297-6.2029114,12.1211281
			c-6.0219727,2.8964615-12.4986877,2.0884857-18.8607178,2.1572571c-1.7503662,0.0189247-1.6889648-1.2323837-1.6870117-2.4422684
			C458.9978027,54.4583549,458.9944153,51.2622147,458.993866,48.0660744z"/>
		<path class="st13" d="M241.6960449,100.4271698c-0.5391846,2.1619492-1.5562134,3.7124405-4.0510101,3.5870438
			c-2.6675873-0.134079-4.0230408-1.7268524-3.7809143-4.2006683c0.2200928-2.2486801,1.9314423-3.5254898,4.2028961-3.35289
			C240.36203,96.6350403,241.5194244,98.176651,241.6960449,100.4271698z"/>
	</g>
</g>
</svg>
