<?xml version="1.0" encoding="UTF-8"?>
<svg xmlns="http://www.w3.org/2000/svg" id="uuid-d4c5561a-7691-4641-8eac-138cdb8aa081" width="1500.62" height="211.27" viewBox="0 0 1500.62 211.27">
  <g id="uuid-69eed9e2-74b2-4f1f-a56a-123d54fa8581">
    <g>
      <g id="uuid-28e4c8d6-bf88-4f74-95cc-2e9839e3795d">
        <g>
          <path d="M267.7,97.31c0-13.78,.01-27.56-.03-41.34,0-1.03,.26-1.26,1.27-1.26,19.24,.03,38.48,.04,57.73,0,1.1,0,1.35,.28,1.33,1.35-.07,4.51-.08,9.02,0,13.53,.02,1.21-.4,1.37-1.45,1.37-11.53-.03-23.06,0-34.59-.05-1.22,0-1.46,.33-1.44,1.49,.07,4.96,.06,9.92,0,14.89-.01,.99,.28,1.2,1.22,1.19,10.95-.03,21.91,0,32.86-.05,1.06,0,1.27,.29,1.25,1.29-.06,4.55-.07,9.11,0,13.66,.02,1.17-.38,1.31-1.39,1.31-10.87-.03-21.74,0-32.62-.05-1.08,0-1.36,.25-1.34,1.34,.06,5.58,.05,11.16,0,16.73,0,.94,.21,1.22,1.2,1.22,12.06-.04,24.12,0,36.19-.05,1.11,0,1.42,.26,1.4,1.39-.07,4.55-.05,9.1-.01,13.66,0,.88-.12,1.25-1.16,1.25-19.78-.04-39.55-.03-59.33,0-.92,0-1.15-.22-1.14-1.14,.03-13.9,.02-27.81,.02-41.71Z" fill="#37326f"></path>
          <path d="M334.46,97.44c0-13.82,0-27.64-.02-41.47,0-.87,.08-1.28,1.15-1.27,9.97,.06,19.94-.06,29.91,.11,6.95,.12,13.81,1.1,20.26,3.93,8.19,3.59,12.71,9.95,13.85,18.71,.71,5.46,.57,10.89-1.57,16.09-3.01,7.32-8.68,11.72-15.94,14.33-5,1.8-10.2,2.33-15.47,2.44-2.71,.05-5.42,.05-8.12-.01-.93-.02-1.23,.19-1.23,1.19,.04,9.06,0,18.13,.06,27.19,.01,1.31-.39,1.5-1.55,1.49-6.65-.06-13.29-.05-19.94,0-1.07,0-1.43-.2-1.43-1.37,.05-13.78,.03-27.56,.03-41.34Zm22.86-14.92c0,3.56,0,7.13,0,10.69,0,.52-.05,.94,.72,.92,2.95-.07,5.9,.09,8.84-.27,6.23-.77,9.68-4.18,10.24-10.14,.63-6.69-2.45-10.91-9.01-12.34-3.24-.7-6.53-.34-9.8-.46-.83-.03-1.01,.25-1,1.03,.04,3.52,.02,7.05,.02,10.57Z" fill="#37326f"></path>
          <path d="M198.49,140.13c-8.6,0-17.13-.01-25.66,.02-.76,0-.96-.44-1.23-.95-3.17-5.91-6.35-11.82-9.53-17.73-.17-.32-.36-.64-.6-1.06-2.2,4.13-4.34,8.16-6.49,12.19-1.21,2.28-2.44,4.54-3.62,6.84-.26,.5-.53,.71-1.12,.71-7.92-.02-15.84-.02-23.75-.02-.07,0-.14-.04-.35-.11,1.35-2.03,2.67-4.03,4-6.02,5.67-8.48,11.33-16.97,17.02-25.43,.48-.71,.41-1.16-.02-1.84-6.2-9.69-12.38-19.41-18.56-29.12-.23-.37-.57-.69-.62-1.22,.22-.01,.41-.04,.6-.04,8.16,0,16.33,.02,24.49-.03,.87,0,1.1,.46,1.4,1.07,2.76,5.62,5.53,11.23,8.3,16.84,.14,.29,.3,.57,.55,1.06,.6-1.12,1.14-2.09,1.65-3.08,2.58-4.97,5.16-9.95,7.72-14.93,.3-.58,.56-.96,1.35-.95,7.55,.04,15.1,.02,22.65,.03,.16,0,.31,.03,.49,.04-.01,.52-.36,.83-.6,1.2-6.15,9.58-12.29,19.17-18.47,28.73-.56,.86-.51,1.44,.03,2.27,6.67,10.17,13.31,20.36,19.95,30.56,.17,.26,.43,.49,.4,.99Z" fill="#37326f"></path>
          <path d="M203.97,97.39c0-13.78,.01-27.56-.03-41.35,0-1.09,.26-1.35,1.34-1.34,6.77,.06,13.54,.05,20.31,0,1.04,0,1.26,.27,1.26,1.28-.03,21.82-.02,43.64-.02,65.46q0,1.7,1.77,1.7c10.75,0,21.5,.01,32.25-.02,.94,0,1.23,.21,1.22,1.19-.06,4.92-.05,9.84,0,14.77,0,.88-.25,1.07-1.09,1.06-18.63-.02-37.26-.03-55.89,0-.96,0-1.13-.29-1.13-1.17,.03-13.86,.02-27.73,.02-41.59Z" fill="#37326f"></path>
          <path d="M34.73,54.89c-4.44,5.04-7.55,10.78-8.79,17.42-1.65,8.79-.52,17.34,2.9,25.5,7.16,17.06,19.92,27.65,38.14,30.85,16.5,2.9,31.01-1.91,43.27-13.36,.15-.14,.31-.27,.46-.41,.06,.06,.11,.11,.17,.16-2.12,3.29-4.77,6.15-7.61,8.81-8.71,8.15-18.91,13.43-30.65,15.65-12.98,2.45-25.35,.99-36.6-6.29-12.16-7.87-19.51-19.03-21.42-33.43-2.04-15.39,2.6-28.71,13.42-39.84,1.94-1.99,4.06-3.82,6.46-5.26,.08,.07,.16,.14,.24,.21Z" fill="#37326f"></path>
          <path d="M87.67,103.9c2.63-3.1,4.96-6.4,6.59-10.16,2.71-6.24,3.5-12.76,2.75-19.48-1.42-12.74-6.84-23.5-16.34-32.1-8.86-8.01-19.33-12.37-31.28-12.87-14.03-.58-26.21,4.03-36.55,13.52-.29,.27-.51,.67-1.18,.53,.88-1.11,1.7-2.18,2.56-3.21,.9-1.07,1.81-2.12,2.77-3.13,.96-1.01,1.97-1.98,3-2.91,9.41-8.52,20.41-13.73,32.98-15.45,15.55-2.13,29.38,1.67,40.89,12.6,7.93,7.54,12.72,16.82,14.06,27.7,1.91,15.5-2.71,28.87-13.69,40-1.93,1.96-4.06,3.7-6.38,5.19-.06-.08-.12-.16-.18-.24Z" fill="#37326f"></path>
          <path d="M25.38,128.86c-3.68-2.44-6.86-5.44-9.77-8.73C6.71,110.11,1.55,98.45,.27,85.09c-1.31-13.71,2.11-26.02,11.18-36.51,7.97-9.21,18.07-14.69,30.21-16,15.48-1.67,28.74,3.15,39.67,14.26,1.81,1.84,3.44,3.84,4.82,6.04-.07,.04-.12,.09-.18,.15-2.83-2.37-5.77-4.57-9.13-6.17-6.51-3.1-13.35-4.01-20.47-3.28-11.05,1.13-20.74,5.36-28.87,12.9-11.66,10.82-17.15,24.3-16.26,40.16,.68,12.15,5.49,22.64,13.86,31.48,.17,.18,.33,.36,.49,.55-.07,.06-.14,.12-.21,.18Z" fill="#f19401"></path>
          <path d="M36.56,105.62c4.99,4.44,10.66,7.62,17.25,8.91,9.62,1.89,18.92,.5,27.71-3.56,15.77-7.26,25.7-19.5,28.92-36.57,3.14-16.63-1.49-31.29-12.94-43.77-.26-.29-.66-.48-.77-1.25,1.11,.85,2.05,1.52,2.94,2.26,12.28,10.12,19.81,23.02,22.18,38.76,2.31,15.4-1.21,29.26-11.91,40.87-7.94,8.62-17.83,13.76-29.54,14.81-18.18,1.64-32.76-5.02-43.66-19.68-.15-.2-.26-.42-.39-.63,.07-.06,.14-.12,.21-.18Z" fill="#f19401"></path>
          <path d="M140.92,172.47c.18,.33,.49,.33,.76,.41,4.25,1.3,6.6,4.17,6.81,8.31,.23,4.58-2,8.19-6.07,9.87-2.54,1.05-5.22,1.37-7.93,1.44-2.38,.06-4.76-.02-7.14,.03-.82,.02-1.13-.17-1.13-1.07,.03-11.98,.03-23.95,0-35.93,0-.84,.19-1.14,1.08-1.11,4.13,.14,8.29-.31,12.39,.49,6.59,1.28,9.69,7.73,6.63,13.68-1.14,2.22-3.13,3.24-5.41,3.87Zm-10.85,9.29c0,2.17,0,4.34,0,6.51,0,.35-.21,.89,.49,.88,3.18-.03,6.39,.25,9.47-.91,3.2-1.2,4.7-3.42,4.6-6.88-.1-3.26-1.73-5.34-5.01-6.28-2.96-.85-6-.68-9.02-.69-.68,0-.53,.49-.53,.86,0,2.17,0,4.34,0,6.51Zm.04-17.37c0,1.93,0,3.85,0,5.78,0,.43-.15,.95,.6,.94,2.82-.03,5.67,.21,8.41-.74,3.07-1.07,4.62-3.5,4.38-6.75-.22-3.07-1.97-4.9-5.29-5.53-2.48-.47-4.99-.2-7.49-.28-.73-.02-.62,.48-.62,.92,0,1.89,0,3.77,0,5.66Z" fill="#37326f"></path>
          <path d="M262.77,188.07c0,.52,0,.85,0,1.18,0,2.52,0,2.5-2.5,3.18-2.69,.72-5.44,.89-8.17,.53-4.66-.62-7.82-3.25-9.14-7.78-1.46-5.02-1.46-10.05,.9-14.84,2.72-5.53,8.92-7.8,14.46-5.37,3.85,1.69,5.39,5.03,6.16,8.88,.3,1.5,.24,3.01,.32,4.53,.05,1-.22,1.31-1.27,1.3-5.45-.05-10.9,0-16.36-.05-1.16-.01-1.56,.28-1.27,1.44,.2,.79,.23,1.62,.45,2.41,1.37,4.85,5.47,7.41,10.44,6.54,2.02-.35,3.98-.88,5.96-1.93Zm-9.36-11.48c2.21,0,4.43-.03,6.64,.01,.73,.01,1.07-.16,.96-.95-.2-1.46-.37-2.92-.95-4.3-1.81-4.33-6.59-5.67-10.36-2.86-2.11,1.58-3.22,3.77-3.68,6.32-.32,1.78-.29,1.78,1.48,1.78,1.97,0,3.94,0,5.91,0Z" fill="#37326f"></path>
          <path d="M218.21,169.27c2.9-4.73,8.06-6.54,13.16-4.52,3.57,1.42,5.03,4.39,5.26,7.93,.42,6.34,.11,12.7,.18,19.06,0,.56-.16,.77-.76,.8-2.78,.15-2.78,.17-2.78-2.59,0-4.72,0-9.43,0-14.15,0-1.02-.04-2.04-.23-3.06-1.02-5.34-6.28-7.49-10.78-4.36-2.3,1.6-3.15,4-3.54,6.62-.11,.73-.12,1.47-.12,2.21-.01,4.72-.03,9.43,.01,14.15,0,.87-.15,1.22-1.13,1.19-2.42-.06-2.42,0-2.43-2.46-.01-7.71-.02-15.42-.05-23.12,0-2.23-.04-2.17,2.11-2.24,.97-.03,1.17,.29,1.11,1.17-.08,1.12-.02,2.26-.02,3.38Z" fill="#37326f"></path>
          <path d="M173.45,188.09c-1.32,2.63-3.35,4.36-6.28,4.82-1.91,.3-3.85,.36-5.73-.17-3.63-1.02-5.36-3.7-5.98-7.22-.2-1.12-.26-2.28-.27-3.43-.03-5.41,.01-10.83-.04-16.24,0-.95,.27-1.15,1.16-1.13,2.35,.05,2.35,0,2.35,2.38,0,4.76-.02,9.52,.01,14.27,0,1.06,.08,2.14,.26,3.18,.56,3.17,2.2,4.98,4.86,5.48,3.11,.59,6.22-.66,7.84-3.19,1.23-1.92,1.74-4.06,1.75-6.31,.02-4.84,.04-9.68-.02-14.52-.01-.98,.16-1.34,1.24-1.3,2.27,.09,2.27,.02,2.27,2.34,0,5.82,0,11.65,0,17.47,0,2.34-.04,4.67,.19,7,.07,.72-.06,1-.88,1.01-2.43,.01-2.43,.05-2.43-2.34v-2.03c-.1-.03-.2-.05-.31-.08Z" fill="#37326f"></path>
          <path d="M303.57,168.32c-2.18-.78-4.35-1.32-6.62-1.23-.99,.04-1.96,.12-2.89,.49-1.51,.59-2.31,1.7-2.53,3.32-.21,1.55,.43,2.61,1.63,3.44,1.56,1.08,3.33,1.74,5.03,2.55,1.78,.85,3.52,1.76,4.91,3.2,3.35,3.49,2.55,9.31-1.7,11.56-4.31,2.28-8.79,1.68-13.26,.4-.46-.13-.52-.45-.48-.85,.1-.89,.2-1.78,.3-2.77,2.24,1,4.5,1.67,6.91,1.71,1.51,.03,2.94-.23,4.23-1.04,2.73-1.72,2.97-5.19,.52-7.28-1.23-1.05-2.69-1.71-4.13-2.4-1.36-.65-2.74-1.29-4.02-2.09-2.62-1.64-3.85-3.92-3.37-7.04,.47-3.08,2.39-4.86,5.23-5.71,3.39-1.01,6.73-.44,10.03,.53,.43,.13,.59,.36,.52,.81-.11,.77-.2,1.54-.31,2.41Z" fill="#37326f"></path>
          <path d="M267.99,188.45c2.23,.94,4.44,1.64,6.81,1.69,1.64,.03,3.18-.24,4.55-1.2,2.51-1.76,2.67-5.05,.36-7.06-1.48-1.29-3.27-2.01-5-2.84-1.33-.64-2.66-1.27-3.85-2.15-4.4-3.27-3.65-9.71,1.39-11.9,3.04-1.33,6.16-1.04,9.29-.39,.12,.02,.23,.08,.35,.11,2.15,.52,2.46,1.09,1.8,3.19-.21,.67-.58,.25-.85,.16-2.36-.83-4.77-1.17-7.25-.85-2.43,.31-3.75,1.58-4.03,3.75-.19,1.43,.37,2.47,1.49,3.28,1.37,1,2.93,1.63,4.45,2.33,1.71,.79,3.4,1.61,4.87,2.82,4.32,3.57,3.62,10.14-1.45,12.53-4.17,1.97-8.46,1.38-12.72,.15-.45-.13-.56-.41-.51-.83,.1-.89,.19-1.78,.29-2.78Z" fill="#37326f"></path>
          <path d="M188.85,193.06c-2,.09-4.13-.26-6.22-.91-.68-.21-.98-.51-.75-1.23,.24-.77-.22-1.9,.42-2.27,.43-.25,1.38,.45,2.12,.67,2.3,.7,4.62,1.15,7.01,.54,2.1-.54,3.64-1.72,4.01-3.98,.35-2.15-.81-3.58-2.47-4.7-1.33-.9-2.81-1.51-4.24-2.21-.84-.41-1.69-.82-2.5-1.3-3.4-2-4.6-4.44-3.88-7.83,.63-3,3.07-5.04,6.57-5.6,2.78-.44,5.46,.02,8.14,.7,.85,.21,1.17,.6,.98,1.45-.08,.36-.12,.73-.13,1.1-.02,.75-.3,.83-.98,.57-2.34-.89-4.77-1.18-7.25-.84-1.2,.17-2.31,.57-3.11,1.55-1.43,1.76-1.12,4.16,.72,5.51,1.53,1.12,3.32,1.76,5.02,2.57,1.78,.85,3.52,1.75,4.92,3.18,3.47,3.54,2.6,9.38-1.75,11.73-1.88,1.02-3.61,1.37-6.6,1.31Z" fill="#37326f"></path>
          <path d="M207.66,178.65c0,4.26-.02,8.53,.02,12.79,0,.86-.23,1.1-1.1,1.09-2.41-.03-2.41,0-2.41-2.45,0-8.08,.02-16.15-.02-24.23,0-.94,.24-1.16,1.15-1.13,2.36,.06,2.36,0,2.36,2.37,0,3.85,0,7.71,0,11.56Z" fill="#37326f"></path>
          <path d="M207.66,155.07c0,2.3,0,2.26-2.28,2.31-.91,.02-1.38-.16-1.21-1.18,.07-.4-.01-.82,.02-1.23,.05-.72-.35-1.77,.19-2.09,.8-.48,1.91-.13,2.88-.15,.41,0,.41,.32,.41,.61,0,.57,0,1.15,0,1.72Z" fill="#37326f"></path>
          <path d="M34.49,54.68c.14-.11,.28-.22,.42-.33,.04,.06,.09,.11,.14,.16-.11,.13-.21,.26-.32,.39-.08-.07-.16-.14-.24-.21Z" fill="#37326f"></path>
          <path d="M111.08,114.48c.26,.3,0,.42-.19,.56-.06-.05-.12-.1-.17-.16,.13-.13,.26-.25,.39-.38l-.02-.03Z" fill="#37326f"></path>
          <path d="M25.82,128.94c.1,.09,.36,.14,.19,.32-.12,.12-.29-.02-.35-.19,.05-.04,.1-.08,.15-.12Z" fill="#f19401"></path>
          <path d="M34.9,54.34c.1-.03,.27-.1,.29-.07,.08,.14-.02,.2-.14,.23-.05-.05-.1-.1-.14-.16Z" fill="#37326f"></path>
          <path d="M87.84,104.14c-.1,.05-.19,.1-.29,.14-.04-.04-.08-.08-.13-.13,.08-.09,.16-.17,.24-.26,.06,.08,.12,.16,.18,.24Z" fill="#37326f"></path>
          <path d="M87.56,104.28c-.09,.11-.18,.25-.33,.07,0,0,.13-.13,.2-.19,.04,.04,.08,.08,.13,.12Z" fill="#37326f"></path>
          <path d="M36.35,105.8c-.02-.1-.09-.26-.05-.29,.11-.09,.21,0,.26,.12-.07,.06-.14,.12-.21,.18Z" fill="#f19401"></path>
          <path d="M86.15,52.88c.02,.1,.09,.27,.06,.29-.13,.09-.2-.02-.24-.14,.05-.06,.11-.11,.18-.15Z" fill="#f19401"></path>
          <path d="M25.59,128.68c.08,.09,.15,.18,.23,.26-.05,.04-.1,.08-.15,.12-.1-.07-.19-.14-.29-.21,.07-.06,.14-.12,.21-.18Z" fill="#f19401"></path>
          <path d="M96.32,29.4c.07,0,.14,0,.22,0-.01,.05-.03,.1-.04,.16-.05-.06-.1-.11-.15-.17l-.02,.02Z" fill="#f19401"></path>
          <path d="M96.34,29.38c-.05-.04-.1-.08-.15-.12,.04-.01,.09-.02,.13-.04,0,.06,0,.11,0,.17,0,0,.02-.02,.02-.02Z" fill="#f19401"></path>
          <path d="M111.09,114.51c.06-.04,.11-.08,.17-.12,0,.05-.01,.11-.02,.16-.06-.02-.11-.05-.17-.07,0,0,.02,.03,.02,.03Z" fill="#37326f"></path>
        </g>
      </g>
      <g id="uuid-4558398b-bc4a-4fbf-971b-779dbdac26a7">
        <g>
          <path d="M789.01,211.26c-52.01,0-104.03,0-156.04,0-.54,0-1.09,0-1.63-.02-.41-.02-.66-.25-.68-.64-.03-.44-.02-.89-.02-1.34,0-10.9,0-21.79,0-32.69,0-58.09,0-116.18,0-174.27,0-.5-.02-.99,.02-1.49,.04-.55,.28-.76,.86-.81,.15-.01,.3,0,.45,0,.35,0,.69,0,1.04,0,104.03,0,208.05,0,312.08,0,.54,0,1.09,0,1.63,.03,.4,.03,.64,.27,.67,.66,.03,.44,.03,.89,.03,1.34,0,17.93,0,35.85,0,53.78,0,51.01,0,102.02,0,153.03,0,.45,0,.89,0,1.34-.03,.96-.14,1.06-1.16,1.09-.35,0-.69,0-1.04,0h-156.19Zm-63.92-96.62l.08,.05-.06-.08c0-.45-.16-.87-.3-1.29-.57-1.73-1.14-3.47-1.69-5.21-.35-1.1-.35-1.11,.62-1.81,1.65-1.18,3.3-2.35,4.95-3.53,.18-.13,.46-.19,.46-.59h-1.15c-1.93,0-3.86,0-5.79,0-1.01,0-1.15-.02-1.46-1.04-.63-2.08-1.32-4.14-1.98-6.21-.06-.19-.09-.39-.35-.46-.05,.12-.1,.25-.14,.38-.7,2.16-1.38,4.33-2.09,6.49-.25,.78-.33,.83-1.17,.84-2.18,.01-4.35,0-6.53,.01-.21,0-.49-.14-.65,.22,.27,.2,.54,.41,.82,.6,1.58,1.1,3.17,2.19,4.75,3.3,.99,.7,.99,.71,.64,1.81-.42,1.32-.87,2.62-1.3,3.94-.27,.84-.53,1.68-.79,2.53,.42,.08,.6-.19,.82-.35,1.58-1.1,3.16-2.21,4.73-3.33,1-.71,.96-.75,2.06,.02,.53,.37,1.05,.74,1.59,1.09,1.32,.86,2.55,1.87,3.95,2.61Zm35.36,60.32h0c0-.61-.26-1.16-.43-1.72-.48-1.51-.97-3.01-1.47-4.51-.57-1.71-.6-1.42,.85-2.5,1.55-1.15,3.11-2.28,4.67-3.43,.18-.13,.48-.19,.42-.57-.29,0-.58,0-.87,0-1.98,0-3.96,0-5.94,0-1.5,0-1.27-.04-1.67-1.17-.62-1.77-1.18-3.57-1.77-5.35-.13-.38-.15-.81-.51-1.13-.75,2.29-1.48,4.55-2.23,6.8-.26,.79-.34,.84-1.17,.84-2.18,.01-4.36,0-6.54,.01-.21,0-.5-.13-.66,.26,1.31,.94,2.63,1.89,3.95,2.84,.72,.52,1.45,1.04,2.17,1.56,.27,.19,.37,.46,.28,.78-.13,.48-.28,.95-.44,1.42-.62,1.92-1.25,3.83-1.95,5.95,.54-.37,.9-.61,1.25-.86,1.44-1.05,2.88-2.1,4.33-3.14,.24-.17,.48-.35,.72-.52,.23-.15,.47-.15,.7,0,.37,.24,.73,.5,1.1,.76,1.74,1.23,3.48,2.46,5.21,3.68Zm-25.86-95.69h0c-.09-.39-.16-.78-.27-1.15-.46-1.46-.95-2.91-1.42-4.37-.18-.56-.34-1.14-.53-1.7-.11-.33,0-.58,.25-.78,.39-.31,.79-.6,1.19-.89,1.48-1.08,2.96-2.16,4.43-3.25,.18-.13,.48-.2,.38-.57-.19,0-.39,0-.58,0-2.13,0-4.26,0-6.39,0-1.12,0-1.13-.01-1.47-1.03-.63-1.88-1.24-3.76-1.85-5.64-.1-.32-.13-.67-.45-.88-.04,.09-.09,.18-.12,.27-.67,2.02-1.34,4.03-2.01,6.05-.43,1.31-.33,1.22-1.62,1.23-1.04,0-2.08,0-3.12,0-1.27,0-2.54,0-4.09,0,.43,.33,.64,.51,.87,.67,1.53,1.1,3.05,2.2,4.59,3.29,1.74,1.24,1.47,.91,.91,2.73-.61,1.98-1.28,3.93-1.94,5.92,.46,.03,.66-.28,.92-.46,1.69-1.21,3.37-2.43,5.05-3.66,.41-.3,.77-.41,1.19-.04,.22,.2,.48,.35,.72,.52,1.78,1.25,3.57,2.49,5.35,3.74Zm96.01,95.69c0-.56-.23-1.06-.4-1.57-.54-1.69-1.12-3.38-1.66-5.07-.35-1.09-.34-1.1,.64-1.79,1.7-1.19,3.41-2.37,5.11-3.57,.21-.15,.57-.22,.54-.61-2.22,0-4.44,0-6.66,0-.35,0-.69,0-1.04-.02-.27,0-.47-.16-.57-.4-.15-.36-.28-.74-.4-1.11-.61-1.88-1.2-3.76-1.81-5.64-.05-.16,0-.42-.33-.41-.06,.11-.14,.23-.18,.36-.51,1.6-1.02,3.2-1.53,4.8-.21,.66-.43,1.31-.65,1.97-.09,.26-.29,.41-.55,.43-.34,.03-.69,.03-1.04,.03-2.03,0-4.06,0-6.08,0-.2,0-.5-.15-.59,.27,.46,.33,.94,.68,1.42,1.02,1.45,1.03,2.91,2.05,4.35,3.09,.6,.43,.64,.57,.42,1.25-.53,1.65-1.08,3.28-1.62,4.93-.21,.64-.41,1.29-.67,2.13,.42-.28,.66-.44,.89-.61,1.49-1.06,2.99-2.11,4.48-3.17,.12-.09,.24-.17,.36-.26,1.15-.84,1.02-.76,2.16,.05,.32,.23,.64,.46,.96,.69,1.48,1.07,2.97,2.14,4.45,3.21Zm-70.16-121.52l.05,.04s-.03-.05-.03-.05c-.47-1.51-.94-3.02-1.42-4.52-.25-.8-.5-1.6-.77-2.4-.15-.44-.04-.76,.33-1.02,.24-.17,.47-.36,.71-.53,1.6-1.17,3.2-2.33,4.79-3.51,.17-.12,.46-.18,.4-.57-.29,0-.58,0-.86,0-2.03,0-4.06,0-6.09,0-1.16,0-1.17-.01-1.54-1.15-.63-1.93-1.24-3.86-1.85-5.79-.09-.28-.16-.57-.45-.82-.64,2-1.24,3.98-1.9,5.95-.67,2-.32,1.8-2.41,1.81-2.11,.01-4.22,0-6.34,0,0,.43,.35,.5,.56,.66,1.71,1.27,3.43,2.51,5.14,3.78,.75,.56,.76,.58,.48,1.48-.63,1.98-1.28,3.95-1.91,5.92-.08,.24-.32,.49,0,.8,1.26-.89,2.51-1.78,3.76-2.66,.77-.54,1.54-1.08,2.3-1.63,.27-.19,.55-.19,.82,0,.25,.17,.49,.34,.73,.51,1.49,1.06,2.98,2.12,4.48,3.17,.32,.22,.59,.54,1.03,.54Zm39.28,118.73c-.34-.33-.69-.19-1.01-.2-2.08-.01-4.15-.01-6.23,0-.72,0-1.01-.1-1.26-.93-.62-2.03-1.32-4.04-1.97-6.06-.08-.23-.11-.49-.37-.62-.04,.08-.09,.15-.11,.23-.66,2.02-1.35,4.03-1.98,6.06-.47,1.52-.6,1.3-1.88,1.31-1.78,0-3.56,0-5.34,0-.44,0-.89-.09-1.32,.09,.1,.38,.46,.49,.72,.69,1.52,1.1,3.05,2.19,4.58,3.29,1.36,.98,1.35,.78,.82,2.37-.58,1.73-1.12,3.48-1.69,5.21-.09,.28-.25,.54-.13,.86,.42-.01,.67-.34,.98-.56,1.57-1.12,3.12-2.26,4.69-3.39,.71-.51,.73-.52,1.43-.03,1.74,1.22,3.47,2.46,5.21,3.68,.21,.15,.37,.47,.79,.28-.62-1.88-1.26-3.74-1.84-5.62-.68-2.18-.88-1.66,1.02-3.08,1.62-1.21,3.26-2.4,4.9-3.61Zm-82.26-35.67c-.04,.08-.08,.15-.12,.23,.28,.2,.55,.41,.83,.6,1.45,1.03,2.9,2.06,4.36,3.1,.28,.2,.56,.41,.84,.61,.34,.23,.39,.55,.28,.91-.09,.28-.18,.57-.27,.85-.57,1.74-1.15,3.47-1.71,5.21-.09,.3-.34,.6-.08,1.02,.29-.2,.57-.38,.85-.57,1.63-1.12,3.28-2.22,4.88-3.37,.58-.42,1.02-.38,1.58,.02,1.44,1.04,2.92,2.04,4.39,3.04,.44,.3,.9,.59,1.39,.9,.13-.54-.14-.94-.26-1.34-.58-1.84-1.2-3.66-1.79-5.5-.26-.82-.26-.84,.44-1.35,1.69-1.21,3.39-2.41,5.07-3.62,.26-.19,.64-.28,.73-.74-.24,0-.48,0-.71,0-2.18,0-4.36,0-6.53,0-.92,0-.96-.04-1.25-.93-.52-1.6-1.02-3.2-1.54-4.8-.21-.64-.43-1.27-.64-1.89-.33,.08-.33,.3-.39,.48-.62,1.93-1.2,3.87-1.86,5.79-.43,1.26-.15,1.38-1.83,1.37-2.22-.01-4.44,0-6.66,0Zm121.56,0c.1,.49,.47,.59,.73,.78,1.63,1.21,3.27,2.4,4.9,3.61,.86,.64,.87,.66,.52,1.72-.62,1.93-1.26,3.85-1.89,5.78-.07,.21-.24,.44,.02,.64,.37-.05,.61-.31,.89-.51,1.61-1.14,3.22-2.3,4.84-3.43,.71-.5,.75-.5,1.43-.02,1.61,1.15,3.2,2.32,4.81,3.48,.3,.22,.56,.54,.97,.58,.11-.28-.07-.49-.14-.71-.62-1.93-1.21-3.87-1.88-5.78-.45-1.28-.15-1.24,.63-1.81,1.6-1.17,3.22-2.3,4.82-3.46,.3-.22,.68-.37,.84-.76-.23-.2-.48-.09-.71-.09-1.98,0-3.96,0-5.94,0-1.65,0-1.47,.1-1.96-1.38-.56-1.69-1.12-3.38-1.68-5.07-.13-.38-.19-.8-.51-1.15-.13,.38-.25,.7-.36,1.03-.62,1.88-1.22,3.76-1.85,5.63-.3,.9-.34,.92-1.25,.93-1.39,.01-2.77,0-4.16,0-1.02,0-2.04,0-3.08,0Zm-43.79-92.2c.08-.5-.12-.85-.24-1.22-.63-1.93-1.25-3.85-1.89-5.78-.16-.48-.09-.87,.37-1.15,.29-.18,.57-.4,.85-.6,1.61-1.15,3.22-2.31,4.82-3.47,.17-.12,.48-.2,.34-.53-2.39,0-4.76,0-7.14,0-.95,0-.99-.04-1.28-.89-.62-1.88-1.23-3.76-1.84-5.64-.11-.34-.24-.68-.38-1.09-.42,.55-.49,1.11-.66,1.61-.6,1.78-1.19,3.56-1.76,5.35-.14,.44-.38,.66-.85,.66-.3,0-.59,0-.89,0-2.03,0-4.06,0-6.09,0-.17,0-.4-.13-.52,.12,.05,.35,.38,.43,.6,.6,1.55,1.15,3.11,2.29,4.66,3.44,.28,.21,.56,.41,.82,.63,.21,.17,.28,.4,.21,.66-.09,.33-.2,.66-.3,.99-.56,1.74-1.13,3.48-1.7,5.22-.1,.32-.28,.63-.17,1.07,.63-.44,1.23-.86,1.83-1.28,1.41-1,2.83-2,4.23-3.01,.38-.28,.69-.27,1.06,.02,.75,.57,1.52,1.11,2.28,1.66,1.2,.87,2.4,1.73,3.64,2.63Zm70.29,70.55c-.16-.56-.23-.84-.32-1.12-.58-1.79-1.14-3.58-1.75-5.36-.53-1.55-.43-1.38,.79-2.26,1.61-1.16,3.22-2.3,4.82-3.46,.22-.16,.55-.25,.61-.68-2.07,0-4.13,0-6.19,0-.49,0-.99,0-1.48-.01-.34,0-.55-.18-.67-.49-.1-.28-.19-.56-.28-.84-.58-1.79-1.16-3.57-1.75-5.36-.05-.14-.09-.29-.16-.41-.08-.13,.02-.4-.34-.38-.46,1.4-.93,2.8-1.39,4.2-.28,.84-.59,1.68-.83,2.54-.16,.6-.52,.79-1.08,.76-.3-.02-.59,0-.89,0-1.98,0-3.96,0-5.94,0-.17,0-.4-.1-.5,.26,.28,.22,.59,.45,.91,.69,1.48,1.08,2.95,2.17,4.43,3.25,.28,.2,.55,.42,.82,.64,.17,.14,.23,.33,.18,.53-.07,.29-.15,.57-.24,.85-.61,1.88-1.24,3.76-1.83,5.64-.08,.24-.3,.51-.06,.83,.21-.14,.42-.26,.62-.4,1.73-1.23,3.46-2.47,5.2-3.7,.71-.5,.73-.5,1.42,0,1.88,1.36,3.76,2.73,5.92,4.31Zm-52.53-74.15c.3,.56,.71,.75,1.06,1.01,1.59,1.18,3.2,2.33,4.79,3.51,.61,.45,.64,.56,.43,1.25-.31,.99-.64,1.97-.96,2.96-.42,1.3-.84,2.6-1.33,4.1,.47-.31,.75-.49,1.03-.69,1.65-1.17,3.3-2.35,4.96-3.52,.79-.55,.8-.56,1.55-.03,1.74,1.22,3.46,2.47,5.21,3.69,.2,.14,.38,.46,.76,.3-.72-2.22-1.44-4.42-2.15-6.62-.3-.92-.3-.94,.45-1.49,1.75-1.3,3.51-2.58,5.26-3.87,.17-.13,.48-.2,.35-.59-.23,0-.47,0-.71,0-2.08,0-4.16,0-6.24,0-1.06,0-1.07-.01-1.43-1.08-.5-1.5-.98-3.01-1.48-4.51-.21-.64-.44-1.27-.65-1.89-.35,.04-.33,.28-.38,.45-.68,2.07-1.35,4.13-2.04,6.2-.27,.81-.29,.83-1.17,.83-2.38,.01-4.75,0-7.29,0Zm46.97,25.94c-.32-.18-.66-.08-.99-.08-2.03-.01-4.06,0-6.09,0-.96,0-.98-.02-1.27-.89-.69-2.06-1.36-4.13-2.05-6.2-.06-.18-.06-.41-.39-.39-.64,1.95-1.27,3.93-1.93,5.89-.59,1.74-.31,1.58-2.12,1.58-1.83,0-3.66,0-5.5,0-.32,0-.67-.11-1.01,.11,.15,.41,.53,.56,.83,.78,1.35,1.01,2.72,1.98,4.07,2.99,1.79,1.34,1.61,.82,.92,2.97-.61,1.92-1.24,3.83-1.87,5.76,.41,.03,.6-.23,.82-.39,1.7-1.19,3.39-2.41,5.09-3.61,.81-.57,.83-.57,1.67,.02,1.7,1.2,3.38,2.42,5.09,3.6,.21,.14,.38,.45,.76,.32-.23-.66-.45-1.3-.67-1.95-.58-1.68-1.14-3.37-1.74-5.05-.14-.4-.07-.66,.26-.89,.2-.14,.4-.29,.6-.43,1.65-1.18,3.3-2.36,4.94-3.55,.21-.16,.57-.22,.56-.61Z" fill="#0048aa"></path>
          <path d="M957.74,32.71c0-8.02,0-16.04,0-24.06,0-.4,0-.79,0-1.19,0-.29,.15-.45,.44-.46,.45,0,.89-.01,1.34-.01,11.14,0,22.29,0,33.43,0,.69,0,1.39,0,2.08,0,.54,.01,.64,.09,.64,.57,0,2.52,0,5.05,0,7.57,0,.35-.15,.55-.53,.55-.4,0-.79,0-1.19,0-7.97,0-15.95,0-23.92,0-.3,0-.59,0-.89,0-1.05,0-1.13-.04-1.11,1.18,0,.54,0,1.09,0,1.63,0,2.38,0,4.75,0,7.13,0,.35,0,.69,.02,1.04,.02,.28,.2,.45,.47,.46,.4,.02,.79,.01,1.19,.01,7.33,0,14.66,0,21.99,0,.64,0,1.28-.1,1.91,.1,.32,.66,.14,1.36,.15,2.03,.03,1.93,.02,3.86,0,5.79,0,.68-.08,.74-.78,.76-.49,.01-.99,0-1.49,0-7.33,0-14.66,0-21.99,0-1.57,0-1.48-.14-1.48,1.4,0,3.76,0,7.53,0,11.29,0,.25,0,.5,0,.74,.03,.48,.12,.57,.66,.58,.4,.01,.79,0,1.19,0,8.37,0,16.74,0,25.11,0,1.88,0,1.69-.22,1.7,1.63,0,2.13,0,4.26,0,6.39,0,.51-.12,.63-.58,.65-.35,.02-.69,0-1.04,0-11.94,0-23.87,0-35.81,0-.35,0-.69,0-1.04,0-.28,0-.47-.12-.47-.43,0-.45-.01-.89-.01-1.34,0-8.02,0-16.04,0-24.06Z" fill="#030303"></path>
          <path d="M1348.67,25.64c0,3.47,.01,6.93,0,10.4-.01,3.22-.14,6.44-.57,9.63-.55,4.09-2.21,7.58-5.6,10.09-1.97,1.47-4.17,2.46-6.57,2.99-1.74,.39-3.51,.62-5.3,.65-2.63,.04-5.25,.03-7.86-.32-3.2-.43-6.14-1.5-8.7-3.51-2.96-2.33-4.82-5.35-5.46-9.06-.36-2.05-.59-4.12-.64-6.2-.06-2.57-.14-5.15-.14-7.72-.02-7.92,0-15.84,0-23.77,0-.45,0-.89,.01-1.34,0-.29,.17-.44,.45-.47,.15-.02,.3,0,.45,0,2.87,0,5.75,0,8.62,0,.75,0,.77,.03,.79,.72,0,.4,0,.79,0,1.19,0,8.76,0,17.53,0,26.29,0,2.38,.08,4.75,.25,7.12,.2,2.72,1.38,4.93,3.62,6.52,1.24,.88,2.65,1.35,4.14,1.53,1.97,.24,3.95,.23,5.91-.2,3.07-.67,5.61-3.15,5.95-6.75,.22-2.32,.3-4.64,.3-6.97,0-9.26,0-18.52,0-27.78,0-1.88-.26-1.68,1.63-1.68,2.38,0,4.75,0,7.13,0,.35,0,.69,0,1.04,0,.34,0,.56,.13,.56,.52,0,.4,0,.79,0,1.19,0,5.64,0,11.29,0,16.93h0Z" fill="#030303"></path>
          <path d="M1129.9,26.23c.22-.26,.43-.52,.65-.78,5.23-6.43,14.14-6.36,19.43-2.1,2.83,2.28,4.78,5.16,5.72,8.64,1.46,5.42,1.41,10.87-.22,16.25-.94,3.1-2.67,5.74-5.17,7.81-3.91,3.24-8.34,4.14-13.22,2.73-1.89-.55-3.44-1.71-4.92-2.97-.57-.48-.92-1.26-1.77-1.39-.22,.72-.1,1.46-.1,2.18-.01,4.8,0,9.6,0,14.4,0,.35,0,.69,0,1.04-.02,.64-.07,.69-.64,.72-.1,0-.2,0-.3,0-2.62,0-5.25,0-7.87,0-.2,0-.4,0-.59-.02-.22-.02-.37-.15-.38-.37-.02-.3-.02-.59-.02-.89,0-16.33,0-32.67,0-49,0-.2,0-.4,0-.59,.02-.58,.1-.67,.71-.68,2.57-.01,5.15-.01,7.72,0,.67,0,.72,.06,.73,.79,.01,1.04,0,2.08,0,3.12,0,.34,0,.67,0,1.01,.08,.03,.17,.06,.25,.09Zm16.81,13.64c-.03-1.9-.13-3.88-.74-5.79-.43-1.34-1.07-2.55-2.04-3.57-2.76-2.92-7.27-3.16-10.33-.55-1.4,1.2-2.28,2.71-2.78,4.47-.71,2.52-.72,5.08-.45,7.66,.13,1.23,.36,2.45,.78,3.62,.63,1.77,1.65,3.26,3.16,4.39,2.91,2.17,7.17,2.02,9.82-.93,.88-.98,1.45-2.11,1.84-3.36,.6-1.91,.7-3.89,.75-5.95Z" fill="#030303"></path>
          <path d="M1236.51,58.48c-.42,.03-.66,.06-.91,.06-2.57,0-5.15,0-7.72,0-1.08,0-.97,.03-1.32-1-.24-.7-.43-1.42-.65-2.13-.07-.23-.17-.45-.26-.7-.48,.04-.69,.4-.97,.64-1.91,1.62-4.02,2.87-6.46,3.51-2.89,.75-5.77,.73-8.65-.08-4.39-1.23-7.79-5.18-7.75-10.22,0-1.25,.1-2.47,.49-3.66,.92-2.78,2.68-4.8,5.33-6.06,1.75-.83,3.61-1.36,5.49-1.78,2.37-.52,4.74-.99,7.11-1.51,1.35-.3,2.68-.68,3.99-1.14,.46-.16,.61-.42,.61-.88-.01-.99-.02-1.98-.38-2.93-.39-1.03-1.07-1.8-2.12-2.13-2.26-.72-4.57-.85-6.87-.2-1.09,.3-1.96,.96-2.57,1.91-.35,.54-.63,1.12-.91,1.69-.33,.66-.32,.67-1.12,.53-2.43-.43-4.87-.87-7.3-1.3-.05,0-.1-.01-.15-.02-.46-.1-.56-.25-.41-.74,.64-2.16,1.64-4.13,3.17-5.81,1.62-1.78,3.65-2.85,5.95-3.45,1.44-.37,2.9-.62,4.39-.67,2.67-.09,5.34-.12,8,.29,2.18,.34,4.22,1.01,6.04,2.3,1.86,1.32,3.05,3.05,3.45,5.33,.34,1.96,.52,3.92,.51,5.91-.02,3.22-.04,6.43-.09,9.65-.04,2.28,.01,4.55,.12,6.83,.1,2.15,.56,4.21,1.38,6.19,.19,.45,.36,.91,.6,1.54Zm-11.81-17.68c-.09-.01-.2-.06-.28-.03-2.27,.69-4.61,1.13-6.91,1.69-1.05,.26-2.12,.54-3.11,.96-3.36,1.42-3.35,4.87-1.8,6.89,1.25,1.63,2.96,2.26,4.96,2.13,1.83-.13,3.45-.83,4.87-1.99,1.11-.91,1.85-2.05,2.14-3.46,0-.05,.03-.09,.04-.14,.24-1.12,.3-4.69,.1-6.05Z" fill="#030303"></path>
          <path d="M1074.76,40.35c-.14-4.75,1.12-9.09,3.93-12.94,2.04-2.8,4.77-4.71,8.04-5.84,4.74-1.64,9.55-1.76,14.25,0,6.45,2.41,10.29,7.18,11.66,13.87,.76,3.68,.56,7.38-.56,11-1.88,6.07-7.41,11.65-14.7,12.71-4.17,.61-8.17,.14-12.05-1.53-5.18-2.23-8.36-6.14-9.79-11.54-.5-1.88-.68-3.79-.78-5.72Zm28.1-.44c0-.69,.05-1.39,0-2.08-.15-1.74-.57-3.41-1.44-4.95-3.23-5.73-10.9-5.91-14.51-.85-.73,1.02-1.24,2.14-1.55,3.35-.69,2.68-.74,5.39-.22,8.1,.24,1.27,.64,2.49,1.34,3.59,1.77,2.81,4.27,4.35,7.65,4.27,3.32-.08,5.69-1.73,7.33-4.55,.37-.65,.63-1.34,.85-2.05,.48-1.58,.64-3.2,.56-4.84Z" fill="#030303"></path>
          <path d="M1420.89,39.7c-.08-3.3,.69-6.33,2.07-9.24,2.11-4.43,5.51-7.43,10.14-9,4.29-1.45,8.68-1.59,12.99-.24,6.74,2.12,10.89,6.79,12.54,13.61,.92,3.82,.75,7.67-.39,11.44-1.94,6.43-7.68,11.89-14.88,12.89-4.93,.69-9.57-.1-13.89-2.53-3.95-2.22-6.4-5.66-7.66-9.97-.67-2.29-.96-4.64-.93-6.96Zm28.2,.17c.03-1.1-.1-2.18-.28-3.25-.41-2.4-1.4-4.51-3.26-6.17-3.07-2.73-8.15-2.68-11.16,.08-1.63,1.5-2.6,3.34-3.07,5.47-.47,2.15-.46,4.33-.23,6.5,.17,1.53,.6,3,1.37,4.36,2.97,5.28,9.96,6.09,13.95,1.6,.87-.97,1.47-2.1,1.89-3.33,.58-1.71,.72-3.48,.79-5.26Z" fill="#030303"></path>
          <path d="M1195.65,48.39c-.02,.21,0,.36-.05,.48-2.17,5.67-6.13,9.23-12.21,10.23-3.47,.57-6.9,.42-10.28-.6-3.77-1.13-6.65-3.42-8.65-6.81-1.17-1.98-1.94-4.12-2.33-6.37-.73-4.25-.65-8.48,.51-12.65,.97-3.48,2.81-6.42,5.61-8.72,2.64-2.18,5.69-3.35,9.11-3.54,2.34-.13,4.66,0,6.91,.67,4.8,1.44,8.17,4.5,10.13,9.1,1.07,2.53,1.58,5.2,1.8,7.92,.11,1.47,.19,2.95,.11,4.46-.45,.28-.91,.17-1.33,.17-7.18,0-14.36,0-21.54,0h-1.37c-.38,.3-.27,.61-.26,.89,.05,1.35,.36,2.65,.93,3.87,1.25,2.69,3.99,5.1,8.41,4.41,1.65-.26,2.92-1.18,3.78-2.62,.25-.42,.46-.87,.66-1.33,.53-1.23,.52-1.25,1.77-1.05,2.54,.41,5.07,.85,7.61,1.28,.23,.04,.46,.14,.7,.21Zm-16.43-11.69c1.68,0,3.36,0,5.04,0,.59,0,1.19,0,1.78,0,.38,0,.55-.19,.52-.55-.12-1.48-.34-2.94-1.02-4.29-1.45-2.9-4.49-4.41-7.63-3.82-1.85,.35-3.29,1.3-4.38,2.79-1.19,1.61-1.57,3.48-1.63,5.44,0,.21,.14,.38,.36,.4,.34,.03,.69,.03,1.03,.03,1.98,0,3.95,0,5.93,0Z" fill="#030303"></path>
          <path d="M1475.93,26.54c.59-.62,.95-1,1.31-1.38,1.9-2.03,4.13-3.55,6.84-4.25,3.4-.89,6.76-.74,10.03,.63,3.62,1.52,5.54,4.32,6.17,8.1,.24,1.42,.32,2.85,.33,4.29,0,7.87,.01,15.74,.01,23.61,0,.2,0,.4-.01,.59-.01,.22-.11,.37-.35,.39-.15,.01-.3,.02-.44,.02-2.67,0-5.35,0-8.02,0-.2,0-.4,0-.59-.03-.22-.02-.36-.16-.37-.38-.02-.44-.02-.89-.02-1.34-.01-6.63-.02-13.27-.03-19.9,0-1.34-.1-2.67-.3-3.99-.46-3.1-2.68-5.02-5.83-5-3.24,.02-6.89,2.09-7.57,6.43-.38,2.41-.43,4.83-.45,7.25-.03,5.15,0,10.3-.01,15.45,0,.39,0,.79-.04,1.18-.01,.11-.17,.23-.29,.28-.13,.05-.29,.04-.44,.04-2.77,0-5.55,0-8.32,0-.61,0-.7-.1-.72-.66-.01-.35,0-.69,0-1.04,0-11.34,0-22.67,0-34.01,0-1.76-.18-1.62,1.56-1.62,1.93,0,3.86,0,5.79,0,2.04,.01,1.74-.23,1.76,1.69,.01,1.09,0,2.17,0,3.64Z" fill="#030303"></path>
          <path d="M1029.59,53.44c-.27,.32-.53,.66-.83,.97-4.28,4.47-9.44,6.02-15.42,4.36-4.31-1.2-6.83-4.16-7.66-8.57-.31-1.66-.41-3.34-.42-5.02-.01-7.62,0-15.25,0-22.87,0-.15,0-.3,0-.45,.02-.54,.1-.65,.58-.65,2.87,0,5.74,0,8.62,0,.51,0,.6,.11,.62,.62,.01,.4,0,.79,0,1.19,.01,6.19,0,12.38,.04,18.57,.01,1.78,0,3.56,.28,5.33,.46,2.98,2.26,4.74,5.21,4.94,2.7,.19,4.95-.79,6.71-2.84,.97-1.13,1.37-2.49,1.53-3.95,.24-2.12,.31-4.25,.31-6.38,0-5.3,0-10.6,.01-15.89,0-.49-.09-.98,.09-1.45,1.17-.2,8.4-.21,9.61-.01,.17,.33,.1,.68,.1,1.02,0,11.64,0,23.27,0,34.91,0,.1,0,.2,0,.3-.01,.96-.01,.97-.98,.98-2.48,0-4.95,0-7.43,0-.59,0-.69-.11-.7-.69-.01-.94,0-1.88,0-2.82,0-.49,0-.98,0-1.48-.09-.04-.19-.08-.28-.12Z" fill="#030303"></path>
          <path d="M1253.26,26.57c.59-.65,.94-1.04,1.3-1.42,2.24-2.37,4.9-4,8.15-4.54,3.09-.52,6.11-.26,9.01,1.05,3.01,1.36,4.85,3.67,5.64,6.84,.35,1.4,.5,2.83,.55,4.26,.04,1.14,.04,2.28,.04,3.42,0,6.88,0,13.77,0,20.65,0,.3,0,.59,0,.89-.02,.81-.02,.82-.84,.83-2.72,0-5.45,0-8.17,0-.78,0-.79-.03-.8-.87,0-.35,0-.69,0-1.04,0-5.94,0-11.88,0-17.83,0-1.83-.01-3.67-.29-5.48-.06-.39-.11-.78-.21-1.16-.68-2.57-2.6-4.12-5.25-4.24-3.48-.16-7.27,2.04-7.96,6.31-.37,2.31-.48,4.63-.49,6.95-.02,5.15,0,10.3-.02,15.45,0,.58,.26,1.31-.13,1.72-.44,.47-1.21,.18-1.84,.19-2.13,.02-4.26,.01-6.39,0-.35,0-.69,0-1.04-.03-.21-.01-.37-.15-.39-.37-.03-.3-.02-.59-.02-.89,0-11.59,0-23.18,0-34.76,0-1.26-.15-1.3,1.29-1.3,2.18,0,4.36,0,6.54,0,.15,0,.3,0,.45,0,.82,.02,.86,.05,.87,.81,.01,.84,0,1.68,0,2.53,0,.54,0,1.09,0,2.03Z" fill="#030303"></path>
          <path d="M1368.68,26.39c.5-.36,.77-.76,1.09-1.11,2.28-2.48,5.04-4.16,8.39-4.7,2.78-.45,5.52-.26,8.18,.77,3.88,1.5,6,4.38,6.61,8.42,.21,1.37,.33,2.75,.33,4.14,0,7.87,0,15.75,0,23.62,0,.2,0,.4-.01,.59,0,.22-.12,.37-.35,.39-.25,.02-.49,.03-.74,.03-2.53,0-5.05,0-7.58,0-.25,0-.49,0-.74-.03-.22-.02-.36-.15-.37-.37-.02-.4-.02-.79-.02-1.19,0-5.94,0-11.88,0-17.83,0-1.93,0-3.86-.29-5.78-.06-.39-.11-.78-.21-1.17-.67-2.58-2.58-4.14-5.22-4.27-3.55-.17-7.3,2.08-7.99,6.28-.39,2.35-.49,4.73-.5,7.1-.02,5.2,0,10.4-.01,15.6,0,1.89,.26,1.64-1.64,1.65-2.23,.01-4.46,0-6.69,0-.35,0-.69,0-1.04-.02-.28-.02-.43-.2-.43-.49,0-.2,0-.4,0-.59,0-11.74,0-23.47,0-35.21,0-.2,0-.4,.01-.59,.01-.22,.14-.36,.36-.4,.19-.03,.39-.04,.59-.04,2.43,0,4.85,0,7.28,0,.15,0,.3,0,.44,.02,.29,.02,.45,.17,.45,.46,0,1.14,0,2.28,.01,3.42,0,.38-.04,.76,.08,1.28Z" fill="#030303"></path>
          <path d="M1199.18,95.24c.54,0,.88,0,1.23,0,5.1,0,10.2,0,15.31,0,1.68,0,3.36,.06,5.03,.34,4.73,.78,7.83,4.2,8.13,9.02,.08,1.3-.03,2.58-.41,3.82-.72,2.32-2.15,4.1-4.26,5.32-1.25,.73-2.61,1.18-4.02,1.49-.43,.09-.88,.13-1.28,.36,.02,.3,.3,.36,.49,.46,1.3,.67,2.36,1.63,3.32,2.7,.96,1.07,1.84,2.21,2.61,3.42,2,3.13,3.99,6.26,5.99,9.39,.11,.17,.2,.34,.3,.51,.1,.18-.03,.41-.23,.41-1.73,.01-3.47,0-5.2,.02-.34,0-.55-.16-.72-.43-.74-1.17-1.48-2.34-2.22-3.51-1.63-2.54-3.19-5.12-4.95-7.58-.69-.97-1.4-1.92-2.24-2.77-1.26-1.29-2.74-2.08-4.57-2.19-2.28-.15-4.56-.05-6.83-.07-.36,0-.53,.2-.54,.55-.01,.4-.01,.79-.01,1.19,0,4.41,0,8.81,0,13.22,0,.4,0,.79-.02,1.19-.01,.21-.15,.38-.37,.38-1.39,0-2.77,0-4.16,0-.23,0-.34-.17-.35-.39-.01-.3-.02-.59-.02-.89,0-11.59,0-23.18,0-34.76v-1.19Zm12.21,4.1c-2.18,0-4.01,0-5.84,0-.35,0-.69,.01-1.04,.03-.23,.01-.35,.15-.38,.37-.02,.2-.03,.39-.03,.59,0,3.46,0,6.93,0,10.39,0,.15,0,.3,0,.45,.01,.37,.23,.51,.58,.5,.3,0,.59,0,.89,0,2.97,0,5.94,0,8.91,0,.69,0,1.39,0,2.08-.05,1.33-.11,2.66-.29,3.89-.86,2.17-1,3.49-3.15,3.36-5.63-.13-2.46-1.35-4.18-3.65-5.1-.78-.32-1.6-.49-2.44-.57-2.22-.21-4.45-.06-6.33-.11Z" fill="#030303"></path>
          <path d="M959.26,178.89c0-5.59,0-11.18,0-16.78,0-.35,0-.69,0-1.04,.02-.65,.06-.69,.64-.72,.15,0,.3,0,.45,0,4.36,0,8.71,.01,13.07,0,1.64,0,3.27,.1,4.87,.42,3.57,.72,6.35,2.64,8.41,5.63,1.55,2.24,2.42,4.76,2.86,7.41,.61,3.69,.58,7.39-.22,11.06-.36,1.65-.91,3.24-1.66,4.75-2.1,4.24-5.47,6.79-10.15,7.59-1.37,.23-2.74,.37-4.13,.37-4.36,0-8.71,0-13.07,0-.2,0-.4,0-.59,0-.29,0-.46-.14-.46-.44,0-.4-.01-.79-.01-1.19,0-5.69,0-11.38,0-17.07Zm4.87,0c0,4.5,0,9.01,0,13.51,0,.69,.1,.8,.75,.8,3.27-.02,6.53,.11,9.8-.11,.84-.06,1.68-.17,2.49-.37,2.48-.6,4.38-1.98,5.62-4.25,.64-1.18,1.15-2.41,1.45-3.72,.84-3.61,.87-7.26,.25-10.9-.38-2.23-1.29-4.25-2.82-5.95-1.33-1.48-2.91-2.52-4.92-2.81-.59-.08-1.17-.2-1.76-.23-3.36-.2-6.73-.09-10.09-.11-.1,0-.2,0-.3,.01-.27,.05-.45,.18-.45,.48,0,.4-.01,.79-.01,1.19,0,4.16,0,8.31,0,12.47Z" fill="#030303"></path>
          <path d="M987.02,128.09c.06,1.57,.06,2.94,.02,4.25-.44,.23-.79,.16-1.13,.16-8.42,0-16.84,0-25.26,0-1.41,0-1.32,.05-1.32-1.25,0-11.59,0-23.18,0-34.76,0-.25,0-.5,0-.74,0-.29,.13-.46,.42-.48,.25-.02,.49-.02,.74-.02,8.22,0,16.45,0,24.67,0,.25,0,.5,0,.74,.04,.13,.02,.27,.11,.28,.29,0,.1,.03,.2,.03,.29-.04,1.18,.11,2.37-.09,3.55-1.15,.43-2.34,.17-3.51,.18-5.55,.04-11.1,.02-16.64,.02-.4,0-.79,0-1.19,0-.28,0-.47,.13-.49,.43-.01,.25-.02,.49-.02,.74,0,3.02,0,6.04,0,9.06,0,.3,0,.6,.05,.88,.02,.11,.17,.27,.28,.28,.39,.04,.79,.03,1.19,.03,5.8,0,11.59,0,17.39,0,1.88,0,1.64-.2,1.64,1.67,0,.84,.09,1.68-.08,2.51-.85,.42-1.75,.19-2.62,.19-5.45,.02-10.9,.01-16.35,.01-.4,0-.79,0-1.19,.04-.11,.01-.25,.16-.28,.27-.05,.18-.03,.39-.03,.59,0,3.62,0,7.23,0,10.84,0,.2-.02,.4,.04,.59,.03,.11,.17,.27,.28,.28,.39,.04,.79,.03,1.19,.03,6.49,0,12.98,0,19.47,0h1.77Z" fill="#030303"></path>
          <path d="M1069.82,30.76c-.73-.35-1.3-.65-1.88-.91-1.15-.53-2.36-.69-3.62-.55-1.69,.2-2.97,1.02-3.81,2.5-.71,1.26-1.14,2.62-1.35,4.06-.36,2.4-.49,4.82-.52,7.25-.05,4.65-.03,9.3-.04,13.95,0,1.68,.2,1.49-1.5,1.5-2.52,0-5.05,0-7.57,0-.68,0-.72-.07-.74-.78,0-.3,0-.59,0-.89,0-11.33,0-22.66,0-33.98,0-.4,0-.79,0-1.19,0-.29,.15-.45,.44-.47,.2-.01,.4-.02,.59-.02,2.33,0,4.65,0,6.98,0,.2,0,.4,0,.59,.01,.35,.02,.53,.19,.53,.56,0,.89,0,1.78,0,2.67,0,.49,0,.98,0,1.42,.34,.18,.41-.05,.51-.19,.5-.67,.99-1.36,1.49-2.03,2.13-2.86,5.03-3.67,8.41-3.13,1.42,.23,2.77,.73,4.03,1.45,.28,.16,.42,.36,.29,.72-.94,2.65-1.87,5.31-2.84,8.08Z" fill="#030303"></path>
          <path d="M1153.4,174.23c.45-.5,.64-.72,.83-.94,2.82-3.09,6.3-3.9,10.27-2.91,1.87,.47,3.27,1.59,4.21,3.28,.14,.25,.18,.58,.57,.79,.35-.27,.59-.69,.89-1.04,1.3-1.49,2.86-2.59,4.79-3.1,1.81-.48,3.63-.44,5.43,.05,2.81,.76,4.44,2.66,5.08,5.44,.22,.96,.33,1.95,.33,2.94,0,5.94,0,11.88,0,17.82,0,.2,0,.4-.01,.59,0,.31-.2,.42-.48,.43-.1,0-.2,0-.3,0-1.18-.05-2.36,.1-3.54-.08-.41-1.15-.16-2.34-.16-3.5-.04-4.45-.02-8.91-.01-13.36,0-1.04-.08-2.08-.25-3.1-.3-1.78-1.49-3.1-3.26-3.43-2.15-.4-4.14,0-5.8,1.53-1.19,1.09-1.73,2.52-1.93,4.07-.12,.98-.17,1.97-.18,2.96-.02,4.45,0,8.91-.01,13.36,0,.49,.11,.99-.17,1.54-1.3,0-2.63,0-3.96,0-.3,0-.42-.21-.42-.49,0-.4,0-.79,0-1.19,0-5.25,0-10.49,0-15.74,0-.99-.05-1.97-.32-2.94-.58-2.11-1.85-3.13-4.06-3.22-3.43-.14-5.91,1.77-6.65,5.11-.3,1.36-.37,2.74-.37,4.13,0,4.31,0,8.61,0,12.92,0,1.52,.13,1.48-1.44,1.43-1.02-.03-2.06,.2-3.06-.18-.25-.97-.1-1.96-.1-2.94-.02-7.42,0-14.85,0-22.27,0-1.77-.15-1.61,1.57-1.62,.59,0,1.19,0,1.78,0,.68,.02,.73,.06,.74,.8,.01,.83,0,1.66,0,2.85Z" fill="#030303"></path>
          <path d="M1282.73,108.62c0-1.15,0-1.94,0-2.73,0-.22,.14-.38,.36-.39,1.14-.01,2.28-.02,3.41,0,.22,0,.35,.16,.37,.38,.02,.34,.03,.69,.03,1.04,0,7.42,0,14.85,0,22.27,0,2.13-.1,4.25-.53,6.35-.69,3.33-2.71,5.52-5.75,6.87-1.19,.53-2.45,.81-3.73,.95-2.23,.25-4.45,.16-6.62-.48-1.29-.38-2.5-.94-3.55-1.79-1.88-1.52-2.57-3.56-2.59-5.9,0-.24,.18-.38,.38-.35,1.22,.16,2.45,.35,3.67,.54,.28,.04,.41,.25,.47,.51,.04,.19,.07,.39,.13,.58,.34,1.03,.99,1.78,1.93,2.34,1.94,1.16,6.45,1.15,8.47-.1,1.62-1,2.57-2.48,2.86-4.31,.24-1.51,.3-3.05,.25-4.59,0-.13,0-.28-.18-.35-.18-.07-.27,.05-.38,.14-.15,.13-.29,.27-.43,.41-4.02,3.91-11.71,3.11-15.04-1.48-1.42-1.96-2.4-4.1-2.79-6.48-.54-3.23-.32-6.41,.8-9.51,.37-1.03,.85-2,1.45-2.92,2.99-4.58,8.48-5.49,12.29-4.25,1.34,.44,2.51,1.16,3.54,2.11,.32,.29,.62,.6,1.19,1.14Zm-.06,9.96c.07-1.02-.09-2.15-.31-3.26-.4-2.05-1.28-3.83-2.96-5.16-2.68-2.13-6.32-1.97-8.8,.38-1.03,.98-1.75,2.16-2.12,3.51-.89,3.22-.83,6.45,.13,9.65,.15,.52,.39,1.02,.65,1.49,2.42,4.36,8.09,4.45,10.9,1.51,.95-.99,1.58-2.14,1.95-3.44,.42-1.49,.59-3,.56-4.67Z" fill="#030303"></path>
          <path d="M1073.13,129.93c-.02,.67-.05,1.1-.05,1.53,0,3.27,0,6.53,0,9.8,0,.4,0,.79-.02,1.19,0,.22-.14,.38-.36,.39-1.29,0-2.57,0-3.86,0-.23,0-.33-.2-.34-.41-.02-.35-.02-.69-.02-1.04,0-11.48,0-22.96,0-34.45,0-1.55-.1-1.46,1.44-1.45,.84,0,1.68,.04,2.52,.06,.41,.79,.1,1.64,.21,2.46,.01,.1,.03,.19,.05,.29,.03,.22,.26,.21,.33,.16,.23-.19,.42-.42,.62-.64,2.17-2.41,4.94-3.21,8.06-2.86,4.14,.47,7.04,2.69,8.72,6.49,1.38,3.11,1.71,6.38,1.34,9.73-.25,2.23-.82,4.39-1.99,6.32-2.22,3.68-5.5,5.57-9.82,5.61-2.07,.02-3.87-.71-5.47-1.98-.38-.31-.74-.65-1.34-1.18Zm14.05-11.16c.03-1.71-.13-3.42-.68-5.09-.46-1.39-1.21-2.59-2.31-3.57-2.22-1.99-5.5-2.33-8.12-.12-1.45,1.22-2.41,2.76-2.88,4.57-.78,3.03-.79,6.07-.04,9.11,.42,1.68,1.26,3.11,2.61,4.22,2.31,1.9,5.58,1.96,7.97,.15,1.34-1.02,2.24-2.36,2.76-3.95,.56-1.71,.72-3.48,.69-5.31Z" fill="#030303"></path>
          <path d="M1386.23,194.47c-.51,.56-.77,.84-1.03,1.12-1.49,1.59-3.34,2.44-5.51,2.58-4.73,.3-8.2-1.74-10.57-5.77-1.18-2-1.71-4.21-1.91-6.49-.27-3.1,.1-6.13,1.26-9.03,1.31-3.28,3.61-5.53,7.06-6.46,3.73-1.01,7.06-.33,9.81,2.52,.1,.1,.21,.19,.31,.28,.35-.09,.3-.36,.3-.59,0-1.53,0-3.07,0-4.6,0-2.23,0-4.45,0-6.68,0-.97,.02-.98,1-.99,.99,0,1.98,0,2.97,0,.47,0,.58,.14,.6,.64,.01,.3,0,.59,0,.89,0,11.38,0,22.77,0,34.15,0,.3,0,.59,0,.89-.02,.52-.12,.65-.58,.65-1.04,.01-2.08,0-3.12,0-.35,0-.54-.17-.55-.53-.01-.73-.02-1.47-.04-2.59Zm-14.37-10.39c-.05,1.65,.13,3.26,.6,4.84,.46,1.55,1.29,2.87,2.52,3.95,2.55,2.23,6.28,2.07,8.64-.2,1.07-1.02,1.8-2.24,2.16-3.66,.84-3.28,.77-6.57-.14-9.83-.41-1.46-1.18-2.71-2.32-3.73-2.69-2.39-6.62-2.21-9.08,.42-.87,.92-1.43,2.01-1.77,3.22-.47,1.63-.66,3.3-.61,4.99Z" fill="#030303"></path>
          <path d="M1124.57,173.73c.59-.19,.76-.57,1.01-.85,2.06-2.26,4.67-3.1,7.64-2.86,4.4,.36,7.47,2.65,9.19,6.7,1.2,2.83,1.57,5.8,1.32,8.86-.19,2.24-.68,4.4-1.71,6.41-1.58,3.08-4.05,5.08-7.42,5.9-3.24,.79-6.18,.2-8.7-2.1-.11-.1-.21-.21-.33-.3-.11-.08-.17-.22-.37-.16-.2,.06-.21,.21-.22,.33-.02,.39-.02,.79-.02,1.19,0,3.17,0,6.34,0,9.5,0,.49-.02,.98-.03,1.43-.16,.08-.25,.15-.33,.15-1.33,0-2.66,.11-3.99-.07-.4-1.25-.17-2.53-.18-3.8-.02-10.54-.01-21.09-.01-31.63,0-.4,0-.79,0-1.19,.02-.58,.1-.67,.72-.67,.99,0,1.98,0,2.97,.01,.3,0,.45,.19,.46,.47,0,.84,0,1.68,0,2.66Zm14.56,10.12c.06-1.12-.08-2.35-.31-3.56-.35-1.83-1.07-3.48-2.43-4.82-2.38-2.35-5.96-2.56-8.57-.21-1.25,1.12-2.14,2.48-2.59,4.08-.92,3.26-.94,6.55-.03,9.82,.39,1.41,1.14,2.63,2.23,3.62,2.45,2.22,6.01,2.28,8.54,.14,1.29-1.09,2.12-2.47,2.57-4.08,.44-1.58,.64-3.2,.6-4.97Z" fill="#030303"></path>
          <path d="M1413.12,21.27c0,.57,0,1.02,0,1.46,0,11.43,0,22.86,0,34.29,0,.35,0,.69,0,1.04,0,.3-.17,.48-.45,.48-2.97,0-5.94,0-8.91,0-.3,0-.44-.17-.44-.46,0-.35,0-.69,0-1.04,0-11.43,0-22.86,0-34.29,0-.35,0-.69,0-1.04,0-.28,.14-.46,.43-.49,.2-.02,.4-.01,.59-.01,2.62,0,5.25,0,7.87,0,.24,0,.48,.03,.91,.06Z" fill="#030303"></path>
          <path d="M1149.22,132.49c-1.3,0-2.63,0-3.96,0-.35,0-.59-.16-.68-.46-.27-.84-.51-1.7-.77-2.56-.4-.1-.6,.25-.86,.44-1.51,1.13-3.11,2.1-4.95,2.62-2.43,.69-4.89,.79-7.34,.19-2.79-.68-4.82-2.31-5.59-5.17-1.03-3.8,.58-6.97,3.27-8.66,1.32-.83,2.76-1.33,4.29-1.58,1.47-.23,2.94-.41,4.41-.62,1.91-.27,3.82-.56,5.67-1.12,.79-.24,.79-.26,.82-.99,.04-.8-.06-1.58-.22-2.36-.25-1.19-.91-2.05-1.97-2.65-.75-.42-1.55-.66-2.38-.78-1.68-.25-3.36-.22-5.01,.21-1.31,.34-2.32,1.09-2.97,2.29-.28,.52-.51,1.07-.72,1.62-.33,.86-.32,.87-1.13,.77-.83-.1-1.67-.21-2.5-.34-.33-.05-.65-.17-1.03-.27,.64-3.35,2.29-5.81,5.49-7.07,2.78-1.09,5.67-1.32,8.61-1.06,1.33,.12,2.64,.36,3.9,.85,2.73,1.07,4.12,3.12,4.39,5.98,.08,.89,.07,1.78,.08,2.67,.01,2.87-.01,5.74,.02,8.61,.02,1.63,.13,3.26,.18,4.89,.04,1.25,.32,2.45,.82,3.59,.12,.27,.29,.52,.13,.92Zm-5.77-13.35c-.19,0-.35-.04-.48,0-2.26,.77-4.59,1.17-6.94,1.52-1.22,.18-2.44,.37-3.61,.79-1.12,.4-1.99,1.09-2.47,2.2-.99,2.26,.2,4.84,2.68,5.52,2.98,.82,5.79,.33,8.26-1.6,1.16-.91,1.95-2.11,2.26-3.56,.34-1.59,.45-3.21,.3-4.87Z" fill="#030303"></path>
          <path d="M1386.15,132.49c-1.31,0-2.59,0-3.88,0-.4,0-.67-.16-.8-.52-.15-.42-.28-.84-.4-1.27-.12-.42-.22-.84-.33-1.27-.59,.09-.9,.51-1.28,.8-1.86,1.37-3.9,2.35-6.2,2.68-2.18,.32-4.35,.31-6.45-.42-2.8-.98-4.6-2.89-5.02-5.87-.44-3.15,.61-5.75,3.29-7.59,1.37-.94,2.91-1.46,4.54-1.72,1.47-.23,2.94-.41,4.41-.61,1.72-.24,3.43-.49,5.1-.97,1.39-.4,1.35-.07,1.31-1.8-.01-.59-.12-1.18-.23-1.76-.21-1.14-.87-1.97-1.87-2.54-.56-.32-1.16-.55-1.79-.69-1.87-.41-3.73-.39-5.59,.05-1.37,.33-2.41,1.12-3.09,2.36-.33,.61-.61,1.24-.78,1.92-.09,.35-.31,.5-.65,.46-.59-.07-1.17-.18-1.76-.25-2.62-.29-2.4-.11-1.49-2.64,.84-2.33,2.5-3.87,4.76-4.8,1.52-.63,3.12-.94,4.75-1.09,2.18-.2,4.35-.11,6.48,.44,.52,.14,1.04,.32,1.54,.52,2.63,1.03,3.91,3.07,4.18,5.8,.1,.98,.08,1.98,.09,2.97,.01,2.67-.01,5.34,.02,8.02,.02,1.68,.12,3.36,.17,5.04,.04,1.35,.31,2.65,.86,3.88,.1,.22,.24,.44,.1,.86Zm-5.77-13.3c-.33-.13-.55,0-.79,.06-1.05,.28-2.09,.59-3.16,.81-1.55,.31-3.11,.56-4.67,.82-.93,.16-1.85,.34-2.72,.7-1.81,.76-2.82,2.58-2.43,4.43,.35,1.65,1.36,2.76,2.98,3.18,2.99,.77,5.79,.31,8.26-1.64,.95-.75,1.67-1.71,2.03-2.86,.57-1.8,.65-3.66,.5-5.5Z" fill="#030303"></path>
          <path d="M1110.5,120.19c-2.77,0-5.54,0-8.32,0-.4,0-.79,0-1.19,.02-.21,.02-.37,.16-.35,.39,.17,2.26,.71,4.41,2.26,6.15,2.21,2.47,4.98,3.06,8.1,2.26,1.39-.36,2.48-1.19,3.34-2.34,.41-.56,.75-1.16,1.04-1.79,.5-1.09,.51-1.09,1.62-.94,.98,.13,1.96,.25,2.94,.4,.48,.07,.56,.24,.41,.72-1.27,3.83-3.72,6.5-7.69,7.56-2.68,.72-5.4,.71-8.07-.04-4.4-1.24-7.08-4.23-8.16-8.59-.87-3.46-.8-6.98,.2-10.42,1.06-3.62,3.29-6.31,6.81-7.75,3.04-1.25,6.19-1.34,9.29-.23,3.94,1.41,6.29,4.32,7.36,8.3,.48,1.78,.65,3.6,.6,5.44-.02,.79-.06,.83-.84,.86-.3,0-.59,0-.89,0-2.82,0-5.64,0-8.47,0Zm-9.64-3.8c5.05,.03,9.99,.02,14.98,.01-.07-1.45-.37-2.73-.94-3.94-.25-.54-.61-1.01-1-1.47-3.03-3.52-9.73-3.26-12.2,1.9-.5,1.04-.74,2.14-.85,3.5Z" fill="#030303"></path>
          <path d="M1259.19,124.53c-.28,.74-.5,1.4-.78,2.03-1.58,3.43-4.23,5.52-7.94,6.25-2.27,.45-4.54,.44-6.78-.11-4.05-1-6.81-3.5-8.22-7.42-1.03-2.85-1.11-5.81-.78-8.79,.12-1.08,.34-2.14,.68-3.18,1.65-5.06,5.73-8.19,11.04-8.42,3.63-.15,6.84,.88,9.41,3.56,1.59,1.65,2.52,3.65,3.05,5.85,.41,1.69,.5,3.42,.46,5.16-.02,.68-.06,.71-.81,.73-.49,0-.99,0-1.49,0-5.59,0-11.19,0-16.78,0-.98,0-1.03,.05-.92,.99,.19,1.59,.58,3.11,1.43,4.49,2,3.25,5.52,4.27,8.9,3.35,1.33-.36,2.4-1.14,3.25-2.23,.46-.59,.82-1.23,1.14-1.91,.52-1.11,.22-1.17,1.77-.91,1.07,.18,2.17,.11,3.39,.56Zm-19.54-8.24c1.32,.17,13.65,.16,14.77-.02-.02-5.17-3.86-7.8-7.59-7.63-4.09,.19-7.37,3.6-7.18,7.64Z" fill="#030303"></path>
          <path d="M1019.3,189.6c-1.06,3.67-3.13,6.35-6.67,7.75-1.16,.46-2.36,.73-3.61,.8-1.89,.11-3.77,.1-5.6-.43-4.14-1.2-6.84-3.9-8.04-8-1.12-3.85-1.07-7.75,.21-11.55,1.38-4.09,4.19-6.76,8.43-7.81,2.1-.52,4.23-.53,6.33-.01,3.88,.97,6.53,3.39,8.02,7.07,.94,2.33,1.15,4.8,1.08,7.29-.01,.48-.14,.57-.64,.59-.4,.01-.79,0-1.19,0-5.55,0-11.09,0-16.64,0-.48,0-.98-.1-1.45,.1-.26,3.87,2.03,7.5,5.43,8.65,1.6,.54,3.21,.56,4.82,.09,1.53-.44,2.74-1.37,3.59-2.72,.39-.62,.7-1.3,1.02-1.97,.17-.34,.37-.58,.79-.49,1.31,.27,2.66,.23,4.12,.63Zm-4.72-8.14c-.13-5.28-3.89-8.1-8.12-7.67-2.07,.21-3.76,1.13-5.06,2.76-1.17,1.46-1.76,3.32-1.55,4.91h14.73Z" fill="#030303"></path>
          <path d="M1195.87,185.48c.08,2.1,.57,4.08,1.82,5.82,2.22,3.12,6.07,3.8,9.14,2.64,.94-.36,1.76-.93,2.39-1.71,.4-.5,.73-1.06,1.09-1.59,.36-.52,.33-1.35,.94-1.61,.59-.25,1.26,.12,1.9,.17,.83,.07,1.66,.2,2.48,.31-.56,3.33-3,6.35-6.18,7.7-1.28,.54-2.63,.88-4.03,.95-1.53,.07-3.06,.09-4.58-.22-4.6-.94-7.62-3.68-8.97-8.12-1.19-3.93-1.12-7.94,.24-11.83,1.4-4.02,4.23-6.62,8.41-7.63,2.05-.5,4.13-.52,6.18-.03,3.71,.89,6.34,3.13,7.91,6.59,1.13,2.49,1.37,5.14,1.29,7.84-.01,.33-.15,.56-.53,.54-.4-.01-.79,0-1.19,0-5.6,0-11.19,0-16.79,0-.48,0-.99-.12-1.52,.17Zm15.13-4.11c-.06-5.34-4.02-7.78-7.6-7.62-4.09,.19-7.39,3.64-7.16,7.64,1.38,.17,13.66,.15,14.76-.02Z" fill="#030303"></path>
          <path d="M1074.18,189.53c-1.22,4.22-3.68,7.05-7.81,8.19-2.72,.75-5.5,.74-8.21-.05-4.39-1.27-7.04-4.29-8.1-8.65-.83-3.42-.78-6.89,.22-10.28,1.14-3.9,3.58-6.68,7.47-8.03,2.8-.97,5.65-1,8.46-.06,3.51,1.17,5.85,3.61,7.13,7.05,.84,2.25,1.08,4.61,1,7.01-.02,.47-.14,.58-.64,.6-.4,.01-.79,0-1.19,0-5.54,0-11.09,0-16.63,0-.4,0-.79,0-1.19,.02-.21,.01-.39,.12-.37,.35,.18,2.93,1.04,5.56,3.53,7.36,2.31,1.66,4.86,1.84,7.48,.87,1.29-.48,2.27-1.41,2.99-2.57,.36-.59,.67-1.21,.94-1.84,.16-.37,.36-.57,.77-.52,1.32,.18,2.64,.35,4.16,.56Zm-4.68-8.17c-.07-.96-.24-1.87-.54-2.77-.31-.95-.8-1.8-1.47-2.55-2.76-3.07-7.69-2.88-10.33-.46-1.7,1.56-2.49,3.51-2.64,5.78,.17,.05,.3,.13,.44,.13,4.7,0,9.4,0,14.1,0,.14,0,.27-.08,.43-.13Z" fill="#030303"></path>
          <path d="M1280.07,178.87v-16.64c0-.3,0-.59,0-.89,.02-.97,.02-.99,.99-.99,7.73,0,15.46,0,23.18,0,.15,0,.3,0,.45,0,.28,.03,.46,.16,.46,.46,0,.05,.01,.1,0,.15-.09,1.22,.21,2.45-.19,3.65-1.12,.25-2.26,.1-3.39,.11-4.95,.02-9.91,0-14.86,0-.4,0-.79,0-1.19,0-.38,0-.51,.21-.51,.56,0,2.18,0,4.36,0,6.54,0,1.29,0,2.58,0,3.86,0,.35,.12,.57,.51,.56,.4,0,.79,0,1.19,0,4.71,0,9.41,0,14.12,0,.4,0,.79,0,1.19,.02,.22,.01,.36,.15,.38,.37,.02,.2,.03,.4,.03,.59-.05,1.08,.12,2.17-.11,3.25-1.06,.32-2.15,.13-3.22,.14-4.16,.03-8.32,.01-12.48,.01-.4,0-.79,0-1.19,.02-.22,.01-.36,.16-.38,.37-.02,.39-.03,.79-.03,1.19,0,4.56,0,9.11,0,13.67,0,.4,0,.79,0,1.19,0,.29-.15,.48-.44,.48-1.34,.01-2.67,.02-4.01,0-.37,0-.5-.24-.49-.59,0-.4,0-.79,0-1.19,0-5.65,0-11.29,0-16.94Z" fill="#030303"></path>
          <path d="M1328.96,119.03c-.12,1.52-.16,3-.46,4.46-1.01,4.92-4.04,7.91-8.79,9.21-2.38,.65-4.81,.6-7.19-.07-4.13-1.17-6.84-3.88-8.05-7.98-1.1-3.73-1.11-7.55,0-11.27,1.39-4.71,4.67-7.42,9.49-8.29,1.93-.35,3.86-.3,5.74,.19,4.69,1.22,7.55,4.29,8.76,8.94,.41,1.59,.48,3.22,.51,4.82Zm-20.57,.29c.05,.66,.08,1.6,.22,2.53,.18,1.28,.54,2.51,1.17,3.65,2.7,4.83,9.2,5.01,12.29,1.17,.79-.98,1.32-2.08,1.64-3.29,.52-1.98,.68-4,.49-6.03-.14-1.53-.42-3.03-1.12-4.43-1.67-3.35-5.24-4.96-8.84-3.95-2.47,.69-4.07,2.35-5,4.68-.69,1.73-.8,3.56-.86,5.67Z" fill="#030303"></path>
          <path d="M1063.09,118.96c0,1.73-.13,3.45-.55,5.15-1.15,4.64-4.19,7.39-8.69,8.61-2.33,.63-4.72,.59-7.05-.05-4.13-1.14-6.88-3.8-8.12-7.9-1.15-3.83-1.17-7.73,.01-11.55,1.43-4.65,4.72-7.26,9.46-8.12,1.93-.35,3.86-.29,5.74,.21,4.88,1.29,7.72,4.54,8.83,9.4,.32,1.41,.37,2.84,.36,4.28Zm-4.66-.28c-.04-.59-.06-1.48-.17-2.37-.17-1.33-.53-2.62-1.21-3.79-2.85-4.96-9.44-4.98-12.49-.93-.66,.88-1.14,1.86-1.42,2.91-.78,2.98-.79,5.96-.02,8.95,.21,.82,.53,1.59,.98,2.31,1.95,3.14,5.39,4.27,8.76,3.21,2.44-.76,3.96-2.52,4.81-4.89,.59-1.65,.7-3.38,.76-5.41Z" fill="#030303"></path>
          <path d="M1115.04,183.94c.02,1.75-.16,3.41-.53,5.06-1.06,4.65-4.02,7.49-8.52,8.77-2.47,.7-5.01,.67-7.48-.05-4.25-1.24-6.92-4.1-8.06-8.33-.94-3.5-.92-7.05,0-10.56,1.26-4.82,5.02-8,10-8.68,1.74-.24,3.47-.2,5.16,.21,4.58,1.11,7.49,4.02,8.81,8.51,.49,1.67,.67,3.39,.62,5.08Zm-4.76,.18c0-.64,.05-1.29,0-1.93-.13-1.49-.42-2.94-1.15-4.26-1.48-2.69-3.73-4.19-6.85-4.12-3.12,.07-5.31,1.63-6.68,4.4-.2,.4-.34,.82-.47,1.25-.74,2.46-.74,4.97-.41,7.49,.15,1.18,.46,2.33,1.02,3.39,1.43,2.68,3.66,4.13,6.7,4.13,3.04,0,5.27-1.46,6.68-4.15,.25-.48,.44-1,.6-1.51,.49-1.52,.64-3.09,.56-4.68Z" fill="#030303"></path>
          <path d="M1010.87,129.03c-.43,.01-.54,.4-.75,.64-3.56,4.23-9.49,4.14-13.13,2.02-2.1-1.22-3.12-3.11-3.5-5.41-.17-1.02-.25-2.07-.26-3.1-.03-5.54-.02-11.08-.02-16.63,0-.2,0-.4,.01-.59,.02-.28,.17-.47,.46-.47,1.24,0,2.47,0,3.71,0,.23,0,.35,.17,.37,.38,.03,.39,.03,.79,.03,1.19,0,4.35-.01,8.71,0,13.06,0,1.43,.04,2.87,.15,4.3,.19,2.47,1.67,4.09,4.09,4.62,.74,.16,1.48,.17,2.21,.07,.94-.12,1.83-.4,2.67-.85,1.67-.89,2.73-2.26,3.16-4.09,.19-.82,.35-1.64,.35-2.49,0-1.58,.04-3.17,.04-4.75,0-3.27,0-6.53,0-9.8,0-.4,0-.79,.02-1.19,.01-.29,.19-.46,.47-.46,1.24,0,2.47,0,3.71,.02,.22,0,.36,.16,.38,.38,.02,.3,.03,.59,.03,.89,0,8.17,0,16.33,0,24.5,0,.25,0,.49-.01,.74,0,.29-.17,.47-.45,.47-1.09,0-2.18,0-3.27-.01-.23,0-.35-.16-.35-.39-.01-.69,0-1.39-.02-2.08-.01-.32,.12-.68-.13-.98Z" fill="#030303"></path>
          <path d="M1225.64,173.97c.5-.06,.61-.36,.79-.57,2.2-2.57,5.07-3.52,8.35-3.4,1.23,.05,2.44,.31,3.62,.75,2.83,1.07,4.33,3.17,4.8,6.08,.14,.88,.22,1.77,.22,2.66,.02,5.74,.02,11.48,.03,17.22,0,.15,0,.3-.01,.44-.01,.22-.1,.4-.34,.41-1.28,.01-2.57,.02-3.85,0-.22,0-.34-.19-.35-.4-.02-.4-.02-.79-.02-1.19,0-4.65,0-9.3,0-13.95,0-1.09-.04-2.18-.15-3.26-.28-2.93-2.13-4.63-5.08-4.77-1.74-.08-3.33,.31-4.77,1.31-.92,.64-1.59,1.48-1.99,2.52-.35,.93-.6,1.89-.65,2.88-.05,.99-.09,1.98-.1,2.97-.01,4.11,0,8.21,0,12.32,0,.4,0,.79-.02,1.19-.01,.22-.16,.38-.38,.38-1.28,0-2.57,0-3.85-.02-.23,0-.32-.2-.33-.41-.01-.25-.01-.49-.01-.74,0-8.16,0-16.33,0-24.49,0-1.34-.04-1.33,1.28-1.32,.79,0,1.58,0,2.38,.02,.3,0,.45,.18,.46,.47,.01,.49,0,.99,0,1.48,0,.44,0,.89,0,1.42Z" fill="#030303"></path>
          <path d="M1159.55,108.92c.18-.2,.31-.35,.44-.5,2.4-2.89,5.56-3.8,9.17-3.48,1.03,.09,2.04,.36,3.02,.74,2.82,1.11,4.27,3.26,4.7,6.16,.15,1.02,.21,2.07,.22,3.11,.02,5.44,.01,10.89,.01,16.34,0,.25,0,.49-.01,.74,0,.3-.19,.45-.47,.46-1.19,.01-2.38,0-3.56,0-.05,0-.1,0-.15-.02-.22-.03-.37-.15-.38-.37-.02-.39-.02-.79-.02-1.19,0-4.75,0-9.5,0-14.26,0-.84-.02-1.68-.07-2.52-.03-.49-.13-.98-.23-1.46-.4-1.96-1.69-3.12-3.55-3.59-1.83-.46-3.64-.25-5.34,.63-1.58,.82-2.6,2.09-3.06,3.82-.4,1.5-.5,3.03-.5,4.56-.01,4.31,0,8.61,0,12.92,0,1.69,.15,1.51-1.52,1.47-.97-.02-1.96,.22-2.92-.15-.24-.92-.1-1.86-.11-2.79-.01-7.57,0-15.15,0-22.72,0-1.44-.06-1.37,1.39-1.33,.87,.02,1.77-.2,2.62,.16,.23,.82,.06,1.66,.12,2.49,.02,.23-.08,.49,.22,.78Z" fill="#030303"></path>
          <path d="M1344.11,173.93c.33,.07,.41-.21,.56-.38,2.45-2.92,5.64-3.85,9.32-3.46,.99,.11,1.94,.35,2.87,.71,2.58,1,4.04,2.92,4.62,5.57,.19,.87,.28,1.76,.28,2.65,0,5.89,.01,11.79,.02,17.68,0,.15,0,.3-.01,.45,0,.3-.19,.44-.47,.44-.79,0-1.59,.02-2.38,0-1.92-.02-1.67,.26-1.67-1.62-.01-4.75-.01-9.51,0-14.26,0-1.14-.07-2.28-.24-3.4-.35-2.4-2.03-4-4.45-4.26-1.88-.2-3.64,.12-5.24,1.2-1.03,.69-1.75,1.61-2.16,2.76-.35,.98-.58,2-.63,3.04-.04,.84-.06,1.68-.06,2.52,0,4.11,0,8.22,0,12.33,0,.4,0,.79,0,1.19,0,.29-.14,.48-.43,.49-1.24,.01-2.48,.02-3.71,0-.28,0-.42-.21-.43-.5,0-.35,0-.69,0-1.04,0-7.97,0-15.95,0-23.92,0-.35,0-.69,.02-1.04,.02-.27,.15-.48,.45-.49,1.04-.01,2.08,0,3.12,0,.38,0,.5,.24,.51,.58,0,.69,0,1.39,.01,2.08,0,.23-.11,.49,.12,.68Z" fill="#030303"></path>
          <path d="M1334.34,118.95c0-3.96,0-7.92,0-11.87,0-.4,0-.79,.02-1.19,.01-.21,.14-.39,.36-.4,1.09-.02,2.18-.02,3.27,0,.31,0,.41,.25,.41,.51,.02,.59,0,1.19,.02,1.78,0,.25,.01,.49,.04,.74,0,.08,.09,.16,.15,.21,.1,.08,.18,.05,.25-.04,.12-.15,.26-.3,.39-.45,2.43-2.77,5.55-3.64,9.1-3.29,1.29,.13,2.52,.49,3.68,1.07,1.58,.78,2.7,1.98,3.36,3.61,.41,1.01,.69,2.06,.72,3.16,.03,.94,.06,1.88,.06,2.82,0,5.15,0,10.29,0,15.44,0,.35,0,.69-.02,1.04,0,.22-.13,.35-.35,.39-.05,0-.1,.01-.15,.01-1.28-.03-2.56,.1-3.84-.08-.4-1.2-.15-2.43-.16-3.65-.04-4.21-.02-8.41-.02-12.62,0-1.09-.06-2.17-.27-3.25-.4-2.08-1.69-3.35-3.67-3.83-2.05-.49-4.02-.17-5.84,.98-1.58,1-2.32,2.51-2.68,4.26-.24,1.17-.31,2.35-.31,3.54,0,4.45,0,8.91,0,13.36,0,1.35,.12,1.29-1.28,1.29-.89,0-1.78,0-2.67,0-.53,0-.57-.06-.58-.62-.01-.35,0-.69,0-1.04,0-3.96,0-7.92,0-11.87Z" fill="#030303"></path>
          <path d="M1332.7,184.17c0,3.91,0,7.82,0,11.73,0,.4,0,.79,0,1.19,0,.38-.2,.51-.55,.51-.94,0-1.88,0-2.82,0-.58,0-.64-.08-.66-.71-.02-.79-.01-1.58-.03-2.37,0-.08-.05-.2-.12-.24-.14-.09-.26-.03-.37,.09-.3,.33-.59,.67-.9,.99-1.79,1.79-3.95,2.74-6.49,2.85-2.07,.09-4.03-.28-5.87-1.26-1.61-.86-2.7-2.14-3.3-3.85-.36-1.03-.58-2.1-.62-3.19-.03-.89-.05-1.78-.05-2.67,0-5.05,0-10.1,0-15.14,0-.35,0-.69,.01-1.04,.02-.28,.19-.44,.48-.45,.54,0,1.09-.04,1.63,0,.77,.05,1.57-.18,2.32,.18,.18,.73,.08,1.48,.08,2.22,.01,4.4,0,8.81,0,13.21,0,1.19,.05,2.37,.2,3.55,.31,2.44,1.86,4.11,4.27,4.45,2.22,.32,4.22-.25,5.95-1.7,1.15-.97,1.72-2.27,1.99-3.71,.24-1.27,.31-2.55,.31-3.84,0-4.31,0-8.61,0-12.92,0-1.57-.1-1.45,1.43-1.45,.89,0,1.78,0,2.67,.02,.22,0,.38,.14,.39,.36,.03,.39,.04,.79,.04,1.18,0,4.01,0,8.02,0,12.03Z" fill="#030303"></path>
          <path d="M1022.37,170.59c1.57,0,2.95,0,4.33,0,.29,0,.45,.18,.57,.4,.07,.13,.09,.28,.14,.42,2.11,5.96,4.23,11.91,6.34,17.87,.29,.83,.54,1.68,.87,2.69,.18-.43,.31-.69,.4-.96,2.16-6.57,4.69-13.01,6.98-19.53,.05-.14,.13-.27,.17-.41,.1-.32,.3-.49,.65-.49,1.33,0,2.66,0,3.95,0,.2,.45-.03,.76-.15,1.07-3.13,8.32-6.28,16.63-9.42,24.95-.09,.23-.18,.46-.28,.69-.09,.2-.25,.29-.46,.29-1.19,0-2.37,0-3.56,0-.21,0-.37-.1-.45-.31-.09-.23-.19-.46-.28-.69-3.15-8.31-6.3-16.62-9.45-24.94-.1-.27-.18-.55-.34-1.06Z" fill="#030303"></path>
          <path d="M1260.4,174.12h-4.29c-.34,.39-.28,.75-.28,1.09,0,4.95,0,9.9,0,14.85,0,.59,.03,1.19,.1,1.78,.13,1.06,.76,1.68,1.83,1.82,.39,.05,.79,.03,1.19,.02,.44,0,.88-.05,1.37-.07,.43,1.26,.43,2.54,.7,3.59-.15,.43-.38,.43-.55,.47-1.62,.34-3.24,.36-4.87,.14-.34-.05-.68-.15-1-.27-1.78-.66-2.89-1.88-3.08-3.8-.13-1.28-.23-2.57-.23-3.85-.03-4.8-.01-9.6-.01-14.4,0-1.48,.07-1.33-1.38-1.34-.59,0-1.18,0-1.76,0-.3-.48-.19-.93-.18-1.35,.02-.68-.29-1.52,.16-2.01,.46-.51,1.31-.13,1.99-.2,.25-.02,.49,0,.74-.02,.31,0,.42-.2,.42-.48,0-.4,0-.79,0-1.19,0-1.44,.01-2.87,0-4.31,0-.44,.11-.74,.51-.98,1.28-.75,2.53-1.52,3.76-2.27,.42,.23,.29,.56,.29,.83,.01,2.57,0,5.15,.01,7.72,0,.63,.04,.66,.69,.67,1.09,.01,2.18,0,3.27,.01,.49,0,.6,.12,.6,.63,.01,.94,0,1.87,0,2.9Z" fill="#030303"></path>
          <path d="M1022.35,132.49c-.06-.23-.12-.37-.12-.51,0-8.65,0-17.31,0-25.96,0-.14,.07-.28,.12-.48,1.27-.1,2.53-.09,3.83,0,.24,1.15-.02,2.29,.16,3.37,.33,.08,.41-.12,.51-.28,.47-.76,.97-1.49,1.58-2.14,1.05-1.1,2.35-1.63,3.85-1.6,1.47,.02,2.81,.51,4.08,1.22,.29,.16,.4,.4,.27,.74-.45,1.2-.89,2.4-1.3,3.52-.44,.18-.65-.11-.92-.19-.38-.11-.74-.27-1.12-.37-2.56-.66-4.76,.5-5.67,2.99-.5,1.35-.73,2.77-.81,4.21-.04,.64-.03,1.29-.03,1.93,0,3.96,0,7.91,0,11.87,0,.35,0,.69,0,1.04-.02,.54-.09,.64-.57,.65-1.28,.01-2.56,0-3.84,0Z" fill="#030303"></path>
          <path d="M1392.05,113.74c0-5.64,0-11.28,0-16.93,0-.4,0-.79,.02-1.19,0-.22,.13-.36,.36-.37,.15,0,.3-.02,.44-.02,1.18,.05,2.36-.11,3.54,.09,.37,1.15,.15,2.34,.15,3.51,.02,10.69,.02,21.38,.01,32.07,0,1.82,.22,1.56-1.57,1.58-.79,0-1.58,0-2.38,0-.49,0-.56-.09-.58-.63-.01-.4,0-.79,0-1.19,0-5.64,0-11.28,0-16.93Z" fill="#030303"></path>
          <path d="M1084.43,179.12c0,5.59,0,11.19,0,16.78,0,.35,0,.69,0,1.04-.02,.53-.1,.64-.57,.65-1.19,.01-2.38,0-3.56,0-.22,0-.38-.1-.39-.34-.02-.35-.02-.69-.02-1.04,0-11.48,0-22.97,0-34.45,0-.3,0-.59,0-.89,0-.39,.21-.51,.56-.51,1.14,0,2.28,0,3.42,0,.47,0,.56,.11,.57,.65,.01,.4,0,.79,0,1.19,0,5.64,0,11.28,0,16.93Z" fill="#030303"></path>
          <path d="M1293.9,119.1c0-4.01,0-8.02,0-12.02,0-.4,0-.79,.03-1.19,.01-.21,.15-.36,.36-.4,.14-.03,.3-.03,.44-.02,1.18,.06,2.36-.14,3.53,.11,.41,1.15,.16,2.34,.17,3.5,.03,7.12,.01,14.25,.01,21.37,0,.3,0,.59,0,.89,0,1.12,.06,1.15-1.13,1.14-.94,0-1.88,0-2.82,0-.52,0-.57-.07-.59-.62-.01-.35,0-.69,0-1.04,0-3.91,0-7.82,0-11.73Z" fill="#030303"></path>
          <path d="M1408.25,7c1.38,0,2.77,0,4.15,0,.61,0,.72,.1,.72,.66,0,2.62,0,5.24,0,7.86,0,.35-.15,.56-.51,.58-.3,.01-.59,.01-.89,.02-2.37,0-4.75,0-7.12,0-.3,0-.59,0-.89-.02-.22-.01-.36-.15-.39-.36-.03-.19-.02-.39-.02-.59,0-2.42,0-4.84,0-7.26,0-.86,.02-.87,.93-.87,1.33,0,2.67,0,4,0Z" fill="#030303"></path>
          <path d="M1298.44,97.89c0,.39,0,.79,0,1.18,0,1.45,.15,1.4-1.32,1.39-.89,0-1.78,0-2.67,0-.34,0-.56-.12-.56-.5,0-1.38,0-2.76,0-4.14,0-.34,.1-.57,.49-.57,1.18,0,2.37,0,3.55,0,.37,0,.51,.21,.51,.57,0,.69,0,1.38,0,2.07h0Z" fill="#030303"></path>
          <path d="M760.45,53.45c-.43,0-.71-.32-1.03-.54-1.5-1.05-2.99-2.11-4.48-3.17-.24-.17-.49-.34-.73-.51-.27-.19-.55-.19-.82,0-.77,.54-1.54,1.08-2.3,1.63-1.25,.88-2.5,1.77-3.76,2.66-.31-.31-.07-.56,0-.8,.64-1.98,1.29-3.95,1.91-5.92,.28-.9,.28-.92-.48-1.48-1.71-1.27-3.43-2.51-5.14-3.78-.21-.16-.56-.22-.56-.66,2.12,0,4.23,0,6.34,0,2.08,0,1.74,.19,2.41-1.81,.66-1.97,1.26-3.95,1.9-5.95,.29,.25,.36,.53,.45,.82,.61,1.93,1.22,3.86,1.85,5.79,.37,1.14,.38,1.15,1.54,1.15,2.03,.01,4.06,0,6.09,0,.29,0,.58,0,.86,0,.06,.39-.24,.45-.4,.57-1.59,1.18-3.19,2.34-4.79,3.51-.24,.18-.47,.36-.71,.53-.37,.26-.48,.58-.33,1.02,.28,.79,.52,1.6,.77,2.4,.47,1.51,.95,3.01,1.42,4.52,0,0-.01,.01-.01,.01Z" fill="#ffd300"></path>
          <path d="M799.73,172.17c-1.65,1.21-3.28,2.4-4.9,3.61-1.91,1.42-1.7,.9-1.02,3.08,.58,1.88,1.22,3.74,1.84,5.62-.42,.18-.58-.14-.79-.28-1.74-1.22-3.47-2.46-5.21-3.68-.7-.49-.72-.48-1.43,.03-1.57,1.12-3.12,2.27-4.69,3.39-.3,.22-.55,.54-.98,.56-.12-.32,.04-.59,.13-.86,.56-1.74,1.1-3.48,1.69-5.21,.53-1.59,.54-1.39-.82-2.37-1.52-1.1-3.06-2.18-4.58-3.29-.26-.19-.62-.31-.72-.69,.43-.18,.88-.09,1.32-.09,1.78,0,3.56,0,5.34,0,1.28,0,1.41,.21,1.88-1.31,.63-2.03,1.31-4.04,1.98-6.06,.03-.08,.07-.15,.11-.23,.25,.13,.29,.38,.37,.62,.66,2.02,1.35,4.03,1.97,6.06,.26,.83,.54,.93,1.26,.93,2.08-.01,4.15-.01,6.23,0,.32,0,.67-.13,1.01,.2Z" fill="#ffd300"></path>
          <path d="M717.47,136.51c2.22,0,4.44,0,6.66,0,1.69,0,1.41-.11,1.83-1.37,.65-1.92,1.24-3.86,1.86-5.79,.06-.18,.06-.4,.39-.48,.21,.63,.44,1.26,.64,1.89,.51,1.6,1.01,3.21,1.54,4.8,.29,.89,.34,.93,1.25,.93,2.18,.01,4.36,0,6.53,0,.23,0,.46,0,.71,0-.09,.46-.47,.55-.73,.74-1.69,1.21-3.39,2.41-5.07,3.62-.71,.51-.71,.53-.44,1.35,.59,1.83,1.21,3.66,1.79,5.5,.13,.41,.39,.8,.26,1.34-.49-.31-.95-.6-1.39-.9-1.47-1.01-2.95-2-4.39-3.04-.56-.4-.99-.44-1.58-.02-1.6,1.16-3.25,2.25-4.88,3.37-.28,.19-.56,.38-.85,.57-.26-.42-.02-.72,.08-1.02,.55-1.74,1.14-3.48,1.71-5.21,.09-.28,.19-.56,.27-.85,.11-.36,.05-.68-.28-.91-.28-.2-.56-.41-.84-.61-1.45-1.03-2.9-2.06-4.36-3.1-.28-.2-.55-.4-.83-.6,.04-.08,.08-.15,.12-.23Z" fill="#ffd300"></path>
          <path d="M839.03,136.51c1.04,0,2.06,0,3.08,0,1.39,0,2.77,0,4.16,0,.91,0,.95-.04,1.25-.93,.63-1.87,1.23-3.76,1.85-5.63,.11-.33,.23-.65,.36-1.03,.33,.36,.39,.77,.51,1.15,.56,1.69,1.12,3.38,1.68,5.07,.49,1.48,.31,1.38,1.96,1.38,1.98,0,3.96,0,5.94,0,.23,0,.48-.1,.71,.09-.16,.39-.54,.55-.84,.76-1.6,1.16-3.22,2.3-4.82,3.46-.78,.57-1.08,.53-.63,1.81,.67,1.91,1.27,3.85,1.88,5.78,.07,.22,.25,.43,.14,.71-.42-.03-.67-.36-.97-.58-1.61-1.15-3.2-2.33-4.81-3.48-.68-.49-.72-.48-1.43,.02-1.62,1.14-3.23,2.29-4.84,3.43-.28,.2-.52,.46-.89,.51-.26-.21-.09-.43-.02-.64,.63-1.93,1.27-3.85,1.89-5.78,.34-1.06,.34-1.08-.52-1.72-1.63-1.21-3.27-2.39-4.9-3.61-.26-.19-.63-.29-.73-.78Z" fill="#ffd300"></path>
          <path d="M795.24,44.31c-1.25-.9-2.45-1.77-3.64-2.63-.76-.55-1.53-1.09-2.28-1.66-.37-.28-.68-.29-1.06-.02-1.4,1.02-2.82,2.01-4.23,3.01-.6,.42-1.2,.84-1.83,1.28-.11-.44,.07-.74,.17-1.07,.57-1.74,1.13-3.48,1.7-5.22,.11-.33,.21-.66,.3-.99,.07-.26,0-.49-.21-.66-.27-.22-.55-.43-.82-.63-1.55-1.14-3.11-2.28-4.66-3.44-.22-.16-.55-.24-.6-.6,.12-.25,.35-.12,.52-.12,2.03-.01,4.06,0,6.09,0,.3,0,.59-.01,.89,0,.46,0,.7-.21,.85-.66,.57-1.79,1.16-3.57,1.76-5.35,.17-.51,.25-1.06,.66-1.61,.14,.41,.27,.75,.38,1.09,.61,1.88,1.22,3.76,1.84,5.64,.28,.86,.33,.89,1.28,.89,2.38,.01,4.75,0,7.14,0,.14,.33-.17,.4-.34,.53-1.6,1.16-3.21,2.31-4.82,3.47-.28,.2-.55,.42-.85,.6-.45,.29-.52,.67-.37,1.15,.63,1.92,1.26,3.85,1.89,5.78,.12,.36,.32,.71,.24,1.22Z" fill="#ffd300"></path>
          <path d="M865.54,114.86c-2.17-1.57-4.04-2.94-5.92-4.31-.69-.5-.7-.5-1.42,0-1.74,1.23-3.47,2.47-5.2,3.7-.2,.14-.41,.27-.62,.4-.24-.32-.02-.58,.06-.83,.6-1.88,1.22-3.76,1.83-5.64,.09-.28,.18-.57,.24-.85,.05-.2-.02-.4-.18-.53-.27-.22-.54-.43-.82-.64-1.47-1.09-2.95-2.17-4.43-3.25-.31-.23-.62-.47-.91-.69,.1-.36,.33-.25,.5-.26,1.98,0,3.96,0,5.94,0,.3,0,.59-.01,.89,0,.56,.03,.92-.16,1.08-.76,.23-.86,.55-1.69,.83-2.54,.46-1.4,.93-2.81,1.39-4.2,.36-.01,.26,.26,.34,.38,.08,.12,.12,.27,.16,.41,.58,1.79,1.16,3.57,1.75,5.36,.09,.28,.18,.56,.28,.84,.11,.31,.33,.48,.67,.49,.49,0,.99,.01,1.48,.01,2.06,0,4.12,0,6.19,0-.06,.43-.38,.52-.61,.68-1.6,1.16-3.22,2.31-4.82,3.46-1.22,.88-1.31,.72-.79,2.26,.61,1.78,1.17,3.57,1.75,5.36,.09,.27,.16,.55,.32,1.12Z" fill="#ffd300"></path>
          <path d="M813.01,40.72c2.54,0,4.91,0,7.29,0,.87,0,.9-.02,1.17-.83,.69-2.06,1.36-4.13,2.04-6.2,.06-.17,.03-.41,.38-.45,.21,.62,.44,1.25,.65,1.89,.5,1.5,.98,3.01,1.48,4.51,.36,1.07,.37,1.07,1.43,1.08,2.08,0,4.16,0,6.24,0,.24,0,.48,0,.71,0,.13,.39-.18,.46-.35,.59-1.75,1.3-3.51,2.58-5.26,3.87-.74,.55-.74,.57-.45,1.49,.71,2.2,1.43,4.41,2.15,6.62-.38,.16-.55-.15-.76-.3-1.74-1.22-3.47-2.46-5.21-3.69-.75-.53-.77-.52-1.55,.03-1.66,1.17-3.31,2.35-4.96,3.52-.28,.2-.56,.38-1.03,.69,.49-1.5,.91-2.8,1.33-4.1,.32-.99,.66-1.97,.96-2.96,.21-.69,.18-.79-.43-1.25-1.59-1.18-3.19-2.34-4.79-3.51-.35-.26-.76-.45-1.06-1.01Z" fill="#ffd300"></path>
          <path d="M830.6,174.96c-1.48-1.07-2.97-2.14-4.45-3.21-.32-.23-.64-.46-.96-.69-1.13-.81-1.01-.89-2.16-.05-.12,.09-.24,.17-.36,.26-1.49,1.06-2.99,2.12-4.48,3.17-.24,.17-.48,.32-.89,.61,.26-.84,.46-1.48,.67-2.13,.54-1.64,1.09-3.28,1.62-4.93,.22-.68,.18-.82-.42-1.25-1.44-1.04-2.9-2.06-4.35-3.09-.48-.34-.96-.69-1.42-1.02,.09-.43,.39-.27,.59-.27,2.03-.01,4.06,0,6.08,0,.35,0,.69,0,1.04-.03,.26-.02,.46-.18,.55-.43,.22-.65,.44-1.31,.65-1.97,.51-1.6,1.02-3.2,1.53-4.8,.04-.13,.12-.25,.18-.36,.34-.01,.28,.25,.33,.41,.61,1.88,1.21,3.76,1.81,5.64,.12,.38,.25,.75,.4,1.11,.1,.24,.3,.39,.57,.4,.35,.01,.69,.02,1.04,.02,2.22,0,4.44,0,6.66,0,.03,.39-.32,.46-.54,.61-1.69,1.2-3.41,2.38-5.11,3.57-.99,.69-1,.7-.64,1.79,.55,1.69,1.12,3.38,1.66,5.07,.17,.51,.4,1.02,.4,1.57h0Z" fill="#ffd300"></path>
          <path d="M859.97,66.65c.02,.39-.34,.46-.56,.61-1.64,1.2-3.29,2.37-4.94,3.55-.2,.14-.4,.29-.6,.43-.33,.23-.4,.5-.26,.89,.6,1.68,1.16,3.36,1.74,5.05,.22,.65,.44,1.3,.67,1.95-.38,.13-.55-.17-.76-.32-1.7-1.19-3.39-2.41-5.09-3.6-.85-.6-.86-.6-1.67-.02-1.7,1.2-3.39,2.41-5.09,3.61-.23,.16-.41,.42-.82,.39,.63-1.93,1.26-3.85,1.87-5.76,.68-2.15,.87-1.64-.92-2.97-1.35-1-2.72-1.98-4.07-2.99-.3-.22-.68-.38-.83-.78,.33-.22,.68-.11,1.01-.11,1.83-.01,3.66,0,5.5,0,1.8,0,1.53,.16,2.12-1.58,.66-1.96,1.29-3.94,1.93-5.89,.33-.02,.33,.21,.39,.39,.68,2.07,1.35,4.13,2.05,6.2,.29,.87,.31,.88,1.27,.89,2.03,.01,4.06,0,6.09,0,.33,0,.67-.1,.99,.08Z" fill="#ffd300"></path>
          <path d="M734.6,79.28c-1.78-1.25-3.57-2.49-5.35-3.74-.24-.17-.5-.32-.72-.52-.42-.37-.78-.27-1.19,.04-1.67,1.23-3.36,2.45-5.05,3.66-.26,.19-.47,.5-.92,.46,.66-1.99,1.33-3.95,1.94-5.92,.56-1.82,.82-1.49-.91-2.73-1.53-1.09-3.06-2.19-4.59-3.29-.23-.16-.44-.34-.87-.67,1.55,0,2.82,0,4.09,0,1.04,0,2.08,0,3.12,0,1.29,0,1.19,.08,1.62-1.23,.67-2.02,1.34-4.04,2.01-6.05,.03-.09,.08-.18,.12-.27,.32,.21,.34,.56,.45,.88,.61,1.88,1.22,3.76,1.85,5.64,.34,1.02,.35,1.03,1.47,1.03,2.13,0,4.26,0,6.39,0,.19,0,.39,0,.58,0,.09,.37-.21,.44-.38,.57-1.47,1.09-2.95,2.16-4.43,3.25-.4,.29-.8,.59-1.19,.89-.25,.2-.36,.45-.25,.78,.19,.56,.35,1.13,.53,1.7,.47,1.46,.96,2.91,1.42,4.37,.12,.37,.18,.76,.27,1.15h0Z" fill="#ffd300"></path>
          <path d="M760.45,174.96c-1.74-1.23-3.48-2.46-5.21-3.68-.36-.26-.73-.52-1.1-.76-.22-.15-.47-.15-.7,0-.25,.17-.48,.34-.72,.52-1.44,1.05-2.88,2.1-4.33,3.14-.35,.25-.71,.49-1.25,.86,.69-2.12,1.32-4.03,1.95-5.95,.15-.47,.3-.94,.44-1.42,.09-.32-.01-.58-.28-.78-.72-.52-1.45-1.04-2.17-1.56-1.32-.95-2.64-1.9-3.95-2.84,.16-.39,.45-.26,.66-.26,2.18-.01,4.36,0,6.54-.01,.83,0,.9-.05,1.17-.84,.75-2.25,1.48-4.51,2.23-6.8,.36,.31,.39,.74,.51,1.13,.59,1.78,1.15,3.58,1.77,5.35,.4,1.14,.16,1.18,1.67,1.17,1.98,0,3.96,0,5.94,0,.29,0,.58,0,.87,0,.06,.38-.24,.44-.42,.57-1.55,1.15-3.12,2.28-4.67,3.43-1.45,1.08-1.42,.78-.85,2.5,.5,1.5,.99,3,1.47,4.51,.18,.56,.43,1.11,.43,1.72h0Z" fill="#ffd300"></path>
          <path d="M725.09,114.64c-1.4-.75-2.62-1.75-3.95-2.61-.54-.35-1.06-.73-1.59-1.09-1.1-.76-1.06-.73-2.06-.02-1.57,1.12-3.15,2.23-4.73,3.33-.22,.15-.4,.43-.82,.35,.27-.85,.52-1.69,.79-2.53,.43-1.31,.88-2.62,1.3-3.94,.35-1.1,.35-1.11-.64-1.81-1.58-1.11-3.17-2.2-4.75-3.3-.28-.19-.55-.4-.82-.6,.16-.36,.44-.22,.65-.22,2.18-.01,4.35,0,6.53-.01,.84,0,.91-.06,1.17-.84,.7-2.16,1.39-4.32,2.09-6.49,.04-.13,.1-.25,.14-.38,.26,.07,.29,.27,.35,.46,.66,2.07,1.35,4.13,1.98,6.21,.31,1.02,.45,1.05,1.46,1.04,1.93,0,3.86,0,5.79,0h1.15c0,.4-.28,.46-.46,.59-1.65,1.18-3.3,2.35-4.95,3.53-.98,.7-.98,.71-.62,1.81,.56,1.74,1.12,3.48,1.69,5.21,.14,.42,.29,.84,.3,1.29l-.02,.02Z" fill="#ffd300"></path>
          <path d="M734.6,79.28s0,0,0,0,0,0,0,0Z" fill="#ffd300"></path>
          <path d="M760.46,174.96s0,0,0,0,0,0,0,0Z" fill="#ffd300"></path>
          <polygon points="725.11 114.62 725.17 114.7 725.09 114.64 725.11 114.62" fill="#ffd300"></polygon>
          <polygon points="760.46 53.44 760.49 53.49 760.45 53.45 760.46 53.44" fill="#ffd300"></polygon>
        </g>
      </g>
    </g>
  </g>
</svg>
