<svg xmlns="http://www.w3.org/2000/svg" viewBox="0 0 490.07 480"><defs><style>.cls-1{fill:#0148a9;}.cls-2{fill:#231f20;}.cls-3{fill:#e6cb32;}</style></defs><g id="Layer_2" data-name="Layer 2"><g id="Layer_1-2" data-name="Layer 1"><path class="cls-1" d="M490.07,5.4c0-4.32-1.05-5.41-5.38-5.4Q364.82.21,245,.11,124.85.11,4.73,0C1.05,0,0,.91,0,4.7Q.18,163.14,0,321.58c0,4.32,1.21,5.75,5.29,5.11a19.34,19.34,0,0,1,2.85,0q238.55,0,477.1.08c4.07,0,4.82-1.11,4.82-5Q489.89,163.6,490.07,5.4Z"/><path class="cls-2" d="M.12,360.62c0-6.5.09-13,0-19.48-.06-2.64.36-4,3.54-4,9.18.19,18.37.23,27.54,0,3.57-.1,3.08,1.88,3.23,4.12.19,2.7-.33,4-3.52,3.89-5.84-.26-11.71.05-17.56-.11-2.69-.08-4,.32-3.89,3.52.13,6.84-.08,6.84,6.7,6.84,4.27,0,8.57.26,12.81-.09,3.53-.3,3.69,1.38,3.77,4.14.09,3.07-.77,4.14-4,4-5.21-.29-10.45,0-15.67-.13-2.5-.07-3.57.4-3.62,3.29-.16,9.35-.3,9.34,9,9.34,4.75,0,9.51.19,14.24-.06,3.2-.17,2.76,1.79,2.59,3.62s1.22,4.31-2.49,4.26q-15-.18-29.91,0c-2.56,0-2.75-1.21-2.73-3.2C.17,373.92.12,367.27.12,360.62Z"/><path class="cls-2" d="M351.92,355.2c0,5.07.27,10.15-.06,15.19-.53,8-4.73,12.48-12.53,13.8a30.17,30.17,0,0,1-12.26-.35c-6.68-1.64-10.92-6.1-11.18-12.93-.39-10.28-.24-20.58-.46-30.86-.09-4.35,3-2.6,5-2.76s4.42-.8,4.33,3q-.3,13.77.14,27.54c.17,5.49,2.76,8,7.64,8.56,6.65.73,9.92-1.89,10.08-8.62.22-8.86.35-17.74,0-26.6-.15-4.27,2.15-4,5-4s4.91-.2,4.6,3.78c-.37,4.72-.09,9.49-.09,14.24Z"/><path class="cls-2" d="M155.68,380.13c0,5.2-.2,9.32.06,13.41.23,3.66-2.1,3.22-4.29,3.1s-4.86,1-4.8-3.11c.17-13.12,0-26.26.1-39.39,0-1.6-1.08-4.32,2.25-3.92,2.44.29,6.36-2.13,6.31,3.22,9.46-6,16.81-5.09,21.44,2.39,5.17,8.33,2.68,22.32-4.86,26.87C166.29,386.08,161.1,384.78,155.68,380.13Zm14.64-12c-.1-3.16-.09-5.18-.93-7.15-1.27-3-3.5-4.6-6.58-4.57a6.48,6.48,0,0,0-6.21,4.37,15.5,15.5,0,0,0,.46,12.85,6.46,6.46,0,0,0,6.6,3.69,6,6,0,0,0,5.83-4.71A29.33,29.33,0,0,0,170.32,368.1Z"/><path class="cls-2" d="M417.21,367.07c-.3-10,6.54-17.41,16.3-17.73,10.35-.35,17.88,6.65,18.25,17,.36,10.11-7.08,18.09-17,18.27C424.26,384.75,417.54,378,417.21,367.07Zm25.2.35c.13-7.51-4-11.94-9.87-10.51-4.11,1-6.42,4.85-6.27,10.45.15,6,3.32,9.78,8.08,9.78C439.29,377.14,442.3,373.51,442.41,367.42Z"/><path class="cls-2" d="M140,366.73c0,10.24-7.11,17.78-16.86,17.83-10.73.05-17.64-7-17.6-18,0-10.15,7.1-17.2,17.33-17.26C132.87,349.27,140,356.49,140,366.73Zm-25.24-.07c-.13,6.29,2.8,10.24,7.72,10.45s8.32-3.57,8.54-9.73-3.12-10.71-8.07-10.74S114.88,360.34,114.76,366.66Z"/><path class="cls-2" d="M251.19,383.79c-3.55-1-7.53,2.24-9.86-2.64-.38-.8-1.56.51-2.31,1a14.29,14.29,0,0,1-11.29,2.05C223,383,220.4,380,220,375.24c-.42-4.47,2-8.18,6.61-9.71,3.73-1.23,7.63-1.92,11.45-2.89,1.17-.29,2.64-.31,2.64-2.11s-.6-3.2-2.29-3.78c-3-1-6.26-1.49-8.24,1.42-2.54,3.74-5.33,1-8,.84-1.44-.09-.8-1.43-.5-2.23,1.14-2.92,3-5.28,6-6.29a24.52,24.52,0,0,1,15.83,0c3.86,1.3,5.67,4.38,5.74,8.41s.13,8.23.05,12.34S249.39,379.41,251.19,383.79Zm-11-16c-2.75.69-5.49,1.3-8.2,2.07a3.72,3.72,0,0,0-3,4.64c.41,2.42,2.05,3.4,4.34,3.56C238.7,378.47,241.19,374.8,240.19,367.81Z"/><path class="cls-2" d="M204,369.46c-2.86,0-5.72.14-8.56,0-2.43-.15-2.71,1.11-2.16,2.87.86,2.71,2.51,4.85,5.44,5.42a5.56,5.56,0,0,0,6.38-3c.81-1.39,7.52-1.69,8.48-.28,1.4,2-.58,3.52-1.62,4.86-5.77,7.45-19.55,7-24.92-.77-4.19-6-4.37-16.46-.39-22.57s12-8.4,19-5.58c6,2.42,10.37,10.58,9.48,17.22-.25,1.89-1.21,1.87-2.52,1.87H204Zm-4.59-5.54a23,23,0,0,0,2.35,0c1.46-.16,3.58.82,4.19-.86s-.58-3.63-1.87-5a6.5,6.5,0,0,0-2.35-1.49,5.73,5.73,0,0,0-6.46,1.5c-1.35,1.35-2.77,3.3-1.87,5,1.1,2.07,3.66.58,5.54.92A3.68,3.68,0,0,0,199.4,363.92Z"/><path class="cls-2" d="M370.23,354.38c3.55-3.22,6.62-5,10.47-5.09,6.91-.18,11.14,3.46,11.4,10.39.26,7.12,0,14.26.21,21.38.09,4.48-3.18,2.29-5,2.58s-4.08.76-3.9-2.81c.29-6,0-12,0-18.05,0-3.58-1.2-6.46-5.21-6.59s-6.72,2.25-7,6.25a145.11,145.11,0,0,0-.25,17.57c.2,4-1.94,3.68-4.64,3.77-3,.11-4.62-.24-4.51-3.94.26-8.55,0-17.11.11-25.66,0-1.6-1.13-4.37,2.22-3.95C366.52,350.52,370.68,348,370.23,354.38Z"/><path class="cls-2" d="M266.53,354.36c3.89-3.71,7.89-5.62,12.82-4.94,5.23.73,8.76,4.13,8.93,9.4.25,7.43.08,14.88.18,22.31.06,4.49-3.26,2.13-5.1,2.52-2.07.44-3.94.45-3.78-2.88.28-5.84.08-11.71,0-17.57,0-3.59-.88-6.74-5.27-7-3.7-.25-6.8,2.54-7,6.75-.34,5.84-.53,11.72-.29,17.56.16,4-2.36,3.22-4.59,3.21s-4.7.85-4.55-3.27c.33-8.7.07-17.41.14-26.12,0-1.79-1.06-4.5,2.57-4.14C263.17,350.42,267,348.59,266.53,354.36Z"/><path class="cls-2" d="M64.47,380.41c-2.4,1.15-4.38,3-7.07,3.73-7.06,1.8-13-1.63-14-8.74-1.09-7.71-.5-15.51-.3-23.26.1-3.95,3.71-1.36,5.64-1.9,1.76-.5,3.32-.14,3.25,2.55-.14,6,0,12,.05,18.06,0,3.45.78,6.42,4.9,6.86a6.8,6.8,0,0,0,7.31-6.54,144,144,0,0,0,.24-16.62c-.15-3.46.67-4.58,4.34-4.56s4.75,1.07,4.61,4.76c-.29,8.07,0,16.16-.19,24.24,0,1.54,1.82,4.29-1.85,4.72C67.09,384.23,65.83,383.74,64.47,380.41Z"/><path class="cls-2" d="M467.39,354.09c3.55-3.68,7.39-5.13,11.92-4.71,5.41.51,9.12,3.56,9.43,8.93.45,7.74.39,15.52.21,23.28-.1,4.24-3.62,1.49-5.49,2.05-1.67.49-3.35.34-3.31-2.44.08-6.65.51-13.31-.28-19.94-.33-2.8-1.67-4.86-4.71-5.05s-5.72,1.12-6.81,4.1a21.26,21.26,0,0,0-1,6.53c-.14,4.59-.29,9.2,0,13.78.3,4.27-2.58,3-4.66,3.06s-4.38.86-4.26-3c.27-8.7,0-17.43.13-26.14,0-1.65-1.42-4.26,2.31-4.46C465.7,349.84,466.34,350,467.39,354.09Z"/><path class="cls-2" d="M90.81,353.81c3-3.91,6.28-5.6,10.59-3.91,1.29.5,3.12,1,1.8,2.88-1.2,1.77.15,5.58-3.86,5.15-5.46-.6-7.53.81-7.9,6.34a139.86,139.86,0,0,0-.21,16.12c.17,3.44-1.54,3.59-4,3.32C85,383.47,82,385,82.16,380.5c.23-8.84,0-17.7.1-26.55,0-1.47-1-4,2-3.7C86.66,350.5,90.42,348.19,90.81,353.81Z"/><path class="cls-2" d="M160.93,414.16c0-4,0-7.93,0-11.89,0-1.54.06-2.78,2.2-2.75,5.54.09,11.09,0,16.63,0,1.24,0,2.17.15,2.2,1.72s-1.14,1.61-2.25,1.62a111.11,111.11,0,0,1-11.4-.06c-3.84-.38-3.53,1.87-3.55,4.35,0,2.66-.35,5.12,3.73,4.69,3.29-.35,6.65-.05,10-.09,1.45,0,2.49.28,2.37,2s-1.45,1.37-2.47,1.38a80.83,80.83,0,0,1-10-.06c-3.72-.42-4,1.64-3.56,4.24.36,2.33-1.87,6.19,3.39,5.93,4-.2,7.91,0,11.88,0,1.18,0,2.64-.39,2.56,1.72-.06,1.7-1.18,1.58-2.29,1.58-5.7,0-11.41-.05-17.11,0-1.91,0-2.4-.77-2.35-2.55.1-4,0-7.92,0-11.88Z"/><path class="cls-2" d="M151.94,449.86c4.16.11,7.9,1.05,9.87,5.23.56,1.17,1.74,2.7-.17,3.57-1.41.63-2.31-.05-3.17-1.69-2-3.77-6.92-4.88-10.67-2.92a3.84,3.84,0,0,0-2.43,3.73,3.26,3.26,0,0,0,2.46,3.15c2.86.9,5.77,1.63,8.64,2.49,5.13,1.54,7.5,4.49,7.08,8.7-.4,3.95-3.77,7-8.46,7.67-6.74,1-12.4-1.51-14-6.24-.37-1.08-1.29-2.63.31-3.31,1.27-.54,2.4-.28,3.31,1.51,2.27,4.45,6.39,5.78,11.18,4.24,2.1-.68,3.75-1.79,3.86-4.22s-1.43-3.7-3.61-4.32-4.25-1.24-6.38-1.83c-6.27-1.73-8.59-4.23-8.09-8.7S146.08,449.86,151.94,449.86Z"/><path class="cls-2" d="M410.18,367.49V378.4c0,5-2.79,6.88-7.56,5.34-1.63-.53-1.18-1.65-1.19-2.63,0-9.49,0-19-.05-28.46,0-4.16,3-2.21,4.71-2.39s4.3-1.16,4.15,2.53C410,357.68,410.18,362.59,410.18,367.49Z"/><path class="cls-2" d="M300,407c6.5.12,8.21,1.84,8.4,7.94.12,3.8-.09,7.64.51,11.36.51,3.12-2.07,2.64-2.5,2-1.62-2.59-2.93-.85-4.44-.2a10.42,10.42,0,0,1-6.94.66c-3-.77-4.72-2.57-4.85-5.64s1.81-5.1,4.52-6c2.38-.77,5-.87,7.46-1.33,1.2-.22,2.68-.25,2.59-2.07-.08-1.52-.64-2.93-2.24-3.28-2.78-.61-5.82-1.31-7.51,2-.95,1.83-2.31,1.83-3.44.88-1.35-1.14.09-2.36.75-3.26C294.32,407.33,297.36,407.1,300,407Zm-1.51,19.28c3.6-.46,6-2.12,6.26-6,.1-1.29-.1-2.34-1.76-1.71-3.12,1.18-8-.67-8.82,4.4C293.79,425.47,296.33,426.18,298.49,426.32Z"/><path class="cls-2" d="M249.88,427.28c0,3,0,5.38,0,7.74,0,1.43-.9,1.83-2.19,1.81-1.45,0-1.36-1.08-1.37-2q0-12.58,0-25.15c0-.93.26-2.57,1.16-2.07,3.19,1.79,5.88-.93,8.87-.57,3.49.42,6,2.08,7.17,5.32,1.8,4.89,1.71,9.74-1.84,13.86a7.62,7.62,0,0,1-9,2.21C251.91,428.19,251.22,427.86,249.88,427.28Zm10.95-9.5c0-4.77-2.29-8-5.6-8s-5.82,3.66-5.8,8.42,2.36,7.93,5.68,7.92S260.88,422.66,260.83,417.78Z"/><path class="cls-2" d="M264.08,465.06c0-4.73-1.86-11.07.48-13.76,2.71-3.11,9.2-.7,14-1,.95-.06,1.9,0,2.85,0,1.29,0,2.1.32,2,1.86s-1,1.76-2.22,1.76c-3.32,0-6.68.26-10-.09-4.14-.44-3.64,2.08-3.66,4.69s-.36,4.83,3.5,4.35a65.93,65.93,0,0,1,8.08-.07c1.2,0,2.2.24,2.19,1.79s-1,1.69-2.22,1.78c-3.77.3-8.75-1.66-10.95.83-1.83,2.09-.54,6.95-.59,10.58,0,1.45-.7,1.9-2.08,1.84s-1.82-.89-1.81-2.17c0-4.12,0-8.24,0-12.37Z"/><path class="cls-2" d="M237.28,471.74c.07,1.06.13,2.64.3,4.21.34,3.2.36,5.84-3.5,2.18-1.08-1-1.57.18-2.33.43a22.27,22.27,0,0,1-4,1.28c-4.79.65-8.24-1.52-8.66-5.26-.4-3.47,2.37-6.36,6.83-7.1a39.5,39.5,0,0,0,4.67-.71c1.18-.35,3.21.27,3.16-2a3.62,3.62,0,0,0-3.07-3.71c-2.57-.53-5.35-.62-6.7,2.08-.93,1.85-2.32,2-3.38,1.23-1.72-1.24,0-2.63.77-3.46,3.28-3.64,7.54-3.59,11.85-2.53,4,1,4.16,4.27,4.11,7.57C237.26,467.73,237.28,469.47,237.28,471.74Zm-9.38,5.36c3.14-.41,5.5-2.05,5.86-5.85.13-1.4-.54-2.42-1.87-1.77-3,1.46-8.07-.71-8.76,4.48C222.78,476.57,225.32,477,227.9,477.1Z"/><path class="cls-2" d="M346.51,459.64c0-2.71,0-4.92,0-7.13,0-1.16.14-2.18,1.72-2.24s1.91.69,1.91,2q0,12.59,0,25.16c0,.77-.23,2.17-.8,1.9-4.28-2-8.77,2.58-13.1-.78-4.06-3.14-5.77-10.58-3.05-16C335.52,457.92,339.94,456.85,346.51,459.64Zm-10.9,9c-.1,5.71,3.09,9.34,7.1,8.08,3.27-1,4.82-5.13,3.89-10.1-.61-3.27-2.1-6-5.74-5.66C336.43,461.38,335.68,464.94,335.61,468.66Z"/><path class="cls-2" d="M279,419a7.74,7.74,0,0,0-2.36,0c-1.68.57-4.81-1.72-4.92,1.46s2.36,5.44,5.87,5.57a5,5,0,0,0,5-3,2.12,2.12,0,0,1,3.22-.93c1.57,1,.35,2.23-.29,3.22-2.26,3.54-7.95,4.83-12.38,2.86s-6.6-7.8-5-13.93A9.23,9.23,0,0,1,278.33,407a10,10,0,0,1,8.84,10c-.05,1.54-.68,1.9-2,1.89-2.05,0-4.11,0-6.16,0Zm4.17-3c-.47-3.43-1.79-5.37-4.72-5.84a5.36,5.36,0,0,0-5.8,2.37c-1.07,1.71-1.85,3.65,1.65,3.5C277.18,415.88,280,416,283.21,416Z"/><path class="cls-2" d="M305,469.22v8.08c0,1.18-.78,3-1.55,2.14-2.67-2.84-4.56.13-6.73.44-5,.72-8.49-1.79-8.71-6.77-.17-4-.07-7.93,0-11.89,0-1.2-.38-2.76,1.57-2.84,2.33-.09,1.8,1.73,1.83,3.05,0,3.17,0,6.34,0,9.51s.52,6,4.52,5.87c3.72-.09,5.28-2.54,5.46-5.92.17-3.16,0-6.34.08-9.51,0-1.28-.59-3.12,1.84-3s1.64,1.87,1.65,3.18c0,2.54,0,5.08,0,7.62Z"/><path class="cls-2" d="M310.46,468.84c0-2.7,0-5.4,0-8.09,0-1.23.72-2.92,1.56-2.2,2.9,2.45,5-.42,7.36-.67,4.76-.49,7.95,2,8.17,6.92.18,4,.06,7.93.08,11.9,0,1.41.36,3-2,2.89-2.15-.08-1.51-1.67-1.53-2.77-.07-3.33,0-6.66,0-10,0-3-.73-5.65-4.18-5.78s-5.59,2-5.76,5.59c-.16,3.32-.05,6.66-.13,10,0,1.3.58,3.1-1.82,3s-1.68-1.9-1.72-3.17C310.41,473.91,310.47,471.37,310.46,468.84Z"/><path class="cls-2" d="M241.89,418.13c-.09,6.93-3.57,10.94-9.53,11-6.26,0-10-4.18-10-11.16.06-6.79,3.7-10.94,9.63-11C238.22,406.91,242,411.16,241.89,418.13Zm-15.74-.08c0,5.08,2.29,8.08,6.08,8.08s6.19-3.33,6.17-8.09c0-4.94-2.35-8-6.19-8S226.11,413,226.15,418.05Z"/><path class="cls-2" d="M186.74,469.1c0,6.81-3.57,10.76-9.73,10.81-6.39,0-9.84-3.85-9.85-11.14,0-6.81,3.59-10.87,9.69-10.87C183.15,457.89,186.76,462,186.74,469.1Zm-16-.19c0,4.8,2.45,8,6.09,8.11,3.85.05,6.44-3.3,6.39-8.29,0-4.66-2.63-7.86-6.35-7.85S170.69,464.16,170.7,468.91Z"/><path class="cls-2" d="M331.12,420.18q0,3.09,0,6.16c0,1.08.24,2.26-1.54,2.25s-2.1-.84-2.08-2.36c.06-3.63,0-7.27,0-10.9-.05-2.77-.82-5.12-4.19-5.15s-5.35,1.75-5.52,5.15-.14,6.95-.13,10.42c0,1.52.07,2.88-2.07,2.83S314,427,314,425.85c0-5.21,0-10.42,0-15.63,0-2.56.85-3.75,3.17-1.87,1.08.88,1.6.21,2.41-.11,7.54-3,11.46-.39,11.6,7.68C331.14,417.34,331.12,418.76,331.12,420.18Z"/><path class="cls-2" d="M204.57,418.17c0,2.05.05,4.11,0,6.16-.09,2.4,1,6.38-3.77,2.87-1.05-.77-1.82.88-2.81,1.25-5.66,2.14-10.33-.76-10.54-6.77-.13-3.79,0-7.58,0-11.38,0-1.35-.39-3,2-2.84s1.7,1.83,1.73,3.1c.07,3.31.09,6.64,0,9.95-.07,2.86.67,5.16,4,5.3s5.45-1.57,5.66-5,.06-6.64.21-9.95c.06-1.37-.81-3.5,1.92-3.38s1.54,2.28,1.65,3.57C204.7,413.42,204.57,415.8,204.57,418.17Z"/><path class="cls-2" d="M190,469.1c0-7.66,4.07-11.93,10.77-11.19a8,8,0,0,1,6.19,3.88c.49.8,1.06,1.88.22,2.58s-2.17,1-2.92-.21c-2.49-4-5.55-4.57-8.9-1.31-2.54,2.48-2.3,9.85.1,12.46a5.09,5.09,0,0,0,8.37-1c1-1.7,2-3.31,3.74-1.88,1.38,1.14-.22,2.83-1,4-2.51,3.72-6.24,4.1-10.14,3.12C192.17,478.48,190,474.73,190,469.1Z"/><path class="cls-2" d="M210.09,418.1a17.93,17.93,0,0,1,0-2.84c.42-2.56-1.35-6.58,1-7.32,1.92-.61,4.71-.58,7.13-.84,1.08-.11,3.16-.14,2.77,2.18-.25,1.45-.84,2-2.58,1.61-2.74-.61-4.13,1.2-4.36,3.69-.28,3.14-.05,6.33-.43,9.45-.18,1.52,1.7,4.37-1.59,4.42-3.61.06-1.61-3-1.91-4.67A31.63,31.63,0,0,1,210.09,418.1Z"/><path class="cls-2" d="M246.39,464.73c0,4.13,0,8.25,0,12.37,0,1.33.06,2.55-1.88,2.51s-1.79-1.36-1.79-2.62q0-12.14,0-24.26c0-1.4.11-2.46,2-2.48,2.11,0,1.69,1.44,1.7,2.59.05,4,0,7.93,0,11.89Z"/><path class="cls-2" d="M215,469.52c0,2.69,0,5.39,0,8.08,0,1.23-.22,2.11-1.83,2-1.45-.08-1.92-.77-1.92-2.08,0-5.7,0-11.39,0-17.09,0-1.35.51-2.08,1.93-2.07s1.89.81,1.88,2.13c0,3,0,6,0,9Z"/><path class="cls-2" d="M405.37,345.47c-4.13,1.24-3.77-1.43-4.06-4.39-.43-4.41,2.27-3.66,4.91-3.94,3.62-.38,3.91,1.39,4.08,4.38C410.54,345.52,408.68,346.08,405.37,345.47Z"/><path class="cls-2" d="M215,452.33c.16,1.35-.43,2-1.81,2s-2-.27-2-1.78.37-2.31,2.06-2.27C214.72,450.3,215,451.1,215,452.33Z"/><polygon class="cls-3" points="353.73 171.96 341.97 180.53 346.5 166.7 334.71 158.18 349.26 158.21 353.73 144.35 358.19 158.21 372.75 158.18 360.95 166.7 365.48 180.53 353.73 171.96"/><polygon class="cls-3" points="339.43 120.37 327.67 128.95 332.2 115.11 320.4 106.59 334.96 106.62 339.43 92.77 343.89 106.62 358.45 106.59 346.65 115.11 351.18 128.95 339.43 120.37"/><polygon class="cls-3" points="302.14 77.82 290.38 86.4 294.91 72.57 283.12 64.04 297.67 64.07 302.14 50.22 306.61 64.07 321.16 64.04 309.37 72.57 313.89 86.4 302.14 77.82"/><polygon class="cls-3" points="244.67 62.9 232.92 71.48 237.44 57.65 225.65 49.12 240.21 49.15 244.67 35.3 249.14 49.15 263.69 49.12 251.9 57.65 256.43 71.48 244.67 62.9"/><polygon class="cls-3" points="193.08 77.2 181.33 85.78 185.86 71.95 174.06 63.42 188.62 63.45 193.08 49.6 197.55 63.45 212.1 63.42 200.31 71.95 204.84 85.78 193.08 77.2"/><polygon class="cls-3" points="150.54 114.49 138.78 123.07 143.31 109.24 131.52 100.71 146.07 100.74 150.54 86.89 155 100.74 169.56 100.71 157.77 109.24 162.29 123.07 150.54 114.49"/><polygon class="cls-3" points="135.62 171.96 123.86 180.53 128.39 166.7 116.6 158.18 131.15 158.21 135.62 144.35 140.09 158.21 154.64 158.18 142.85 166.7 147.37 180.53 135.62 171.96"/><polygon class="cls-3" points="150.54 229.42 138.78 238 143.31 224.17 131.52 215.64 146.07 215.67 150.54 201.82 155 215.67 169.56 215.64 157.77 224.17 162.29 238 150.54 229.42"/><polygon class="cls-3" points="193.08 266.71 181.33 275.29 185.86 261.46 174.06 252.93 188.62 252.96 193.08 239.11 197.55 252.96 212.1 252.93 200.31 261.46 204.84 275.29 193.08 266.71"/><polygon class="cls-3" points="244.67 281.01 232.92 289.59 237.44 275.76 225.65 267.23 240.21 267.26 244.67 253.41 249.14 267.26 263.69 267.23 251.9 275.76 256.43 289.59 244.67 281.01"/><polygon class="cls-3" points="302.14 266.09 290.38 274.67 294.91 260.84 283.12 252.31 297.67 252.34 302.14 238.49 306.61 252.34 321.16 252.31 309.37 260.84 313.89 274.67 302.14 266.09"/><polygon class="cls-3" points="339.43 223.54 327.67 232.12 332.2 218.29 320.4 209.76 334.96 209.79 339.43 195.94 343.89 209.79 358.45 209.76 346.65 218.29 351.18 232.12 339.43 223.54"/><polygon class="cls-3" points="353.73 171.96 341.97 180.53 346.5 166.7 334.71 158.18 349.26 158.21 353.73 144.35 358.19 158.21 372.75 158.18 360.95 166.7 365.48 180.53 353.73 171.96"/></g></g></svg>