<?xml version="1.0" encoding="utf-8"?>
<!-- Generator: Adobe Illustrator 25.2.1, SVG Export Plug-In . SVG Version: 6.00 Build 0)  -->
<svg version="1.1" id="Layer_1" xmlns="http://www.w3.org/2000/svg" xmlns:xlink="http://www.w3.org/1999/xlink" x="0px" y="0px"
	 viewBox="0 0 800 289.1900024" style="enable-background:new 0 0 800 289.1900024;" xml:space="preserve">
<style type="text/css">
	.st0{fill:#75C15D;}
	.st1{fill:#F63D2E;}
	.st2{fill:#F73F2F;}
	.st3{fill:#928C81;}
</style>
<g id="Layer_2_1_">
	<g id="Layer_1-2">
		<g id="rbhzS9.tif">
			<path class="st0" d="M218.1100006,239.5c12.75-7.7200012,22.8300018-18.1000061,31-30.5099945
				c1.8899994-2.8800049,3.4799957-8.3899994,7.8100128-6.3099976c4,1.9299927,2.1600037,7.2100067,1.1000061,10.8099976
				c-6.6799927,22.8800049-20.0599976,41.2200012-40.3300018,53.6100006c-41,25.0599976-84.5099945,28.9100037-129,11
				C38.4799995,257.8800049,12.8599997,217.7599945,2.8,166.5200043c-4-20.5899963-4.21-41.3899994,2.8599999-61.5999985
				c7.8099995-22.3300018,22.3099995-38,46-43.5900002c11.2999992-2.670002,22.7700005-1.2099991,34.2000008,0.4000015
				c0,1.7200012-1.5100021,1.4199982-2.2600021,1.6100006c-28.7200012,7.1499977-40.4099998,27.4699974-41.1500015,53.3400002
				c-0.8800011,30.7200012,10.6199989,57.3800049,29.6900024,81.0899963c1.8700027,2.3200073,3.1699982,3,4.6999969-0.25
				c7.8099976-16.2799988,20.5-27.3800049,36.8099976-34.8199921c8.7399979-4,13.7299957-11.3500061,16.4199982-20.3800049
				c1-3.2299957,1.8500061-6.4799957,2.9499969-9.6699982c2.3699951-6.8199997,5.8800049-7.6500015,11-2.4299927
				c8.2599945,8.4600067,9.9499969,18.5200043,6.7799988,29.6399994c-1.4512177,4.8625641-3.8280945,9.3990021-7,13.3600006
				c-3.4407196,4.2150574-6.4554443,8.7605743-9,13.5699921c-5.3399963,10.7599945-2.6799927,22.3300018,7.0599976,29.4900055
				c12.1699982,8.9499969,25.5800018,9.8099976,39.6399994,5.4400024
				c17.4799957-5.4299927,30.8199921-16.7599945,42.7400055-30.0500031
				c5.5958252-6.3211212,10.6912079-13.068161,15.2400055-20.1799927c2.2400055-3.4700012,4.5899963-6.9100037,8.1699982-9.1799927
				c4.1100006-2.6100006,7-1.6300049,8.8599854,2.9199982c1.8800049,4.7100067,0.3900146,9.2899933-0.9400024,13.7400055
				c-5.0700073,17-15.3000031,31.1600037-26,44.9499969c-3.9100037,5-8.0599976,9.8600006-12.1000061,14.7799988
				c-0.3899994,0.4400024-1.5500031,0.6199951-0.9400024,1.3800049
				C216.9199982,240.6699982,217.7400055,240.2599945,218.1100006,239.5z"/>
			<path class="st1" d="M501.8099976,145.3099976c-7.2122498-0.1056213-14.1927185-2.5635223-19.8800049-7
				c-5.3399963-4.25-8.9400024-9.5700073-9.2600098-16.6399994c-0.2200012-4.6100006,1.7099915-8.0800018,6-9.8300018
				s8.5599976-1.1699982,11.8699951,2.4000015c1.4386597,1.7199097,2.7173157,3.5675812,3.8200073,5.5199966
				c1.2000122,1.8899994,2.1099854,4,3.4599915,5.7699966c3.7799988,5.0000076,9.4299927,6.2600021,13.8299866,3.3100052
				c4.3999634-2.9499969,5.3699951-9.6100006,2.2700195-14.6500015c-1.9299927-3.1399994-4.9400024-5.090004-8-6.9300003
				c-6-3.5500031-12.1099854-6.8000031-17.9100037-10.6100006c-8.0599976-5.2900009-13.3699951-12.5800018-14.0700073-22.5100021
				c-1.4500122-20.6200027,14.9200134-33.7200012,37.4899902-30c9.6399841,1.5900002,18.1299744,5.1300011,22.5099792,14.7200012
				c1.6500244,3.6199989,1.6599731,7.3300018-0.7800293,10.6699982s-6,4.0999985-10,3.6699982
				c-3.1199951-0.3499985-5.0599976-2.2600021-6.6599731-4.6699982C515,66.3600006,513.8099976,64,512.1900024,62
				c-3.9100037-5-9.2000122-6-13.25-2.7400017S494.2799988,69.4700012,498,73.9000015
				c2.5799866,3.0699997,6.1300049,4.9000015,9.5599976,6.840004c6.3599854,3.5999985,13.1099854,6.5199966,18.9199829,11.0599976
				c10.4500122,8.1500015,13.6799927,19,11.1199951,31.5299988C534.6699829,137.6399994,521.5999756,146,501.8099976,145.3099976z"
				/>
			<path class="st2" d="M571.8099976,76.4499969c5.289978-3.5400009,10.1500244-5.75,15.6599731-6.3499985
				c11.9099731-1.2900009,21.1799927,5.6200027,21.5999756,17.4899979
				c0.5900269,17.2099991,0.2000122,34.4599991,0.3099976,51.6900024c0,2.6100006-1,3.8399963-3.5999756,3.8300018
				c-0.3800049,0-0.7600098,0-1.1300049,0c-17.7199707,1-17.7000122,1-17.7199707-16.7600021
				c0-10.6800003,0.0800171-21.3600006-0.1900024-32c-0.1599731-6.3600006-3.2700195-9.5400009-8.289978-9
				c-4.0499878,0.4400024-6.8300171,1.9300003-6.7399902,7c0.289978,15,0,30,0.1900024,45.0000076
				c0.0499878,4.3500061-1.3099976,5.8699951-5.789978,5.8999939c-16.6699829,0.1199951-16.6699829,0.2599945-16.6699829-16.2200012
				c0-24.7299957,0.1199951-49.4599991-0.0999756-74.1800003c-0.0499878-5,1-6.9300003,6.4899902-6.8300018
				c16,0.2900009,16,0,16,15.8400002L571.8099976,76.4499969z"/>
			<path class="st1" d="M222.5,94.3099976c0-14.2200012,0.1199951-28.4499969-0.0700073-42.6800003
				c-0.0599976-4.0999985,1.2200012-5.6500015,5.4499969-5.5999985c14.6399994,0.1800003,29.2899933,0.1399994,43.9300079,0
				c3.6000061,0,5,1.1899986,4.9400024,4.8899994c-0.2099915,12.8899994,1,10.9199982-10.5499878,11.0600014
				c-5.4400024,0.0699997-10.8899994,0.1100006-16.3300018,0c-2.6900024-0.0699997-3.6300049,1-3.5599976,3.6000023
				c0.1399994,5.4300003,0.1499939,10.8600006,0,16.2900009c-0.0800018,2.7600021,1,3.5400009,3.6399994,3.4700012
				c5.8099976-0.1399994,11.6400146,0.0800018,17.4500122-0.0899963c3.1499939-0.0899963,4.2099915,1.0999985,4.3699951,4.2300034
				c0.5899963,11.4599991,0.6900024,11.3799973-10.769989,11.4799957c-4.6600037,0-10.6100006-2-13.6199951,0.8199997
				s-0.8500061,8.8499985-1,13.4700012c-0.1900024,7.4800034-0.25,14.9999924,0,22.4599991
				c0.1600037,4.2799988-1.5099945,5.6399994-5.5899963,5.3999939c-4.3097076-0.25-8.6302948-0.2500153-12.9400024,0
				c-4.2100067,0.25-5.5299988-1.4199982-5.4799957-5.5500031C222.6199951,123.1399994,222.5,108.7300034,222.5,94.3099976z"/>
			<path class="st2" d="M333.9400024,109.3499985c0,6.5500031-0.0899963,13.0999985,0,19.6399918
				s-2.7399902,10.7200012-8.7600098,12.8800049c-11.5295715,4.298584-24.1938782,4.4611664-35.8300171,0.4600067
				C282.4699707,140,278.019989,135.1100006,277.1699829,127.6100006s1.4899902-14,7.7799988-18.7299957
				c6.7999878-5.0599976,14.8099976-7.4000015,22.9200134-8.6699982c5.8999939-0.9300003,5.4599915-4.4000015,5.2399902-8.3700027
				s0.5400085-8.75-5-9.8899994c-4.7200012-1-7.3299866,1.8000031-8.8800049,5.9000015
				c-1.2799988,3.3799973-2.6700134,6.7699966-6.7399902,7.5699997c-3.8500061,0.7600021-7.5799866,0.3799973-10.230011-3
				s-2.480011-7-0.6099854-10.5500031c2.3800049-4.5699997,6.4400024-7.25,11.1099854-9
				c8.8559265-3.2821426,18.4717102-3.9350052,27.6900024-1.8799973c8.6199951,1.8600006,13.1300049,7.6200027,13.4299927,17
				c0.230011,7.0999985,0.0499878,14.2099991,0.0499878,21.3199997L333.9400024,109.3499985z M313.1100159,119.3499985
				L313.1100159,119.3499985c0-2.6299973,0-5.25,0-7.8700027c0-1.0800018,0.0799866-2.25-1.5899963-2.4000015
				c-3-0.2799988-10.5499878,4.7399979-12.1799927,8.2600021c-2.25,4.8499985-1.3200073,11.1199951,2.1799927,14
				c2.2900085,1.8999939,4.8699951,2.7700043,7.8399963,1.6199951s3.6099854-3.6100006,3.7099915-6.3600006
				c0.1099854-2.4299927,0.039978-4.8699875,0.039978-7.2999878L313.1100159,119.3499985z"/>
			<path class="st2" d="M675.1099854,109.2200012c0,6.7300034-0.0700073,13.4700012,0,20.2099915
				c0.0900269,6.5099945-3.1500244,10.5700073-9.1199951,12.6300049
				c-11.2249756,3.9971771-23.4568481,4.1694641-34.789978,0.4900055
				c-6.9199829-2.2100067-11.6500244-6.8699951-12.7199707-14.3000031c-1.1500244-8,1.2999878-14.8300018,8.0999756-19.6600037
				s14.8800049-7.1699982,23-8.5C654.75,99.25,654.6799927,96.3199997,654.4299927,92.6199951
				c-0.289978-4.1900024,0.7700195-9.1900024-4.9099731-10.6200027c-4.6199951-1.1699982-7.3900146,1.4499969-9,5.6399994
				c-1.2700195,3.3499985-2.5999756,6.8499985-6.6300049,7.7300034s-8,0.4599991-10.6400146-3.2099991
				s-2.1900024-7.4800034,0.0599976-11.0699997c3.8900146-6.1900024,10.210022-8.6200027,16.9400024-10
				c6.4432983-1.3584366,13.083313-1.5042648,19.5800171-0.4300003c9.2600098,1.5800018,14.2299805,6.8300018,15.0700073,16.1100006
				c0.0700073,0.75,0.1699829,1.4899979,0.1699829,2.2399979C675.1166992,95.75,675.1300049,102.4866714,675.1099854,109.2200012z
				 M654.4400024,119.2200012L654.4400024,119.2200012c0-2.6100006,0-5.2200012,0-7.8300018
				c0-1.3300018,0.0900269-2.4899979-2-2.3600006c-8.8200073,0.5500031-15.4899902,10.8000031-12.0800171,18.8600006
				c1.6199951,3.8399963,4.5999756,6,8.8200073,5.4199982s5.2700195-3.6699982,5.2800293-7.3799973
				c-0.0100098-2.2200012-0.0200195-4.4499969-0.0200195-6.6900024V119.2200012z"/>
			<path class="st2" d="M399.1000061,108.8099976c0-9.1800003,1.0899963-16.5200043,4.8299866-23.2799988
				c6.5966187-11.6188354,19.8953552-17.7040176,33-15.0999985c11.730011,2.2200012,20,11.5100021,21.6099854,24.25
				c0.7999878,6.3099976-0.8699951,8.5999985-7.2200012,9.5299988c-9.6499939,1.4000015-19.2999878,2.9400024-29,4
				c-4.7999878,0.4899979-4.8599854,2.4899979-3.4400024,6.1399994c3.2496338,8.9062347,13.043457,13.5583038,22,10.4499969
				c3.5632629-1.2272339,6.7540588-3.3441162,9.269989-6.1500015c1.6900024-1.7900009,3.4700012-3.7900009,6.2600098-2.2099991
				s2.8900146,4.1200027,2.3999939,6.8799973c-2.1531982,11.8759766-12.0808716,20.7828979-24.1199951,21.6399994
				c-19.3600159,1.3699951-32.5400085-9.6000061-35.1000061-29.2900009
				C399.2799988,112.8399963,399.1900024,110,399.1000061,108.8099976z M419.3099976,97.8099976
				c5.6099854-0.8499985,10.4100037-1.7200012,15.2600098-2.25c2.7000122-0.3000031,2.8399963-1.5,2.3999939-3.75
				c-1.0599976-5.4700012-4.4100037-8.8300018-9.2399902-8.8799973c-5.519989-0.0699997-9.8299866,4.1399994-11.0700073,10.7300034
				c-0.5400085,2.8899994-0.5,5.0999985,2.6499939,4.1999969V97.8099976z"/>
			<path class="st2" d="M739.8099976,107.7600021c-0.1099854-9.6699982,1.5599976-18.1900024,7-25.6299973
				c7.5628052-10.0394516,20.43927-14.5185471,32.5999756-11.3399963c12,3.1299973,17.6699829,11.9100037,19.8499756,23.4000015
				c1.2199707,6.4000015-0.7700195,9-7.25,10c-9.8400269,1.4499969-19.6799927,2.9400024-29.5499878,4.1100006
				c-3.7299805,0.4400024-4.1300049,2-3.1599731,5.1200027c3.8900146,12.6699982,19.2000122,16.2799988,29.75,7
				c2.4400024-2.1500015,4.4000244-6.7900009,8.6900024-3.6100006c3.8400269,2.8300018,1.9000244,6.9300003,0.6300049,10.3399963
				c-3.8499756,10.4100037-11.3099976,16.6800079-22.5300293,17.6399994c-13.1799927,1.1399994-24.1599731-2.8500061-30.9199829-15
				C741.2870483,123.032074,739.5230103,115.4271774,739.8099976,107.7600021z M761.0499878,97.6900024
				c4.1099854-0.6100006,9.25-1.5,14.4199829-2.1100006c2.789978-0.3300018,2.6699829-1.6699982,2.1900024-3.8199997
				c-1.4000244-6.25-5.3599854-9.5-10.9199829-8.6900024c-5.1799927,0.75-10,7.2699966-9.7399902,12.75
				C757.1199951,98.2200012,758.4699707,97.9300003,761.0499878,97.6900024z"/>
			<path class="st0" d="M219.2200012,29.4699993c-9.7700043-1.2700005-17.9299927-2.1399994-26.1999969-0.7999992
				c-9.3040771,1.4371052-18.0801392,5.2499371-25.4799957,11.0699978
				c-14.514389,11.4366837-31.776001,18.8640709-50.0599976,21.5400009c-5,0.75-7.6699982,0.4000015-9.3300018-5.7000008
				C104.1600037,41,95.2799988,28.6599998,87,16.1499996C85.151123,13.5494108,83.480629,10.8265057,82,8
				c-1.1999969-2.4700003-2.6900024-5.8200002,0.4400024-7.5700002s4.6200027,1.76,5.8899994,3.7400002
				c2.961731,4.5471039,5.6337051,9.2764912,8,14.1599998c5.0699997,10.6400013,10,21.3500004,14.6200027,32.1899948
				c1.7799988,4.1500015,3.7699966,4.5,7.0800018,2c5.7699966-4.3499985,10.0699997-10,14.390007-15.7000008
				c9.5299988-12.4599991,20.9100037-22.4699993,37.25-23.75c16.9199982-1.3199997,32.8200073,2.4799995,46.5299988,13.1499996
				C217.2682648,27.2444267,218.2765961,28.3295593,219.2200012,29.4699993z"/>
			<path class="st2" d="M689.4099731,110.3499985c0-9,0.1199951-18,0-27
				c-0.0900269-4.5199966,1.5999756-7.5800018,5.8800049-9.1100006c10.5999756-3.7799988,21.4899902-5.3600006,32.6599731-3.5199966
				c7.4199829,1.2300034,11.4400024,6.1299973,10.9400024,12.6600037c-0.3099976,4.1399994-2.2199707,7.1999969-6.5,8.0899963
				c-4.0700073,0.8600006-6.8900146-0.9499969-8.5800171-4.6500015c-0.3900146-0.8600006-0.8099976-1.6900024-1.25-2.5199966
				c-1.5200195-2.8399963-3.8499756-4-7-3.25s-3.8200073,3.1900024-3.8200073,6.0500031
				c0,16.3000031-0.2299805,32.5999985,0.1500244,48.8899994c0.1300049,5.7100067-1.4899902,7.8999939-7.25,7.2100067
				c-3.3695679-0.3100433-6.760437-0.3100433-10.1300049,0c-4,0.2700043-5.1799927-1.4900055-5.0999756-5.3099976
				C689.5499878,128.7100067,689.4099731,119.5199966,689.4099731,110.3499985z"/>
			<path class="st1" d="M370.3099976,113.0599976c0,8.2299957-0.2099915,16.4700012,0.0899963,24.6900024
				c0.1499939,4.3000031-1.4500122,5.3600006-5.5400085,5.3800049c-16.519989,0.0899963-16.519989,0.2200012-16.519989-16.2099991
				c0-14.4000015,0.1799927-28.8099976-0.0799866-43.2000046c-0.0899963-5.3700027,2.0499878-8.3700027,7-10
				c10.3200073-3.2900009,20.8299866-4.8399963,31.5700073-3c7.6400146,1.3199997,11.3900146,6.3700027,10.6099854,13.3700027
				c-0.4500122,4-2.6099854,6.5699997-6.5700073,7.3700027s-6.5100098-1-8.230011-4.3399963
				c-0.4200134-0.8300018-0.7999878-1.6900024-1.2099915-2.5299988c-1.3900146-2.8399963-3.5899963-4.3000031-6.8200073-3.6699982
				c-3.4299927,0.6699982-4.2999878,3.1900024-4.2999878,6.2699966c-0.0000305,8.6066589-0.0000305,17.2099915,0,25.8099976
				V113.0599976z"/>
		</g>
		<g>
			<path class="st3" d="M413.9355469,219.5117188c2.3398438,1.4394531,5.7597656,2.6396484,9.359375,2.6396484
				c5.3398438,0,8.4609375-2.8203125,8.4609375-6.8994141c0-3.7802734-2.1601562-5.9404297-7.6210938-8.0400391
				c-6.5996094-2.3398438-10.6777344-5.7597656-10.6777344-11.4599609c0-6.2998047,5.21875-10.9794922,13.078125-10.9794922
				c4.140625,0,7.140625,0.9599609,8.9394531,1.9804688l-1.4394531,4.2597656
				c-1.3203125-0.7197266-4.0195312-1.9199219-7.6796875-1.9199219c-5.5195312,0-7.6191406,3.2998047-7.6191406,6.0595703
				c0,3.7802734,2.4589844,5.6396484,8.0390625,7.7998047c6.8398438,2.6396484,10.3203125,5.9394531,10.3203125,11.8798828
				c0,6.2392578-4.6210938,11.6386719-14.1601562,11.6386719c-3.9003906,0-8.1601562-1.1396484-10.3203125-2.5791016
				L413.9355469,219.5117188z"/>
			<path class="st3" d="M470.6953125,211.1113281c0,10.7402344-7.4414062,15.4199219-14.4609375,15.4199219
				c-7.859375,0-13.9179688-5.7597656-13.9179688-14.9394531c0-9.7197266,6.359375-15.4199219,14.3984375-15.4199219
				C465.0546875,196.171875,470.6953125,202.2324219,470.6953125,211.1113281z M447.65625,211.4121094
				c0,6.359375,3.6582031,11.1591797,8.8183594,11.1591797c5.0410156,0,8.8203125-4.7402344,8.8203125-11.2792969
				c0-4.9199219-2.4609375-11.1601562-8.6992188-11.1601562C450.3554688,200.1318359,447.65625,205.8916016,447.65625,211.4121094z"
				/>
			<path class="st3" d="M501.6542969,217.9511719c0,3,0.0605469,5.6396484,0.2402344,7.9199219h-4.6796875l-0.3007812-4.7402344
				h-0.1191406c-1.3808594,2.3398438-4.4414062,5.4003906-9.5996094,5.4003906
				c-4.5605469,0-10.0195312-2.5205078-10.0195312-12.7197266v-16.9794922h5.2792969v16.0800781
				c0,5.5195312,1.6796875,9.2392578,6.4785156,9.2392578c3.5410156,0,6-2.4599609,6.9609375-4.7998047
				c0.2988281-0.7802734,0.4804688-1.7402344,0.4804688-2.7001953v-17.8193359h5.2792969V217.9511719z"/>
			<path class="st3" d="M516.7734375,188.4921875v8.3398438h7.5605469v4.0205078h-7.5605469v15.6591797
				c0,3.5996094,1.0214844,5.6396484,3.9609375,5.6396484c1.3789062,0,2.4003906-0.1796875,3.0605469-0.3603516l0.2382812,3.9599609
				c-1.0195312,0.4199219-2.6386719,0.7197266-4.6796875,0.7197266c-2.4589844,0-4.4394531-0.7792969-5.6992188-2.2197266
				c-1.5-1.5595703-2.0390625-4.1396484-2.0390625-7.5595703v-15.8388672h-4.5v-4.0205078h4.5v-6.9589844L516.7734375,188.4921875z"
				/>
			<path class="st3" d="M530.2734375,183.2724609h5.2792969v18.1201172h0.1210938
				c0.8398438-1.5,2.1601562-2.8203125,3.7792969-3.7207031c1.5605469-0.8994141,3.4199219-1.5,5.4003906-1.5
				c3.9003906,0,10.1386719,2.4003906,10.1386719,12.4199219v17.2792969h-5.2792969v-16.6796875
				c0-4.6796875-1.7402344-8.6396484-6.71875-8.6396484c-3.4199219,0-6.1210938,2.4003906-7.0800781,5.2802734
				c-0.3007812,0.7197266-0.3613281,1.5-0.3613281,2.5195312v17.5195312h-5.2792969V183.2724609z"/>
			<path class="st3" d="M610.5527344,208.1113281c-0.3007812-5.6396484-0.6601562-12.4189453-0.6015625-17.4589844h-0.1796875
				c-1.3789062,4.7402344-3.0585938,9.7792969-5.0996094,15.359375l-7.1386719,19.6191406h-3.9609375l-6.5390625-19.2587891
				c-1.9199219-5.7001953-3.5410156-10.9199219-4.6796875-15.7197266h-0.1210938
				c-0.1191406,5.0400391-0.4199219,11.8193359-0.7792969,17.8798828l-1.0800781,17.3388672h-4.9804688l2.8203125-40.4384766
				h6.6601562l6.9003906,19.5595703c1.6796875,4.9794922,3.0585938,9.4189453,4.0800781,13.6191406h0.1796875
				c1.0195312-4.0800781,2.4589844-8.5195312,4.2597656-13.6191406l7.1992188-19.5595703h6.6601562l2.5195312,40.4384766h-5.0996094
				L610.5527344,208.1113281z"/>
			<path class="st3" d="M631.1328125,188.6728516c0.0585938,1.7998047-1.2597656,3.2392578-3.3613281,3.2392578
				c-1.859375,0-3.1796875-1.4394531-3.1796875-3.2392578c0-1.8603516,1.3808594-3.2998047,3.3007812-3.2998047
				C629.8730469,185.3730469,631.1328125,186.8125,631.1328125,188.6728516z M625.2519531,225.8710938v-29.0390625h5.2792969
				v29.0390625H625.2519531z"/>
			<path class="st3" d="M664.3710938,183.2724609v35.0986328c0,2.5800781,0.0605469,5.5205078,0.2402344,7.5h-4.7402344
				l-0.2402344-5.0400391h-0.1191406c-1.6191406,3.2402344-5.1601562,5.7001953-9.9003906,5.7001953
				c-7.0195312,0-12.4179688-5.9394531-12.4179688-14.7597656c-0.0605469-9.6591797,5.9394531-15.5996094,13.0195312-15.5996094
				c4.4394531,0,7.4394531,2.1005859,8.7578125,4.4404297h0.1210938v-17.3398438H664.3710938z M659.0917969,208.6513672
				c0-0.6591797-0.0605469-1.5595703-0.2402344-2.2197266c-0.7792969-3.359375-3.6601562-6.1191406-7.6191406-6.1191406
				c-5.4609375,0-8.6992188,4.7998047-8.6992188,11.21875c0,5.8798828,2.8789062,10.7402344,8.578125,10.7402344
				c3.5410156,0,6.78125-2.3398438,7.7402344-6.2998047c0.1796875-0.7197266,0.2402344-1.4404297,0.2402344-2.2802734V208.6513672z"
				/>
			<path class="st3" d="M673.1328125,183.2724609h5.2792969v42.5986328h-5.2792969V183.2724609z"/>
			<path class="st3" d="M703.3710938,225.8710938l-0.4199219-3.6601562h-0.1796875
				c-1.6210938,2.2802734-4.7402344,4.3203125-8.8808594,4.3203125c-5.8789062,0-8.8789062-4.1396484-8.8789062-8.3398438
				c0-7.0195312,6.2402344-10.859375,17.4589844-10.7998047v-0.5996094c0-2.4003906-0.6601562-6.7197266-6.5996094-6.7197266
				c-2.6992188,0-5.5195312,0.8398438-7.5605469,2.1601562l-1.1992188-3.4804688
				c2.4003906-1.5595703,5.8808594-2.5800781,9.5390625-2.5800781c8.8808594,0,11.0410156,6.0605469,11.0410156,11.8798828
				v10.859375c0,2.5205078,0.1191406,4.9804688,0.4785156,6.9599609H703.3710938z M702.5917969,211.0517578
				c-5.7597656-0.1201172-12.3007812,0.8994141-12.3007812,6.5400391c0,3.4199219,2.2792969,5.0390625,4.9804688,5.0390625
				c3.7792969,0,6.1796875-2.3994141,7.0195312-4.859375c0.1796875-0.5400391,0.3007812-1.1396484,0.3007812-1.6796875V211.0517578z
				"/>
			<path class="st3" d="M716.2109375,204.6923828c0-3-0.0585938-5.4599609-0.2402344-7.8603516h4.6796875l0.3007812,4.7998047
				h0.1191406c1.4414062-2.7597656,4.8007812-5.4599609,9.5996094-5.4599609
				c4.0214844,0,10.2597656,2.4003906,10.2597656,12.3603516v17.3388672h-5.2792969v-16.7392578
				c0-4.6796875-1.7402344-8.5800781-6.71875-8.5800781c-3.4804688,0-6.1796875,2.4599609-7.0800781,5.4003906
				c-0.2402344,0.6601562-0.3613281,1.5595703-0.3613281,2.4599609v17.4589844h-5.2792969V204.6923828z"/>
			<path class="st3" d="M774.5898438,183.2724609v35.0986328c0,2.5800781,0.0605469,5.5205078,0.2402344,7.5h-4.7402344
				l-0.2402344-5.0400391h-0.1191406c-1.6191406,3.2402344-5.1601562,5.7001953-9.9003906,5.7001953
				c-7.0195312,0-12.4179688-5.9394531-12.4179688-14.7597656c-0.0605469-9.6591797,5.9394531-15.5996094,13.0195312-15.5996094
				c4.4394531,0,7.4394531,2.1005859,8.7578125,4.4404297h0.1210938v-17.3398438H774.5898438z M769.3105469,208.6513672
				c0-0.6591797-0.0605469-1.5595703-0.2402344-2.2197266c-0.7792969-3.359375-3.6601562-6.1191406-7.6191406-6.1191406
				c-5.4609375,0-8.6992188,4.7998047-8.6992188,11.21875c0,5.8798828,2.8789062,10.7402344,8.578125,10.7402344
				c3.5410156,0,6.78125-2.3398438,7.7402344-6.2998047c0.1796875-0.7197266,0.2402344-1.4404297,0.2402344-2.2802734V208.6513672z"
				/>
			<path class="st3" d="M782.6308594,220.4716797c1.5605469,1.0195312,4.3203125,2.0996094,6.9589844,2.0996094
				c3.8398438,0,5.640625-1.9199219,5.640625-4.3203125c0-2.5195312-1.5-3.8994141-5.4003906-5.3388672
				c-5.21875-1.8603516-7.6796875-4.7402344-7.6796875-8.2197266c0-4.6806641,3.78125-8.5205078,10.0195312-8.5205078
				c2.9414062,0,5.5214844,0.8408203,7.140625,1.8007812l-1.3203125,3.8398438
				c-1.140625-0.7207031-3.2402344-1.6806641-5.9394531-1.6806641c-3.1191406,0-4.859375,1.7998047-4.859375,3.9599609
				c0,2.4003906,1.7402344,3.4804688,5.5195312,4.9199219c5.0390625,1.9199219,7.6191406,4.4394531,7.6191406,8.7597656
				c0,5.0996094-3.9589844,8.6992188-10.859375,8.6992188c-3.1796875,0-6.1191406-0.7792969-8.1601562-1.9794922
				L782.6308594,220.4716797z"/>
		</g>
	</g>
</g>
</svg>
