<svg xmlns="http://www.w3.org/2000/svg" viewBox="0 0 800 289.19"><defs><style>.cls-1{fill:#75c15d;}.cls-2{fill:#f63d2e;}.cls-3{fill:#f73f2f;}.cls-4{fill:#928c81;}</style></defs><g id="Layer_2" data-name="Layer 2"><g id="Layer_1-2" data-name="Layer 1"><g id="rbhzS9.tif"><path class="cls-1" d="M218.11,239.5c12.75-7.72,22.83-18.1,31-30.51,1.89-2.88,3.48-8.39,7.81-6.31,4,1.93,2.16,7.21,1.1,10.81-6.68,22.88-20.06,41.22-40.33,53.61-41,25.06-84.51,28.91-129,11C38.48,257.88,12.86,217.76,2.8,166.52c-4-20.59-4.21-41.39,2.86-61.6,7.81-22.33,22.31-38,46-43.59,11.3-2.67,22.77-1.21,34.2.4,0,1.72-1.51,1.42-2.26,1.61-28.72,7.15-40.41,27.47-41.15,53.34-.88,30.72,10.62,57.38,29.69,81.09,1.87,2.32,3.17,3,4.7-.25,7.81-16.28,20.5-27.38,36.81-34.82,8.74-4,13.73-11.35,16.42-20.38,1-3.23,1.85-6.48,2.95-9.67,2.37-6.82,5.88-7.65,11-2.43,8.26,8.46,9.95,18.52,6.78,29.64a39.4,39.4,0,0,1-7,13.36,82.39,82.39,0,0,0-9,13.57c-5.34,10.76-2.68,22.33,7.06,29.49,12.17,8.95,25.58,9.81,39.64,5.44,17.48-5.43,30.82-16.76,42.74-30.05a162.71,162.71,0,0,0,15.24-20.18c2.24-3.47,4.59-6.91,8.17-9.18,4.11-2.61,7-1.63,8.86,2.92,1.88,4.71.39,9.29-.94,13.74-5.07,17-15.3,31.16-26,44.95-3.91,5-8.06,9.86-12.1,14.78-.39.44-1.55.62-.94,1.38C216.92,240.67,217.74,240.26,218.11,239.5Z"/><path class="cls-2" d="M501.81,145.31a33.11,33.11,0,0,1-19.88-7c-5.34-4.25-8.94-9.57-9.26-16.64-.22-4.61,1.71-8.08,6-9.83s8.56-1.17,11.87,2.4a36.84,36.84,0,0,1,3.82,5.52c1.2,1.89,2.11,4,3.46,5.77,3.78,5,9.43,6.26,13.83,3.31s5.37-9.61,2.27-14.65c-1.93-3.14-4.94-5.09-8-6.93-6-3.55-12.11-6.8-17.91-10.61-8.06-5.29-13.37-12.58-14.07-22.51-1.45-20.62,14.92-33.72,37.49-30,9.64,1.59,18.13,5.13,22.51,14.72,1.65,3.62,1.66,7.33-.78,10.67s-6,4.1-10,3.67c-3.12-.35-5.06-2.26-6.66-4.67C515,66.36,513.81,64,512.19,62c-3.91-5-9.2-6-13.25-2.74S494.28,69.47,498,73.9c2.58,3.07,6.13,4.9,9.56,6.84,6.36,3.6,13.11,6.52,18.92,11.06,10.45,8.15,13.68,19,11.12,31.53C534.67,137.64,521.6,146,501.81,145.31Z"/><path class="cls-3" d="M571.81,76.45c5.29-3.54,10.15-5.75,15.66-6.35,11.91-1.29,21.18,5.62,21.6,17.49.59,17.21.2,34.46.31,51.69,0,2.61-1,3.84-3.6,3.83-.38,0-.76,0-1.13,0-17.72,1-17.7,1-17.72-16.76,0-10.68.08-21.36-.19-32-.16-6.36-3.27-9.54-8.29-9-4.05.44-6.83,1.93-6.74,7,.29,15,0,30,.19,45,.05,4.35-1.31,5.87-5.79,5.9-16.67.12-16.67.26-16.67-16.22,0-24.73.12-49.46-.1-74.18-.05-5,1-6.93,6.49-6.83,16,.29,16,0,16,15.84Z"/><path class="cls-2" d="M222.5,94.31c0-14.22.12-28.45-.07-42.68-.06-4.1,1.22-5.65,5.45-5.6,14.64.18,29.29.14,43.93,0,3.6,0,5,1.19,4.94,4.89-.21,12.89,1,10.92-10.55,11.06-5.44.07-10.89.11-16.33,0-2.69-.07-3.63,1-3.56,3.6.14,5.43.15,10.86,0,16.29-.08,2.76,1,3.54,3.64,3.47,5.81-.14,11.64.08,17.45-.09,3.15-.09,4.21,1.1,4.37,4.23.59,11.46.69,11.38-10.77,11.48-4.66,0-10.61-2-13.62.82s-.85,8.85-1,13.47c-.19,7.48-.25,15,0,22.46.16,4.28-1.51,5.64-5.59,5.4a111.72,111.72,0,0,0-12.94,0c-4.21.25-5.53-1.42-5.48-5.55C222.62,123.14,222.5,108.73,222.5,94.31Z"/><path class="cls-3" d="M333.94,109.35c0,6.55-.09,13.1,0,19.64s-2.74,10.72-8.76,12.88a53.12,53.12,0,0,1-35.83.46c-6.88-2.33-11.33-7.22-12.18-14.72s1.49-14,7.78-18.73c6.8-5.06,14.81-7.4,22.92-8.67,5.9-.93,5.46-4.4,5.24-8.37s.54-8.75-5-9.89c-4.72-1-7.33,1.8-8.88,5.9-1.28,3.38-2.67,6.77-6.74,7.57-3.85.76-7.58.38-10.23-3s-2.48-7-.61-10.55c2.38-4.57,6.44-7.25,11.11-9a49,49,0,0,1,27.69-1.88c8.62,1.86,13.13,7.62,13.43,17,.23,7.1.05,14.21.05,21.32Zm-20.83,10h0c0-2.63,0-5.25,0-7.87,0-1.08.08-2.25-1.59-2.4-3-.28-10.55,4.74-12.18,8.26-2.25,4.85-1.32,11.12,2.18,14,2.29,1.9,4.87,2.77,7.84,1.62s3.61-3.61,3.71-6.36C313.18,124.17,313.11,121.73,313.11,119.3Z"/><path class="cls-3" d="M675.11,109.22c0,6.73-.07,13.47,0,20.21.09,6.51-3.15,10.57-9.12,12.63a54,54,0,0,1-34.79.49c-6.92-2.21-11.65-6.87-12.72-14.3-1.15-8,1.3-14.83,8.1-19.66s14.88-7.17,23-8.5c5.17-.84,5.1-3.77,4.85-7.47-.29-4.19.77-9.19-4.91-10.62-4.62-1.17-7.39,1.45-9,5.64-1.27,3.35-2.6,6.85-6.63,7.73s-8,.46-10.64-3.21-2.19-7.48.06-11.07c3.89-6.19,10.21-8.62,16.94-10a53,53,0,0,1,19.58-.43c9.26,1.58,14.23,6.83,15.07,16.11.07.75.17,1.49.17,2.24Q675.14,99.12,675.11,109.22Zm-20.67,10h0c0-2.61,0-5.22,0-7.83,0-1.33.09-2.49-2-2.36-8.82.55-15.49,10.8-12.08,18.86,1.62,3.84,4.6,6,8.82,5.42s5.27-3.67,5.28-7.38C654.45,123.71,654.44,121.48,654.44,119.24Z"/><path class="cls-3" d="M399.1,108.81c0-9.18,1.09-16.52,4.83-23.28a31,31,0,0,1,33-15.1c11.73,2.22,20,11.51,21.61,24.25.8,6.31-.87,8.6-7.22,9.53-9.65,1.4-19.3,2.94-29,4-4.8.49-4.86,2.49-3.44,6.14a17.36,17.36,0,0,0,22,10.45,22.13,22.13,0,0,0,9.27-6.15c1.69-1.79,3.47-3.79,6.26-2.21s2.89,4.12,2.4,6.88a26.42,26.42,0,0,1-24.12,21.64c-19.36,1.37-32.54-9.6-35.1-29.29C399.28,112.84,399.19,110,399.1,108.81Zm20.21-11c5.61-.85,10.41-1.72,15.26-2.25,2.7-.3,2.84-1.5,2.4-3.75-1.06-5.47-4.41-8.83-9.24-8.88-5.52-.07-9.83,4.14-11.07,10.73C416.12,96.55,416.16,98.76,419.31,97.86Z"/><path class="cls-3" d="M739.81,107.76c-.11-9.67,1.56-18.19,7-25.63a31,31,0,0,1,32.6-11.34c12,3.13,17.67,11.91,19.85,23.4,1.22,6.4-.77,9-7.25,10-9.84,1.45-19.68,2.94-29.55,4.11-3.73.44-4.13,2-3.16,5.12,3.89,12.67,19.2,16.28,29.75,7,2.44-2.15,4.4-6.79,8.69-3.61,3.84,2.83,1.9,6.93.63,10.34-3.85,10.41-11.31,16.68-22.53,17.64-13.18,1.14-24.16-2.85-30.92-15A43.12,43.12,0,0,1,739.81,107.76Zm21.24-10.07c4.11-.61,9.25-1.5,14.42-2.11,2.79-.33,2.67-1.67,2.19-3.82-1.4-6.25-5.36-9.5-10.92-8.69-5.18.75-10,7.27-9.74,12.75C757.12,98.22,758.47,97.93,761.05,97.69Z"/><path class="cls-1" d="M219.22,29.47c-9.77-1.27-17.93-2.14-26.2-.8a54.73,54.73,0,0,0-25.48,11.07,105.59,105.59,0,0,1-50.06,21.54c-5,.75-7.67.4-9.33-5.7C104.16,41,95.28,28.66,87,16.15A70.62,70.62,0,0,1,82,8c-1.2-2.47-2.69-5.82.44-7.57s4.62,1.76,5.89,3.74a129.05,129.05,0,0,1,8,14.16c5.07,10.64,10,21.35,14.62,32.19,1.78,4.15,3.77,4.5,7.08,2,5.77-4.35,10.07-10,14.39-15.7,9.53-12.46,20.91-22.47,37.25-23.75,16.92-1.32,32.82,2.48,46.53,13.15A38.53,38.53,0,0,1,219.22,29.47Z"/><path class="cls-3" d="M689.41,110.35c0-9,.12-18,0-27-.09-4.52,1.6-7.58,5.88-9.11,10.6-3.78,21.49-5.36,32.66-3.52,7.42,1.23,11.44,6.13,10.94,12.66-.31,4.14-2.22,7.2-6.5,8.09-4.07.86-6.89-.95-8.58-4.65-.39-.86-.81-1.69-1.25-2.52-1.52-2.84-3.85-4-7-3.25s-3.82,3.19-3.82,6.05c0,16.3-.23,32.6.15,48.89.13,5.71-1.49,7.9-7.25,7.21a55.28,55.28,0,0,0-10.13,0c-4,.27-5.18-1.49-5.1-5.31C689.55,128.71,689.41,119.52,689.41,110.35Z"/><path class="cls-2" d="M370.31,113.06c0,8.23-.21,16.47.09,24.69.15,4.3-1.45,5.36-5.54,5.38-16.52.09-16.52.22-16.52-16.21,0-14.4.18-28.81-.08-43.2-.09-5.37,2.05-8.37,7-10,10.32-3.29,20.83-4.84,31.57-3,7.64,1.32,11.39,6.37,10.61,13.37-.45,4-2.61,6.57-6.57,7.37s-6.51-1-8.23-4.34c-.42-.83-.8-1.69-1.21-2.53-1.39-2.84-3.59-4.3-6.82-3.67-3.43.67-4.3,3.19-4.3,6.27q0,12.91,0,25.81Z"/></g><path class="cls-4" d="M449.93,190H437.71v37.84h-5V190H420.56v-4.49h29.37Z"/><path class="cls-4" d="M481,227.86h-4.84V210.44q0-9.44-7-9.44a7.65,7.65,0,0,0-6,2.73,10.2,10.2,0,0,0-2.42,7v17.12h-4.84V183.11h4.84v19.54h.12a11,11,0,0,1,9.92-5.72q10.2,0,10.21,12.3Z"/><path class="cls-4" d="M511.76,227.86h-4.84v-4.72h-.12a10.12,10.12,0,0,1-9.29,5.43,10,10,0,0,1-7.07-2.39,8.3,8.3,0,0,1-2.55-6.35q0-8.47,10-9.86l9.06-1.27q0-7.69-6.23-7.7a14.85,14.85,0,0,0-9.85,3.72v-5a18.7,18.7,0,0,1,10.27-2.83q10.65,0,10.65,11.27Zm-4.84-15.29-7.29,1a11.84,11.84,0,0,0-5.07,1.67c-1.15.8-1.72,2.21-1.72,4.24a4.61,4.61,0,0,0,1.58,3.61,6.08,6.08,0,0,0,4.21,1.4,7.79,7.79,0,0,0,5.95-2.52,9,9,0,0,0,2.34-6.39Z"/><path class="cls-4" d="M563.8,227.86H559V210.5q0-5-1.55-7.26c-1-1.49-2.77-2.24-5.21-2.24a6.45,6.45,0,0,0-5.27,2.83,10.84,10.84,0,0,0-2.17,6.79v17.24h-4.84v-18q0-8.91-6.88-8.91a6.37,6.37,0,0,0-5.25,2.67,11,11,0,0,0-2.07,7v17.24h-4.84V197.64h4.84v4.78h.12a10.27,10.27,0,0,1,9.39-5.49,8.72,8.72,0,0,1,8.56,6.25q3.36-6.26,10-6.25,10,0,10,12.3Z"/><path class="cls-4" d="M597.24,214H575.9q.12,5,2.71,7.79a9.36,9.36,0,0,0,7.15,2.74,14.85,14.85,0,0,0,9.38-3.36v4.54q-4,2.9-10.54,2.9t-10.06-4.12q-3.66-4.12-3.66-11.59,0-7.05,4-11.49a12.84,12.84,0,0,1,9.93-4.44c4,0,7,1.28,9.18,3.83s3.25,6.11,3.25,10.66Zm-5-4.11a9.9,9.9,0,0,0-2-6.52,6.92,6.92,0,0,0-5.54-2.33,7.82,7.82,0,0,0-5.81,2.45,11,11,0,0,0-2.95,6.4Z"/><path class="cls-4" d="M602.73,226.77v-5.2a14.27,14.27,0,0,0,8.7,2.92c4.25,0,6.38-1.41,6.38-4.25a3.65,3.65,0,0,0-.55-2.05,5.33,5.33,0,0,0-1.47-1.49,11.23,11.23,0,0,0-2.19-1.16c-.83-.35-1.74-.71-2.7-1.08a35.28,35.28,0,0,1-3.53-1.61,10.43,10.43,0,0,1-2.53-1.83,6.87,6.87,0,0,1-1.54-2.32,8.27,8.27,0,0,1-.52-3,7.22,7.22,0,0,1,1-3.76,8.63,8.63,0,0,1,2.6-2.75,12.12,12.12,0,0,1,3.7-1.66,16.19,16.19,0,0,1,4.29-.56,17.46,17.46,0,0,1,7,1.35v4.9a13.74,13.74,0,0,0-7.67-2.18,8.78,8.78,0,0,0-2.45.31,6.16,6.16,0,0,0-1.88.87,4.06,4.06,0,0,0-1.21,1.34,3.64,3.64,0,0,0-.43,1.73,4.2,4.2,0,0,0,.43,2,4.28,4.28,0,0,0,1.26,1.41,9.63,9.63,0,0,0,2,1.13l2.69,1.09a36.75,36.75,0,0,1,3.6,1.58,12.11,12.11,0,0,1,2.71,1.83,7.13,7.13,0,0,1,1.73,2.34,7.64,7.64,0,0,1,.61,3.16,7.44,7.44,0,0,1-1,3.9,8.52,8.52,0,0,1-2.64,2.74,12.36,12.36,0,0,1-3.81,1.63,19,19,0,0,1-4.52.53A17.11,17.11,0,0,1,602.73,226.77Z"/><path class="cls-4" d="M678.87,185.53,663.2,227.86h-5.46l-15.35-42.33h5.52l11.72,33.56a20.39,20.39,0,0,1,.86,3.75h.11a18.78,18.78,0,0,1,1-3.81l11.95-33.5Z"/><path class="cls-4" d="M705.94,227.86H701.1v-4.72H701a10.15,10.15,0,0,1-9.3,5.43,10,10,0,0,1-7.07-2.39,8.3,8.3,0,0,1-2.55-6.35q0-8.47,10-9.86l9.06-1.27q0-7.69-6.23-7.7a14.88,14.88,0,0,0-9.86,3.72v-5a18.73,18.73,0,0,1,10.27-2.83q10.66,0,10.66,11.27Zm-4.84-15.29-7.29,1a11.84,11.84,0,0,0-5.08,1.67c-1.14.8-1.71,2.21-1.71,4.24a4.61,4.61,0,0,0,1.58,3.61,6.06,6.06,0,0,0,4.2,1.4,7.77,7.77,0,0,0,6-2.52,9,9,0,0,0,2.35-6.39Z"/><path class="cls-4" d="M719.9,227.86h-4.84V183.11h4.84Z"/><path class="cls-4" d="M734.54,227.86H729.7V183.11h4.84Z"/><path class="cls-4" d="M768.63,214H747.29q.12,5,2.71,7.79a9.36,9.36,0,0,0,7.15,2.74,14.85,14.85,0,0,0,9.38-3.36v4.54q-4,2.9-10.54,2.9t-10.06-4.12q-3.66-4.12-3.66-11.59,0-7.05,4-11.49a12.84,12.84,0,0,1,9.93-4.44c4,0,7,1.28,9.18,3.83s3.25,6.11,3.25,10.66Zm-5-4.11a9.9,9.9,0,0,0-2-6.52,6.92,6.92,0,0,0-5.54-2.33,7.82,7.82,0,0,0-5.81,2.45,11,11,0,0,0-2.95,6.4Z"/><path class="cls-4" d="M800,197.64,786.1,232.7q-3.72,9.39-10.45,9.38a11,11,0,0,1-3.16-.38v-4.34a8.86,8.86,0,0,0,2.87.53c2.43,0,4.26-1.45,5.49-4.37l2.42-5.72-11.81-30.16h5.37L785,220.89c.1.3.3,1.07.62,2.3h.17c.1-.47.3-1.22.59-2.24L795,197.64Z"/></g></g></svg>