<svg xmlns="http://www.w3.org/2000/svg" viewBox="0 0 960 312.23"><defs><style>.cls-1{fill:#231f20;}.cls-2{fill:#e93991;}</style></defs><g id="Layer_2" data-name="Layer 2"><g id="Layer_1-2" data-name="Layer 1"><path class="cls-1" d="M87.67,151.16c3.49-9.79,6.67-19.29,10.26-28.62s7.44-18.38,11.39-27.47a8.46,8.46,0,0,0,0-7.55C102.9,73.17,97.82,58.35,95.68,42.68,94.1,31,94.13,19.55,101.19,9.3S121.13-3,131.09,4.77c6.95,5.44,11.16,13,15.13,20.61.81,1.57,1.58,3.15,2.6,5.2,2.77-2.75,5.16-5.47,7.89-7.79,6.47-5.52,13.69-9,22.45-6.51,10,2.8,15.58,12.84,14.65,25.56-.74,10.21-4.15,19.67-8.17,28.93-3.53,8.15-7.22,16.23-11,24.29a7,7,0,0,0-.05,6.31c2.08,4.58,4,9.25,5.85,13.92.57,1.41,1.05,2.38,2.85,1.74,17.35-6.16,31.58,5.39,30.89,26,0,.42,0,.85,0,1.84,4.46-2.08,8.56-4.36,13.38-4,10.51.7,17.93,8,19.93,19.36a51.77,51.77,0,0,1-2.41,26.27,23.91,23.91,0,0,0-.8,12.12c8.7,53.72-31,105.57-85.27,111.14-31.47,3.22-59.06-5-80.71-29.12-14-15.61-21.74-34.4-26.75-54.48-2.66-10.64-5.42-21.22-10.79-30.91-5.21-9.41-12.76-15.67-23.29-18.53C5.86,173.5-.41,165.7,0,155.61a20,20,0,0,1,6.5-13.73c10.22-9.91,22.93-12.44,36.53-11.66,16.52.94,30.5,7.85,42.55,19C86.22,149.76,86.83,150.36,87.67,151.16Zm77.17-39.72c-2.82,5.27-5.55,9.81-7.71,14.6-2.31,5.11-5,1.2-7.46.6-3.36-.81-1.93-2.85-1-4.73,6.86-14.27,13.75-28.53,20.55-42.83,5.6-11.78,11.41-23.51,12.87-36.72.61-5.46-.55-10.58-5.69-13.5-5-2.82-9.18.08-13,2.93-5.14,3.85-9.21,8.8-13,14-14.12,19.42-24.29,41-34,62.79-8.16,18.26-16.25,36.61-19,56.65-.67,5-4.49,4.23-7.13,5.72-2.94,1.65-3.47-1.45-4.55-2.83-10.58-13.62-23.59-23.4-41.18-25.43-10.56-1.21-20.9-.13-29.11,7.63-5.17,4.89-4,10.52,2.44,13.49a30.41,30.41,0,0,0,4.18,1.46,46.4,46.4,0,0,1,26.52,19.7c5.67,8.64,9.27,18.17,12.07,28,3.64,12.81,6.83,25.74,13.1,37.66,10.93,20.75,26.31,36.48,49.1,43.74,44.71,14.25,94.38-13,107.66-58.89a72.14,72.14,0,0,0,3-27c-5.37,9.39-12.39,16.26-23.77,16.33-11.9.08-18.55-6.74-21.37-18-1.87,1.61-3.27,2.93-4.79,4.08a22.63,22.63,0,0,1-32.52-5.21,28.6,28.6,0,0,1-5.15-15.85c-.59-23.61,7.38-44.11,22.74-61.87,1-1.13,3-1.75,1.92-4C168.7,120,166.92,116,164.84,111.44ZM203,145.29c-.4-3.24-.53-5.78-1.06-8.22-1.93-8.86-9.54-12.39-17.64-8.25a30.24,30.24,0,0,0-9,7.19c-8.46,9.69-13.61,21.05-16.82,33.38-2,7.52-3,15.14-1.73,22.88.89,5.32,2.95,10,8.49,12.09s10.42,0,14.68-3.69a18.87,18.87,0,0,0,2.83-2.82C194.73,182.08,200.6,164,203,145.29Zm33.73,27.26c.14-7.14-.4-11.83-2.78-16.09-2.5-4.45-7.28-5.8-11.8-3.41a21.33,21.33,0,0,0-6.14,5c-9,10.46-14.17,22.7-16.61,36.18a29.71,29.71,0,0,0,.05,11.47c1.36,6.57,5.49,9.54,12.17,8.65,5-.67,8.68-3.64,11.74-7.35C232.14,196.36,235.79,183.76,236.71,172.55ZM117.86,75.84c6.52-12.66,13-24.12,20.93-34.7.64-.86,1.11-1.61.53-2.79-4-8.24-7.68-16.76-14.61-23.14-4.56-4.2-9.17-4-13.16.64-3.48,4-4.62,8.9-4.71,14C106.54,45.84,112.45,60.29,117.86,75.84Z"/><path class="cls-2" d="M553.9,175.6c-.41,12.55-1,25.1-1.12,37.65,0,4.2-1.43,5.42-5.4,5.08a68.69,68.69,0,0,0-11.11,0c-3,.23-3.83-.74-3.67-3.7.8-14.65,1.42-29.31,2.12-44,.4-8.59,1-17.17,1.14-25.76,0-3.44,1.21-4.37,4.39-4.19a111.44,111.44,0,0,0,11.56,0c2.85-.15,4.56.71,6,3.39,4.26,8.14,8.86,16.1,13.33,24.13,2.43,4.37,4.11,4.57,6.59.27q7-12.12,13.44-24.57a5.2,5.2,0,0,1,5.56-3.22c4.29.19,8.6.13,12.9,0,2.5-.08,3.31.86,3.41,3.34q1.49,35.32,3.22,70.64c.15,3.07-.91,3.86-3.78,3.69a61.15,61.15,0,0,0-11.56,0c-4.87.64-5.72-1.8-5.83-5.77-.32-11.27-.81-22.53-1.23-33.79,0-1-.12-2-.18-3.08-1.81-.15-1.9,1.34-2.37,2.25-3.18,6-6.37,12.06-9.34,18.19-1.12,2.31-2.56,3-5.11,3.26-5.62.57-9.31-.95-11.83-6.46-2.8-6.15-6.64-11.83-10-17.71Z"/><path class="cls-2" d="M500.41,175.54c-3.46,6.67-7,13.29-10.33,20.05-1.24,2.53-2.58,4.26-5.66,3.73-3.34-.58-7.23,1.6-9.63-3.19A137.23,137.23,0,0,0,462,175.59c-.22,3.27-.53,6.53-.65,9.8q-.53,14.67-.89,29.34c-.05,2-.38,3.45-2.85,3.43-4.89,0-9.79,0-14.68.11-2.6,0-2.23-1.74-2.22-3.36.08-9.93.64-19.86,1.12-29.76.64-13.16,1.5-26.32,1.83-39.5.09-3.76,1.08-5.56,5.08-4.94a28.6,28.6,0,0,0,4.44,0c10.82,0,10.79,0,16,9.65q5.5,10.17,11.16,20.24c.54.95.83,2.56,2.23,2.45s1.49-1.64,2-2.65c4.85-8.83,9.77-17.62,14.47-26.53a5.14,5.14,0,0,1,5.23-3.17c4.3.1,8.61.13,12.9,0,2.62-.09,3.59.8,3.71,3.55q1.51,35.09,3.35,70.17c.15,2.95-.65,4-3.61,3.89-4.29-.18-8.6-.14-12.9,0-3.24.1-4.68-.86-4.72-4.51-.11-10.52-.63-21-1-31.55-.08-2.2-.35-4.39-.53-6.59Z"/><path class="cls-2" d="M723.89,175.86v34c0,8.17,0,8.28-8.19,8.1-3.93-.08-9,1.76-11.5-.91-2.35-2.44-.7-7.36-.72-11.17-.07-20,.1-40-.14-60.05-.06-4.27,1.49-4.8,5.29-5.31,10-1.36,16.45,2.07,21.44,11.08,5.28,9.55,12.2,18.2,18.42,27.23.72,1,1.54,2,2.44,3.17,1.24-1.77.73-3.42.74-5,0-10.82.09-21.65-.06-32.47-.05-2.94,1-4,3.84-3.91,4.14.11,8.31.21,12.44-.05,3.3-.21,4.3.86,4.27,4.23-.15,21-.07,42.11-.07,63.16,0,10,0,9.65-10,10.17-5.55.29-8.84-1.44-11.85-6.11-7.07-10.94-14.75-21.49-22.19-32.19-1-1.45-2.08-2.84-3.12-4.26Z"/><path class="cls-2" d="M392.72,219.94c-23.1.08-40-17.12-40.09-40.71-.05-22.87,17-40.42,39.48-40.54,24-.14,41.13,16.75,41.2,40.58S416.55,219.86,392.72,219.94Zm19.07-41.39a41.45,41.45,0,0,0-.65-5.44c-1.65-7.18-5.75-12.45-13-14.39-6.88-1.85-13.3-.53-18.46,4.74-8.19,8.38-7.4,25.39,1.46,33.07a16.29,16.29,0,0,0,6.62,3.5C401,203.52,411.61,194.51,411.79,178.55Z"/><path class="cls-2" d="M692,168.65c0,6.82,0,13.64,0,20.46,0,20.64-16,32.51-35.78,31-20.63-1.6-30.92-13.43-31-34.3,0-13.49.1-27-.09-40.48,0-3.5,1-4.82,4.52-4.64a114.36,114.36,0,0,0,12,0c3.55-.19,4.53,1.24,4.49,4.68-.18,12.75-.08,25.51-.07,38.26,0,1.63,0,3.27.14,4.89.66,8.32,4.71,12,12.9,11.94,7.37-.09,11.86-4.48,12-12.49.22-13.79.09-27.58.11-41.37,0-5.81,0-5.81,5.71-5.84,3.85,0,7.71.1,11.56,0,2.92-.11,3.85,1.09,3.8,3.95-.15,8-.05,16-.05,24Z"/><path class="cls-2" d="M275.65,179.48c.18-29.5,25.82-47.59,55-38.8A35.18,35.18,0,0,1,347,150.89c1.7,1.89,2.24,3.45-.18,5.44A57.17,57.17,0,0,0,339,164.2c-2.32,2.85-3.76,2.9-6.47.19-8.66-8.7-22.62-8.65-30.19-.27s-6.93,23.38,1.23,31.21c7.88,7.55,21.71,7.29,29.63-1.13,3-3.2,4.62-2.79,7.18,0a83.94,83.94,0,0,0,7.76,7.32c1.85,1.57,2.11,2.7.39,4.69-19,21.83-60.11,18.5-70.31-11.47a40.74,40.74,0,0,1-1.8-6.86C275.94,185.11,275.87,182.28,275.65,179.48Z"/><path class="cls-2" d="M912.66,199.93c2.51-9-2.46-17.62-7.94-26.3-6-9.52-11.49-19.37-17.31-29-1.82-3-1.45-4.07,2.25-3.93,5.33.2,10.68.13,16,0a4.66,4.66,0,0,1,4.87,2.88c3.67,7.09,7.67,14,11.38,21.09,1.52,2.9,2.53,2.76,3.92,0,3.46-6.88,7.12-13.66,10.43-20.61,1.21-2.54,2.76-3.45,5.49-3.36,5,.17,10.09.18,15.13,0,3.46-.14,3.82.84,2.12,3.67-7.79,12.95-15.42,26-23.25,38.93a14,14,0,0,0-2.28,7.91c.14,7.86,0,15.72.09,23.58,0,2.73-.91,3.67-3.62,3.57-4.74-.18-9.48-.13-14.22,0-2.31,0-3.16-.86-3.1-3.14C912.74,210.71,912.66,206.26,912.66,199.93Z"/><path class="cls-2" d="M848.22,140.69c9.93,0,19.86.1,29.79-.06,3.22,0,4.61.84,4.33,4.27a63.41,63.41,0,0,0,0,10.22c.27,3.28-1.08,4-4.07,3.93-5.18-.2-10.38.11-15.56-.11-3.12-.12-4,.95-4,4,.14,16.75-.06,33.51.16,50.26.06,4-1,5.24-5,4.9a76.31,76.31,0,0,0-12,0c-3.42.24-4.23-1-4.2-4.3.15-16.75,0-33.51.18-50.26,0-3.74-1-4.87-4.67-4.65-5.17.3-10.38,0-15.56.11-2.61.07-3.81-.72-3.68-3.52a95,95,0,0,0-.06-10.67c-.22-3.15,1-4.18,4.07-4.15,10.08.1,20.16,0,30.24,0Z"/><path class="cls-1" d="M454.62,292.8v-8.55c0-14.54.06-29.09-.1-43.63,0-3.15.53-4.83,4.07-4.21a11.42,11.42,0,0,0,3.55,0c2.49-.35,2.85.84,2.84,3-.09,13.8,0,27.61,0,41.41,0,8.75-.1,17.51,0,26.26,0,2.53-.74,3.1-3.24,3.32-5.21.47-8.47-1.2-11.52-5.77-11-16.39-22.45-32.4-33.75-48.55-.57-.82-1.2-1.59-1.86-2.45-1.25,1.1-.64,2.34-.64,3.41,0,16.47-.13,32.95,0,49.42,0,3.2-.91,4-4,3.92-6.56-.17-6.56,0-6.56-6.61,0-21.07.08-42.15-.07-63.22,0-3.26.73-4.12,4.11-4.29,5-.26,7.91,1.29,10.76,5.54,10.72,16,21.94,31.68,33,47.46C452.08,290.43,452.6,291.88,454.62,292.8Z"/><path class="cls-1" d="M475.82,273.15c0-11,0-22,0-32.94,0-1.6-.77-3.88,2.24-3.77,12,.43,24.08-1.32,35.92,1.39,14.87,3.41,23.83,12.84,26,27.95,1.94,13.48,0,26.19-11,35.73-7.67,6.63-17.15,8.46-26.93,8.76-7.56.24-15.14-.12-22.69.14-3.19.1-3.63-1.15-3.6-3.87C475.89,295.41,475.82,284.28,475.82,273.15Zm10.58.27h0c0,8,.08,16-.05,24,0,2.46.57,3.44,3.21,3.31,4.89-.23,9.8.07,14.68-.21,14.83-.84,23.85-9.12,25-23.73,1.37-16.71-6-29.35-24.73-30.63-4.88-.34-9.79-.12-14.67-.39-2.79-.15-3.55.91-3.51,3.58C486.5,257.4,486.4,265.41,486.4,273.42Z"/><path class="cls-1" d="M333.51,262.93c0-7.56.16-15.13-.08-22.69-.1-3.22,1-4,4-3.87,6.61.18,6.54,0,6.62,6.48.16,13.94-.62,27.9.42,41.82,1.12,15.15,16.33,22.82,29.32,14.84,4.63-2.84,6.65-7.47,7.25-12.68,1.48-12.72.39-25.49.7-38.23a51.24,51.24,0,0,0,0-7.12c-.45-3.87.63-5.45,4.91-5.14,5.79.43,5.89.11,5.8,6-.21,15,.86,30-.55,44.92-1.53,16.21-13.05,25.36-30.49,24.9-15.81-.41-26.76-10.59-27.59-26.14-.4-7.69-.07-15.42-.07-23.14Z"/><path class="cls-2" d="M804.89,180c0,11.42-.07,22.84.06,34.26,0,2.85-.77,4-3.76,3.82-4.43-.22-8.89-.16-13.33,0-2.63.1-3.65-.69-3.64-3.49q.16-35.15,0-70.29c0-2.91,1.23-3.48,3.74-3.4,4.29.13,8.6.2,12.89,0,3.08-.16,4.09.84,4.05,4-.17,11.71-.07,23.43-.07,35.14Z"/><path class="cls-1" d="M279.12,273.1c0-11,.07-22-.06-32.94,0-2.74.48-3.86,3.61-3.82,13.06.21,26.12.32,39.16,0,4.58-.11,3.55,2.55,3.7,5.06.17,2.77.11,4.69-3.8,4.57-9.48-.31-19,0-28.48-.14-2.71,0-3.69.67-3.59,3.45.18,5.33.16,10.68,0,16-.07,2.47.65,3.36,3.24,3.29,7-.16,13.95.18,20.91-.14,4.13-.2,3.23,2.37,3.15,4.55s1.31,5.19-3.22,4.95c-6.37-.32-12.79.3-19.13-.18-4.48-.35-5.1,1.43-5,5.22.24,7.86,0,15.73.13,23.59.06,2.75-.44,4.3-3.59,3.75a9.49,9.49,0,0,0-3.1,0c-3.12.51-4.06-.7-4-3.84.18-11.13.07-22.26.07-33.39Z"/><path class="cls-1" d="M197.57,31A8.62,8.62,0,0,1,206,22a8.51,8.51,0,0,1,8.84,8.49c.12,5.19-3.66,9.25-8.6,9.24A8.7,8.7,0,0,1,197.57,31Zm9.26-7.17a6.86,6.86,0,0,0-7.39,6.56,6.86,6.86,0,0,0,6.39,7.54,6.69,6.69,0,0,0,7.11-6.34A6.86,6.86,0,0,0,206.83,23.83Z"/><path class="cls-1" d="M157.62,274.83c-23-.72-37.93-13.86-47.14-34.77-.8-1.81-3-4.41-1.5-5.61,2.64-2.18,6.15-3.43,9.47-4.6,1.14-.4,1.31,1.65,1.71,2.61,4,9.56,9.78,17.59,18.91,22.84,14.27,8.21,28.85,7.24,43.6,1.36,1.67-.67,4.06-2.79,5-1.5,1.93,2.67,2.9,6.09,4,9.29.25.72-1,1.27-1.82,1.69A70.24,70.24,0,0,1,157.62,274.83Z"/><path class="cls-1" d="M182,185.33a9.3,9.3,0,0,1-9.48,9.56,9.43,9.43,0,0,1-9.62-9.42,9.55,9.55,0,0,1,9.5-9.61A9.38,9.38,0,0,1,182,185.33Z"/><path class="cls-1" d="M213.8,205.53a8.55,8.55,0,1,1,0-17.09,8.55,8.55,0,1,1,0,17.09Z"/><path class="cls-1" d="M209.73,35.08c-2.72.18-2.27-2.84-4.19-3.17-1.53.6.05,2.63-1.76,3.37-1.4-2.52-.9-5.33-.51-7.82.33-2.12,2.71-1.05,4.12-.94,1.68.13,2.94,1.75,2.07,3.08C208.16,31.6,209.08,33.26,209.73,35.08Z"/></g></g></svg>