<?xml version="1.0" encoding="utf-8"?>
<!-- Generator: Adobe Illustrator 25.2.2, SVG Export Plug-In . SVG Version: 6.00 Build 0)  -->
<svg version="1.1" id="Layer_1" xmlns="http://www.w3.org/2000/svg" xmlns:xlink="http://www.w3.org/1999/xlink" x="0px" y="0px"
	 viewBox="0 0 800 666" style="enable-background:new 0 0 800 666;" xml:space="preserve">
<style type="text/css">
	.st0{fill:#F16626;}
	.st1{fill:#EB0C8B;}
	.st2{fill:#C9DA2C;}
	.st3{fill:#2CAAE1;}
	.st4{fill:#922A8D;}
	.st5{fill:#0A73BA;}
	.st6{fill:#2A9146;}
	.st7{fill:#BCBDC1;}
	.st8{fill:#963391;}
	.st9{fill:#EA108C;}
	.st10{fill:#FDC217;}
	.st11{fill:#953090;}
	.st12{fill:#932D8F;}
	.st13{fill:#6F3A95;}
	.st14{fill:#E81B8F;}
</style>
<g>
	<path class="st0" d="M96.3328018,324.3750916c-4.1544418-9.862793-8.2395706-19.4291687-13.416069-28.4884033
		c-2.8482513-4.9846191-6.2614899-9.3917847-11.0556259-12.6756897c-1.0041046-0.6877747-1.8354263-0.3049316-2.7331161-0.2174072
		c-4.1757431,0.4071045-8.2563896,0.1942444-12.0203209-1.8786621c-1.2857246-0.7080994-2.5499611-0.5233459-3.8713074-0.373291
		c-3.7502632,0.4259033-7.4573441-0.1294556-10.3763313-2.4395752c-3.2762527-2.592926-6.8867073-4.278656-10.6660461-5.8688965
		c-2.8125515-1.1834412-5.3036766-3.0674744-6.6730938-5.9181519c-0.7375984-1.5354004-2.1143265-1.859375-3.3513126-2.5531616
		c-4.7194748-2.6468811-8.1449251-6.1889343-7.8072777-12.0621796c0.092391-1.6071472-0.9093494-2.3702698-1.7580271-3.3714905
		c-4.3646517-5.149231-6.0983915-10.7452545-2.4883146-17.0206146c0.9469023-1.6459656,0.349679-3.0081482-0.1112337-4.4898682
		c-5.0275683-16.1624908-8.5087242-32.5715485-7.94491-49.6300049c0.2915843-8.8216705,1.8002782-17.3848724,6.1217346-25.1820068
		c9.5320406-17.1985474,28.9782867-23.0764618,47.3320045-14.3499298
		c12.5670128,5.975174,22.1218224,15.5765686,30.757618,26.1747437
		c6.5925522,8.0906219,12.4973831,16.6639709,17.1821518,26.0303497c0.7747269,1.5489349,1.7616577,2.4924164,3.7792664,2.8351135
		c4.8248215,0.8195038,8.1096573,5.3732605,8.3920517,11.3578644c0.1106567,2.3454742,0.8072586,3.92276,2.6306458,5.4876556
		c3.8091354,3.269165,4.0099182,7.6175385,2.2829666,11.9780273c-0.784462,1.9806671-0.7698898,3.4130096,0.2372894,5.3233185
		c2.9696808,5.63237,0.7671738,10.6032104-2.7204819,15.1114502c-1.3343887,1.7248993-2.010994,3.3455505-2.0296402,5.5582886
		c-0.0652771,7.7517548-3.5413589,13.6742706-10.1399231,17.7627106c-9.4537506,5.8575439-11.6369247,11.019989-9.396759,21.8225708
		c1.8267441,8.8088989,4.8748398,17.2233582,8.2551498,25.5150757c0.9305344,2.2825317,0.644722,3.4642639-1.5906296,4.5032043
		C100.1822662,318.6970825,99.1031647,322.0531311,96.3328018,324.3750916z"/>
	<path class="st1" d="M147.5560608,231.6283264c-0.0558167-7.5101624-0.4537048-15.000351-1.1842194-22.4873657
		c-0.5054626-5.1804199-2.7792358-9.6288757-4.7466125-14.2456207c-0.427002-1.0020752-1.4413452-0.7614899-2.1985931-0.9591522
		c-4.1083984-1.0723419-7.6296692-3.1031189-10.3900757-6.3317719c-0.9947357-1.1634674-2.1392059-1.7841949-3.6007614-2.2268066
		c-4.2335205-1.282074-7.6832886-3.8101959-9.5286942-7.8607941c-1.1480942-2.519989-2.7433929-4.4751892-4.7218094-6.289505
		c-3.0328293-2.7813263-5.1722565-6.1353149-5.5743942-10.3141022c-0.1347656-1.400589-1.0109558-2.1270599-1.7583542-3.0400085
		c-3.5726852-4.3641815-4.8980331-9.1807098-2.5988464-14.5346985c0.5571289-1.2974243,0.2859497-2.2604828-0.0611267-3.4321442
		c-1.9344177-6.5301666-1.6154251-12.5337372,4.45961-16.9271469c1.2970581-0.9380417,1.362915-2.1674271,1.5117264-3.4731445
		c1.678154-14.7255783,4.3791504-29.2167206,9.9031296-43.0563965c3.6254196-9.0830688,8.3362274-17.4495277,15.484642-24.3247299
		c13.9457092-13.4126816,35.3460388-13.361145,49.1547852,0.1458359
		c10.3126068,10.0872116,15.6922302,22.8586807,19.7777252,36.2877884
		c3.1428833,10.3309097,5.3359528,20.88237,6.0404663,31.6975708c0.1836243,2.8191071,0.9781799,4.968277,3.448349,7.0448303
		c4.081192,3.4308624,3.7862244,8.4139557,2.2282104,13.1320343c-0.6718292,2.0344543-0.8973083,3.6394806,0.1658783,5.7355042
		c2.2631226,4.4616241,0.7629547,8.5901337-2.4893036,11.9517517c-1.5740509,1.6269836-2.2252655,3.1108093-2.0966492,5.3751373
		c0.3518372,6.1946106-3.511261,9.8047943-8.454071,12.4209595c-1.9309692,1.0220337-3.1553955,2.2375031-4.0531158,4.2692719
		c-2.944519,6.6642761-8.0598297,10.9271698-15.331665,11.9718933c-4.2852478,0.6156311-8.0171509,2.6440125-11.9754028,4.0166779
		c-3.0475616,1.0568237-4.1803284,4.5177002-5.1505737,7.5082397c-2.5645752,7.9048615-3.1625671,16.1342621-3.7324982,24.3531494
		c-0.1927795,2.7800446-0.2049408,5.5728912-0.2855682,8.3602753c-0.0334015,1.1551666-0.1168365,2.2456665-1.687027,2.2213745
		c-3.0795593-0.0476685-5.5943298,1.5134125-8.0637665,3.0182037c-2.2823029,1.3907318-2.596405,0.4858856-2.5168915-1.6409454
		C147.6346588,237.2093353,147.5560608,234.4173737,147.5560608,231.6283264z"/>
	<path class="st2" d="M281.5193787,259.6345215c0,1.0360107,0.1650085,2.9935913-0.0392761,4.9118347
		c-0.2950439,2.7701416,0.1837769,4.8791809,2.2809143,7.1307983c3.8146057,4.0955811,2.8019104,9.0245056,0.6275024,13.6002502
		c-0.8818359,1.8557434-1.3146057,3.317749-0.5397034,5.3959961c1.6091919,4.3158264,0.0776062,8.5504761-4.1387634,11.7709656
		c-1.6928101,1.2929382-2.3980408,2.5745239-2.5069275,4.7554626c-0.290741,5.8257141-4.196106,9.1306152-9.1546326,11.0929871
		c-2.7352905,1.082489-4.5310364,2.6314392-6.1302185,5.0830078c-3.910614,5.9950256-9.8203583,8.1749268-16.8522949,9.2150269
		c-12.8656464,1.9030762-14.7207031,0.6422424-19.5520477,13.8407593
		c-2.9635773,8.0959778-4.5752258,16.556488-5.8369141,25.0697327c-0.3798065,2.5627136-0.7736359,4.7071228-4.3068237,4.0589905
		c-2.0808258-0.3817139-3.980545,0.9071655-5.8460388,1.7249451c-2.6889496,1.1787109-3.1930542,0.1249695-2.7663574-2.323822
		c1.3529663-7.7645874,1.9725189-15.6147766,2.5997162-23.4593506c0.5820007-7.2798462,0.0890045-14.4417725-2.7902069-21.2862244
		c-0.2660065-0.6322327-0.6745453-0.9575195-1.256958-1.1690369c-0.4550018-0.1652222-0.9493408-0.256958-1.3651886-0.4901428
		c-7.1666412-4.018219-13.1471405-9.7497559-18.5213318-15.6203918c-3.5809479-3.9117737-6.4246979-9.3296814-8.5067139-14.4450073
		c-2.1338501-5.2425537-3.6143341-10.833313-5.622818-16.1990051c-0.6288605-1.6799316-0.6408539-3.8019714,0.3760681-5.3190002
		c2.2135773-3.3019409,1.6152496-6.8019409,1.4238129-10.3667297c-0.2830048-5.2702332,1.6609955-9.509613,6.4093781-12.1231995
		c1.7028656-0.9373169,2.1574249-2.3591461,2.5827789-4.0810852c4.3777161-17.7220917,10.0685425-34.9145203,20.792572-49.9971313
		c5.9536743-8.3733826,13.1903076-15.2948914,23.1833496-18.4825592
		c16.0554047-5.1214752,31.7896423,0.9870453,41.1899109,15.6820526
		c7.8257446,12.2336121,11.0330505,25.9772949,12.9133606,40.1131439
		C281.0916443,244.6806946,281.7285156,251.6843719,281.5193787,259.6345215z"/>
	<path class="st3" d="M224.1458893,167.8448334c2.8878326-8.1709137,5.7986755-16.0835114,7.6182861-24.3265991
		c0.8890076-4.0273895,1.7883911-8.045929,0.3405151-12.1441498c-0.154007-0.4359589,0.0812378-1.2667236-0.1416016-1.3831482
		c-4.7827606-2.4984207-6.0848236-7.9699936-9.7617035-11.3535461c-2.6158905-2.407196-4.4368744-5.0749283-4.7499084-8.668541
		c-0.1487427-1.7075577-0.6323547-3.2966309-1.5302887-4.7952118c-0.6137695-1.0243454-1.1923981-2.1645889-1.3980713-3.3220444
		c-0.8592529-4.8359375-0.8464966-9.7856598-1.8936615-14.6153336c-0.2311554-1.0660477,0.1032562-2.6597061,0.8066559-3.4509354
		c2.5817871-2.9042511,2.6948395-6.5174561,3.4941559-9.9889526c0.7138672-3.1003418,2.6464081-5.5518417,5.7113037-6.5898743
		c2.1979523-0.7444305,3.2157745-2.1959839,4.16008-4.1211166c6.8167267-13.8973503,14.6448059-27.0871239,26.8573151-37.0770912
		c11.0772705-9.0613441,24.238678-10.8728294,35.1527405-4.6966419c9.5861206,5.4247227,13.457489,14.5860081,15.350708,24.7620869
		c2.8200073,15.1576881,1.0227051,30.1375618-2.411499,44.9822502c-0.5329285,2.3035278-0.8170166,4.202034,0.5507202,6.4866714
		c2.1082153,3.5214691,0.8977966,7.0680313-1.4420166,10.1368637c-1.2320862,1.6159821-2.0846558,3.1699524-1.6679077,5.2865067
		c0.1567993,0.7963943-0.0031433,1.713501-0.2327271,2.5142517c-0.3701172,1.2909164-0.9117432,2.8847046-2.0846558,3.3045197
		c-6.2734985,2.245491-6.0279846,11.7017899-13.6283875,12.2589188c-3.2624512,0.2391663-5.4000854,2.0500183-7.6701355,4.1084442
		c-3.6184692,3.281189-8.1221313,4.3054504-12.8792114,3.5376282c-2.053772-0.3314972-4.0985107-0.2285156-6.1070251-0.4841614
		c-5.0959778-0.6485901-8.1739807,2.0438232-10.750351,5.8437195c-4.2435608,6.2588806-7.1572418,13.1824799-9.8789978,20.17453
		c-0.9237976,2.3731689-1.5305786,3.957016-4.7368164,3.1416931
		C229.1451721,166.8370819,226.7331848,167.6209259,224.1458893,167.8448334z"/>
	<path class="st4" d="M216.1214142,384.9788818c-4.2466125,18.2046509-0.8252106,36.1637878,1.5029755,54.1516113
		c2.1165771,16.3529968,3.5316467,32.77771,4.7755737,49.2095337c2.158844,28.5178833,4.0348511,57.0571899,6.0144653,85.588623
		c0.444458,6.4055176,0.7936859,12.817688,1.2591553,19.2215576c0.1318817,1.8143921-0.0435791,2.9712524-2.3428192,2.9647827
		c-19.0362091-0.0535889-38.0726166-0.0303345-57.4619141-0.0303345c2.6760101-6.6727295,5.3122406-13.1252441,7.856308-19.6140137
		c6.0606537-15.4578857,11.1904602-31.2327881,15.7057037-47.201355
		c3.8078766-13.4667358,3.0044861-27.1738281,1.2682953-40.8048096
		c-3.1972198-25.1012573-10.1007233-49.2947998-18.5690918-73.075592c-0.4869232-1.3674622-1.7621002-2.9140625,0.664032-3.862854
		c13.9663544-5.4620972,24.2661591-16.259552,36.1079254-24.815979
		C213.8325195,386.0376892,214.5374908,384.8717957,216.1214142,384.9788818z"/>
	<path class="st4" d="M153.6243439,385.9942322c-1.6804657-6.2817078-2.8063965-12.2374268-4.9705811-17.889679
		c-0.6900635-1.8022766-1.3403473-3.6489563-2.2881165-5.3166199c-1.4784241-2.6012878-3.5293274-3.9708557-6.6700592-5.0843201
		c-5.3361206-1.8916931-11.0684814-2.7592468-15.7990036-7.1534729c-3.4044189-3.162384-6.8638763-6.3971863-9.6049957-9.9786377
		c-3.6366196-4.7515564-5.8001099-11.4862366-3.9768143-16.6904602c2.0289917-5.7914429,0.6729813-10.8999329,0.6074142-16.2564697
		c-0.1104813-9.0243835,0.1471405-17.9553223,3.346756-26.4940796c6.6316757-17.6978149,24.806221-21.7653198,38.4504471-8.646698
		c9.1355743,8.7837524,14.5670471,19.8274841,18.8566589,31.5189819c0.6784058,1.8490295,1.0788727,3.7361755,3.3227997,4.3334656
		c0.3254852,0.0866089,0.604248,0.3967896,0.8738556,0.6379089c2.4921417,2.2288513,5.0466156,14.4310913,3.4759216,17.436676
		c-0.7261505,1.3894958-0.9863129,2.5163269-0.4504547,4.055481c0.618576,1.7767639,0.3868866,3.8457947-0.8773193,5.1850586
		c-2.8764648,3.0471497-4.3257446,6.751709-5.9376831,10.4962769c-1.873703,4.3527222-6.6998749,5.3427429-10.26091,7.7028198
		c-2.7704315,1.8360901-3.8614197,4.0455933-4.0101166,7.165802c-0.2679901,5.6232605,0.5599365,11.129364,1.7207794,16.5772705
		c0.5442352,2.5541992,0.9925537,4.5727234-2.2734528,5.563446
		C155.9919281,383.5111389,155.0987701,384.7697144,153.6243439,385.9942322z"/>
	<path class="st5" d="M76.4462204,143.9693604c-0.8802795-5.5514069-1.4807587-11.2268066-3.098671-16.6951294
		c-1.109787-3.7509766-2.732872-6.5669708-7.1524658-8.0573044c-7.302433-2.4624634-12.9518547-7.2177658-17.7368011-13.7748718
		c-3.2917519-4.5108871-2.4598846-9.281189-4.2262306-13.684906c-0.2875977-0.7169876-0.2980957-1.9003983,0.1106873-2.4865036
		c4.1756706-5.9870682,1.6212082-12.9183807,2.7570114-19.3315811c1.1023102-6.2239494,2.0466576-12.4091454,5.0286713-18.0785599
		c6.7297668-12.7946472,20.9567528-15.0327454,31.1269875-4.7950096
		c8.0397034,8.0931053,11.8703918,18.4012871,14.8102341,29.1104088c0.5185013,1.8887253,0.7729721,3.775795,2.8736191,4.6383133
		c0.3016205,0.1238632,0.5138016,0.5032959,0.7294922,0.7926941c1.5726776,2.1099243,1.5253906,12.4233017,1.3210526,14.7957458
		c-0.4556656,5.2897339-3.6385269,8.9071198-6.1368332,13.0950241c-1.8284988,3.0651474-3.7369614,5.5577164-7.1451797,6.7673035
		c-6.5920792,2.3395004-7.9826431,4.2019882-8.1437836,11.0946198c-0.0536194,2.2935028-0.0959702,4.6416473,0.3156586,6.8804016
		C82.7421875,138.9313965,82.3446274,142.7717896,76.4462204,143.9693604z"/>
	<path class="st6" d="M144.7908173,451.3852234c-2.6641388-3.8297424-5.2736969-7.7411194-8.0530396-11.527832
		c-2.4074402-3.2799683-5.0175323-5.4350586-9.8755798-4.8352051c-8.2699432,1.0211182-16.232254-1.6821899-22.1316376-7.2011414
		c-3.1474686-2.9445496-7.8359451-6.8312683-5.9182739-12.8768616c0.4107819-1.295105-0.6081238-2.28125-1.0886993-3.3604126
		c-3.4647522-7.7801819-6.3939667-15.7131958-6.4877396-24.3718872c-0.0233994-2.1627197,0.150856-4.3898926,0.6567383-6.4854736
		c2.2943039-9.5037537,11.2088547-14.751709,20.6661606-12.072052
		c10.3975296,2.9460449,17.6252747,10.2755737,24.3794098,18.1769409c1.5270233,1.7863464,2.5652771,4.2026978,5.5042267,4.1473083
		c0.302124-0.0056763,0.7936554,0.2976685,0.8898468,0.5672913c1.4473572,4.056488,6.2442017,6.4440613,5.7386322,11.4429321
		c-0.0897522,0.887146-0.0740356,1.6298523,0.4557953,2.3939819c0.4044037,0.5832214,1.037735,1.48526,0.8445892,1.9325867
		c-2.3308258,5.3987122,0.2242279,12.1547546-4.9856415,16.810791c-4.4757843,4.000061-4.769989,6.2969971-2.4302063,11.8850708
		c0.8392334,2.0043335,1.5916595,4.1311951,2.8592529,5.8518982
		C148.3713684,445.3337708,148.8313446,448.4211121,144.7908173,451.3852234z"/>
	<path class="st6" d="M283.9734802,215.6812897c1.6102905-4.7437134,3.9483337-9.3900146,5.1566772-14.4315033
		c0.8122864-3.3890839,0.852417-6.1509552-1.8306274-9.2523041c-4.4858093-5.1852264-6.6177979-11.4362335-7.4324646-18.5667877
		c-0.5860901-5.1298523,2.276123-8.6291046,2.9988403-12.9835815c0.1367798-0.8243713,1.0033569-1.9519501,1.7594299-2.1759186
		c3.3179932-0.9829254,4.3709717-3.8592987,5.9138794-6.400528c3.7915649-6.2447968,8.0982361-12.0870514,13.9352417-16.6073151
		c4.2242432-3.271347,8.914032-5.5359955,14.4136047-4.8574524c8.5365601,1.0532074,13.811676,6.9844666,15.2379456,16.4643402
		c1.3469238,8.9525604-0.1958008,17.6019287-2.4560852,26.1878204c-0.4584045,1.7412109-1.338562,3.3599548,0.0500793,5.0771637
		c0.2538452,0.3139191,0.3275146,1.0348969,0.1459961,1.3994446c-1.9407349,3.8969574-1.8193054,8.9106903-6.0657959,11.5371094
		c-0.7954407,0.4919891-1.2281189,1.031189-1.5820007,1.8165436c-0.2931213,0.6506348-0.6303711,1.6264648-1.1474915,1.7780762
		c-5.5909119,1.6390533-9.8541565,7.2240906-16.5461121,5.5795135c-4.6649475-1.1463928-8.3135376,0.1781769-10.6948242,4.5057983
		c-1.1653748,2.1179047-2.7197571,4.0975494-3.4753418,6.3487701
		C290.947113,215.2937164,288.6278992,217.3200073,283.9734802,215.6812897z"/>
	<path class="st7" d="M82.4783936,370.0770264c-1.7226639-2.6796875-3.6469116-5.1879578-5.0550003-7.9585266
		c-3.5689163-7.0223694-9.1573944-9.9312744-16.9316254-9.2705078c-5.3837433,0.4576416-9.6785927-2.4705505-14.3437042-4.6589355
		c-4.3902283-2.0593567-5.8568611-6.0334778-8.4382896-9.3003235c-1.1174622-1.4141846-1.8961334-3.1655273-1.0062828-5.0897522
		c0.713932-1.5438232-0.1166916-2.7960815-0.667717-4.1329346c-3.4183846-8.293457-6.5053654-16.6338806-6.3403587-25.849762
		c0.2518101-14.063446,12.5651855-21.7962646,25.3178825-15.8366699
		c8.8111954,4.1177063,15.449913,10.7084351,21.2482452,18.2784119c1.1378326,1.4854736,2.1485825,2.8968201,4.2220993,3.0712891
		c0.5360641,0.0450439,1.330986,0.4481201,1.5001068,0.8835754c1.5091248,3.8861084,5.8405685,6.4525757,5.2912445,11.2908936
		c-0.2776642,2.4453125,2.4126892,4.4595337,1.2048874,6.959198c-1.4515305,3.0041809-1.9503326,6.1039429-2.0592346,9.4086609
		c-0.0763016,2.3155823-2.0463867,3.7513428-3.6404572,5.2386169c-3.130867,2.9211731-4.4890289,6.151886-2.3045197,10.3292236
		c1.2281494,2.3485718,1.9796371,4.9432068,3.1602173,7.3204651
		C86.0114441,365.543457,86.0719681,365.5134277,82.4783936,370.0770264z"/>
	<path class="st2" d="M315.1820679,116.6686249c1.258728-2.565361,2.2825928-5.2950592,3.8332214-7.6826401
		c3.5662231-5.49086,1.8063354-10.1666107-1.0358887-15.3793488c-3.3199463-6.0890045-3.9394531-12.3921585-0.9362183-19.4493713
		c2.1825867-5.1288376,7.414093-6.4767075,9.8496704-11.0490112c2.3643494-4.4388046,6.4301453-7.8557091,10.6906433-10.7377319
		c4.12323-2.7891579,8.5583801-4.6499367,13.6687927-3.4535027c6.9360962,1.6238289,10.8803711,7.1154861,11.0976257,15.5350761
		c0.1774597,6.8788452-1.447113,13.4491806-3.8703918,19.8389359c-0.6839905,1.8034973-1.1885986,3.4541397-0.7919617,5.5670319
		c0.6277161,3.343399-2.4831238,5.5642471-3.8450012,8.2165985c-0.9866028,1.9216843-3.5033569,4.340065-5.8143921,4.9564743
		c-4.6932373,1.2517853-9.0569763,4.6995544-14.5116577,2.4379349c-2.8518677-1.1824112-5.4277344,0.1318741-7.2164917,2.7302322
		c-1.3031006,1.8928833-3.0179443,3.5896606-3.9237061,5.6489944
		C320.8780518,117.2550278,318.6450806,118.0003357,315.1820679,116.6686249z"/>
	<path class="st8" d="M470.3947754,464.301178c3.2321472-2.4768372,6.3617249-4.7450562,10.3234558-5.4375305
		c4.6360168-0.8102417,8.7524414-0.0318909,11.6677246,3.9578857c1.0184631,1.3938904,1.631958,1.2655029,2.7979431,0.2766418
		c3.2304077-2.739624,6.96875-4.3568726,11.2499084-4.5121765c6.5730896-0.2385559,10.2510681,2.8290405,11.1578674,9.3415222
		c0.8908081,6.3980713,0.3074951,12.8367004,0.4208374,19.2559814c0.0877686,4.9711304-0.053894,9.9466248,0.0513916,14.9171143
		c0.0449219,2.1249695-0.5793457,2.9761658-2.8605347,3.0592346c-9.0290222,0.3287964-9.0257568,0.4045715-9.0263977-8.5043335
		c-0.0004883-7.2771301,0.0530396-14.5548401-0.0231018-21.8311768c-0.0501404-4.7926025-1.1541138-6.3724976-4.0990906-6.3829346
		c-4.3745728-0.0155945-7.3174133,2.782959-7.3214111,6.9918213c-0.0082092,8.7325745-0.0955811,17.4667358,0.0515442,26.1968079
		c0.0455627,2.7010193-0.7641296,3.5521545-3.5037537,3.5426025c-8.4029541-0.0293884-8.4031372,0.0822449-8.403717-8.4111633
		c-0.0004883-7.2771606,0.0508118-14.5547791-0.0202026-21.8312378c-0.0487061-4.9902039-1.2058105-6.5890503-4.3581848-6.4763794
		c-4.3212891,0.1545105-7.0624695,2.8057556-7.0662842,6.8696289c-0.0082092,8.7325439-0.0780029,17.4661865,0.0461426,26.1970215
		c0.0362854,2.5563354-0.5120544,3.661377-3.3862915,3.6575623c-8.5142517-0.0112-8.4904785,0.1134033-8.5211182-8.3066711
		c-0.0325623-8.9719543-0.1126099-17.9436951-0.184906-26.9154053c-0.0068359-0.84729-0.1480713-1.6935425-0.1545715-2.5407715
		c-0.0153198-2.0036011-2.3783569-4.3970337-0.7080688-5.7228699c2.0638733-1.6384277,5.0802002-2.1134033,7.7242126-2.9700623
		c1.4343262-0.4647522,2.2744141,0.4084167,2.7435303,1.6940308
		C469.4413147,461.6482544,469.8829956,462.8830872,470.3947754,464.301178z"/>
	<path class="st8" d="M541.194397,464.274292c3.2400513-2.7635193,6.593811-4.9030457,10.6867065-5.5118103
		c4.3578491-0.6480713,8.2873535,0.1914673,11.0158691,3.9214783c1.1052246,1.5109253,1.75,1.4116821,3.0596313,0.3056946
		c3.2329712-2.7301941,6.9977417-4.2937012,11.2855225-4.4064941c6.3894043-0.1680603,10.0274658,2.8507996,10.949646,9.1645813
		c0.9163208,6.2738953,0.3493042,12.5925293,0.4484863,18.8902893c0.0820923,5.2139282-0.0349121,10.4308472,0.0426025,15.6448975
		c0.0290527,1.9512329-0.5640869,2.7618713-2.6709595,2.8736267c-9.2115479,0.4887695-9.2073364,0.5541382-9.2081909-8.6866455
		c-0.0007324-7.2770081,0.0592041-14.554718-0.0275879-21.830719c-0.0559692-4.6933289-1.2496948-6.2727051-4.2745361-6.1931763
		c-4.307373,0.1133423-7.1385498,2.7939148-7.1429443,6.8019104c-0.0097046,8.8536987-0.0792847,17.7084656,0.0455933,26.5604553
		c0.0356445,2.5287476-0.7580566,3.3390198-3.3125,3.3574524c-8.5881348,0.0620422-8.586853,0.1556702-8.5875854-8.5853577
		c-0.0006104-7.2770081,0.0549927-14.5545959-0.0247192-21.8307495c-0.0521851-4.7589417-1.1859131-6.3305359-4.1702881-6.3044434
		c-4.2700195,0.037262-7.2414551,2.7643738-7.2473755,6.6979065c-0.0131836,8.7323914-0.1369629,17.4677734,0.064209,26.1955566
		c0.0720215,3.1261902-1.0109863,3.8793945-3.9556274,3.8334045c-7.9632568-0.1243896-7.9400635-0.0028992-7.9724731-8.1202393
		c-0.0362549-9.0929565-0.1087646-18.1858826-0.2078247-27.2783203c-0.0130615-1.2015381-0.3601685-2.3974915-0.401062-3.6011658
		c-0.0540161-1.5915222-2.164978-3.5421448-0.3485107-4.6187744c2.6459351-1.5682678,5.7532349-3.0635071,8.8592529-2.6963806
		C540.3931274,459.1283264,539.7491455,462.3440552,541.194397,464.274292z"/>
	<path class="st9" d="M268.5675659,464.2033386c3.2268066-2.3490601,6.2272949-4.538147,10.0555725-5.2703857
		c4.813446-0.9206238,9.0075989-0.1164551,11.9129333,4.0631409c1.1202087,1.6116028,1.7304688,0.995697,2.7259827,0.1485291
		c3.0330505-2.5810242,6.519165-4.1766663,10.5067139-4.5197449c7.12323-0.6128845,11.7062073,2.8583374,11.9596863,9.9762573
		c0.4054565,11.3822327,0.6899414,22.811676,0.0618286,34.1678467c-0.2704468,4.8880615-5.2776184,1.4004822-7.9972229,2.2402954
		c-1.7572632,0.5426025-3.563324,0.2589417-3.5129395-2.5990601c0.1369324-7.7572937,0.0474243-15.5186157,0.0475159-23.2783508
		c0-1.3337097,0.0496826-2.6697388-0.012207-4.0005493c-0.1112976-2.3922729,0.2591248-5.3084412-2.4154358-6.3569641
		c-3.1344604-1.2288513-5.8482666,0.5575562-8.2850952,2.5093689c-1.2619629,1.0107727-0.8815308,2.4275818-0.8851624,3.717041
		c-0.0244446,8.7295837-0.1194458,17.4613037,0.0431824,26.1878967c0.0536804,2.877655-0.5596619,4.0555725-3.7514648,3.9901428
		c-7.9901123-0.1638794-7.9932251-0.0061951-7.9934082-8.0837708c-0.0002136-7.2747498,0.0333557-14.5497437-0.0124207-21.8241577
		c-0.0335693-5.3265381-1.1208496-6.9397583-4.3909302-6.8255615c-4.3962097,0.1535339-7.2056885,2.9291992-7.2080078,7.1418152
		c-0.0047913,8.7296753-0.0777588,17.4605103,0.0486145,26.1883545c0.0358276,2.4744263-0.6283875,3.3674316-3.2376099,3.3848572
		c-8.4997864,0.0567322-8.4870911,0.1594849-8.5025024-8.2912903c-0.0152893-8.3648682-0.075592-16.7296143-0.0787964-25.0944519
		c-0.0009766-2.5683899-0.2364502-5.1193848-1.1353455-7.5050354c-0.8200684-2.1765137-0.1252747-3.190094,1.9813232-3.6278381
		c0.5885925-0.1223145,1.1469421-0.3849487,1.7253113-0.563324
		C266.9101562,458.0141907,265.7391052,457.3330688,268.5675659,464.2033386z"/>
	<path class="st10" d="M203.0312958,67.926384c0.3156128-2.1280975,0.4052734-4.3095665,0.9866638-6.3509903
		c1.6046906-5.6345978-0.1170654-9.7767067-4.5056458-13.6355591c-5.8855591-5.1750603-8.553009-12.6392517-4.9496765-19.3663616
		c3.5474701-6.6228466,5.4246674-14.1441736,10.4181213-20.0417271c3.7646027-4.4461603,8.0614319-7.5822315,14.1137085-6.4080825
		c5.7721558,1.1197891,8.64328,5.456151,10.1966248,10.7442112c1.6185303,5.5100441,2.2490082,11.1373425,1.6075592,16.8839912
		c-0.1429596,1.2807255-0.4092255,2.5290985,0.3564148,3.8625412c1.8991241,3.3076057-0.1998901,6.4706421-0.9396667,9.5644417
		c-0.2917786,1.2203293-1.3845825,3.0823555-2.3725586,3.754818c-3.4739227,2.3645859-5.8567352,6.7478752-10.6974182,6.6916809
		c-4.1633301-0.0483246-6.5816803,1.8022079-7.6755066,5.6917114c-0.4261169,1.5153008-1.1723175,2.9824142-1.3422852,4.5190773
		C207.8889923,66.8979111,206.346405,68.2259674,203.0312958,67.926384z"/>
	<path class="st11" d="M458.9224548,592.3491821c-2.456665,1.9432373-4.704834,3.6018677-7.4373474,4.3616943
		c-8.0489807,2.2381592-15.305481-1.333252-17.985321-9.3737183c-3.0899353-9.2709351-2.8344421-18.7329712,0.661499-27.8192749
		c3.6017456-9.3616333,11.660614-12.1972656,23.2417297-8.3342896c0-5.0777588,0.2494202-9.9646606-0.0835266-14.8115845
		c-0.2409363-3.5075073,0.9124146-4.8460693,4.3737488-5.4755249c7.5763855-1.3775635,7.5405273-1.5811157,7.5411987,6.1348877
		c0.0012817,14.9248657,0.005249,29.8496704-0.0018616,44.7745361c-0.0014648,3.1625977,0.0336304,6.3502197,1.1307373,9.3371582
		c0.7334595,1.9968262,0.1497803,2.946106-1.7244263,3.5010986c-0.8088989,0.239563-1.5793152,0.6116333-2.3627014,0.9343872
		C461.2680664,597.6419678,461.2684631,597.6429443,458.9224548,592.3491821z M457.3999023,572.8134155
		c0-3.3847656-0.1060486-6.7741699,0.0383301-10.152771c0.0916138-2.1435547-0.9994507-3.0528564-2.8033752-3.5786133
		c-5.6579285-1.6489258-9.6008911,0.6519165-10.6968689,6.4007568c-1.0750732,5.6392822-1.0148926,11.3136597,0.2021484,16.9174805
		c0.8782654,4.0440063,3.7620544,5.9885864,7.678833,5.5308228c4.0940857-0.4785156,5.578125-2.2783813,5.5823059-6.7764893
		C457.4038086,578.3742065,457.4017639,575.593811,457.3999023,572.8134155z"/>
	<path class="st1" d="M340.6353149,484.6062317c0,6.1525574-0.1309204,11.7034607,0.057312,17.2434998
		c0.0891418,2.6241455-0.8504944,3.2788086-3.3344421,3.2958984c-8.374054,0.0575256-8.375,0.1444702-8.3756714-8.3613281
		c-0.0013733-17.3510132,0.0825806-34.7028198-0.0809631-52.0522461c-0.0282593-2.9971619,1.0561218-3.9433899,3.7567444-4.4479065
		c8.000061-1.4945068,7.9804688-1.5866699,7.9783325,6.4354858c-0.0026245,9.660675-0.0006409,19.3212891-0.0006409,30.0720825
		c5.6940002-5.7112427,10.6629639-10.7481079,15.7071533-15.7084961c0.9662781-0.9502563,1.7982788-3.0154724,3.3622742-2.1956177
		c2.3227539,1.2176514,4.5783386,2.8435364,6.0554504,5.1003723c0.6164551,0.9419861-0.6958313,1.6625977-1.34198,2.3049011
		c-3.5270996,3.5061951-6.8771973,7.2388611-10.7181091,10.365509c-3.0473633,2.4807129-2.7401123,4.124939-0.3087463,6.7865601
		c4.4942017,4.9197388,8.5592041,10.2288513,12.9470825,15.2498474c1.6333008,1.868927,1.526825,2.8779297-0.6456909,4.1386108
		c-7.2947388,4.2330017-7.2663879,4.2940674-12.3930054-2.2962036c-3.9456177-5.072113-7.8764954-10.1555481-11.8171082-15.2315369
		C341.4124451,485.2143555,341.3025208,485.1532898,340.6353149,484.6062317z"/>
	<path class="st12" d="M776.5692139,505.0760193c-3.9276123,0.9307861-5.1765137-1.3348083-6.2373047-4.6170349
		c-3.9812012-12.3191528-8.1647339-24.5749817-12.4487915-36.7927856c-1.0014648-2.8564148-0.2478638-3.5441589,2.5514526-3.7859497
		c8.7963257-0.7599182,8.8086548-0.8590088,11.0630493,7.6774292c2.4666748,9.3408508,5.1245117,18.6328735,7.1339722,28.6905518
		c1.4433594-1.7814331,1.3416138-3.5029907,1.6709595-5.0032654c2.1035767-9.5778809,4.1819458-19.1625366,6.1121826-28.7763672
		c0.5482178-2.7308655,1.876709-3.4831238,4.5297241-3.2306824c7.9833374,0.7598877,8.0044556,0.6880493,5.8146362,8.5037842
		c-4.2121582,15.0331726-7.7680664,30.2525024-12.6229248,45.1022339
		c-3.6271973,11.0951538-15.1933594,15.1038208-25.2530518,8.9412842c-1.5655518-0.9591064-1.9157104-1.9671021-1.0175171-3.5678101
		c0.6487427-1.156311,1.1608887-2.3989868,1.6368408-3.6403809c0.7484741-1.9522705,1.7009888-2.4191895,3.8444824-1.5103149
		C771.4205322,516.4903564,775.0501099,514.27948,776.5692139,505.0760193z"/>
	<path class="st11" d="M396.2023621,555.0145264c3.8538513-3.0512085,7.7793579-5.5083618,12.8064575-5.6129761
		c7.491333-0.1559448,12.2375183,3.6135254,12.4615479,11.0498657c0.3320618,11.0224609,0.1400452,22.0606689,0.1661987,33.0921631
		c0.0008545,0.3621216,0.0937805,0.8834839-0.1018066,1.0626221c-2.8735046,2.6323853-6.3517151,0.697876-9.5275269,1.1712036
		c-2.1436462,0.319458-2.1212769-1.3768311-2.1185913-2.9106445c0.0154724-8.8505859,0.0167542-17.7012329-0.0012817-26.5518799
		c-0.0055237-2.6960449,0.0603943-5.5737305-3.0016479-6.8021851c-3.3630676-1.3490601-6.0603333,0.4639282-8.6751404,2.3158569
		c-1.3445129,0.9522705-1.0423279,2.3511963-1.0447693,3.6469116c-0.0168762,8.9718628-0.0992737,17.9453125,0.0492554,26.9147339
		c0.045105,2.7221069-0.8033142,3.5249023-3.5206909,3.5048828c-8.3738708-0.0616455-8.348938,0.048645-8.3782959-8.4141235
		c-0.0311279-8.9694824-0.0975952-17.9389648-0.2027283-26.9077759c-0.0154419-1.3192139-0.0492249-2.7567749-0.5588074-3.9291382
		c-1.4709778-3.3840332-0.5549316-5.2149048,3.1132202-5.730957c0.8258362-0.1161499,1.6557617-0.4206543,2.4100037-0.7893677
		c2.9442139-1.4391479,4.571167-0.4359131,5.2281494,2.6439819
		C395.453186,553.458252,395.8294067,554.0999756,396.2023621,555.0145264z"/>
	<path class="st12" d="M286.8911743,573.1575928c0.2056885-2.0456543,0.3224792-4.1047974,0.6319885-6.1346436
		c1.6331787-10.7106934,8.5262756-17.2772827,18.4741516-17.6658936
		c9.9499207-0.3886719,17.0783691,5.2545166,19.5973816,15.8228149c1.7275696,7.2480469,1.4542236,14.4741211-1.7079163,21.3348999
		c-3.4000854,7.3770142-9.4204407,10.8563232-17.4417419,10.7346191
		c-7.8687744-0.1193237-13.6210938-3.7131958-16.9188843-10.9876709
		C287.6383057,582.0974731,286.9814148,577.7038574,286.8911743,573.1575928z M314.0172424,576.3539429
		c0.1597595-4.4705811,0.2557373-8.9528198-1.1990662-13.260376c-0.9385986-2.7792358-2.9124146-4.371582-5.9856567-4.3977661
		c-3.0710144-0.026123-5.2077942,1.4936523-6.0446777,4.293457c-2.0553589,6.8765869-2.0177002,13.864502-0.0079956,20.7347412
		c0.8184509,2.7978516,3.0941162,4.2731323,6.1188049,4.2307739c2.8667908-0.0402832,4.7677002-1.5552368,5.8694153-4.1133423
		C313.7950439,581.456665,313.8672791,578.8998413,314.0172424,576.3539429z"/>
	<path class="st12" d="M449.2306824,482.3722839c0.1127014,3.2904053-0.1733398,6.5361938-1.1000671,9.7103882
		c-2.6927185,9.2229614-9.4100342,14.460907-18.5552979,14.4623413
		c-9.0341187,0.0014038-15.6580811-5.0015869-18.3617249-14.1737061
		c-2.2996216-7.8015442-2.1077271-15.5934143,1.2889404-23.0713501c3.1543274-6.9443054,8.7386169-10.4770508,16.3563538-10.6994324
		c7.8743286-0.2299194,13.8293762,2.9837341,17.5170593,10.0555115
		C448.6143799,472.9487,449.3900452,477.569519,449.2306824,482.3722839z M436.8351746,482.7294922
		c0.0235901-3.1462097,0.1052856-6.2983093-0.8312683-9.3577271c-0.9642944-3.1502075-2.7142029-5.3910522-6.3400269-5.4494629
		c-3.6473694-0.0586853-5.6045227,2.1242371-6.4151306,5.3021851c-1.5799866,6.1941833-1.5621338,12.4747314-0.0281372,18.6741638
		c0.7976379,3.2238159,2.8724976,5.2861938,6.4674988,5.2559509c3.6269531-0.0305176,5.3773499-2.2703857,6.3381958-5.4267578
		C436.9223022,488.7842407,436.8590698,485.7546692,436.8351746,482.7294922z"/>
	<path class="st12" d="M636.8734131,479.7874451c0.5193481,6.4541931-1.1091309,14.2883911,1.4370117,21.8657532
		c0.1113281,0.3312378,0.2202759,0.8445435,0.0541382,1.0603027c-2.1027222,2.7310181-5.5654297,2.4212341-8.3682251,3.5914612
		c-1.5938721,0.6654663-2.4436035-0.8483276-2.7854004-2.1549988c-0.614502-2.3491516-1.5380249-2.5463562-3.4144287-1.0704041
		c-2.0141602,1.5843506-4.4290161,2.4129639-6.9672852,2.9333801c-10.2718506,2.1060181-16.2341919-2.6835938-16.2626953-13.1830139
		c-0.0264282-9.7012024,0.0723267-19.4035034-0.0605469-29.1029358c-0.0317383-2.3166504,0.8397827-3.1638794,2.9506226-3.6446228
		c8.7780151-1.9992981,8.7670898-2.0489197,8.7680054,6.9466248c0.0006714,7.5184326-0.0181885,15.0370178,0.0109253,22.5553284
		c0.0099487,2.5721436,0.0003052,5.4644165,2.7844849,6.5815125c3.260437,1.308136,6.4223022,0.1887817,9.2751465-1.7088013
		c1.2667847-0.8425293,0.8903198-2.1558533,0.8933716-3.3150024c0.024353-9.0948181,0.0983887-18.1911011-0.0457764-27.2837524
		c-0.0388794-2.4473572,0.8399658-3.3589478,3.1365967-3.8337708c8.6080322-1.7798462,8.5941772-1.8465881,8.5940552,6.8752136
		C636.8733521,470.7802429,636.8734131,474.6607056,636.8734131,479.7874451z"/>
	<path class="st12" d="M627.6156006,572.8740234c0.1201172,4.6281738-0.4450684,8.7846069-2.1424561,12.7695312
		c-3.2446899,7.618042-9.0597534,11.4860229-17.2446899,11.6026611
		c-8.1865845,0.1166992-14.3070679-3.5158691-17.5528564-11.1152954
		c-3.4796753-8.1470947-3.5091553-16.5541992-0.3486938-24.8041382c2.8754883-7.5061035,8.489624-11.5750122,16.6155396-11.9280396
		c8.3781128-0.3640137,14.5079956,3.1795654,18.1599731,10.7511597
		C627.083313,564.256897,627.8140259,568.6627808,627.6156006,572.8740234z M615.2231445,573.2870483
		c0.0166016-3.1482544,0.0680542-6.2973633-0.8963623-9.3540039c-1.0081787-3.1954346-2.9035034-5.2706909-6.5023804-5.2213745
		c-3.6395264,0.0498657-5.5696411,2.3260498-6.3056641,5.4830322c-1.4182739,6.0834351-1.4493408,12.2597046,0.0202026,18.3464966
		c0.7727051,3.2005615,2.7754517,5.3926392,6.3640747,5.4099731c3.571106,0.0172729,5.4628296-2.1060181,6.4532471-5.3065796
		C615.3040771,579.5817261,615.2282104,576.4328003,615.2231445,573.2870483z"/>
	<path class="st12" d="M362.0434265,592.3069458c-5.0055542,3.8060913-10.236145,5.6398926-16.2138062,4.6360474
		c-5.0214844-0.8433228-7.8601074-3.6745605-8.9131775-8.7263184c-0.9764404-4.6841431-0.4683533-9.4213867-0.5307922-14.1345215
		c-0.085022-6.4210205,0.0473022-12.8451538-0.0598145-19.265564c-0.0384827-2.3088989,0.6004639-3.4408569,3.0762634-3.9432983
		c8.6549988-1.7563477,8.6334534-1.8594971,8.6334534,7.0133667c0.000061,7.2703247-0.084137,14.5419922,0.0264893,21.8106689
		c0.1148682,7.5471191,3.8022156,9.6621094,10.6546021,6.4570312c1.855011-0.8676758,2.3544312-1.9935303,2.3356934-3.9186401
		c-0.0870361-8.9659424,0.0514832-17.9346313-0.0939331-26.8991089c-0.0445862-2.7487793,0.5947571-4.0449829,3.5848999-4.5947876
		c8.1661377-1.5016479,8.1199341-1.6708984,8.138092,6.5925903c0.0195312,8.8443604,0.0241089,17.6891479,0.1426697,26.5323486
		c0.0289612,2.1643677,0.0425415,4.4991455,0.8303223,6.4448853c1.3095093,3.234436,0.4237061,4.7175293-2.8312988,5.2263794
		c-0.467865,0.0731812-0.9019165,0.3439941-1.3608398,0.4953003
		C364.2447205,597.753479,364.2442322,597.7520142,362.0434265,592.3069458z"/>
	<path class="st12" d="M637.8028564,575.3342285c-0.4830933-6.2831421,1.0567017-13.8722534-1.4640503-21.1973877
		c-0.0765381-0.222168-0.1570435-0.5418091-0.0574341-0.7111206c1.8171997-3.0859375,5.3557129-2.6193848,8.0866699-3.7999878
		c1.786499-0.7722778,2.7561035,0.6981201,2.9940796,2.2300415c0.560791,3.6086426,2.0062256,2.9572144,4.0860596,1.1352539
		c1.746521-1.5299072,3.8934326-2.3959961,6.1479492-3.0020142c9.7506714-2.6209106,16.416687,2.3145142,16.4998779,12.3796387
		c0.0831299,10.060791-0.0560303,20.1237183,0.0751953,30.1834106c0.0332642,2.5480347-0.7645874,3.3049316-3.2897339,3.3259888
		c-8.4318237,0.0702515-8.4302979,0.1630249-8.4296875-8.2410278c0.0004272-7.1520386,0.0224609-14.3042603-0.0133057-21.4561768
		c-0.0144043-2.8587036-0.2609253-5.6945801-3.5127563-6.9000854c-2.2559204-0.8362427-7.3014526,1.0108032-8.901062,3.0529175
		c-0.7813721,0.9976196-0.52948,2.0776367-0.5326538,3.1296387c-0.0274048,9.0915527-0.0958862,18.1843262,0.034668,27.2741089
		c0.0345459,2.4022217-0.7183228,3.1003418-3.0802002,3.1349487c-8.6453857,0.12677-8.644043,0.2056274-8.6435547-8.4545288
		C637.8031006,583.7811279,637.8028564,580.1445312,637.8028564,575.3342285z"/>
	<path class="st12" d="M503.2966309,592.4727173c-3.9466553,3.6741333-8.5064087,5.4239502-13.9398804,4.538208
		c-6.1417847-1.0012817-10.137146-4.6901245-11.076355-10.3616943c-1.2017822-7.2574463,1.1618958-13.0014038,6.6430359-15.9307251
		c3.9316406-2.1012573,8.2339172-2.6157227,12.61026-3.0099487c1.4821167-0.1334229,4.1684875,1.4696655,4.3140564-2.0648193
		c0.1724243-4.1870117-1.010498-6.2477417-4.3287964-6.7642212c-3.5767822-0.5566406-6.9754028,0.2848511-10.3033142,1.5042725
		c-1.9703674,0.7220459-3.6911011,1.6825562-4.710144-1.5272217c-1.8728943-5.8995361-2.0461731-6.2230225,1.704895-7.4597168
		c6.1801758-2.0376587,12.520752-2.7391968,18.9589539-1.4259033c5.4839783,1.1186523,8.6821899,4.5010986,9.4632874,10.0767212
		c0.9801636,6.9959106,0.3143921,14.0313721,0.4315796,21.0473022c0.0591431,3.5383301,0.1027832,7.0426636,1.7476196,10.2706299
		c0.7866211,1.5438232,0.4857788,2.5059814-1.1469727,3.0792236c-0.7982788,0.2803345-1.5793457,0.6104126-2.3653564,0.9251099
		C506.0104675,597.4872437,506.0107422,597.487915,503.2966309,592.4727173z M501.5326538,579.8649292
		c-0.8095398-0.7746582,2.0536804-3.8250732-1.3216248-4.3009033c-2.854248-0.4023438-5.8143005,0.0519409-8.3461609,1.7363892
		c-2.6330872,1.75177-3.4919739,5.2163696-2.0800171,8.0209961c1.3851318,2.7513428,4.2065125,3.8182373,7.3331299,2.951416
		C501.1083069,587.166687,502.5618896,584.5977173,501.5326538,579.8649292z"/>
	<path class="st4" d="M649.456604,484.8682556c-0.4640503-6.3792419,1.03302-14.0898743-1.4900513-21.5402527
		c-0.1115723-0.3292236-0.2129517-0.8633118-0.0418701-1.0563965c2.2306519-2.5172119,5.5931396-2.4745789,8.453186-3.5153503
		c1.8554688-0.6752319,2.4749756,1.3143616,2.7312622,2.6607971c0.5606689,2.9448242,1.5407715,2.8877258,3.5932007,1.0742493
		c2.1005249-1.8558044,4.703186-2.876709,7.4957275-3.4767761c9.0197144-1.9379578,15.309021,2.63974,15.494751,11.7729187
		c0.2145996,10.5451965,0.0153198,21.0982056,0.1051025,31.6468811c0.0181885,2.1477661-0.8775635,2.8286438-2.8147583,2.6608887
		c-0.1203613-0.010437-0.2426147-0.0042114-0.3637085-0.0005798c-8.5129395,0.2582397-8.5128174,0.2582397-8.5133057-8.174408
		c-0.0002441-7.032959,0.0371094-14.0662537-0.020874-21.0987549c-0.0219116-2.6668396,0.0609131-5.7210693-2.8362427-6.9555359
		c-3.3511963-1.4279785-6.3413086,0.1560669-9.0791626,2.2068787c-1.3302002,0.9963684-1.0408325,2.338501-1.0429077,3.6292114
		c-0.0148926,9.0943909-0.0753174,18.1896362,0.0392456,27.2825928c0.0297241,2.3565674-0.6777344,3.1255493-3.0789185,3.1655273
		c-8.6320801,0.1437988-8.6306763,0.230011-8.6306763-8.5295105
		C649.456604,493.104126,649.456604,489.5876465,649.456604,484.8682556z"/>
	<path class="st12" d="M272.8206482,577.890686c0.0012512,4.9674072-0.0545654,9.9356689,0.0272827,14.9016724
		c0.0352478,2.1350098-0.7233887,2.9734497-2.9443665,3.0731812c-8.763855,0.3936157-8.7844238,0.460022-8.8154297-8.37854
		c-0.0289307-8.2384033-0.1449585-16.480957,0.0821228-24.7133179c0.078125-2.8319092-0.7730103-3.4993286-3.4403687-3.4137573
		c-4.938797,0.1583252-6.3654633-2.0023193-5.0877533-6.9223022c0.4906616-1.8895264,1.9223785-1.5283203,3.1800537-1.5856323
		c5.2030182-0.2371826,5.1968842-0.2210083,5.3289948-5.4873657c0.1051025-4.1900635,0.7921143-8.2169189,3.6881104-11.4951782
		c3.9862366-4.5126343,15.6229553-5.6964722,20.7009583-2.2160034c1.0933228,0.7493286,1.3509216,1.6010742,1.0073853,2.7807617
		c-0.3379211,1.1602783-0.8114929,2.3081055-0.9511414,3.4937134c-0.364563,3.0939941-1.5816345,3.7279053-4.5485229,2.44104
		c-2.2777405-0.987915-5.2278442-1.486145-7.0855713,0.8424072c-2.0419006,2.5596313-1.1183472,5.8069458-0.9457397,8.7863159
		c0.0520325,0.8981323,1.0622559,0.8111572,1.7683411,0.8217773c1.6958923,0.0254517,3.4067993-0.1206055,5.0842285,0.0588379
		c1.5552368,0.1663818,4.063446-0.977478,4.4456787,1.0097656c0.4311523,2.2415771-0.3296509,4.8670044-1.6396179,6.883728
		c-0.8500977,1.3088989-2.7155762,0.609314-4.1235046,0.6246948c-5.73172,0.062561-5.7321167,0.03125-5.7323608,5.7729492
		C272.8193054,569.4098511,272.819397,573.6502686,272.8206482,577.890686z"/>
	<path class="st11" d="M527.5644531,574.0102539c0-3.6364136-0.1658936-7.2827759,0.0536499-10.9059448
		c0.1692505-2.7930298-0.6409302-3.9775391-3.5899048-3.7457886c-1.390564,0.1091919-3.6473999,0.9595337-4.0967407-1.0302734
		c-0.4889526-2.1655884-0.4456177-4.6740723,0.1821289-6.7910156c0.4203491-1.4174805,2.6054688-0.8285522,3.9650879-0.7196655
		c2.6835327,0.2148438,3.9022217-0.7290039,3.4906006-3.4816895c-0.0531006-0.3556519-0.0072632-0.7261963-0.0065308-1.0897827
		c0.0181885-8.9719849,0.0227661-8.9141235,9.2025146-9.6305542c1.8928833-0.147644,2.3789673,0.5612183,2.3700562,2.1901855
		c-0.0172729,3.1514282,0.0610352,6.3045044-0.0180664,9.4539795c-0.0465698,1.8525391,0.6394043,2.6137695,2.539856,2.5305176
		c2.4187012-0.105957,4.8466187,0.0064697,7.2706299,0.0108643c1.7377319,0.0031128,2.2614136,0.770752,2.0042114,2.5210571
		c-0.8867188,6.0354614-0.9108887,6.3131104-7.2449951,6.0247803c-3.5973511-0.1637573-4.8822021,0.7277222-4.6444092,4.536377
		c0.3844604,6.1585693,0.083374,12.3568115,0.2685547,18.5323486c0.1186523,3.9571533,1.4649658,4.8253784,5.3418579,3.8858032
		c0.9370728-0.2271118,1.8302612-0.6308594,2.7617798-0.8875732c0.5726929-0.1577759,1.4077759-0.4853516,1.7350464-0.2322998
		c2.3325195,1.8036499,1.7498779,4.7616577,2.6294556,7.1582031c0.5494995,1.4971313-0.1011963,2.5480957-1.6402588,3.0822754
		c-5.1304321,1.7808228-10.3825073,2.6398315-15.6781616,1.1279907c-4.5939941-1.3115234-6.3547363-5.0974731-6.6309204-9.4603882
		c-0.2749634-4.3435669-0.0602417-8.7180786-0.0602417-13.0790405
		C527.7012329,574.0105591,527.6328735,574.010376,527.5644531,574.0102539z"/>
	<path class="st4" d="M741.0958862,481.7828369c0.000061,2.9114685-0.0068359,5.8229065,0.0015869,8.734375
		c0.0147705,5.0571594,1.3795166,6.0926208,6.1655884,4.9290771c1.5139771-0.368103,3.4998169-2.4006958,4.5166626-0.5883789
		c1.3716431,2.4452515,1.9519043,5.4416504,2.0093994,8.3551331c0.0175781,0.8927307-1.1176147,1.2165222-1.9049683,1.487915
		c-4.53125,1.5619507-9.1911011,2.2666321-13.946106,1.4784851c-4.2680664-0.7074585-6.8216553-3.3370667-7.8374023-7.5635376
		c-1.1248779-4.6809387-0.5305176-9.4223022-0.6381836-14.1363525c-0.0968628-4.2437134-0.130127-8.4952087,0.0217896-12.7356567
		c0.0802612-2.2418518-0.3856812-3.2009583-2.9243774-3.1200562c-4.616333,0.1470337-6.588501-2.9401855-4.927002-7.2817993
		c0.8111572-2.1198425,2.7293701-1.3587341,4.0950928-1.2139893c3.0562744,0.3238525,4.2400513-0.7460938,3.734314-3.7835693
		c-0.1375732-0.8262024-0.0908203-1.7020264-0.0055542-2.5426331c0.2150879-2.1220398-1.0883789-5.168457,0.6347656-6.1820984
		c2.7286987-1.6051025,6.2533569-1.5927124,9.5293579-1.5750122c1.6129761,0.0086975,1.4663086,1.2915649,1.4707031,2.3758545
		c0.0111694,2.7901001,0.2203369,5.6017151-0.0542603,8.364563c-0.2870483,2.8895264,0.8783569,3.5730896,3.4854126,3.3115234
		c2.0418091-0.2048035,4.1224365,0.0146179,6.1824341-0.0564575c1.8583984-0.0641785,2.2183838,0.8201294,2.0395508,2.4901123
		c-0.6184692,5.7764282-0.9956665,6.1612244-6.7971802,6.1601562c-4.848938-0.000885-4.8494263-0.000885-4.8512573,4.7218933
		C741.0950928,476.2025146,741.0958862,478.9926758,741.0958862,481.7828369z"/>
	<path class="st12" d="M383.600769,483.2658691c-0.0903625,1.9552307,0.1174316,4.2277222,0.6110535,6.4962463
		c1.4976807,6.8827515,7.300293,9.4110107,13.5603943,5.9747009c1.275238-0.6999512,2.7044067-3.1160583,4.295105-0.0640259
		c2.6327209,5.0512085,2.6588135,6.7604065-0.2680664,8.3573608c-13.6671448,7.4571228-28.5053101-0.2046509-30.3869324-15.82724
		c-0.6842346-5.681366-0.278717-11.3338928,1.7320557-16.8205261c5.0196228-13.6965332,20.3241882-15.3418274,29.894043-9.9516907
		c2.1994324,1.2388306,2.8816833,2.7588196,1.3069458,5.0036316c-0.8300476,1.1831665-1.5021362,2.4847717-2.1704102,3.7718506
		c-0.6739502,1.2979736-1.4344177,1.1883545-2.6229553,0.5779724c-10.3260193-5.3028259-15.6433105-2.0879822-15.9483032,9.5838928
		C383.5815125,481.21521,383.600769,482.0635071,383.600769,483.2658691z"/>
	<path class="st4" d="M713.4284058,482.8684998c-0.0001831,6.4273071-0.0631714,12.8556519,0.034729,19.2814636
		c0.0332642,2.1763-0.6876831,2.9276123-2.9188843,2.9971313c-8.7701416,0.2732544-8.7681885,0.3471985-8.7692871-8.2875061
		c-0.0009766-8.2463989-0.0953369-16.4945679,0.0546265-24.7382202c0.0462646-2.5444946-0.3586426-3.6507568-3.2857056-3.5107727
		c-5.0166626,0.2399292-6.5662842-2.1438904-5.1619873-7.0698853c0.336792-1.181366,1.0296021-1.491272,2.1157837-1.4881592
		c5.2148438,0.0148315,10.4302368,0.0580139,15.6439819-0.017334c2.4578247-0.0355225,2.2907104,1.5690918,2.2892456,3.187439
		C713.4250488,469.7712402,713.4284668,476.3198853,713.4284058,482.8684998z"/>
	<path class="st12" d="M578.1213379,573.5460205c0.0009766,6.4220581-0.1116333,12.8471069,0.0576172,19.2646484
		c0.0656128,2.4899902-0.8560791,3.0326538-3.1422119,3.0593262c-8.5922241,0.1002197-8.590332,0.1716309-8.5891724-8.5299683
		c0.0010986-8.239624-0.0927734-16.480896,0.0547485-24.7178955c0.0452881-2.5294189-0.6801147-3.4230347-3.2450562-3.2774048
		c-1.5644531,0.0888062-4.0011597,0.9847412-4.6118164-0.781189c-0.7105103-2.0548706-0.3776245-4.5480957-0.1549683-6.8174438
		c0.1220703-1.2432251,1.5388184-0.8798218,2.4347534-0.8867798c4.8466797-0.0375977,9.6952515,0.0509644,14.5400391-0.0511475
		c2.0568848-0.043396,2.7232666,0.7049561,2.692627,2.7451782
		C578.0578003,560.2162476,578.1203003,566.8815918,578.1213379,573.5460205z"/>
	<path class="st13" d="M538.2217407,647.8172607c0.0012207-2.0615845,0.1255493-4.1327515-0.0321655-6.182251
		c-0.1741333-2.263916,1.2810669-3.2528687,2.770874-2.3578491c2.1901855,1.315918,3.7589722,0.3463745,5.6380615-0.2420654
		c2.5944214-0.8122559,4.7503662,2.1795654,6.4192505,1.7929077c2.0234985-0.468811,3.8643799-2.2070923,6.3304443-1.8366089
		c2.5554199,0.3839111,3.8938599,2.0356445,4.0406494,4.4271851c0.2299194,3.7461548,0.1218262,7.5117188,0.2503662,11.2658691
		c0.0645142,1.8828125-1.1154785,1.7384644-2.3792114,1.7839966c-1.4277954,0.0515137-2.2907715-0.236145-2.2363892-1.9521484
		c0.0922241-2.9075928,0.0211182-5.8203125,0.0193481-8.730835c-0.0009155-1.5430908-0.2014771-3.0078735-2.1069946-3.2628174
		c-1.9417725-0.2597046-2.9087524,0.8893433-3.3214111,2.6139526c-0.7161255,2.9925537-0.3077393,6.039856-0.3131714,9.0587769
		c-0.0031128,1.7255249-0.5445557,2.3185425-2.2943115,2.3034668c-1.6582031-0.0142212-2.4370728-0.3952637-2.3599854-2.2205811
		c0.1176147-2.7841797,0.0581055-5.5776367,0.0125122-8.3662109c-0.0266113-1.6268921-0.178772-3.3100586-2.3685303-3.3916626
		c-2.1706543-0.0808105-3.0361328,1.4346924-3.171936,3.24823c-0.1987915,2.65448-0.1748047,5.3305054-0.1376343,7.9957886
		c0.0227661,1.6329346-0.0991821,2.7171631-2.2626343,2.7536011c-2.2897339,0.0383301-2.6104126-1.03125-2.5195923-2.8807373
		C538.2943726,651.7015991,538.2205811,649.7576904,538.2217407,647.8172607z"/>
	<path class="st13" d="M567.890625,647.7783813c0.0002441-2.0582275-0.0438232-4.1176147,0.0123901-6.1743774
		c0.0587158-2.1483765,2.7012939-3.7262573,3.7198486-2.1921997c1.1395874,1.7166138,1.432373,1.1517944,2.6464233,0.3909302
		c3.0247192-1.895752,5.6277466,0.647522,8.2861328,0.8665161c2.2391968,0.1844482,4.9422607-2.5939941,7.968689-1.21875
		c2.0219727,0.9188232,2.6085815,2.8384399,2.6920776,4.8128662c0.1428833,3.3842163-0.0137329,6.7810059,0.1224365,10.1656494
		c0.0809326,2.0110474-1.0509644,2.0061035-2.5110474,2.053772c-1.5545654,0.0509644-2.1765747-0.4660645-2.1257935-2.0638428
		c0.0883179-2.7817993,0.0537109-5.5689087,0.0139771-8.3529053c-0.0228271-1.6005249-0.0790405-3.3619385-2.2173462-3.5357666
		c-2.3415527-0.1903076-3.2313232,1.4491577-3.3602295,3.4249268c-0.1732178,2.6530762-0.196228,5.3259277-0.0980225,7.9834595
		c0.0683594,1.8498535-0.5005493,2.5521851-2.4481201,2.5715942c-2.0844727,0.0209961-2.3953857-0.9619751-2.347229-2.6744385
		c0.0782471-2.7822876,0.0361328-5.5688477,0.003418-8.3530884c-0.0185547-1.5764771-0.416748-2.9655151-2.3675537-2.9819336
		c-1.7232056-0.0145874-2.7953491,1.0333252-2.9295654,2.6307983c-0.2424927,2.8869019-0.3013916,5.7957764-0.2913208,8.6950073
		c0.0057983,1.6981812-0.2492065,2.704834-2.3447876,2.6820068c-1.9350586-0.0210571-2.5647583-0.6937256-2.4526367-2.557312
		C567.9857788,651.9005127,567.8905029,649.8366089,567.890625,647.7783813z"/>
	<path class="st13" d="M299.3420105,658.8064575c7.2396545,2.5023804,9.859436,1.3022461,9.7611084-4.1630859
		c-4.7507629,2.4674683-8.1560059,2.2319336-10.4202881-0.7207642c-2.4638062-3.2129517-2.2979736-9.4590454,0.3482361-12.6306763
		c1.227356-1.4710083,2.8137207-2.3696899,4.7266846-2.3389282c2.8995056,0.0466309,5.7175598,1.4439087,8.7227478,0.2599487
		c1.13797-0.4483032,1.6861877,0.5553589,1.668457,1.7167969c-0.0776062,5.0853271-0.0243225,10.1760254-0.2453918,15.2548828
		c-0.3330078,7.6463013-8.666687,8.6615601-13.917572,6.6797485
		C298.1073303,662.1552734,299.1896667,660.4337158,299.3420105,658.8064575z M309.4248962,647.6079712
		c-0.1064148-2.3106079-0.2917786-4.9332886-3.5886841-5.0912476c-3.2592468-0.156189-3.9742126,2.2943726-4.0231018,4.8909302
		c-0.0481262,2.557373,0.5467224,5.2012329,3.6200256,5.3518066
		C308.5047302,652.9099731,309.3938904,650.5313721,309.4248962,647.6079712z"/>
	<path class="st14" d="M210.999115,654.5094604c-4.8955078,2.6416626-8.4022064,2.3963013-10.6567078-0.6087646
		c-2.5156708-3.3531494-2.2129059-9.9290771,0.6298065-12.9265747c1.4122772-1.4891357,3.2181549-2.2601929,5.2377014-2.0651245
		c2.5468445,0.2460938,4.9793091,1.4702759,7.6617584,0.2953491c1.1367188-0.4979248,2.0537109,0.2584229,2.0256958,1.7327271
		c-0.0966797,5.0874634,0.1798706,10.2084961-0.3140869,15.2553101c-0.6131439,6.2642822-8.4191895,9.8410034-13.9206238,6.7637329
		c-1.5156555-0.8478394-1.0321808-2.1072998-0.7841644-3.1853638c0.4273834-1.8574219,1.5931396-0.3536987,2.2411041-0.1920166
		C208.4823914,660.9168091,210.451767,659.8005371,210.999115,654.5094604z M211.0833893,646.6820068
		c-0.1848755-1.6583862-0.4904327-4.230957-3.8305054-4.1401978c-3.2808838,0.0891724-3.696106,2.6218262-3.6962891,5.1592407
		c-0.0001678,2.6121826,0.7751617,5.1408691,3.8670959,5.0473633
		C210.4482574,652.6567993,211.1802216,650.1984863,211.0833893,646.6820068z"/>
	<path class="st13" d="M363.5800781,644.9407959c-0.8545532,2.9841919-1.8029175,5.9458618-2.5280457,8.9611816
		c-0.4274597,1.7775879-1.1041565,2.7202148-3.140686,2.602356c-1.6920166-0.0980225-2.9145203-0.1708984-3.5225525-2.1931763
		c-1.4889832-4.9520874-3.2481079-9.8230591-4.9006042-14.7327881c3.4238586-1.2370605,5.1318359-0.1962891,5.7819519,3.2103882
		c0.4946899,2.5925903,1.5075378,5.0863037,2.4145508,8.0285034c1.6962585-2.7133789,1.9630737-5.5426025,2.752655-8.1837158
		c0.5358582-1.7925415,0.6208801-3.6340332,3.5157166-3.6104126c2.6887207,0.0220947,3.1593628,1.4441528,3.6939087,3.3910522
		c0.7214661,2.6275635,1.5736389,5.2191772,2.5501709,8.4171143c1.7626343-3.0579224,2.3239746-5.9030762,2.8965759-8.6271973
		c0.6585693-3.1326904,2.2557983-3.5811157,5.1430359-2.6729736c-1.5820312,5.1225586-3.2298584,10.1642456-4.6703186,15.2644043
		c-0.5950623,2.1068726-2.1050415,1.5258179-3.4625244,1.6613159c-1.4902039,0.1486206-2.4975586-0.2023315-2.9275513-1.8779907
		c-0.833252-3.2467041-1.8456421-6.4475708-2.783844-9.6674194
		C364.1217041,644.9212646,363.8508911,644.9310303,363.5800781,644.9407959z"/>
	<path class="st13" d="M421.4839783,655.1372681c-0.2202148-0.0125732-0.4682312-0.0982666-0.6574097-0.0272827
		c-4.8561401,1.8231812-7.7477417,1.4146729-9.7658081-1.3989868c-2.2910767-3.1943359-2.1101685-9.2302856,0.3843689-12.3041992
		c1.2928467-1.5931396,2.9776611-2.6003418,5.0315247-2.4517822c2.8164368,0.2037354,5.5205994,1.4155884,8.4713135,0.2740479
		c1.4706421-0.5689087,1.6328735,0.8670654,1.6256714,2.0349731c-0.0299072,4.8425293,0.1620483,9.696228-0.1044922,14.5250244
		c-0.3565979,6.4593506-8.9878845,10.5838013-14.2867126,7.0201416c-1.2321472-0.8287964-0.8357544-1.9283447-0.6171875-2.9276733
		c0.3961182-1.8115845,1.5646057-0.5032349,2.255249-0.3318481
		C419.2741699,660.9030151,421.3617249,659.7418213,421.4839783,655.1372681z M414.196106,647.1176758
		c0.0079651,3.4436035,1.6084595,5.6640015,3.8019104,5.7351685c2.3892822,0.0775146,4.2172241-2.2327271,4.007782-5.3712769
		c-0.1653442-2.4771118-0.6698608-5.0397339-3.9386292-4.9707031
		C414.8739624,642.5784302,414.40448,645.0565186,414.196106,647.1176758z"/>
	<path class="st13" d="M279.743988,640.3846436c0-2.4135132,0.085022-4.4685059-0.0253601-6.5130615
		c-0.0983887-1.8218994,0.4588013-2.6013184,2.4335938-2.6046753c2.0456238-0.003418,2.375824,0.9252319,2.3578186,2.6706543
		c-0.0684814,6.6611938-0.1100769,13.3250732,0.0194397,19.984436c0.0431519,2.2191772-1.1321411,3.2484741-2.7430115,2.409729
		c-2.262085-1.1777954-4.0150452-0.0327759-5.9984436,0.2663574c-4.01474,0.6055298-6.8910522-1.2225342-7.9750061-5.130249
		c-0.3833008-1.3817749-0.6367493-2.8706665-0.5724792-4.2936401
		C267.5673828,639.9309082,272.3468323,637.1869507,279.743988,640.3846436z M272.0429688,647.71875
		c0.2747498,2.286438,0.1721191,5.1970215,3.6869202,5.3488159c3.2412415,0.1398926,3.8726196-2.4247437,3.9408875-4.9389648
		c0.0711365-2.6173096-0.344696-5.3911133-3.6916809-5.5856323
		C272.7160339,642.3533936,272.3051453,644.9693604,272.0429688,647.71875z"/>
	<path class="st13" d="M658.9243774,639.5274658c3.5783081-1.1595459,5.4346924-0.0929565,6.1958618,3.4025269
		c0.5745239,2.6376953,1.6864014,5.1584473,2.8549194,8.6032715c1.3118286-3.9448853,2.3585815-7.0075073,3.3430786-10.0899658
		c0.482605-1.5112915,1.1434326-2.5092163,3.0263672-2.3411255c1.5025635,0.1341553,2.3309326,0.2927856,1.6213989,2.0930786
		c-2.4331055,6.1728516-4.7105103,12.4080811-7.210083,18.5532227c-1.2363281,3.0393677-3.7001343,4.3607178-7.0085449,3.8561401
		c-0.9751587-0.1487427-1.9395142-0.3562012-1.7649536-1.7613525c0.1304321-1.0494995,0.3345337-1.5864868,1.6750488-1.7634277
		c3.7920532-0.5006714,4.2445068-1.4145508,2.9498291-4.9922485
		C662.7285767,649.8953247,660.8201904,644.7138062,658.9243774,639.5274658z"/>
	<path class="st14" d="M179.2227783,647.6941528c0.0005798-1.9344482,0.1717377-3.8878174-0.0400543-5.7988281
		c-0.3082428-2.7806396,1.609314-3.5249634,3.2167664-2.5959473c1.9131622,1.1055908,3.1221924,0.3926392,4.741333-0.1105347
		c4.2494812-1.3206787,7.5812378,0.6899414,8.1062622,5.1315308c0.3949127,3.3410034,0.1468964,6.7540894,0.276474,10.1316528
		c0.0762177,1.9868164-1.1228027,2.0192261-2.5805359,2.0324707c-1.4355164,0.0130615-2.2916107-0.307251-2.2415924-1.9888306
		c0.0789948-2.6574707,0.0221558-5.3190308,0.0141144-7.9788818c-0.0057831-1.9121704-0.1884766-3.7861938-2.6539612-3.9846191
		c-2.4349518-0.1960449-3.6022034,1.4437256-3.8492889,3.4941406c-0.3019257,2.5056152-0.2365265,5.067627-0.1716309,7.6011963
		c0.0465088,1.8156128-0.165863,2.9058228-2.4730377,2.9039917c-2.4406281-0.00177-2.3942413-1.3572998-2.3557587-3.0343628
		C179.2562256,651.5637817,179.2221985,649.62854,179.2227783,647.6941528z"/>
	<path class="st13" d="M264.0939941,649.9320679c0,1.4508057-0.0872498,2.9083252,0.021759,4.3509521
		c0.1406555,1.8615112-0.8126221,2.1851196-2.4105225,2.204834c-1.671051,0.020752-2.4338684-0.47052-2.3752441-2.2561646
		c0.0911865-2.7773438,0.0526123-5.5614624-0.0201721-8.3404541c-0.0431519-1.6473999-0.4007263-3.2045898-2.4898987-3.3774414
		c-1.9837646-0.1641846-3.1557312,0.8303833-3.7744751,2.6685181c-0.9561005,2.8405151-0.3722687,5.7572632-0.4590912,8.6355591
		c-0.0489197,1.6221313-0.0941162,2.7116089-2.262558,2.7001343c-2.0133514-0.0106812-2.4264526-0.7824097-2.3844757-2.5703735
		c0.0964661-4.1085815,0.1775818-8.2279663-0.0188141-12.3294678c-0.1456146-3.0405273,2.0163879-3.0415039,3.436142-2.2702026
		c1.5552673,0.8449097,2.4139404,0.6671143,3.899292,0.0566406c4.5148468-1.8554688,8.2488556,0.5383911,8.7601776,5.4539185
		c0.1741638,1.6739502,0.0276184,3.3813477,0.0276184,5.0734253
		C264.0604858,649.9320679,264.07724,649.9320679,264.0939941,649.9320679z"/>
	<path class="st13" d="M535.0549316,647.8544922c0.0040894,5.2157593-3.623291,8.7987061-8.9691162,8.8592529
		c-5.5308228,0.062561-9.3050537-3.5736694-9.2652588-8.9262695c0.0387573-5.2203979,3.6810303-8.836792,8.9679565-8.9041138
		C531.2327881,638.8140259,535.0507812,642.510376,535.0549316,647.8544922z M530.2033081,647.7236938
		c0.038269-3.2478638-1.4970703-5.1890259-4.154541-5.2524414c-2.6962891-0.0643921-4.3393555,1.8233032-4.378418,5.0302124
		c-0.043396,3.5620117,1.4365845,5.5656738,4.1566162,5.6274414
		C528.6125488,653.1922607,530.161438,651.2791748,530.2033081,647.7236938z"/>
	<path class="st13" d="M338.6272583,638.8839722c5.4538574-0.0805054,9.2784424,3.5925293,9.3035583,8.9349976
		c0.0245361,5.2181396-3.579895,8.8065186-8.9338989,8.8938599c-5.3791504,0.0878296-9.1448364-3.3658447-9.2979736-8.5275269
		C329.5390015,642.7937012,333.2151794,638.9638672,338.6272583,638.8839722z M343.0797119,647.2659912
		c-0.0371094-2.3200073-0.8424988-4.5756836-4.1239014-4.7806396c-2.6812134-0.1674805-4.3604431,1.8006592-4.413269,4.989563
		c-0.0587463,3.5443726,1.4270325,5.5789795,4.1303101,5.656189
		C341.4674988,653.2108765,343.0141602,651.3198853,343.0797119,647.2659912z"/>
	<path class="st13" d="M457.3048706,647.9353638c-0.0079956,5.2032471-3.645752,8.7380981-9.035553,8.7800293
		c-5.4568787,0.0424194-9.3534546-3.7531128-9.2459412-9.0063477c0.1056824-5.1640625,3.8590088-8.8010864,9.1074524-8.8251343
		C453.5880737,638.8588867,457.3131714,642.5342407,457.3048706,647.9353638z M443.9378052,647.7891235
		c0.0585632,3.5301514,1.6654053,5.4537354,4.47052,5.3482056c2.6237488-0.0985718,4.2954712-2.3705444,4.2026672-5.7116089
		c-0.0845947-3.0475464-1.9523926-5.1592407-4.5671692-4.9449463
		C444.8199768,642.7449341,443.9138489,644.9440308,443.9378052,647.7891235z"/>
	<path class="st13" d="M476.7029114,648.0808716c0.0002136,1.8198242,0.0233154,3.6399536-0.0051575,5.4592896
		c-0.0426331,2.7228394-1.7198792,4.1420898-3.7070007,2.6538696c-1.6121216-1.2072144-2.4219055-0.5346069-3.6702881-0.0542603
		c-4.6485291,1.7887573-8.3179626-0.482605-8.642334-5.4858398c-0.2036743-3.1416626-0.0211792-6.3065796-0.1226196-9.4575195
		c-0.0509644-1.5848999,0.5327454-2.1418457,2.1109009-2.0825195c1.4523621,0.0544434,2.6206665,0.0205688,2.5240479,2.0466309
		c-0.1269531,2.6628418-0.0504761,5.336792-0.0188904,8.0053711c0.0229797,1.9382935,0.3802185,3.7869263,2.79953,3.9246826
		c2.39151,0.1359863,3.5892639-1.3919678,3.7699585-3.5629272c0.2207642-2.6520386,0.2740173-5.3309937,0.1875916-7.991333
		c-0.0644531-1.9838257,0.7723999-2.4425659,2.5935974-2.4387817c1.846283,0.0038452,2.2655945,0.8120728,2.2017822,2.4330444
		C476.6382141,643.7109375,476.7026978,645.8971558,476.7029114,648.0808716z"/>
	<path class="st14" d="M103.3471985,647.5280762c-0.0006485-1.9376221,0.1505814-3.8899536-0.0356445-5.8095703
		c-0.288147-2.9700317,1.8212128-3.1590576,3.3947067-2.4006348c1.6225891,0.7821655,2.622139,0.5444336,4.1471329-0.0058594
		c4.6913834-1.6929932,8.2291489,0.706543,8.5538483,5.7212524c0.2030716,3.1361694,0.006073,6.2961426,0.1193924,9.4406128
		c0.0729675,2.0247803-1.1448059,1.9568481-2.5763397,2.0131836c-1.6041641,0.0632324-2.1211166-0.5755615-2.0725174-2.1204224
		c0.0837708-2.6616821,0.0594406-5.3287354,0.0047531-7.9919434c-0.0395508-1.9260864-0.4256516-3.7507324-2.8694916-3.8467407
		c-2.4326859-0.0955811-3.5181198,1.4887695-3.6932144,3.62854c-0.2068253,2.527771-0.1913834,5.0790405-0.1648483,7.6188965
		c0.017067,1.633667-0.1212769,2.7260742-2.2782822,2.7521973c-2.2144394,0.0267944-2.6689072-0.9055786-2.5560303-2.8247681
		C103.4413452,651.651123,103.3478622,649.586853,103.3471985,647.5280762z"/>
	<path class="st14" d="M82.9607239,647.4671631c0.0001602-1.9413452,0.1495667-3.8970947-0.0359955-5.8205566
		c-0.2574005-2.6679077,1.7123108-3.2271118,3.0861359-2.3535767c2.0125961,1.2797241,3.3521118,0.309021,5.0634232-0.1506348
		c4.3855972-1.1779175,7.545105,0.973938,7.8960953,5.4706421c0.2542419,3.2572021,0.0438156,6.5480957,0.1706924,9.8189087
		c0.0771027,1.9882202-1.0610809,2.0249023-2.5409622,2.0593872c-1.5639038,0.036438-2.1647797-0.507019-2.1121216-2.0926514
		c0.0885468-2.6663818,0.0570831-5.3384399,0.0084-8.006958c-0.0353317-1.935791-0.4277344-3.7601318-2.8682251-3.8608398
		c-2.4364624-0.100647-3.5155182,1.4957886-3.6988144,3.6380005c-0.2062683,2.4107056-0.1628265,4.8452759-0.1721802,7.2695923
		c-0.0062256,1.6244507,0.2014694,3.0534058-2.3050079,3.0980225c-2.6824646,0.0477295-2.5515442-1.4544678-2.503418-3.2457275
		C83.0008545,651.3508301,82.9605484,649.4084473,82.9607239,647.4671631z"/>
	<path class="st14" d="M70.5843811,656.7374268c-5.3623581-0.0610352-8.9977341-3.6364136-9.0041695-8.8557129
		c-0.0066185-5.3731689,3.7859383-9.078064,9.2414818-9.027832c5.3385696,0.0491943,9.2285233,4.0265503,9.0662079,9.2699585
		C79.7285995,653.2692261,75.9170456,656.7981567,70.5843811,656.7374268z M74.9527359,647.6930542
		c0.0018616-2.8546753-0.9638672-4.9921265-4.1901398-5.1764526c-2.6364288-0.1505737-4.4321976,1.9379272-4.4632721,4.9945068
		c-0.034523,3.3953857,1.6122589,5.5449219,4.2797165,5.5863037
		C73.3851852,653.1409302,74.9287109,651.2321777,74.9527359,647.6930542z"/>
	<path class="st13" d="M613.6945801,648.0340576c-0.0003052,1.9354858-0.1634521,3.8880615,0.0357666,5.8028564
		c0.3475952,3.3405762-2.7756958,3.326416-3.5421143,2.3914185c-1.6865234-2.0574341-2.6090088-0.5084229-3.8463135-0.03125
		c-4.2692261,1.6465454-8.1409302-0.3890991-8.5674438-4.8409424c-0.3331909-3.4776611-0.069458-7.0095825-0.1485596-10.515625
		c-0.0356445-1.5823975,0.8748169-1.7460327,2.0897217-1.6972656c1.1824341,0.0475464,2.5267334-0.2719727,2.5,1.659729
		c-0.0384521,2.7815552-0.0656738,5.5667725,0.0333252,8.3457031c0.0657349,1.8460693,0.2888794,3.8067627,2.7717896,3.9385986
		c2.4022217,0.1277466,3.5728149-1.4207153,3.788208-3.5444336c0.2672119-2.6347046,0.3288574-5.303772,0.2710571-7.9534302
		c-0.0407104-1.8659668,0.5431519-2.5249023,2.4807129-2.5037231c1.8747559,0.0205078,2.2183228,0.8262939,2.1555786,2.416748
		C613.6304932,643.6765137,613.6948853,645.8565674,613.6945801,648.0340576z"/>
	<path class="st13" d="M618.0236206,647.6137695c-0.0005493-1.9359741,0.1724854-3.8910522-0.0390015-5.8035889
		c-0.3632202-3.2858276,2.5472412-3.4524536,3.5097656-2.4417114c1.7312622,1.8180542,2.5504761,0.4544067,3.7999878-0.0306396
		c4.5132446-1.7518311,8.4274292,0.6740723,8.7270508,5.5548706c0.1925049,3.1345215-0.0390015,6.2931519,0.0925903,9.4338379
		c0.0791626,1.8895264-0.8171997,2.1265259-2.4011841,2.1700439c-1.8208008,0.0501099-2.2831421-0.7199707-2.2330933-2.3638916
		c0.0809326-2.6593018,0.1004639-5.3270264-0.0209961-7.9835815c-0.0787964-1.7221069-0.4204102-3.505249-2.6975098-3.6362915
		c-2.1743164-0.1251831-3.4014893,1.0865479-3.7536621,3.1325073c-0.2440186,1.4177246,0.0341797,2.9927368-0.4696655,4.2832642
		c-0.8406982,2.1532593,2.5551758,6.4785156-2.3187866,6.3398438c-4.5721436-0.130188-1.220459-4.3323364-2.1546631-6.4941406
		C617.8001099,649.1625366,618.0241699,648.3397217,618.0236206,647.6137695z"/>
	<path class="st13" d="M390.1246338,647.6572266c-0.0006104-1.9360352-0.0281677-3.8726807,0.0063782-5.8081055
		c0.0428162-2.4002686,2.5222778-4.0744629,3.7843018-2.451355c1.2802429,1.6464233,1.6990356,0.8670044,2.8055725,0.3178711
		c4.8743896-2.4191895,9.1599426,0.0655518,9.4220886,5.4933472c0.145813,3.0181885-0.0526123,6.0524292,0.0716553,9.0725708
		c0.0755005,1.8342896-0.7188721,2.1908569-2.360199,2.2164307c-1.7716064,0.0275879-2.324707-0.6286011-2.2751465-2.3209229
		c0.0813904-2.7798462,0.0883484-5.5692139-0.0542603-8.3453369c-0.0823975-1.6047363-0.5474854-3.1992188-2.6205139-3.322937
		c-1.968689-0.1174927-3.1658936,0.8664551-3.725708,2.7357788c-0.8543701,2.8528442-0.4143982,5.7731934-0.4395752,8.6605225
		c-0.0151367,1.7357788-0.3226318,2.6017456-2.3754578,2.6138916c-2.1636353,0.0128174-2.3173828-1.0484619-2.2567139-2.6912231
		C390.1828003,651.7734985,390.1252747,649.7142944,390.1246338,647.6572266z"/>
	<path class="st14" d="M137.4076996,652.3226929c1.00914,2.6234131-0.2533112,3.7010498-2.7123566,4.1843262
		c-7.8631821,1.545105-13.1164093-3.3973389-11.6265488-11.0038452c0.893074-4.5595703,4.193306-6.9954834,8.8938065-6.5645752
		c4.2637329,0.3908691,6.9362488,3.6327515,7.0033417,8.2055054c0.024292,1.6546631-0.5902252,2.0969849-2.0957947,2.0523071
		c-2.4137878-0.0716553-4.8322296-0.0549316-7.2466736,0.0053101c-0.7475739,0.0184937-1.8365173-0.4695435-2.1348648,0.6616821
		c-0.228775,0.8675537,0.3852081,1.6295166,1.0187302,2.1885376c1.9645996,1.7339478,4.207962,1.4412842,6.4967041,0.8163452
		C135.7867737,652.654541,136.4535828,651.9133911,137.4076996,652.3226929z M130.9519958,645.9725342
		c1.0229034-0.7719116,3.2765656,1.0535278,3.3521576-1.2834473c0.0550842-1.7033691-1.7025757-2.5742798-3.4295654-2.5059204
		c-1.7203522,0.0682373-3.4325333,1.1010132-3.3078308,2.7227173
		C127.709877,646.767334,129.7720032,645.3662109,130.9519958,645.9725342z"/>
	<path class="st13" d="M243.7458801,650.2305908c0,0.9694824-0.0182648,1.9393921,0.0032196,2.9083862
		c0.0854645,3.8553467-0.3672943,4.2150879-3.9082336,2.2532959c-1.3375702-0.7410889-1.7492218,0.3140869-2.4956055,0.6195679
		c-3.3892212,1.3870239-6.791153,0.5371094-8.2835083-2.203186c-1.5020447-2.7580566-0.0943451-6.3195801,3.1134949-7.3161011
		c1.7071228-0.5303345,3.5749512-0.5390625,5.3678589-0.7998657c0.6529999-0.0949707,1.572937,0.2719727,1.7868042-0.7144775
		c0.1973267-0.9101562-0.260498-1.6757202-1.0390472-2.1393433c-1.8532104-1.1035156-3.7350159-0.6217041-5.6185303-0.0245972
		c-0.7876129,0.2496338-1.8013458,1.3716431-2.2563477-0.3378906c-0.3328552-1.2506104-0.2240295-2.1971436,1.304718-2.8706665
		c6.5646667-2.8920898,11.9225311,0.3337402,11.9864349,7.3521729c0.0099335,1.0908203,0.0013885,2.1818237,0.0013885,3.2727051
		C243.7209778,650.2305908,243.7334442,650.2305908,243.7458801,650.2305908z M237.0595856,648.5023193
		c-1.8196106,0.3187256-4.0298615,0.2548218-4.180191,2.8741455c-0.1016083,1.7711182,1.4502563,2.1251831,2.7649689,2.0293579
		c2.1334534-0.1551514,3.5635681-1.402832,3.7573395-3.6122437
		C239.5692902,647.8823242,237.9593811,648.821228,237.0595856,648.5023193z"/>
	<path class="st12" d="M564.7396851,537.0783691c0.0748291-4.2894287,3.4363403-7.4360962,7.8198853-7.3200073
		c4.0380859,0.1069336,7.3384399,3.5026855,7.3218994,7.5333862c-0.0171509,4.1673584-3.5188599,7.6000366-7.7125244,7.5600586
		C567.9428711,544.8115845,564.6646729,541.3814697,564.7396851,537.0783691z"/>
	<path class="st12" d="M714.9487305,446.4331665c0.019104,4.3127747-3.298584,7.6965332-7.5349731,7.6849976
		c-4.1627197-0.011322-7.5858154-3.5215759-7.5373535-7.729187c0.0490723-4.2616882,3.4577026-7.5375061,7.7542114-7.4518738
		C711.7027588,439.0182495,714.930481,442.3245239,714.9487305,446.4331665z"/>
	<path class="st13" d="M653.5586548,634.8768921c0.2808838,1.9807739-0.5164185,4.9694214,3.4155884,4.4378052
		c0.8093262-0.109375,0.8231201,1.0084229,0.8272095,1.7304077c0.0058594,1.0144653-0.4689941,1.7007446-1.5178223,1.5363159
		c-2.5946045-0.4067383-2.6594849,1.1531372-2.5595093,3.0186157c0.0839233,1.565918,0.0379639,3.1400757,0.0168457,4.710022
		c-0.0228882,1.6930542,0.5703125,2.9655151,2.4579468,2.7843018c1.572876-0.151062,1.8208008,0.5076294,1.8240967,1.8345947
		c0.0040283,1.5841064-1.0233765,1.6605835-2.1498413,1.781189c-4.1004639,0.43927-6.4380493-1.5029907-6.6696167-5.6516724
		c-0.0939941-1.6861572-0.0304565-3.3811646-0.0464478-5.0720215c-0.0153198-1.6227417,0.4958496-3.4234009-2.2531128-3.4907837
		c-1.6016235-0.0392456-1.105896-2.4353027-0.9660645-2.4481201
		C649.4865723,639.7219849,648.9989014,633.7121582,653.5586548,634.8768921z"/>
	<path class="st14" d="M164.2617188,656.7283936c-3.7183838-0.1858521-5.4465637-1.8452759-5.644516-5.4088135
		c-0.1002808-1.8053589-0.0082855-3.6206665-0.0384064-5.4309082c-0.0261536-1.5730591,0.605835-3.4884033-2.2422028-3.3583374
		c-1.3582611,0.0620728-1.2824402-2.0647583-1.0755005-2.1157227c3.0401306-0.7491455,2.9240112-4.8616943,5.9630585-5.4822998
		c0.4578247-0.0935669,0.9301605-0.1160889,1.3957825-0.1714478c-0.1442871,3.2419434,2.2507782,4.2438965,4.5257416,5.631897
		c0.6620789,0.4038086,0.1443024,2.3939209-1.6769104,2.2185059c-2.0843201-0.2006836-2.3679962,0.9940796-2.2844391,2.6740112
		c0.0899048,1.8064575-0.0306549,3.6235352,0.0625153,5.4295044c0.0571289,1.1077271,0.3782654,2.2970581,1.7827911,2.2970581
		c1.4870148,0.0001221,2.5739136,0.055542,2.3586884,2.0546265
		C167.1274567,657.4891968,165.281601,656.3728638,164.2617188,656.7283936z"/>
	<path class="st13" d="M512.4212036,653.0685425c1.1778564-0.1827393,2.4782104-0.692688,2.666626,1.2752686
		c0.1803589,1.8840942-0.946228,2.1640015-2.4506226,2.2831421c-3.6789246,0.2918091-7.1937561-0.0105591-9.1941223-3.6114502
		c-1.9500732-3.5103149-2.0117188-7.2419434,0.2010498-10.6955566c2.1037292-3.2833252,5.4107971-3.6887207,8.9941101-3.3320923
		c1.5067749,0.1499023,2.1621094,0.6094971,2.0092163,2.2228394c-0.1622925,1.7123413-1.1830444,1.3310547-2.3048096,1.3190918
		c-3.8414001-0.0409546-5.637146,1.8106689-5.4902344,5.4865112
		C506.9960022,651.607605,508.7593689,653.2069702,512.4212036,653.0685425z"/>
	<path class="st14" d="M151.6546021,653.0267944c1.1054993-0.0316772,2.4698944-0.7676392,2.6234894,1.3223267
		c0.1407013,1.9147949-0.9370422,2.1495972-2.4268494,2.2789307c-3.6932983,0.3208618-7.1697388-0.0518188-9.209137-3.6095581
		c-2.016449-3.5175781-2.0411072-7.2576904,0.1909943-10.6900635c2.0966949-3.2241211,5.3792419-3.8248291,8.9904175-3.3304443
		c1.1346741,0.1552734,2.2610168,0.1591187,2.1318207,1.7635498c-0.1156921,1.4373169-0.671402,1.9140015-2.3119812,1.8525391
		c-4.0336456-0.1511841-5.5735016,1.5252686-5.486145,5.369873
		C146.2401886,651.6351318,147.863327,653.125061,151.6546021,653.0267944z"/>
	<path class="st14" d="M55.7417412,656.7440186c-3.5952339-0.0421753-6.480423-0.977478-8.0400467-4.2634888
		c-1.6857986-3.5519409-1.6298485-7.1130371,0.6142769-10.3560181c2.1955986-3.1728516,5.5243797-3.571228,9.0998383-3.1166382
		c1.2973022,0.164978,2.0743179,0.5291138,1.862751,1.9996338c-0.187561,1.3036499-0.7605324,1.6310425-2.1758003,1.6080322
		c-4.3191223-0.0700684-6.1593208,2.1501465-5.5469093,6.3388672c0.414772,2.836792,2.0304031,4.2501221,4.965229,4.1505127
		c1.2355423-0.0418701,3.0373764-1.1800537,3.0989914,1.4990234c0.0552063,2.4005127-1.7533379,1.7973633-3.0348854,2.0747681
		C56.2339745,656.7547607,55.8622093,656.7357788,55.7417412,656.7440186z"/>
	<path class="st13" d="M318.599823,648.0741577c-0.0000305-2.1755981,0.1330261-4.3614502-0.0335999-6.5241699
		c-0.2107544-2.7360229,2.0237427-3.1606445,3.1062927-2.1834717c1.8499756,1.6696777,2.8296204,0.4815674,4.2812195-0.1151123
		c0.9986267-0.4104004,2.5949097-1.0821533,2.8473816,0.7893677c0.1695862,1.2573853,1.0257263,3.3283691-1.8673401,3.1870728
		c-2.7211609-0.1328735-3.3856506,2.0375366-3.6224365,4.1263428c-0.2437439,2.1500854-0.1798706,4.3460083-0.1079407,6.5172119
		c0.0559692,1.6884155-0.1826782,2.6576538-2.2983704,2.6484985c-2.0854797-0.0089722-2.4002686-0.942688-2.3248291-2.6451416
		C318.6656799,651.9447632,318.599884,650.0079346,318.599823,648.0741577z"/>
	<path class="st13" d="M483.1781616,656.4152832c-1.5700684,0.2407837-2.2495117-0.3418579-2.226593-1.958374
		c0.061615-4.3508301,0.1169434-8.7062988-0.0194092-13.053833c-0.09021-2.8754272,2.37146-2.894165,3.2411804-2.0245972
		c1.6977539,1.6973877,2.6137085,0.6653442,3.9405518-0.0614014c0.8444214-0.4624023,1.9071655-0.765625,2.7394409-0.0603638
		c0.8400574,0.711853,0.3500977,1.8087158,0.378418,2.730896c0.0481262,1.5697021-1.1620483,1.1593018-2.0643921,1.2088013
		c-2.7277527,0.1497192-3.2802734,2.2246704-3.5035095,4.2944946c-0.2321472,2.1525269-0.1934509,4.3499756-0.0870667,6.5186157
		C485.6677551,655.8623657,485.1184082,656.8061523,483.1781616,656.4152832z"/>
	<path class="st13" d="M385.6888428,647.8597412c0.0010071,1.9384766-0.0880432,3.882019,0.0263062,5.8137207
		c0.1124573,1.8994141-0.3075256,2.8682861-2.5423889,2.8429565c-2.2004395-0.0249634-2.2523804-1.1919556-2.2367859-2.7841187
		c0.0403137-4.1187744,0.0740051-8.2394409-0.0112915-12.3568115c-0.0368347-1.7788696,0.686615-2.291626,2.371521-2.2676392
		c1.6016846,0.0228271,2.5193787,0.3453979,2.4188843,2.2111816
		C385.598053,643.4934082,385.6877747,645.6790161,385.6888428,647.8597412z"/>
	<path class="st13" d="M643.258728,647.940979c-0.0003662,1.9383545-0.0446167,3.8781128,0.0133057,5.8146973
		c0.0484619,1.6206665-0.0845337,2.7356567-2.2601318,2.7619019c-2.2618408,0.0270996-2.5684814-0.9953613-2.5234375-2.866333
		c0.0960693-3.9956055,0.1020508-7.9970093-0.0040894-11.9920654c-0.0489502-1.8473511,0.496521-2.5549316,2.4478149-2.5731201
		c2.0852661-0.0194702,2.416626,0.9637451,2.3468018,2.6772461
		C643.1952515,643.8193359,643.2591553,645.8815308,643.258728,647.940979z"/>
	<path class="st9" d="M174.7605438,648.0627441c-0.0005493,1.9398804-0.0735168,3.8831787,0.0210266,5.8184204
		c0.0858002,1.7557373-0.3343201,2.6514893-2.3811798,2.6184692c-1.8635559-0.0302124-2.2038574-0.8120728-2.176178-2.4195557
		c0.0730438-4.2421875,0.0917664-8.487854-0.0062256-12.7290039c-0.0415192-1.7967529,0.6729279-2.2265625,2.3500061-2.2434082
		c1.8426056-0.0183716,2.2787476,0.7789917,2.2144012,2.4089355
		C174.6963806,643.6955566,174.7611084,645.8804321,174.7605438,648.0627441z"/>
	<path class="st13" d="M640.9561768,636.0085449c-1.9179077,0.3066406-2.4329224-0.4954834-2.4879761-2.2038574
		c-0.06427-1.999939,1.0147095-2.019043,2.4863892-2.0797119c1.6972656-0.0700073,2.3719482,0.4651489,2.3388062,2.2433472
		C643.2589722,635.8108521,642.4442139,636.3363037,640.9561768,636.0085449z"/>
	<path class="st13" d="M383.3530884,636.0360718c-1.6490784,0.2478027-2.4150696-0.3186646-2.4488831-2.1310425
		c-0.0347595-1.8604126,0.7974243-2.1984863,2.406189-2.1821289c1.5527649,0.015625,2.4739075,0.2196655,2.4296875,2.1408081
		C385.6990967,635.6431274,385.0374146,636.2936401,383.3530884,636.0360718z"/>
	<path class="st14" d="M172.6398773,636.0411987c-1.535614,0.2114258-2.4731293-0.1155396-2.4502106-2.010437
		c0.0194397-1.6098633,0.3462067-2.4142456,2.1625214-2.3083496c1.424469,0.0830078,2.5632172,0.0200806,2.4666443,2.0128174
		C174.743927,635.2809448,174.5077667,636.3502808,172.6398773,636.0411987z"/>
</g>
</svg>
