<svg xmlns="http://www.w3.org/2000/svg" viewBox="0 0 800 396.7"><defs><style>.cls-1{fill:#0074c5;}.cls-2{fill:#2c2728;}</style></defs><g id="Layer_2" data-name="Layer 2"><g id="Layer_1-2" data-name="Layer 1"><g id="neEF6l.tif"><path class="cls-1" d="M800,0V166.56H385.09V0ZM517.58,16.05c-6.26,30.66-12.47,61.11-18.69,91.56l-.95,0Q484.31,61.81,470.7,16.07H425.23c-9.61,44.74-19.16,89.25-28.79,134.11h34.27c6.19-30.59,12.35-60.95,18.5-91.32l1,0L478,150.17h45.28c9.53-44.71,19-89.21,28.57-134.12Zm98.68,134.09h36.37c9.34-44.69,18.62-89.12,28-134H644.25q-5.32,25.51-10.59,50.71H591.12c3.16-17.13,7.16-33.7,10.2-50.78H565.08q-14,67.13-28,133.88c6.73.95,32.94.71,36.44-.29,3.94-18.79,7.9-37.66,11.83-56.37,7.52-.89,39-.59,42.55.43C624.07,112.41,620.19,131.14,616.26,150.14Zm48.63-5a8.31,8.31,0,0,0,1.22,1,7.56,7.56,0,0,0,1.34.46c17.69,5.14,35.67,7.56,54.09,5.43,9.41-1.08,18.6-3.11,27.2-7.31,16.61-8.12,24.37-21.66,24.13-39.88-.15-11.83-5.15-21.29-15.22-27.7a102.24,102.24,0,0,0-12.09-6.35c-4.42-2-9.06-3.6-13.48-5.65A36.28,36.28,0,0,1,724,60.42c-5.71-4.79-4.95-13,1.56-16.62A25,25,0,0,1,734,41c13.3-1.92,26.36-.93,39,3.95a29.53,29.53,0,0,0,3.28.82c2.88-8.91,5.67-17.51,8.63-26.68-3.86-1.11-7.1-2.27-10.43-3a147.36,147.36,0,0,0-39-2.55,81.66,81.66,0,0,0-24.85,5.11C691.78,26,682.43,40.07,683,60.26c.26,9.27,4,16.84,11.47,22.2a86.29,86.29,0,0,0,13.12,7.35c4.68,2.23,9.66,3.81,14.38,6a40.93,40.93,0,0,1,8.56,4.9c7.06,5.56,6.59,15.52-1,20.32a30,30,0,0,1-9.58,3.74,70.28,70.28,0,0,1-30-.5c-5.61-1.25-11.06-3.25-16.77-5-.4,1.06-.89,2.2-1.26,3.38C669.53,130.12,667.23,137.61,664.89,145.17Z"/><path class="cls-2" d="M13.77,255.65c.63-4.48.9-9.24,2-13.78,4-16.4,16.36-26.81,33.28-28a61.31,61.31,0,0,1,15,.73c13.87,2.5,23.26,10.67,27.83,24a52.57,52.57,0,0,1,.11,34.3c-5.16,15.57-16.4,23.89-32.47,25.35a55,55,0,0,1-17.31-1.18C27.42,293.61,18.9,283.53,15.55,269,14.57,264.73,14.37,260.29,13.77,255.65Zm17.41.35a39.69,39.69,0,0,0,4.41,19.07c7.55,14.26,30.06,14.41,37.37.2,6.35-12.34,6.61-25.09.32-37.56C69.41,230,62.76,226.4,54.06,226.49c-8.54.09-14.69,4-18.73,11.34A36.5,36.5,0,0,0,31.18,256Z"/><path class="cls-2" d="M442.71,215.05h16v33c11.23.43,21.85.16,33.15.19.53-5.67.21-11.11.27-16.54s0-10.91,0-16.63h15.49c.91,3.48,1.18,75.62.28,81.78H492.18V262c-3.78-1.23-27.65-1.44-33.29-.31v35.23H442.71Z"/><path class="cls-2" d="M376.1,243.22V209.06c5.18-.39,10.12-.18,15.38-.14v87.4c-3.31,1.08-9.1,1.24-14.6.35-.24-1.56-.48-3.21-.75-5-.52.17-1.05.19-1.33.46-6,5.94-13.47,7.19-21.42,6.19-7.7-1-13.65-5-16.92-12.07-5.84-12.66-6.11-25.7-.27-38.33,6.2-13.44,24.78-17.14,36.24-7.74ZM348,266.32c.6,5.12,1.34,9.92,3.9,14.22a11.82,11.82,0,0,0,19.83,1.22c5.85-7.47,5.75-22.38-.2-29.69s-16.27-6.23-20.15,2.15C349.62,258,349.06,262.27,348,266.32Z"/><path class="cls-2" d="M791.64,297H776.78c-.1-1.89-.25-3.55-.25-5.22,0-9.12,0-18.24,0-27.35a65.21,65.21,0,0,0-.52-7.52c-.55-4.31-2.22-8.08-6.86-9.15-4.94-1.14-9.42,0-12.65,4.24-3.09,4-4.18,8.8-4.28,13.73-.17,8.48-.09,17-.11,25.46,0,1.72,0,3.44,0,5.72-5.15.63-10.07.22-14.88.26-1-4-1.17-83-.22-88h15V244.3c1.73-1.45,2.64-2.17,3.5-3,6.48-5.92,14.14-7.29,22.41-5.34s12,8,13.66,15.77a23.73,23.73,0,0,1,.46,4.68q0,19.11,0,38.21A18.79,18.79,0,0,1,791.64,297Z"/><path class="cls-2" d="M247.64,298.5c-19,0-31.66-12.87-31.31-31.85.22-12,4.61-22,15.68-27.59,11.64-5.92,23.48-5.48,34.59,1.53,8.47,5.35,12.33,13.74,12.93,23.46a42.48,42.48,0,0,1-1.23,13.05c-3.2,12.39-13.85,20.62-26.88,21.39C250.16,298.56,248.9,298.5,247.64,298.5Zm16.2-32.18-.41-.15c-.21-2-.25-4.09-.66-6.08-1.58-7.72-7.07-12.53-14.28-12.69-7.49-.17-12.92,4.06-15,11.76A28.49,28.49,0,0,0,235,278.08c2.38,5.61,6.79,8.42,13,8.4s10.76-2.67,13-8.37C262.39,274.37,262.91,270.26,263.84,266.32Z"/><path class="cls-2" d="M579.2,271.72H538.09c-.33,7.17,3.86,12.69,10.65,14.66,5.34,1.55,10.62,1,15.79-.7,3.25-1.07,6.4-2.45,10.27-3.95,0,3.75.15,7.14-.1,10.5a3.84,3.84,0,0,1-2.09,2.67c-3.22,1.21-6.52,2.65-9.88,2.92-5.59.44-11.37.78-16.86-.13-13-2.15-20.6-10.1-22.78-23.06a42.29,42.29,0,0,1,1.5-21c4-11.65,12.9-18.17,25.21-18.35a42.73,42.73,0,0,1,7.07.32c9.5,1.45,16.17,6.56,19.53,15.68A50.24,50.24,0,0,1,579.2,271.72ZM564,260.67c.12-9-5.27-14.53-13.52-14.05-7.71.45-13.24,6.77-12.22,14.05Z"/><path class="cls-2" d="M642.5,297H629.25c-.36-2.4-.72-4.79-1.15-7.73-1.11,1.05-2,1.82-2.79,2.65a23.68,23.68,0,0,1-30.67,2c-9.88-7.66-8.47-23.69,2.68-29.93,4.77-2.67,10-3.59,15.42-3.93,3.3-.2,6.61-.16,9.91-.21,1.53,0,3.05,0,4.52,0,.7-7.91-2.48-12.12-9.55-13.06a29,29,0,0,0-16.94,3c-1.53.75-3,1.59-5.28,2.78-.24-4.14-.57-7.79-.55-11.44,0-.76,1.13-1.88,2-2.21,10.41-4,21.06-5.23,31.87-1.9,8.27,2.55,11.75,9,12.76,17a88.91,88.91,0,0,1,.32,9q.36,14.38.71,28.78C642.54,293.39,642.5,294.94,642.5,297ZM627.24,269.2c-5.88,0-11.5-.53-17,1.35-5.07,1.74-7.9,5.88-7.14,10.26.7,4,4.24,6.3,9.68,6.43C622.46,287.49,628.6,278.66,627.24,269.2Z"/><path class="cls-2" d="M162.33,236.62l-18,28.83,20,31.1a23.41,23.41,0,0,1-3.38.62c-3.46.07-6.94-.14-10.39.08-3.18.2-5.22-.74-6.78-3.72-2.64-5-5.74-9.76-8.68-14.61-.71-1.18-1.53-2.29-2.57-3.84-.95,1.31-1.7,2.23-2.32,3.24-3.2,5.23-6.47,10.43-9.49,15.77a5.52,5.52,0,0,1-5.69,3.16c-4-.19-8.12-.05-13.25-.05,3.5-6,7-10.9,10.24-15.95s6.72-10.26,10.35-15.79c-6-9.3-12-18.64-18.39-28.43a27.49,27.49,0,0,1,3.45-.52c3.46-.06,6.95.23,10.38-.1s5.13,1.11,6.66,3.89c2.89,5.21,6.1,10.24,9.6,16.06l11.85-19.74Z"/><path class="cls-2" d="M195.56,296.84H179.88V247.91H168.6V236.56h10.94c.16-1.74.32-2.95.36-4.16.06-1.89-.05-3.78.06-5.67.79-13.21,9-20.3,22.19-19.17,2.35.2,4.69.55,7,.89.41.07.78.45,1.49.88-.37,3.74-.76,7.57-1.18,11.68-1.68-.44-3-.84-4.34-1.13-5-1.08-8.46,1-9.17,6.15-.45,3.2-.08,6.52-.08,10.26H209V247.8h-13.3C195.48,264.41,195.76,280.51,195.56,296.84Z"/><path class="cls-2" d="M695.65,248.13l-11.3-.51V236.57H695.5V224.51l15.82-5v16.72h13.12c1.26,3.85,1.34,6.34.39,11.61H711.78c-.18,1.78-.39,3-.4,4.2,0,7.71,0,15.42,0,23.13,0,.63,0,1.26,0,1.89.33,7.78,3.64,10.47,11.26,9.13.89-.16,1.75-.4,3.19-.73.24,4.05.45,7.73.68,11.55a31.59,31.59,0,0,1-17.54.89c-8.35-1.92-13-8.19-13.25-17.76-.23-8.81-.08-17.63-.1-26.44Z"/><path class="cls-2" d="M673.48,209v87.84c-5,.77-9.92.4-15.19.23V209C663.14,208.71,668.06,208.84,673.48,209Z"/><path class="cls-2" d="M308,296.91h-15.1V236.77h13.34v10.56l.86.46c4.45-8.18,10.11-14.17,20.68-12.07v14.94c-2.08-.15-3.94-.38-5.79-.41-5.9-.11-9.74,2.17-11.5,7.77a49.2,49.2,0,0,0-2.12,12.46c-.35,7.69-.14,15.4-.18,23.1C308.21,294.51,308.11,295.44,308,296.91Z"/><path class="cls-1" d="M34.48,379.68V341.27H44c1,3.26,1.25,48.6.21,54.11H31.56l-20.09-39.1-1,.27v38.74H.89c-1-3.21-1.28-47.85-.21-54.38h11c2.25,0,2.68,1.93,3.44,3.4,5.38,10.48,10.71,21,16.07,31.48.7,1.36,1.44,2.71,2.16,4.07Z"/><path class="cls-1" d="M57.94,341.07H68V362.6H90.12c.81-7-.18-14.19.59-21.43H101v54.17H90.48V371.76H68.37v23.51H58.24C57.16,392.2,56.81,347.77,57.94,341.07Z"/><path class="cls-1" d="M399.33,395.45h-9.22l-1-3.17a3.66,3.66,0,0,0-1.32.46,16.36,16.36,0,0,1-10.89,3.86c-7.56,0-13.21-4.06-15.5-11.46a32.52,32.52,0,0,1-.15-19.09c3.34-11.35,15.61-15.43,25.34-8.54l2.55,1.77c.06-4.2.13-7.72.15-11.25s0-7.17,0-11.06h10Zm-29-19.88c.92,3,1.38,6.22,2.83,8.9,2.77,5.13,9.43,5.43,13.06.93,4-4.93,3.92-15.08-.13-19.94-3.85-4.62-10.67-4.06-13.3,1.36C371.5,369.44,371.13,372.49,370.3,375.57Z"/><path class="cls-1" d="M113.41,394.26c.27-3,.52-5.88.78-8.88,3.75.93,6.88,2.15,10.08,2.39a17.6,17.6,0,0,0,8.2-1.28c5.06-2.25,5.35-7.72.78-10.82a39.49,39.49,0,0,0-5.91-2.9c-1.86-.85-3.8-1.53-5.63-2.43-7.33-3.61-9.89-8.24-9.12-16.36.64-6.68,4.92-11.6,12.22-13.23a36.08,36.08,0,0,1,19.74,1.18c-.37,2.91-.7,5.51-1.07,8.4a38.75,38.75,0,0,0-5.23-1.25,40.35,40.35,0,0,0-8.42-.31,6.71,6.71,0,0,0-6,5.86c-.45,3.06.58,5,3.91,6.78,1.66.89,3.45,1.53,5.18,2.28,2.16.94,4.38,1.78,6.47,2.85,6.37,3.25,8.88,8.57,8.19,15.58-.66,6.73-4.42,10.91-10.69,12.95C129.16,397.6,121.48,396.86,113.41,394.26Z"/><path class="cls-1" d="M215.68,375.46c.06-12.57,8.56-21.1,21-21.12,12.68,0,21.3,8.66,21.26,21.41,0,12.37-8.79,20.94-21.31,20.87S215.62,388,215.68,375.46Zm31.56.07a42.67,42.67,0,0,0-1-5.86c-1.48-4.83-5-7.36-9.77-7.25a9.56,9.56,0,0,0-9.37,7.79,20,20,0,0,0,.7,12c1.69,4.24,4.64,6.24,9,6.21a8.8,8.8,0,0,0,8.92-6.33A52.19,52.19,0,0,0,247.24,375.53Z"/><path class="cls-1" d="M546.49,375.68c0,12.55-8.48,21-21.09,20.93s-21-8.52-21-21.08,8.37-21.13,20.88-21.18C538.11,354.31,546.51,362.76,546.49,375.68ZM536,375.1c-.31-1.75-.46-3.32-.87-4.82-1.42-5.17-4.9-7.93-9.79-7.87-4.66,0-8,2.77-9.5,7.67a18.59,18.59,0,0,0,.63,12c1.54,4.28,4.57,6.34,8.9,6.36a9,9,0,0,0,9.22-6.61A60.42,60.42,0,0,0,536,375.1Z"/><path class="cls-1" d="M592,395.45H582c-.1-1.68-.26-3.21-.27-4.74,0-5.5,0-11,0-16.5a50.64,50.64,0,0,0-.32-5.64c-.33-2.63-1.4-4.94-4.14-5.76-3.06-.92-6.14-.58-8.18,2a15.2,15.2,0,0,0-3,6.26,57.51,57.51,0,0,0-.64,9.84c-.1,4.69,0,9.38,0,14.74h-9.56c-1.05-3.64-1.37-31.48-.51-40h9.3c.19,1.1.38,2.29.6,3.63.48-.11,1-.07,1.26-.31a16.25,16.25,0,0,1,12.91-4.59c6.3.32,10.63,3.83,12.06,10a16.91,16.91,0,0,1,.56,3.72C592.06,377,592,385.93,592,395.45Z"/><path class="cls-1" d="M719,355.5h10v39.89h-9.27c-.26-1.31-.53-2.6-.88-4.33a18.79,18.79,0,0,1-2.9,2.06c-2.69,1.2-5.37,2.77-8.21,3.27-7.59,1.36-13.68-3.16-15.06-10.77a34.13,34.13,0,0,1-.5-5.62c-.06-6.76,0-13.52,0-20.28,0-1.37.18-2.75.28-4.22h10.11c0,2.11,0,4,0,5.82.07,6.6,0,13.21.29,19.79.2,4.48,2.11,6.73,5.36,7.27a7.57,7.57,0,0,0,8.75-4.85,34.75,34.75,0,0,0,1.92-10.07C719.23,367.67,719,361.85,719,355.5Z"/><path class="cls-1" d="M413,365.77c-.21-3.18-.38-5.64-.56-8.31,7.69-3.37,15.31-4.27,23.12-1.76a11,11,0,0,1,7.47,8.47,35.78,35.78,0,0,1,.9,7c.2,7.23.24,14.46.33,21.7a25.12,25.12,0,0,1-.23,2.53H435.7l-1.24-4.62-2.54,2.1c-5.15,4.18-10.79,4.8-16.78,2.14-4.19-1.87-6.71-5-6.93-9.81-.24-5.17,1.49-9.26,6.18-11.78,4.29-2.3,9-2.58,13.74-2.74,2-.07,4,0,6,0-.34-6.47-2.38-8.53-8-8.83C421.58,361.6,417.55,363.3,413,365.77Zm21,11.35a22.33,22.33,0,0,0-4.08-.21,41.35,41.35,0,0,0-8.26,1.51,5.7,5.7,0,0,0-3.64,6c.34,2.48,2.2,4,5.35,4.47C429.85,389.81,434.31,385,434,377.12Z"/><path class="cls-1" d="M324.62,395.4h-9.74V355.54H324c.19,1.2.37,2.41.61,3.9a5.89,5.89,0,0,0,1.65-.77c3.66-3.53,8.1-4.61,13-4.27,5.52.37,9.52,3.36,11.21,8.56a15.7,15.7,0,0,1,.94,4.6c.09,9.1.05,18.21.05,27.72h-9.8a25.82,25.82,0,0,1-.42-3.33c0-6,0-11.95,0-17.92a39.08,39.08,0,0,0-.46-5.62c-.45-2.79-1.63-5.15-4.73-5.77-3.36-.68-6.61,0-8.26,3.05a22.61,22.61,0,0,0-2.65,8.84c-.43,5.63-.14,11.31-.19,17C324.89,392.71,324.73,393.93,324.62,395.4Z"/><path class="cls-1" d="M266.68,355.43h9.73c.13,1.26.36,2.45.37,3.65,0,6.14,0,12.27,0,18.41a30.86,30.86,0,0,0,.26,4.71c.45,2.77,1.62,5.13,4.57,6a7.84,7.84,0,0,0,8.44-2.82c2.25-2.85,2.89-6.26,3-9.76.12-5,.05-10.07.07-15.1v-5h9.92v39.73H294.1c-.33-1.17-.69-2.49-1.14-4.08a23.07,23.07,0,0,1-2.81,1.89c-2.39,1.13-4.75,2.55-7.29,3.11-8.34,1.84-15.55-3.07-16.05-11.57C266.24,375.12,266.68,365.52,266.68,355.43Z"/><path class="cls-1" d="M209.86,341.19v8.2H191.07v13.48h17.78v8.49h-18v24H180.65c-1-3.12-1.28-48.1-.24-54.13Z"/><path class="cls-1" d="M646.89,395.46H636.32c-.67-15.14.09-30.3-.43-46H620.46v-7.81c3.42-1,34.2-1.32,41.66-.41v8.1H646.89Z"/><path class="cls-1" d="M457.61,363l-7.14-.48v-7l7.09-.51c.2-2.47.39-4.9.62-7.8l9.78-3.39c.22,3.85.42,7.32.65,11.12l8.65.59v7.08h-8.21a19.63,19.63,0,0,0-.69,3.44c-.07,5-.12,10,0,15.07.13,6.39,1.48,7.53,8,7.13a11.16,11.16,0,0,1,1.58.15v7.28a55,55,0,0,1-5.52.89c-9.19.56-14.26-4.05-14.48-13.21-.13-5.18,0-10.36-.05-15.54C457.89,366.29,457.72,364.77,457.61,363Z"/><path class="cls-1" d="M738,395.27c.34-3.36.58-5.77.83-8.31a68.91,68.91,0,0,0,8.17,1.83A12,12,0,0,0,753,388a6.57,6.57,0,0,0,2.91-3.82c.57-1.85-.8-3.37-2.48-4.08-2.45-1-5-1.73-7.54-2.64-6.48-2.37-9-6.52-7.83-13.12.79-4.72,3.89-7.44,8.16-8.87,6-2,12-1.34,18.47.36-.13,2.38-.26,4.64-.41,7.38a29.55,29.55,0,0,0-5.37-1.09c-2.61,0-5.43-.18-7.8.69-3.3,1.22-3.29,4.71-.27,6.51a21.12,21.12,0,0,0,3.49,1.38c1.91.71,3.86,1.33,5.74,2.11a10.48,10.48,0,0,1,6.89,9.82c.22,4.72-1.44,8.88-5.79,11a26.06,26.06,0,0,1-9.83,2.74C747.14,396.65,742.93,395.76,738,395.27Z"/><path class="cls-1" d="M771.35,355.46l7-.45c.17-2.51.34-4.94.54-7.88l10.07-3.3V355l9,.48v7.09l-8.81.54c0,7.08-.21,13.94.1,20.79.14,3.3,2.11,4.58,5.42,4.59,1.22,0,2.45-.12,4-.21.16,2.36.3,4.51.47,7-5,2-9.89,2.07-14.61-.28-4.26-2.12-5.75-6.08-5.87-10.55-.15-5.5,0-11-.09-16.5,0-1.53-.15-3.06-.25-4.8l-7.1-.54Z"/><path class="cls-1" d="M672.15,395.41H662V355.57c1.1-.13,2-.29,2.91-.31,1.86-.05,3.72,0,5.82,0,.17,2.35.32,4.3.38,5.22,1.64-1.25,3.68-2.88,5.81-4.39a9.34,9.34,0,0,1,8-1.36v9.67H682.5c-5.73-.13-8.63,1.91-9.54,7.49a95.43,95.43,0,0,0-.79,12.21C672.05,387.79,672.15,391.5,672.15,395.41Z"/><path class="cls-1" d="M485.64,355.41h9.22c1.08,3.59,1.23,35.08.19,40h-9.41Z"/><path class="cls-1" d="M495.29,347.51h-9.55V338h9.55Z"/></g></g></g></svg>