<?xml version="1.0" encoding="utf-8"?>
<!-- Generator: Adobe Illustrator 25.0.1, SVG Export Plug-In . SVG Version: 6.00 Build 0)  -->
<svg version="1.1" id="Layer_1" xmlns="http://www.w3.org/2000/svg" xmlns:xlink="http://www.w3.org/1999/xlink" x="0px" y="0px"
	 viewBox="0 0 800 800" style="enable-background:new 0 0 800 800;" xml:space="preserve">
<style type="text/css">
	.st0{fill:#076C37;}
	.st1{fill:#00BED2;}
	.st2{fill:#99CA43;}
</style>
<g>
	<g>
		<path class="st0" d="M702.5078125,238.9089508c-4.3195801-3.026825-8.6390991-6.0532684-12.9586792-9.0801086
			C621.2271118,263.70047,587.204834,332.4148865,551.2924805,405.0169373
			c-40.8569031,82.5991821-83.10495,168.0105896-180.0028076,200.7270813
			c-3.2100525,1.0837402-6.5529785,1.6332397-9.9352417,1.6332397c-9.7592163,0-19.0638123-4.6674805-24.8895874-12.4857178
			L215.0616302,431.9578552c-3.6733704,5.223877-3.9970245,12.5481262,0.2233429,18.2120667
			c47.1217651,63.2418213,94.2435303,126.4836426,141.3656921,189.7254639
			c2.9870605,4.0087891,7.64505,6.2446289,12.4563293,6.2446289c1.6610413,0,3.3406372-0.2664795,4.9759216-0.8186035
			c175.9728088-59.4157104,161.6279602-308.3384399,325.7720642-379.5323181
			C710.9383545,260.9819641,712.4014282,245.8415833,702.5078125,238.9089508z"/>
		<path class="st1" d="M223.7370758,417.6498718c1.6141052,2.1664124,3.2282104,4.3329773,4.8423157,6.4993896
			c40.1062469,53.8261414,80.2124786,107.6520691,120.3187103,161.478241
			c2.9870911,4.008728,7.64505,6.2446289,12.4563293,6.2446289c1.6610413,0,3.3406372-0.2664795,4.9759521-0.8186035
			c169.7060547-57.2998657,162.4327393-290.8253784,308.9219971-371.2424316
			c2.5358276-1.3920898,5.1140747-2.7417908,7.7438354-4.0401917c2.6531982-1.3103333,5.3491821-2.5778809,8.1019287-3.7895966
			c0.3388062-0.1491394,0.6640015-0.3122864,1.0042725-0.4601135c11.083374-4.8071136,12.5464478-19.9475098,2.652832-26.8801422
			c-4.319519-3.026825-8.6390991-6.0532684-12.9586182-9.0801086c-8.2049561,4.0678253-15.9343872,8.6184845-23.2119141,13.6381531
			c-2.258728,1.5578918-4.4690552,3.1663208-6.6464233,4.8090057c-2.1584473,1.6288605-4.2711182,3.3056183-6.3530884,5.0145569
			c-39.8651123,32.7193451-66.0935669,79.8558807-91.4805298,130.4678192
			c-3.5261841,7.029541-7.036377,14.1253052-10.5647583,21.2585754c-0.1567383,0.3168335-0.314209,0.6344299-0.4709473,0.9512634
			c-23.3731079,47.2514343-47.2905884,95.3312988-81.6698303,133.8996887
			c-5.6709595,6.3617859-11.6311035,12.4605103-17.9172058,18.2567444
			c-5.5603943,5.1275635-11.3645935,10.0287476-17.4727783,14.6450806
			c-5.2163086,3.9428711-10.6635437,7.6688843-16.3212585,11.1950073c-2.5812683,1.6088257-5.2125244,3.1699219-7.8914795,4.6859741
			c-2.2788086,1.2894897-4.5905762,2.5476074-6.9428406,3.7676392c-9.7800293,5.072876-20.1714172,9.5627441-31.3164673,13.3256836
			c-3.2100525,1.0837402-6.552948,1.6331787-9.9352417,1.6331787c-9.7592163,0-19.0637817-4.6674194-24.8895569-12.4856567
			l-89.8872681-120.6368408l-4.7435303-6.3659668l-4.7753143-6.4093018l-21.9971161-29.5216064
			c-3.6733856,5.2239075-3.9970398,12.5481262,0.2233276,18.2120667c3.7861938,5.0811768,7.5723724,10.1625671,11.3581848,15.243927
			C220.5058289,413.3138428,222.12146,415.481781,223.7370758,417.6498718z"/>
		<path class="st2" d="M215.9845276,363.3819885c1.6141052,2.1663818,3.2282104,4.3329773,4.8423157,6.4993896
			c7.595459,10.1933899,15.190918,20.3871765,22.7860107,30.5805664c1.5656433,2.1012878,3.1313019,4.2025757,4.6969452,6.3036804
			c1.5535431,2.0852051,3.1070862,4.1702271,4.6606293,6.255249c29.391571,39.4464111,58.7831421,78.8924866,88.1751099,118.3387451
			c2.9870911,4.008728,7.64505,6.2446289,12.4563293,6.2446289c1.6610413,0,3.3406372-0.2665405,4.9759521-0.8186035
			c9.2345581-3.1178589,17.9164124-6.7863159,26.1557922-10.8950195c2.3787537-1.1862183,4.7204285-2.4092407,7.0215759-3.6723022
			c2.6399841-1.4486694,5.2276917-2.9487915,7.7695923-4.4949951c2.2391052-1.3619995,4.4425964-2.7597656,6.6082458-4.194397
			c14.1162415-9.3513489,26.7198181-20.2081604,38.1502991-32.2333374c1.696228-1.7848206,3.3656006-3.5967102,5.0122681-5.4311218
			c30.816803-34.3327026,53.1190186-77.1438293,74.7258911-120.6472778c1.1549072-2.3251953,2.309082-4.6511536,3.4609985-6.9790039
			c1.1863403-2.3971252,2.3731079-4.7938843,3.5594482-7.1911926c2.5612183-5.1767578,5.1269531-10.3489685,7.7059937-15.5077515
			c1.7526245-3.5053101,3.5101929-7.0053101,5.2814331-10.4920654c1.3294067-2.6172485,2.6652832-5.2286377,4.0091553-7.8316956
			c22.8988037-44.3511963,48.1786499-86.3312225,84.4415283-117.3755188
			c2.0339355-1.740921,4.1037598-3.4454956,6.2081299-5.1160126c2.1190796-1.6818542,4.276001-3.3255005,6.4696655-4.9331665
			c7.0374756-5.157074,14.4667358-9.9244385,22.34198-14.2475891c2.5358276-1.3920898,5.1140747-2.7417908,7.7438354-4.0401917
			c2.6531982-1.3103333,5.3491821-2.5778809,8.1019287-3.7895966c0.3388062-0.1491394,0.6640015-0.3122864,1.0042725-0.4601135
			c11.083374-4.8071136,12.5464478-19.9475098,2.652832-26.8801422
			C633.9238281,93.1803818,580.8445435,55.9874115,527.7652588,18.7942562
			c-2.6331177-1.8450184-5.7523193-2.8209019-8.9093628-2.8209019c-1.2567749,0-2.5188599,0.1546345-3.7593384,0.4705296
			c-162.0185852,41.2691193-155.5803223,250.2779541-307.8552246,301.249115
			c-9.9848175,3.3421631-13.7524567,15.4981079-7.4614563,23.9411316
			c3.7861786,5.0811768,7.5723724,10.1625366,11.3581696,15.243927
			C212.7532806,359.0459595,214.3688965,361.2138672,215.9845276,363.3819885z M493.3197632,130.0917053
			c1.9665222,1.9269714,3.612793,4.0165405,4.9577637,6.2472839c5.8015442,9.621048,6.0090027,21.8634949,2.0975037,35.0371704
			c-0.944458,3.1089783-2.2788391,6.1980743-3.9319153,9.167923c-1.2582703,2.2602844-2.7062073,4.4471283-4.3047791,6.5241852
			c-1.586853,2.0619354-3.3213501,4.0153961-5.1841736,5.8096924c-7.0412598,6.7817841-15.8439026,11.3434143-24.8111877,11.3434143
			c-2.7955322,0-5.6054688-0.4429016-8.3847351-1.4000397c-0.9266663-0.3185425-1.8249512-0.6819458-2.7095947-1.0652161
			c-2.4454041-1.0591736-4.7321777-2.354538-6.8482361-3.8617096c-2.2224121-1.583252-4.258606-3.3942108-6.1002197-5.3948059
			c-2.0081482-2.1815338-3.7816467-4.5883179-5.3147278-7.1680908c-1.4070435-2.3677826-2.609314-4.8797913-3.59729-7.5004425
			c-1.0663757-2.827713-1.8908386-5.775238-2.4476624-8.8013153c-1.2904663-7.0123138-1.1844482-14.4234161,0.4610596-21.6147919
			c4.4073792-19.476593,18.9309387-29.5316315,35.2726135-29.5322037c4.3240967-0.0001907,8.7738647,0.7035217,13.1986694,2.1228714
			c4.0606079,1.3124084,7.6208191,2.9142075,10.7138977,4.7692566
			C489.0395813,126.3659058,491.3369446,128.1488342,493.3197632,130.0917053z M534.0184326,235.4163361
			c-0.6227417,1.0205383-1.2711792,1.9754181-1.9389038,2.8714294c-2.1429443,2.874649-4.5020142,5.1091919-6.9815063,6.712326
			c-3.0896606,1.9983215-6.3651733,3.0116882-9.6403198,3.0578613c-0.0783691,0.0011444-0.1563721,0.0090942-0.2346802,0.0090942
			c-0.5151978,0-1.0300293-0.0325623-1.5444946-0.0804443c-4.0889893-0.3811951-8.1239014-2.2672882-11.7374573-5.6508942
			c-0.5534363-0.5180359-1.0663452-1.0669098-1.5705872-1.6222382c-1.8961182-2.0869141-3.4549561-4.4166565-4.6587219-6.9148407
			c-0.6590271-1.3667297-1.1961975-2.7862701-1.6473999-4.234375c-0.6859436-2.2023621-1.1401978-4.474762-1.3449707-6.7793274
			c-0.4849243-5.4585876,0.3887634-11.0475922,2.6168518-16.0998077c0.6208191-1.408371,1.3249207-2.7837982,2.1577148-4.092041
			c1.1174316-1.7450867,2.2894287-3.2692871,3.4992371-4.6080017c2.007019-2.2197876,4.1238403-3.9025879,6.3027344-5.0868683
			c2.8103027-1.5278015,5.7201843-2.2424774,8.6202087-2.2426758c5.0974121-0.0003815,10.1600342,2.1942291,14.5932007,5.9762421
			c0.0412598,0.0348358,0.0839844,0.064743,0.1248779,0.1001282c1.8522339,1.5925293,3.4083862,3.6928711,4.6655273,6.1057129
			c1.1640625,2.2337799,2.052124,4.744278,2.6350708,7.4260559c0.9088745,4.180069,1.0663452,8.7418823,0.3512573,13.2499542
			c-0.4379272,2.7618408-1.2075195,5.489624-2.3336792,8.0939941
			C535.3890991,232.9109497,534.7652588,234.1923065,534.0184326,235.4163361z M316.7651062,345.6672974
			c-0.5439758-2.9764709-0.7245178-5.9932861-0.5394287-9.0585327c0.0780029-1.3165588,0.2229614-2.6163025,0.428894-3.9014282
			c1.3896484-8.6705322,5.6660461-16.6611938,12.5172729-24.4137573c2.7974243-3.1670837,5.8719788-5.9690552,9.1698303-8.4903259
			c2.1338501-1.6315308,4.3430176-3.1687927,6.6937561-4.5328674c2.4450378-1.4182129,4.8809509-2.6166687,7.3157349-3.6122437
			c3.523468-1.4407349,7.0446777-2.4434814,10.5874634-2.9638062c0.074585-0.0147705,0.144989-0.0202332,0.218811-0.0332947
			c0.586731-0.1043091,1.1537781-0.1650696,1.6928406-0.1650696c1.0118408,0,1.940033,0.1838074,2.7849426,0.5530701
			c1.3540344,0.5958252,2.688385,1.610321,4.0049744,3.0533142c1.9313049,2.1164246,3.1422729,4.5158386,3.6245422,7.2023621
			c0.4822693,2.6864929,0.0942688,4.9651489-1.1776428,6.81073c-0.7071228,1.0252686-1.5917664,1.8550415-2.6569824,2.4796448
			c-1.0640869,0.6296997-2.2213135,1.1534119-3.4685974,1.5713196c-4.8120422,1.1329956-9.0672302,2.5042725-12.7587891,4.1545105
			c-2.3935242,1.0701599-4.6522827,2.4016724-6.7505493,3.973938c-6.9413452,5.2015686-10.4353027,11.0602722-10.2161255,17.9505005
			c0.1533203,4.8446045,2.398468,9.8483582,6.8084717,15.0448303c0.6159058,0.7258301,1.2321777,1.4516907,1.8484192,2.1775513
			c1.6743164,1.9729614,3.3489685,3.9455566,5.0232849,5.9185181c1.2173767,1.4342957,2.4351501,2.8685913,3.6525574,4.302887
			c1.4619141,1.7223816,2.9234924,3.4445496,4.3854065,5.166748c3.4015808-3.5350342,6.6884766-7.1841736,9.8928528-10.9152832
			c1.5342102-1.7867126,3.0461121-3.5955811,4.5394897-5.4234009c0.8982544-1.1000366,1.8010864-2.1959229,2.6853638-3.309967
			c0.8414917-1.0606689,1.7848206-1.7772522,2.8099365-2.2261963c0.6847839-0.2998047,1.3994751-0.5011902,2.1682739-0.526947
			c0.0689087-0.0022583,0.1377869-0.0032043,0.2059326-0.0032043c1.8367004-0.0001831,3.4644165,0.7996521,4.8945618,2.4179382
			c1.4835205,1.6795959,2.2746582,3.6979675,2.3549194,6.0470276c0.0836487,2.3518982-0.5738831,4.4359436-1.9835815,6.2308044
			c-5.4449463,6.9286804-11.1556396,13.5925293-17.1949158,19.9295349
			c5.1894531,6.1136475,10.3785095,12.2271118,15.5679626,18.3407898c0.5341187,0.629303,1.0682373,1.2586365,1.6027527,1.88797
			c0.426239,0.5025024,0.8528442,1.0050354,1.2794495,1.5075378c2.6952515,3.1755981,5.3908386,6.3510132,8.0864563,9.5266113
			c0.186615,0.2201233,0.3735962,0.4402466,0.5602417,0.6601868c11.6560669-12.5332031,22.0894775-26.2837524,31.7415771-40.8126221
			c2.5184326-3.8026428,5.0202332-5.7258301,7.5485229-5.7258301c1.8484192,0,3.7108459,1.0277405,5.605072,3.099884
			c4.6443481,5.0827026,4.8869934,11.0894165,0.5049744,17.7985229
			c-15.1614075,23.101532-32.2673645,44.2669983-53.0005493,61.8207703
			c-0.5870972,0.497406-1.1666565,1.0027771-1.7598267,1.4942932c-1.6228333,1.3370361-3.2047424,2.2682495-4.7393799,2.8282776
			c-1.128418,0.4118652-2.2315063,0.6289673-3.3031616,0.6289673c-2.9355774,0-5.6452026-1.5308228-8.0572815-4.5209351
			c-3.0896606-3.8238525-3.4295959-7.4096069-1.2158813-10.9249268c0.9051208-1.4377136,2.2262268-2.8640747,3.9788818-4.2894592
			c1.7068481-1.397583,3.3894653-2.8195801,5.0482483-4.2648621c-1.1659241-1.4125366-2.3318176-2.8250732-3.4981079-4.2373962
			c-0.0832825-0.1012878-0.1669617-0.2025452-0.2502441-0.3036194c-1.0114441-1.2253418-2.0232849-2.4508667-3.0347595-3.6762085
			c-0.6477051-0.7849121-1.2957458-1.5698242-1.9434509-2.3547363c-1.0727844-1.2997131-2.1459656-2.5994263-3.21875-3.8989868
			c-1.3188477-1.5980225-2.6380615-3.1958313-3.9569092-4.7938538c-1.6564941-2.0066528-3.3129883-4.0137024-4.9695129-6.0203552
			c-1.9990845-2.4219055-3.9981689-4.8436279-5.9972534-7.2653503c-1.2071533,1.0262146-2.4287109,2.0380554-3.6612549,3.0391235
			c-1.3722229,1.114624-2.7584534,2.2154236-4.163208,3.2976685c-0.693512,0.5341187-1.4169006,0.9315796-2.1648865,1.2090759
			c-0.8108521,0.3005676-1.6512146,0.4582214-2.5222473,0.4582214c-0.4231873,0-0.8528442-0.0354004-1.2896729-0.1062012
			c-2.1652832-0.3453979-3.9777527-1.4259644-5.4241638-3.215332c-0.4693909-0.5802917-0.8183899-1.1793518-1.112915-1.7871094
			c-0.612854-1.2658386-0.8804932-2.5869446-0.7438354-3.9794312c0.006073-0.0635681,0.029541-0.1197815,0.0374756-0.1826477
			c0.2426453-1.9718018,1.2310181-3.6203613,2.9765015-4.9519043c1.1685486-0.8916626,2.2833557-1.8366699,3.4295959-2.7506714
			c1.4547424-1.1602478,2.9336853-2.296051,4.3528442-3.4913025c-0.992157-1.2020569-1.984314-2.4041138-2.9764709-3.6062012
			c-1.2117004-1.4677734-2.4234314-2.9357605-3.6347656-4.4033813c-1.7553101-2.1262817-3.5106201-4.2525635-5.2655334-6.3788147
			c-1.3547974-1.641571-2.7095947-3.2831116-4.0647888-4.924469c-3.0484009-3.6938171-5.4040833-7.4346008-7.1135864-11.2344055
			C318.2463379,351.6422119,317.3147583,348.6757812,316.7651062,345.6672974z M571.5403442,101.1805038
			c1.951355,7.8386765-1.53125,15.3680801-8.1489258,21.3157501c-1.9551392,1.7570038-4.1802368,3.3771667-6.6248779,4.8247147
			c-2.4775391,1.4668579-5.1773071,2.7546539-8.0357056,3.8353882c-1.3563232,0.5129395-2.7451782,0.983078-4.1669922,1.397583
			c-3.9921265,1.1674347-7.8543701,1.7182159-11.5057983,1.7182159c-6.5495605,0-12.4151001-1.7814331-17.1555786-4.9439697
			c-2.4431152-1.6294327-4.584137-3.6258698-6.3625183-5.9421692c-1.5762634-2.0526505-2.8561096-4.359108-3.817627-6.8741531
			c-0.1567078-0.4103394-0.3236389-0.8142395-0.4629517-1.2357483c-5.8117676-17.857193,5.635376-29.2289963,24.7555847-32.0697708
			c1.9472046-0.2842865,3.9788208-0.4213181,6.0479736-0.4215088c5.96698-0.0001907,12.2572021,1.1517181,17.8823242,3.1896057
			c6.8641357,2.4866486,12.7167969,6.3046265,15.7417603,11.0301666
			C570.5356445,98.3308334,571.1784668,99.722168,571.5403442,101.1805038z"/>
	</g>
	<path class="st0" d="M797.9850464,721.1245117c0.0143433-0.4466553,0.0180664-0.8922119,0.0067749-1.3389282
		c-0.0029907-0.2657471,0.0166016-0.5261841,0.0037842-0.7940063c-0.0843506-1.7907104-0.4160767-3.5075073-0.9188232-5.149231
		c-0.0105591-0.0352173-0.0222168-0.0700684-0.0327759-0.1052246c-0.1600342-0.5131836-0.3328857-1.0194702-0.5305786-1.5150757
		c-1.1248169-2.9818115-2.8683472-5.7834473-5.2700806-8.1830444l-54.5334473-54.4934692
		c-9.0354004-9.029541-23.684021-9.029541-32.7194214,0c-9.0361938,9.0280762-9.0361938,23.6674194,0,32.6954956
		l16.0546875,16.0430908H101.2040787V79.3125916l16.6398926,16.6273117
		c4.5173416,4.5147781,10.43853,6.7717896,16.3597183,6.7717896c5.9212036,0,11.842392-2.2570114,16.359726-6.7717896
		c9.0361786-9.028801,9.0361786-23.6666489,0-32.6954498L96.0299988,8.7510395
		c-4.2047806-4.2022648-9.6266403-6.4225883-15.1317215-6.7134638c-0.1664505-0.0112889-0.3340225-0.016557-0.5012207-0.0240829
		c-0.4398346-0.0137347-0.8789139-0.0176858-1.3187485-0.006397c-0.235733,0.003763-0.4658127-0.0146755-0.7026825-0.0033867
		c-0.2462769,0.0116653-0.4835129,0.0517406-0.7275314,0.0716841c-0.137825,0.0120413-0.2752686,0.0261524-0.4130936,0.040828
		c-0.6126862,0.0620885-1.2167053,0.1476953-1.8120575,0.2611482c-0.1408386,0.0261524-0.2805481,0.0568204-0.4206314,0.0854187
		c-0.4763641,0.101223-0.9478302,0.2118535-1.4117661,0.3444972c-0.4710846,0.1277518-0.9361496,0.2778933-1.4000854,0.4359369
		c-0.0384064,0.0139227-0.0771942,0.0261524-0.1156082,0.0402634c-3.1985855,1.1093149-6.2096481,2.9143982-8.7642975,5.4675541
		L8.7771368,63.2444534c-9.0361824,9.028801-9.0361824,23.6666489,0,32.6954498
		c9.0346766,9.0295486,23.6847687,9.0295486,32.7194481,0l16.1563759-16.1441498v639.6333618
		c0,0.2106934,0.0241013,0.4164429,0.0301247,0.6260376c0,0.3474121-0.021843,0.6896362-0.0052719,1.0407104
		c0.2504196,5.3114014,2.4782104,10.0540161,5.9189339,13.6641235c0.1754799,0.1923828,0.36866,0.3673706,0.5509186,0.5533447
		c0.1860275,0.1821289,0.3611374,0.374939,0.5539398,0.5507202c3.6124344,3.4378662,8.3587341,5.6642456,13.6740189,5.9143677
		c0.3513412,0.0165405,0.6936493-0.005188,1.0415955-0.0050659c0.2093735,0.0058594,0.4153595,0.0299072,0.626236,0.0299072
		h640.6881714l-16.7411499,16.729126c-4.5181274,4.5139771-6.7767944,10.4308472-6.7767944,16.3477173
		c0,5.9168091,2.258667,11.8336792,6.7767944,16.3477173c9.0354004,9.029541,23.684021,9.029541,32.7194214,0l54.5334473-54.4934082
		c4.2510986-4.2474365,6.4758911-9.7377319,6.7270508-15.3005371
		C797.9768066,721.3309937,797.9801636,721.2277222,797.9850464,721.1245117z"/>
</g>
</svg>
