<?xml version="1.0" encoding="utf-8"?>
<!-- Generator: Adobe Illustrator 25.0.1, SVG Export Plug-In . SVG Version: 6.00 Build 0)  -->
<svg version="1.1" id="Layer_1" xmlns="http://www.w3.org/2000/svg" xmlns:xlink="http://www.w3.org/1999/xlink" x="0px" y="0px"
	 viewBox="0 0 800 638" style="enable-background:new 0 0 800 638;" xml:space="preserve">
<style type="text/css">
	.st0{fill:#076C37;}
	.st1{fill:#98C942;}
	.st2{fill:#00BDD1;}
</style>
<g>
	<g>
		<path class="st0" d="M281.1847534,336.2609253c-34.0114899-93.611908-64.5519257-117.8809509-64.5519257-117.8809509
			s-27.5579224-30.4770203-66.6343079-27.7374115c-39.5649109,2.7733307-47.5610275,8.0042114-47.5610275,8.0042114
			c-49.1966896,25.9155121-81.718277,89.258255-81.718277,89.258255s-32.1895943,56.0699768-12.145999,64.3913269
			c19.2608528,4.6802673,26.2893372-15.8626709,26.2893372-15.8626709
			c22.9046555-49.9254456,32.9089127-58.2980957,47.1129761-75.1486511
			c12.492836-14.8221588,21.6036835-11.9624634,21.6036835-11.9624634s4.5979385,0.0877228,5.4657059,15.5158386
			c1.4750595,13.695282-6.8935318,82.0435181-6.8935318,82.0435181s-0.5857086,5.09729-0.7557526,11.2863464l-0.0067444,0.0013428
			c0,0-2.3306885,26.4242859-6.2470932,45.2047119c0,0-9.5737457,33.2732849-13.085289,115.0253296
			c-1.9555054,82.5360718,3.5074921,90.7305908,4.8840408,98.1045532
			c2.4993744,5.958313,5.4157639,16.3498535,18.7034836,17.8356934c13.286377,1.4872437,19.3134918-19.692688,17.9639359-31.8427124
			c-1.9514542-17.559082-5.4629974-89.838562-1.9514542-115.1076355
			c3.512886-25.2690735,7.6938095-41.5906067,13.6574936-54.2373047
			c2.2011261-4.6708069,8.9785919-14.8370056,17.5631104-10.8733521
			c8.5845337,3.9636536,11.6088867,31.0289612,11.6088867,31.0289612s7.5777435,37.9873047,8.1931458,95.1112671
			c0.3886719,35.9953613-2.2362061,46.5164795,4.9758148,70.527771
			c7.0230865,21.3621216,22.5335236,13.4604492,22.5335236,13.4604492s9.1351471-0.2010498,11.3713531-25.7521973
			c2.0486298-23.4121094-2.8394623-82.0367432-3.6208496-119.6920776
			c-0.7800446-37.6566467,0.9311829-59.2184753-2.1903381-94.2326965
			c-3.121521-35.0128479-4.1431274-37.5162964-4.1431274-37.5162964h-0.0202484
			c-2.4170532-22.0463257-13.1932526-67.751709-11.687149-91.7616577
			c0.5222778-8.3119202,12.8518219-2.7746887,12.8518219-2.7746887
			c18.0475922,13.868042,47.5475311,78.4442444,47.5475311,78.4442444s11.4523315,23.4890137,25.3338623,18.6346741
			C289.5142212,352.903656,281.1847534,336.2609253,281.1847534,336.2609253z"/>
		<path class="st0" d="M148.8621979,172.2413635c19.8492584-3.2794189,32.8049927-24.8641968,29.993866-41.8429565
			c-3.2834625-19.830368-17.6481323-33.9696579-41.8834534-29.96418
			c-19.8479004,3.2794189-33.5148544,20.5861206-29.9952087,41.8416214
			C110.2608643,162.1062164,127.1141129,175.8352356,148.8621979,172.2413635z"/>
	</g>
	<g>
		<path class="st0" d="M522.1114502,289.6918335c0,0-32.5216064-63.3413849-81.7169495-89.258255
			c0,0-7.9961243-5.2295227-47.5610352-8.0028534c-39.076355-2.7396088-66.6342773,27.7360535-66.6342773,27.7360535
			s-30.5404358,24.270401-64.5519409,117.8809814c0,0-8.3294525,16.6427002,5.552063,21.4970398
			c13.8815308,4.8543701,25.3352051-18.6359863,25.3352051-18.6359863s29.499939-64.5748901,47.5462036-78.4429321
			c0,0,12.3308716-5.5372009,12.8518066,2.7733459c1.5074463,24.0112915-9.2687378,69.715332-11.685791,91.763031
			l-0.0216064-0.0013428c0,0-1.0202637,2.503418-4.1431274,37.5176392
			c-3.1201782,35.0128479-1.4089355,56.5760498-2.1903381,94.2313538
			c-0.7800293,37.655304-5.6694946,96.2813416-3.6208496,119.6920471
			c2.2375488,25.5524902,11.3713379,25.7536011,11.3713379,25.7536011s15.5118103,7.9016113,22.5348816-13.461853
			c7.2120361-24.0112915,4.5871277-34.5324097,4.9744568-70.527771c0.6154175-57.1239624,8.194519-95.1098938,8.194519-95.1098938
			s3.024353-27.0653381,11.6088562-31.0289917c8.5831909-3.963623,15.3606567,6.2012024,17.5631104,10.8733826
			c5.9623413,12.6466675,10.1446228,28.9668579,13.6561584,54.2359314c3.5129089,25.2690735,0,97.5498962-1.9501038,115.1089783
			c-1.3508911,12.1500244,4.6775513,33.3286133,17.9639282,31.8427734
			c13.286377-1.4859009,16.2041016-11.8787842,18.7021484-17.8370972
			c1.3778992-7.3726196,6.8408813-15.5671387,4.8840332-98.1032104
			c-3.5115356-81.7520447-13.0852966-115.0266724-13.0852966-115.0266724
			c-3.9150391-18.7803955-6.2470703-45.2047119-6.2470703-45.2047119h-0.0067444
			c-0.1687012-6.1903992-0.7557678-11.2863159-0.7557678-11.2863159s-8.3672485-68.3482361-6.8935242-82.0435181
			c0.8677673-15.4294739,5.467041-15.5158539,5.467041-15.5158539s9.1094971-2.8597107,21.6036987,11.9611053
			c14.204071,16.8505554,24.2069702,25.2232056,47.1129761,75.1499939c0,0,7.0271301,20.5429382,26.2893372,15.8613281
			C554.3010254,345.7631531,522.1114502,289.6918335,522.1114502,289.6918335z"/>
		<path class="st0" d="M393.9697876,174.028183c21.7481079,3.5938721,38.6013489-10.1351624,41.8848267-29.9641724
			c3.5196228-21.2568512-10.1473083-38.5635529-29.9952393-41.8429718
			c-24.2366638-4.0054779-38.6013184,10.1351624-41.8847961,29.9655304
			C361.1634521,149.165329,374.1205444,170.748764,393.9697876,174.028183z"/>
	</g>
	<g>
		<path class="st0" d="M795.5219116,338.04776c-34.0114746-93.6105804-64.5532837-117.8809814-64.5532837-117.8809814
			s-27.5579224-30.4756622-66.6342773-27.7360535c-39.5649414,2.7733307-47.5610352,8.0028534-47.5610352,8.0028534
			c-49.1953735,25.9168701-81.7169189,89.258255-81.7169189,89.258255s-32.1896362,56.0713196-12.1473999,64.3913269
			c19.262207,4.6816101,26.2893677-15.8613281,26.2893677-15.8613281
			c22.9060059-49.9267883,32.9088745-58.2994385,47.1129761-75.1499939
			c12.4942017-14.820816,21.6050415-11.9611053,21.6050415-11.9611053s4.5979004,0.08638,5.4656982,15.5158539
			c1.4750366,13.695282-6.8935547,82.0435181-6.8935547,82.0435181s-0.5856934,5.0959167-0.7557373,11.2863159h-0.0067749
			c0,0-2.3306274,26.4243164-6.2470703,45.2047119c0,0-9.5737305,33.2746277-13.0852661,115.0266724
			c-1.9555054,82.5360718,3.5075073,90.7305908,4.8840332,98.1032104
			c2.4993896,5.958313,5.4157715,16.3511963,18.7034912,17.8370972c13.286377,1.4858398,19.3134766-19.692749,17.9639282-31.8427734
			c-1.9514771-17.559082-5.4630127-89.8399048-1.9514771-115.1089783s7.6938477-41.5892639,13.656189-54.2359314
			c2.2024536-4.6721802,8.9799194-14.8370056,17.5644531-10.8733826
			c8.5845337,3.9636536,11.6074829,31.0289917,11.6074829,31.0289917s7.5791626,37.9859314,8.194519,95.1098938
			c0.3873291,35.9953613-2.2362061,46.5164795,4.9744873,70.527771c7.0244141,21.3634644,22.5348511,13.461853,22.5348511,13.461853
			s9.1351318-0.2011108,11.3713379-25.7536011c2.048645-23.4107056-2.8407593-82.0367432-3.6208496-119.6920471
			c-0.7800293-37.655304,0.9312134-59.2185059-2.1903076-94.2313538
			c-3.121521-35.0142212-4.1431274-37.5176392-4.1431274-37.5176392l-0.0216064,0.0013428
			c-2.4157104-22.047699-13.1918945-67.7517395-11.685791-91.763031c0.5222778-8.3105469,12.8518066-2.7733459,12.8518066-2.7733459
			c18.0462646,13.868042,47.5462036,78.4429321,47.5462036,78.4429321s11.4536743,23.4903564,25.3352051,18.6359863
			C803.8513794,354.6904602,795.5219116,338.04776,795.5219116,338.04776z"/>
		<path class="st0" d="M663.197998,174.028183c19.8505859-3.2794189,32.8063354-24.862854,29.9952393-41.8416138
			c-3.2835083-19.830368-17.6481323-33.9710083-41.8848267-29.9655304
			c-19.8465576,3.2794189-33.5134888,20.5861206-29.9938354,41.8429718
			C624.5966797,163.8930206,641.4512939,177.6220551,663.197998,174.028183z"/>
	</g>
	<g>
		<path class="st0" d="M259.0461426,168.3773956c0,10.3727875-9.8304749,21.9355316-21.957428,21.9355316
			c-13.2861328,0-21.9556732-9.8205414-21.9556732-21.9355316c0-12.9868774,9.8303528-21.9354858,21.9556732-21.9354858
			C251.8968964,146.4419098,259.0461426,156.2624512,259.0461426,168.3773956"/>
		<path class="st0" d="M510.5957947,72.5281601c-7.6871033,11.5680771-27.2175293,17.1911011-40.740448,8.2223358
			c-14.8170166-9.8256073-17.208252-27.1892166-8.2304993-40.6998329
			c9.6223755-14.4813576,27.2162476-17.1910973,40.740387-8.2223377
			C518.8781128,42.7799187,519.5734863,59.0187035,510.5957947,72.5281601"/>
		<path class="st1" d="M294.0398254,88.7559509c-11.0968323,16.6982422-39.2876434,24.8159637-58.8089294,11.8701401
			c-21.3885803-14.1858978-24.8406525-39.2502518-11.8819885-58.7502861
			c13.8924713-20.9045277,39.2893982-24.8159637,58.8089294-11.8701439
			C305.9950562,45.8140717,306.9985657,69.2541733,294.0398254,88.7559509"/>
		<path class="st2" d="M301.844574,116.8447571c11.8157043-4.1115646,28.8811951,2.4784241,33.6890564,16.2622681
			c5.2658386,15.1043701-2.4826355,28.8524933-16.2802429,33.6555634
			c-14.7902832,5.1479797-28.8811951-2.478363-33.6873169-16.262207
			C279.6956482,133.6680908,288.0468445,121.6478806,301.844574,116.8447571"/>
		<path class="st1" d="M520.1730957,188.312973c-14.7114258,5.8833008-36.6820374-1.4745178-43.5597229-18.6373901
			c-7.5349121-18.8056335,1.4760742-36.6467743,18.6560364-43.5162125
			c18.4169922-7.3646469,36.6832886,1.4745178,43.5595703,18.6373978
			C547.2261963,165.755188,537.3530273,181.4434967,520.1730957,188.312973"/>
		<path class="st2" d="M398.5514832,7.0265641c13.4362183,7.7496381,21.0665894,29.0937405,12.0070801,44.7699089
			c-9.9252014,17.1753349-29.1227112,21.0456581-44.8126526,11.9951859
			c-16.8222656-9.7008553-21.0685425-29.0936852-12.0090637-44.7698593
			C364.7996216-0.1190916,382.8596497-2.0238507,398.5514832,7.0265641"/>
		<path class="st2" d="M601.4352417,82.1477051c4.8811035,12.1846237-1.2235107,30.3820801-15.4664917,36.0767822
			c-15.6077271,6.2415314-30.4123535-1.2221985-36.114502-15.4509659
			c-6.1118164-15.2544861,1.2233276-30.3820801,15.4682007-36.0767822
			C582.715271,59.7404709,595.7348022,67.9189377,601.4352417,82.1477051"/>
	</g>
</g>
</svg>
