<?xml version="1.0" encoding="utf-8"?>
<!-- Generator: Adobe Illustrator 25.0.1, SVG Export Plug-In . SVG Version: 6.00 Build 0)  -->
<svg version="1.1" id="Layer_1" xmlns="http://www.w3.org/2000/svg" xmlns:xlink="http://www.w3.org/1999/xlink" x="0px" y="0px"
	 viewBox="0 0 800 450" style="enable-background:new 0 0 800 450;" xml:space="preserve">
<style type="text/css">
	.st0{fill:#076C37;}
	.st1{fill:#99CA43;}
	.st2{fill:#00BED2;}
</style>
<g>
	<g>
		<g>
			<path class="st0" d="M653.2144775,325.1563416c-1.855835-6.4544678-6.4903564-16.9273682-18.010437-30.7110596
				c0,0-15.1392212-11.0987244-41.1256104-18.2520447c-0.3458862,1.2669373-0.7033081,2.5314636-1.0783691,3.7910156
				c-0.375061,1.2598267-0.7677612,2.5149536-1.1853027,3.7638855c-0.793396,2.3841553-1.6505127,4.7518005-2.571228,7.1038513
				v0.0002747c1.3134766,1.6340332,2.3759155,3.4878235,3.0930176,5.5455322
				c4.1660767,11.9613953-1.9639893,22.8485718-12.8794556,26.6522217
				c-11.7009277,4.0765076-22.8485107-1.9628296-26.651001-12.8782654
				c-4.4672241-12.821991,1.4884644-22.1022644,11.663208-26.1772766c0.289917-2.305481,0.6340332-4.5974121,1.0308838-6.8757935
				c0.3479614-2.0137939,0.7533569-4.0131531,1.192688-6.0036621c-5.2730103-0.5247498-10.7840576-0.8332214-16.5449829-0.8332214
				c0,0-8.4906006,3.5718079-40.5566711-6.4898071c-1.5052795,2.0002441-3.0473633,3.9736633-4.6383667,5.9117432
				c-0.3435364,0.4186707-0.6747131,0.8467712-1.0252991,1.2610168c-0.51828,0.6145935-1.0597839,1.2120972-1.5936584,1.8149109
				c-0.46875,0.5297546-0.9289856,1.0653992-1.3995056,1.5939636c0.1614685,0.3779907,0.3373718,0.7468872,0.4743652,1.1399231
				c4.1657715,11.9613647-1.9640198,22.8485413-12.8797607,26.6525269
				c-11.7009277,4.0764771-22.8485413-1.9628296-26.6507568-12.8785706
				c-4.6442566-13.3296509,1.9625244-22.8485718,12.8782959-26.6522522c1.0135193-0.353241,2.0827332-0.5877686,3.1760864-0.7451172
				c0.8226318-1.4737244,1.7000122-2.9074097,2.5618286-4.3528442c0.5067444-0.8506165,0.9828796-1.7236023,1.5073242-2.5615234
				c0.0736389-0.1184387,0.1520081-0.2333527,0.2297974-0.3491364c0.1172791-0.1759033,0.2351074-0.3515015,0.3488464-0.5303345
				c-10.6603088-4.230011-22.9098511-9.497406-36.9572144-16.0408325c-3.7258911,2.868515-7.4841919,5.6949005-11.3638611,8.3668976
				c-2.6080627,1.8001862-5.2626953,3.541153-7.9473572,5.2435303c0.4463501,9.2590332-5.267395,17.0667419-14.1646423,20.1671143
				c-11.7009277,4.0768127-22.8488464-1.9625244-26.6510315-12.8782654
				c-4.6439819-13.3296509,1.9628296-22.8488464,12.8782654-26.6525269
				c3.5019836-1.2197571,7.5861206-1.249527,11.5259399-0.2365875c2.5214233-2.4062347,5.0758667-4.7697601,7.6898193-7.0566864
				c0.0665894-0.0589142,0.1349487-0.1151886,0.2036133-0.1717682c0.0683289-0.0565643,0.1366882-0.1134338,0.2035828-0.1717682
				c-4.1560669-2.0853882-8.4217224-4.2520905-12.8317261-6.5266418
				c-8.2408142-4.2503357-15.9347839-8.9508514-23.1337585-14.0084686
				c-2.0570984,0.8756409-4.1201172,1.7377167-6.1919556,2.5780029c-2.0724182,0.8408813-4.1539917,1.6599426-6.2485046,2.4495544
				c-1.4295349,0.5403595-2.8761902,1.0412292-4.3139648,1.5621338c-4.313385,1.5633087-8.653595,3.0662079-13.0597839,4.4176788
				c-1.4908142,6.8878632-6.5649414,12.4339752-13.7197266,14.9271393
				c-11.7012329,4.0764923-22.8488464-1.9628296-26.651062-12.8782806
				c-4.6439514-13.3296509,1.9625244-22.8485565,12.8782654-26.6522369
				c5.4541931-1.9000549,12.3120117-0.8968506,17.8433838,2.4224548c2.5750732-1.4955444,5.1725464-2.9395294,7.7888489-4.3413696
				c2.6163025-1.4018555,5.250885-2.7612762,7.9002075-4.0868225c-5.6303711-5.4158783-10.8453369-11.0704193-15.703186-16.8852386
				c-0.1982727-0.4460754-5.3734741-12.1543732-10.4587708-29.0080872l-1.6481628,0.2766571
				c-2.5656433,0.384491-5.1342163,0.751297-7.7069397,1.0889435c-2.9551392,0.3874359-5.9155884,0.7359924-8.8875122,1.0120544
				c-2.9801941,0.2799072-5.9706726,0.4920349-8.9670715,0.6646881c-2.111908,0.1293488-4.2279358,0.2333527-6.3504333,0.2937469
				c-1.7654419,6.3917084-6.6951904,11.4920502-13.4775696,13.8555603
				c-11.7009277,4.0771027-22.8485413-1.9625244-26.651062-12.8782654
				c-4.6439362-13.3296509,1.9628296-22.8485641,12.8782959-26.6522369
				c5.7276001-1.9949417,13.0067444-0.7960892,18.6665649,2.9333344c0.3518066-0.1078339,0.7044678-0.2091827,1.0565491-0.3152542
				c0.8267212-0.2498398,1.6534729-0.5011597,2.4819641-0.7412872c0.0070801-0.0020599,0.01474-0.0035324,0.0218201-0.0056
				c2.9480591-0.8435211,5.9090881-1.5965958,8.8771973-2.3069458c0.1375732-0.0327072,0.2737122-0.0742493,0.4112854-0.1069565
				l0.00354,0.0123749c2.0406189-0.4849625,4.0823975-0.9625549,6.1306763-1.3977203
				c0.288147-0.0612869,0.5756836-0.1272812,0.8638306-0.1873856c5.1707764-1.0877762,10.3753967-1.9516296,15.5894775-2.7530212
				c-5.7594299-30.7060471-5.7959595-66.4390717,17.1804504-86.3990707c0,0,11.2486877-8.6359005,0-18.6005821
				c-11.2489624-9.9649754-36.2223816,5.3145356-36.2223816,5.3145356s-16.7774048,14.6201296-18.1677856,43.4278717
				c-1.6684875-6.7717743-3.0388184-13.1796837-4.1445618-19.0658035
				c-3.9757385-21.1629753-23.0960388-36.0364876-44.5763245-34.5285721
				C200.6118469,4.3036804,138.803772,6.9762692,79.125885,2.5367844
				c-23.0824928-1.716809-43.190403,15.6277647-45.1328964,38.6925774c0,0-4.4751358,34.4516754-0.1853218,90.4290237
				c4.1100883,53.6344452-19.0767059,115.7312469-22.4086761,177.8746033
				c-0.3137808,5.8554688-1.2412758,17.0469971-2.1546288,27.4630432c-0.3511992,4.0052185,2.7023458,7.4918518,6.7193317,7.6656799
				c145.1515198,6.2791748,490.1264343,17.4297485,631.855835-10.6897583
				C651.8453369,333.1729126,654.3485107,329.1011353,653.2144775,325.1563416z M193.4034271,240.6626434
				c-0.7253723,1.0924835-1.4996643,2.1596375-2.3116608,3.2055664c-0.2725372,0.3506165-0.571579,0.6850128-0.8532562,1.0306244
				c-0.558609,0.6847229-1.1166382,1.3691406-1.7106171,2.0317688c-0.3576813,0.3995209-0.7398071,0.7819519-1.1101685,1.1729126
				c-0.5544891,0.585434-1.1072083,1.1717529-1.6888123,1.7386169c-0.4148407,0.4045258-0.8491211,0.7934418-1.2769318,1.1882477
				c-0.5727539,0.5279694-1.1455231,1.054184-1.7409668,1.5641937c-0.4605103,0.3945007-0.9354553,0.7760468-1.4092102,1.1596527
				c-0.5963287,0.482605-1.1961975,0.9616699-1.812561,1.4266052c-0.4988098,0.3765411-1.0070496,0.7424622-1.5185242,1.1069183
				c-0.6228485,0.4440002-1.251297,0.8806458-1.8921204,1.3067017c-0.5309296,0.3529663-1.0677338,0.6982727-1.6104431,1.0388489
				c-0.6493683,0.407196-1.3066864,0.8037415-1.9722595,1.1926575c-0.5597992,0.3270569-1.1216583,0.6499634-1.6923523,0.9634399
				c-0.6738129,0.3706665-1.3570709,0.7262573-2.0450287,1.0774841c-0.5848389,0.2987366-1.1687927,0.5966187-1.7633514,0.8812256
				c-0.6994629,0.3346863-1.4095154,0.6505432-2.1213379,0.96521c-0.6028137,0.2666321-1.2021027,0.5368042-1.8131561,0.7887268
				c-0.7324524,0.302002-1.4761047,0.5801086-2.2197418,0.8605957c-0.6078186,0.2295227-1.2106323,0.4672852-1.825531,0.6820679
				c-0.7854767,0.2743225-1.5827484,0.5200195-2.3788452,0.7701721c-0.5874939,0.1847229-1.1690826,0.3833313-1.7624664,0.5547791
				c-0.9260254,0.2678223-1.8638306,0.4996948-2.8013458,0.7342224c-0.4749451,0.1184387-0.9434052,0.2563477-1.4207153,0.3662415
				c-1.4018402,0.3232117-2.8143005,0.6072388-4.2350006,0.8535461c-0.487915,0.0848389-0.9811249,0.1405334-1.4707947,0.2156677
				c-0.9563751,0.1473083-1.9121552,0.2963867-2.8744202,0.4074707c-0.5916138,0.0683594-1.1861725,0.1075439-1.7792664,0.162323
				c-0.7209625,0.0660095-1.4419098,0.1308289-2.1646423,0.1767883c0.6322784-3.1964417,1.2501068-6.8996582,1.6711426-10.8700867
				c0.8827057-8.318573,2.399765-24.3446808,6.6229858-37.0282135c3.3257751-9.9873657,5.3849487-12.8549957,13.034729-22.3638763
				c6.8961029-8.5708008,11.8476562-14.9235992,15.0882874-22.439621
				c2.5862732-5.9992523,2.4660645-11.8998108-0.2224426-13.0824585c-1.7391968-0.7657318-5.1200714-1.3184662-7.1159058,3.4816437
				c-1.7683716,4.2509308-2.5361633,7.283844-9.6532593,19.2605591
				c-5.2120056,8.7699585-11.1169739,10.1582489-19.0145264,8.7699585
				c-5.3755341-0.9454651-8.7219391-7.6049957-10.1119995-12.3924408
				c-1.2327347-4.2464905-1.1284332-13.6116028-0.7619095-18.9473572c0.4979172-7.2296295-1.6997223-7.8928375-4.5903397-7.4688721
				c-2.2444916,0.3288116-4.8566818,3.8083954-5.507515,8.1232452c-0.6856079,4.5493774-1.1184158,11.0409698,1.6089706,19.2248993
				c2.7642212,8.2938385,4.4872131,8.4535217,7.1562653,15.337265c1.8317108,4.7240906-0.083374,11.2301178-2.7303314,14.463089
				c-3.0040512,3.6696167-12.2795868,2.4787292-15.9229813,1.3818207
				c-6.9738922-2.0980682-11.8603363-7.862793-13.710022-10.1738739c-2.6227951-3.2771606-7.9915466-7.8548279-11.9552002-4.8575592
				c-3.4271393,2.5921478-2.1817322,6.7072449,1.4036179,11.1367188c3.7865829,4.677536,15.9135513,11.013855,23.7601395,13.2159271
				c8.2637863,2.3181458,15.5912323,2.566803,20.7313461,5.6610107c2.6817169,1.6139832,4.6121368,3.9704437,3.4451141,16.2193909
				c-0.9982147,10.4838104-2.9604492,15.0558929-4.3693695,23.2068329
				c-2.7347565-0.2460327-5.4586105-0.6340637-8.1503448-1.2097778c-0.1514435-0.0324097-0.3011169-0.0742188-0.4525528-0.1078186
				c-1.2315521-0.2728271-2.4563293-0.5804138-3.6734467-0.9260254c-0.387146-0.1095886-0.7701645-0.2333374-1.1555405-0.3503113
				c-0.9822998-0.2987671-1.9589996-0.6178284-2.9289169-0.9657898c-0.4569702-0.1632385-0.911293-0.3338318-1.3650208-0.5085449
				c-0.9027481-0.3476562-1.7978363-0.7206726-2.6873245-1.1122131c-0.4634476-0.2038879-0.9274902-0.404541-1.3871155-0.6202087
				c-0.9148254-0.4304504-1.817276-0.8956604-2.7153091-1.3747559c-0.3992233-0.2127075-0.8034592-0.4107056-1.19944-0.6334534
				c-1.2766342-0.7177124-2.5385284-1.4760742-3.7747955-2.296936c-5.4500656-3.6177368-10.1865387-7.6689148-14.2176666-12.0515289
				c-2.4189148-2.6298676-4.5838547-5.3787689-6.4971848-8.2248993c-1.91362-2.8461151-3.5756302-5.7891846-4.9880829-8.807373
				c-0.9416351-2.0120239-1.771904-4.0576477-2.4922791-6.129776c-0.3600311-1.0362091-0.6926727-2.0792084-0.9979095-3.1277924
				c-0.6098862-2.0974731-1.1101608-4.2185059-1.5008469-6.3563385c-0.3906784-2.1378479-0.6717529-4.2927704-0.8444061-6.4577026
				c-1.2073975-15.1569519,2.9162445-30.8236084,12.1626205-44.752533
				c22.652626-34.1249237,64.0705338-40.5104446,95.9082565-19.3757477
				C212.9008636,170.5613251,214.5378265,208.8278656,193.4034271,240.6626434z M231.2533722,72.8667297
				c-4.6445465-13.3296471,1.9625244-22.8485527,12.8782806-26.6522255
				c9.3477173-3.2559586,22.8485413,1.962822,26.6522217,12.8782768
				c4.1657715,11.9613876-1.9639893,22.8485565-12.8794556,26.6522293
				C246.203186,89.8218079,235.0555725,83.7824783,231.2533722,72.8667297z"/>
		</g>
		<g>
			<path class="st0" d="M144.473938,165.0611725c-6.2116852,0-11.2483826,4.5891571-11.2483826,11.2483826
				c0,6.2125702,4.4418335,11.2483826,11.2483826,11.2483826c6.2125702,0,11.2486725-5.928833,11.2486725-11.2483826
				C155.7226105,170.0969849,152.0594788,165.0611725,144.473938,165.0611725z"/>
		</g>
	</g>
	<g>
		<path class="st1" d="M797.4801025,367.2639771l-3.8953247-27.3410645c0,0-6.3530884-52.3262939-126.9713745-39.9736328
			c-5.2733154,0.5403442-8.0298462,6.4995117-5.1242065,10.9334106
			c7.6609497,11.690033,10.8759766,20.6019897,12.2177124,26.2556458c0.9086304,3.8293152-1.5085449,7.6595154-5.3552246,8.4909668
			c-147.1959229,31.8147278-507.5095825,19.1515198-658.0169067,12.0942688
			c-3.7915936-0.1776733-7.0337019,2.6802368-7.3530812,6.4624023C2.4086518,370.9698181,2,375.6485596,2,375.6485596v25.2939758
			c0,26.2810059,19.7022018,47.5862732,44.0065269,47.5862732h505.8555298c6.0841064,0,12.1611328-0.4083557,18.1907349-1.2227173
			l189.3878784-25.5762329C784.0466919,418.4064331,801.2560425,393.7659302,797.4801025,367.2639771z"/>
		<path class="st2" d="M280.0924072,141.4265442c5.7346802,0.6470032,11.3786316,0.6917877,17.0007629,0.5904388
			c0.4814148-0.010025,0.9610596-0.0318146,1.4425049-0.0456696c2.1224976-0.0603943,4.2373657-0.1717682,6.3504333-0.2937469
			c1.8965454-0.1157837,3.7898254-0.2513123,5.680481-0.4051208l-0.0047302-0.0156097
			c1.0966187-0.0860291,2.1973572-0.1414185,3.2913208-0.2439575c2.9719238-0.276062,5.932373-0.6246185,8.8875122-1.0120544
			c2.5727234-0.3376465,5.1412964-0.7044525,7.7069397-1.0889435l1.6481628-0.2766571l2.474884-0.4151306
			c1.368866-0.2681274,2.763031-0.3703613,4.1036072-0.8243866c1.3405762-0.4557953,2.6275024-1.2630768,3.8543396-2.4716492
			c1.2265625-1.2100372,2.3935852-2.8148956,3.4203796-5.3448792c1.8269958-4.5308228,1.2020874-9.9098816-2.1092529-13.9580994
			c-1.728302-2.1136703-3.3175354-3.3022079-4.8466797-4.0959473c-1.5291138-0.7919617-2.9975586-1.1826401-4.4126587-1.2221222
			c-1.4151306-0.0380096-2.776886,0.2763596-4.1637268,0.4245605l-4.1439514,0.5577393
			c-0.2952271,0.0447769-0.5892639,0.0972214-0.884491,0.142601c-5.2140808,0.8013916-10.4187012,1.6652451-15.5894775,2.7530212
			c-0.288147,0.0601044-0.5756836,0.1260986-0.8638306,0.1873856c-2.0482788,0.4351654-4.0900574,0.9127579-6.1306763,1.3977203
			c-0.1378784,0.0324097-0.276947,0.0615768-0.4148254,0.0945816c-2.9681091,0.7097626-5.9297485,1.4634247-8.8771973,2.3069458
			c-0.0070801,0.0020676-0.01474,0.00383-0.0218201,0.0056c-0.8284912,0.2401276-1.6552429,0.4914474-2.4819641,0.7412872
			c-0.3520813,0.1060715-0.7047424,0.2074203-1.0565491,0.3152542c-4.2099609,1.2893066-8.397522,2.7241516-12.5291443,4.5308228
			c-2.9150696,1.2839966-5.1020813,4.0446777-5.4851074,7.4379272
			C271.3648987,136.2746429,275.0159302,140.8540802,280.0924072,141.4265442z"/>
		<path class="st2" d="M342.2457886,193.1405945c-5.3993835,3.1663818-10.7398376,6.4683075-15.8360596,10.3279572
			c-2.6543274,2.0187988-4.1221619,5.4211884-3.4999084,8.9302368c0.8868408,4.9966278,5.656311,8.328598,10.6526489,7.4417572
			c6.2950439-1.1166382,12.3458557-2.7919159,18.3377686-4.602417c0.1060486-0.0324097,0.2109375-0.0677643,0.3175964-0.1004639
			c4.406189-1.3514709,8.7463989-2.8543701,13.0597839-4.4176788c1.4377747-0.5212097,2.8847046-1.0220795,4.3139648-1.5621338
			c2.0948181-0.7896118,4.1760864-1.6086731,6.2485046-2.4495544c2.0718384-0.8402863,4.1348572-1.7023621,6.1919556-2.5780029
			c1.6051331-0.6832581,3.2079163-1.3729858,4.8071899-2.0694885l4.2444153-1.9286499
			c1.3998108-0.6776428,2.8667603-1.2014923,4.1908264-2.0512085c1.323761-0.852066,2.5049438-2.0294189,3.5237732-3.5779877
			c1.0182495-1.5509338,1.8768005-3.4674988,2.3605652-6.2414398c0.8479614-4.8985291-1.214447-10.0645599-5.6515808-12.93573
			c-2.3641052-1.5294342-4.3534546-2.201767-6.1831055-2.5084839c-1.829071-0.3046417-3.4954834-0.2377625-5.0196228,0.1546783
			c-1.5235291,0.3942108-2.9041443,1.1148834-4.3525696,1.6811676l-4.298645,1.804306
			c-5.6931152,2.494339-11.3585815,5.0517273-16.9259033,7.8330383c-0.1570435,0.0783691-0.3128967,0.1596832-0.469635,0.2380524
			c-2.6493225,1.3258362-5.283905,2.685257-7.9002075,4.0868225c-2.6163025,1.4018402-5.2137756,2.8461151-7.7888489,4.3413696
			C342.4611816,193.0189056,342.3530273,193.078125,342.2457886,193.1405945z"/>
		<path class="st2" d="M393.377655,257.9580078c1.9666443,4.7211609,7.3881226,6.9544373,12.1098633,4.9880981
			c5.2402954-2.1826172,10.1061096-4.8457947,14.8814697-7.6256256c2.0114441-1.1791077,3.9819336-2.4106598,5.9429932-3.6545868
			c2.6846619-1.7023773,5.3392944-3.4433441,7.9473572-5.2435303c3.8796692-2.6719971,7.63797-5.4983826,11.3638611-8.3668976
			c0.6131287-0.4717102,1.2344971-0.9325104,1.8455811-1.4068604l3.1987915-2.5762482
			c1.0429993-0.8886108,2.1890869-1.6446228,3.1163025-2.6817169c0.9263-1.0388641,1.634613-2.3576355,2.0933533-3.9966583
			c0.45755-1.6407928,0.6702576-3.5962524,0.3081665-6.2900543c-0.6611328-4.8278046-3.8257751-9.1954041-8.6712646-11.1393738
			c-2.5226135-1.0117645-4.4707031-1.2857666-6.1736755-1.2445221c-1.7011719,0.0430145-3.153717,0.4057159-4.3876038,1.0488892
			c-1.2330322,0.6446533-2.2474365,1.5703735-3.3646851,2.3632202l-3.282196,2.4692993
			c-4.1772461,3.259201-8.3085632,6.5773163-12.3084412,10.0639648c-0.0665894,0.0583344-0.1352539,0.1152039-0.2035828,0.1717682
			c-0.0686646,0.0565796-0.1370239,0.1131439-0.2036133,0.1717682c-2.6139526,2.2869263-5.1686707,4.6504517-7.6898193,7.0566864
			c-1.4602051,1.3933105-2.9227295,2.7839661-4.344635,4.2264709c-3.8661194,3.9471588-7.6418152,8.0109863-11.0433044,12.5553589
			C392.6260376,251.3821716,392.0747986,254.8296356,393.377655,257.9580078z"/>
		<path class="st2" d="M567.9936523,309.7840271c4.3563843,2.9032593,10.241333,1.7250366,13.1446533-2.6316528
			c2.4813232-3.7235413,4.3725586-7.5961304,6.1199951-11.5046997c0.7024536-1.5883484,1.3565063-3.1887817,1.9852295-4.7954102
			v-0.0002747c0.9207153-2.3520508,1.777832-4.719696,2.571228-7.1038513
			c0.4175415-1.2489319,0.8102417-2.5043335,1.1853027-3.7638855s0.7324829-2.5240784,1.0783691-3.7910156
			c0.4189453-1.5350037,0.8255615-3.0729675,1.2167969-4.6150818l0.7068481-3.0835876
			c0.1988525-1.0371094,0.5606689-2.0335388,0.5769043-3.1166077c0.0144043-1.0836487-0.3155518-2.2539062-1.0385742-3.5231628
			c-0.3712769-0.6372986-0.802002-1.2893066-1.4678955-2.0005493c-0.5986938-0.6947327-1.3488159-1.4271851-2.388855-2.2330017
			c-3.7399902-2.8746948-8.6688843-4.2874603-13.6887817-3.4486389c-1.2975464,0.2165527-2.305481,0.5061646-3.1616821,0.8340912
			c-0.9233398,0.3108368-1.6116333,0.6811829-2.2403564,1.0662689c-1.2386475,0.7754517-2.0836182,1.6499329-2.5842285,2.6110229
			c-0.4987793,0.9616699-0.6519775,2.0099487-0.9684448,3.0175781l-0.838501,3.0505981
			c-0.5291748,2.1142883-1.0388794,4.233551-1.5087891,6.362854c-0.4393311,1.990509-0.8447266,3.9898682-1.192688,6.0036621
			c-0.3968506,2.2783813-0.7409668,4.5703125-1.0308838,6.8757935c-0.2404175,1.90979-0.4448853,3.82901-0.5945435,5.7617798
			c-0.3129272,4.27005-0.482605,8.5763855-0.0615845,13.0314636
			C564.0853882,305.5136414,565.5358276,308.1461792,567.9936523,309.7840271z"/>
		<path class="st2" d="M484.5302734,289.6976318c3.8178101-2.6955872,7.1441956-5.7497253,10.3503418-8.8910522
			c2.1066284-2.0801086,4.1012573-4.2409058,6.053772-6.4329529c0.47052-0.5285645,0.9307556-1.064209,1.3995056-1.5939636
			c0.5338745-0.6028137,1.0753784-1.2006226,1.5936584-1.8149109c0.3505859-0.4142456,0.6814575-0.8420715,1.0252991-1.2610168
			c1.5910034-1.9380798,3.1330872-3.911499,4.6383667-5.9117432c0.8320312-1.1054688,1.6705322-2.2059021,2.4872742-3.3225403
			l1.9017944-2.7229919c0.6031494-0.9298401,1.342041-1.7610016,1.7931519-2.8019257
			c0.449585-1.0418091,0.6125488-2.293396,0.4472656-3.7836304c-0.0901489-0.7507172-0.2304077-1.5379791-0.5662842-2.4678345
			c-0.2802124-0.8891907-0.6868286-1.8708954-1.3341064-3.0279083c-2.3311157-4.118927-6.4034729-7.3059387-11.406311-8.3177032
			c-1.2998962-0.2628021-2.35849-0.3500214-3.2910156-0.3447113c-0.9878845-0.0359497-1.7801514,0.0713043-2.5226135,0.2147827
			c-1.4696045,0.2984619-2.6112976,0.8358612-3.4660339,1.5824585c-0.853241,0.7477722-1.418335,1.7053223-2.1195679,2.5638733
			l-2.0114441,2.6428375c-2.3973999,3.2977905-4.7302856,6.6421356-6.9229126,10.0895996
			c-0.1134338,0.178833-0.2312927,0.3544312-0.3488464,0.5303345c-0.0777893,0.1157837-0.1561584,0.2306976-0.2297974,0.3491364
			c-0.5244446,0.8379211-1.0005798,1.710907-1.5073242,2.5615234c-0.8615112,1.4454346-1.7391968,2.8791199-2.5615234,4.3528442
			c-0.8670959,1.5532837-1.7286072,3.1112976-2.5361633,4.7076111c-2.0111694,4.0134583-3.9026794,8.1135254-5.3021851,12.5727539
			c-0.828186,2.6958618-0.4587402,5.7803345,1.2937317,8.2622986
			C474.3920593,291.6872559,480.2758179,292.701355,484.5302734,289.6976318z"/>
	</g>
</g>
</svg>
