<?xml version="1.0" encoding="utf-8"?>
<!-- Generator: Adobe Illustrator 25.2.0, SVG Export Plug-In . SVG Version: 6.00 Build 0)  -->
<svg version="1.1" id="Layer_1" xmlns="http://www.w3.org/2000/svg" xmlns:xlink="http://www.w3.org/1999/xlink" x="0px" y="0px"
	 viewBox="0 0 800 800" style="enable-background:new 0 0 800 800;" xml:space="preserve">
<style type="text/css">
	.st0{enable-background:new    ;}
	.st1{fill:#FFFFFF;}
	.st2{fill:#C4E0A7;}
	.st3{fill:#076C37;}
	.st4{fill:#99CA43;}
	.st5{fill:#00BED2;}
</style>
<g>
	<g class="st0">
		<g>
			<path class="st1" d="M188.5540161,438.5492249l0.0000763-0.0000305c0.0006104-0.0002441,0.0014191-0.0005493,0.0023346-0.000885
				c0.0009155-0.0003662,0.0019226-0.0007324,0.0029297-0.0011292s0.0020294-0.0007629,0.0029297-0.0011292
				c0.0009155-0.0003357,0.0017242-0.0006409,0.0023346-0.000885c0.4299316-0.1636658,0.8623505-0.3243408,1.2975616-0.4820251
				c0.4351959-0.1577148,0.8732147-0.3124084,1.3143463-0.4641724c0.4411163-0.1517639,0.8853607-0.3005676,1.3330383-0.4464417
				s0.8987885-0.2887878,1.3536682-0.428833c1.5929108-0.4978333,3.1355743-0.9697571,4.6320648-1.4190369
				c1.4963684-0.4492188,2.9465942-0.8757935,4.3547516-1.282959c1.4080353-0.407135,2.7740326-0.7948608,4.1020355-1.1664429
				c1.3279114-0.3715515,2.6178436-0.7269592,3.8738861-1.0694885c7.1805878-1.9379883,13.0581665-3.3122559,17.8356781-4.2836304
				c4.7764893-0.9711914,8.4540863-1.5397949,11.234726-1.866333c2.7803955-0.3265076,4.6642761-0.4110413,5.8530731-0.4139404
				c1.1887665-0.0029297,1.6825409,0.0758057,1.6825409,0.0758057c3.8807068,0.3033752,7.758194,0.7640076,11.6199799,1.3612671
				c3.8618774,0.5972595,7.7081909,1.3311768,11.5264587,2.1811218c3.8184509,0.8499756,7.6089783,1.81604,11.3590088,2.877533
				c3.7503357,1.061615,7.4602966,2.2187195,11.1173096,3.4506836c0.1256409,0.2965393,0.2042542,0.5838318,0.2479553,0.8561096
				c0.0437012,0.2723083,0.0524902,0.5296021,0.0385742,0.7661438c-0.0138855,0.2365112-0.0505371,0.4522705-0.0977173,0.641449
				s-0.1049194,0.3518066-0.1610413,0.4820862c-0.0561218,0.130249-0.1342468,0.2870178-0.2409363,0.4570007
				s-0.2419434,0.3531494-0.4122925,0.5361328c-0.1703796,0.1829834-0.375885,0.3658142-0.6230774,0.5350647
				c-0.2472229,0.169281-0.5361023,0.3250122-0.8732605,0.4538269L146.625824,495.0326538l-6.3347778,2.4203491
				c-0.3406677,0.1301575-0.6699982,0.2104187-0.9817505,0.2537537c-0.3117676,0.0433044-0.6059723,0.0497437-0.876358,0.0322266
				c-0.270401-0.0174866-0.516983-0.0588989-0.7335358-0.1112061c-0.2165375-0.0523376-0.4030304-0.1155701-0.5532684-0.1766968
				c-0.183136-0.0667419-0.3819122-0.1502991-0.5858154-0.2564392c-0.2039185-0.1061401-0.4129639-0.2348022-0.6166534-0.3917236
				c-0.2036743-0.1569519-0.4020081-0.3421326-0.5844879-0.5612488c-0.1824799-0.2191467-0.3491058-0.472229-0.4893951-0.7649841
				l-0.561203-1.1710815c0.315918-0.7493286,0.6051025-1.401886,0.8612061-1.9591675
				c0.256073-0.557251,0.4790649-1.0192871,0.6625671-1.3876648c0.1834869-0.3683472,0.3275146-0.6430359,0.4256592-0.8256531
				c0.0981293-0.1826172,0.1504059-0.2731628,0.1504059-0.2731628s0.8540039-2.265625,2.7246399-5.8954163
				c1.8696442-3.6278992,4.7540894-8.6170654,8.815155-14.0670471c4.057785-5.4455566,9.2896271-11.3502502,15.8578491-16.8174133
				c6.5626221-5.4625244,14.4598389-10.4886475,23.8562164-14.18573c0.0736389-0.0290222,0.1475983-0.0580139,0.2217407-0.0869751
				c0.0741577-0.0289307,0.1485138-0.0578308,0.2229767-0.0866394c0.0744476-0.0287781,0.1489868-0.0574951,0.223526-0.0861206
				c0.0745239-0.028595,0.1490479-0.0570679,0.2234497-0.0853882H188.5540161 M157.6116028,349.0080566l0.000061-0.0000305
				c0.027298-0.0102844,0.0548706-0.0205078,0.0825958-0.0307007c0.0277252-0.0101624,0.055603-0.0202942,0.0835114-0.0303955
				s0.0558319-0.0201721,0.0836792-0.0302734c0.027832-0.0100708,0.0555573-0.0201721,0.0830688-0.030304
				c0.6358032-0.2350769,1.2848511-0.4612122,1.9474487-0.6781616c0.6625519-0.2169495,1.3386536-0.4247131,2.028595-0.6230469
				c0.6898956-0.1983337,1.393631-0.387207,2.1114655-0.5664368c0.7178192-0.1791992,1.4497528-0.3486938,2.1960754-0.5082703
				c4.9519958-1.0565186,9.8993225-1.3407593,14.6652679-0.9093628c4.7658691,0.431366,9.3513336,1.5783997,13.5795288,3.3848572
				c4.2289734,1.8067322,8.1013641,4.273468,11.4399719,7.3442383c3.3398285,3.0719299,6.1460876,6.7488708,8.2410126,10.9751587
				c0.2573547,0.5191956,0.5039825,1.0466919,0.7395325,1.5823975c0.2355804,0.5357361,0.460083,1.0796814,0.6731873,1.6317139
				c0.2131195,0.552063,0.4148407,1.1122131,0.6048584,1.6803589c0.1900177,0.5681763,0.3683167,1.1443481,0.5345612,1.728363
				c0.4143524,1.4411011,0.7361145,2.8816833,0.9678955,4.3156738c0.231842,1.4342957,0.3736725,2.8619995,0.4281464,4.2770386
				c0.0544739,1.4153442,0.0215454,2.8180237-0.0961609,4.2019653c-0.1177216,1.3842163-0.3202515,2.7497253-0.60495,4.0903931
				c-0.0179138,0.0877686-0.0361633,0.175415-0.0547791,0.26297c-0.0186005,0.0875244-0.0375519,0.1749573-0.0568695,0.2622986
				c-0.0193024,0.0873108-0.0389557,0.1745605-0.05896,0.2617188s-0.0403595,0.1742249-0.0610657,0.2612305
				c-0.5697632,2.3924561-1.4048462,4.7071228-2.4971008,6.913208c-1.0926056,2.2067871-2.4425201,4.3048706-4.0415344,6.2633972
				c-1.599472,1.9591064-3.4481506,3.7785339-5.5377502,5.4273376c-2.0901642,1.649231-4.4212952,3.1277161-6.9850922,4.404541
				c-0.3262329,0.1624756-0.6562958,0.3217468-0.9901428,0.4776917s-0.6714783,0.3086243-1.0128326,0.4578857
				c-0.3413696,0.1492615-0.6864777,0.2951355-1.0352478,0.4375305c-0.3488007,0.1423645-0.7012634,0.2812805-1.057373,0.4165955
				l-0.000061,0.0000305l-0.0000763,0.0000305c-0.0720673,0.0273743-0.1443024,0.0546265-0.2166901,0.0816956
				c-0.072403,0.0270996-0.1449585,0.0540466-0.2176819,0.0808411c-0.0727081,0.0267944-0.1455688,0.0534363-0.2185822,0.0799255
				s-0.1461639,0.0528259-0.2194519,0.0790405c-0.1101227,0.0394592-0.2205811,0.0783997-0.3313751,0.1169128
				c-0.1107788,0.0385132-0.2219086,0.0765991-0.333374,0.1143494s-0.2232666,0.0751648-0.3354187,0.1123352
				s-0.2246552,0.0740967-0.3375092,0.1108704c-0.4131927,0.134552-0.8307953,0.264679-1.2528381,0.3902893
				c-0.4220581,0.1255798-0.8485565,0.2466125-1.2795563,0.3629456s-0.8665009,0.2279358-1.3065338,0.3346558
				c-0.4400482,0.1067505-0.8846283,0.2086182-1.3338165,0.305481c-1.3230591,0.2860718-2.6513367,0.4996643-3.9799042,0.6455994
				c-1.3286285,0.1459656-2.6575317,0.2243347-3.9817963,0.2399597c-1.324295,0.0156555-2.6439362-0.0314026-3.9540253-0.136261
				s-2.610611-0.2675171-3.8966522-0.4830322c-3.6370392-0.6166687-7.1745605-1.6699829-10.5202179-3.0769348
				c-3.3451843-1.4067383-6.4981995-3.1668701-9.3668823-5.1972961c-2.8680115-2.0299377-5.4515839-4.329895-7.6587524-6.8168335
				c-2.2064972-2.4861755-4.0366669-5.1590881-5.3988037-7.9357605c-0.1945343-0.3965454-0.3795319-0.7952271-0.5547028-1.1958008
				c-0.1751709-0.4005432-0.3405304-0.802948-0.4958038-1.2070312c-0.1552734-0.4040222-0.3004608-0.8096924-0.4353027-1.2167664
				c-0.1348267-0.4070129-0.2593231-0.8154602-0.3731842-1.2250061c-0.042572-0.1528931-0.084198-0.305603-0.1249237-0.4581909
				c-0.040741-0.1525574-0.0805817-0.3050232-0.1195831-0.457428c-0.0389862-0.1524048-0.0771484-0.304718-0.1145325-0.4570007
				c-0.037384-0.1522522-0.0739746-0.3045044-0.1098328-0.4567871c-0.0958405-0.4067383-0.18573-0.8129272-0.2695923-1.2184448
				c-0.0838776-0.4055176-0.1617432-0.8103333-0.2335358-1.2143555c-0.0717926-0.4039917-0.1375122-0.8071899-0.1971283-1.2094727
				c-0.0596008-0.4022827-0.1130829-0.8036194-0.1603851-1.2039185c-0.4395599-3.7199707-0.3494568-7.3537292,0.2994995-10.8181458
				c0.6486206-3.462738,1.8555756-6.7563782,3.6500549-9.7980042c1.7936707-3.0402832,4.1744232-5.8289185,7.1715698-8.2832031
				c2.9959869-2.4533081,6.6081085-4.5726929,10.86586-6.2755127c0.0776978-0.0310669,0.1555023-0.0619507,0.2334595-0.0926514
				c0.0779572-0.0307312,0.1560669-0.0612793,0.2343903-0.0916748c0.0783234-0.030426,0.1568756-0.0606995,0.2356873-0.0908508
				s0.1578979-0.0602112,0.2373047-0.0901489L157.6116028,349.0080566 M216.4855804,288.5849609L66.9698334,344.7920227
				c-2.0798645,0.7818909-3.8804855,1.9025269-5.3561783,3.2595825c-1.4760017,1.3573303-2.627018,2.9512939-3.4072151,4.6794128
				c-0.7803955,1.7285461-1.1898041,3.5914001-1.1823006,5.4859619c0.0075035,1.89505,0.4321365,3.8218689,1.3198509,5.6776733
				l53.4198647,111.6761475l11.5760117,24.2000427c0.4499283,0.9406128,0.9963303,1.819397,1.6239319,2.6308289
				c0.6276703,0.8114929,1.3365479,1.555542,2.1113663,2.226593c0.7748718,0.6711121,1.6156769,1.269165,2.5071411,1.7886047
				c0.89151,0.5194397,1.8336487,0.9602356,2.811142,1.316803l0.0830231,0.0049133l0.0636749,0.0487061
				c0.9897308,0.3609924,2.0148163,0.6377869,3.0612335,0.8248291c1.0464172,0.1870117,2.1141663,0.2843018,3.189209,0.2863464
				s2.1573639-0.091156,3.2329559-0.2850952c1.0755615-0.1939392,2.1443634-0.4885864,3.1924286-0.8894653l6.0653381-2.3199463
				l0.2725372-0.104248l144.3773346-55.2232361c1.0287781-0.3935242,1.9883118-0.8717957,2.8722534-1.4222107
				c0.8838806-0.550354,1.6921692-1.172821,2.4185486-1.8547363c0.7262878-0.6818542,1.370697-1.4231567,1.9269104-2.2112427
				c0.5561523-0.7879944,1.0241394-1.6227722,1.397644-2.4916992c0.3781433-0.8796082,0.6627808-1.7914124,0.8481445-2.723053
				c0.1853333-0.9315186,0.2714233-1.8828125,0.252533-2.8414612c-0.0189209-0.9585571-0.1428223-1.924469-0.3774109-2.8853455
				c-0.2345886-0.9607239-0.5798645-1.9164429-1.041626-2.8547363l-20.1120911-40.8691101l-0.0596619-0.1212158
				l-9.5469666-19.400116l-0.0447693-0.0909424l-36.3857727-73.9382935c-0.4574127-0.9294739-1.008255-1.7969971-1.638504-2.5968018
				c-0.630188-0.7996826-1.339798-1.5316772-2.1147919-2.190155c-0.7749329-0.6584167-1.6152649-1.2433472-2.5069885-1.7489624
				c-0.8916779-0.5056152-1.8347778-0.9319153-2.8152771-1.2731628c-0.9710693-0.3624268-1.9795837-0.639801-3.0109406-0.8276062
				s-2.0855865-0.2860413-3.1481018-0.2902527c-1.0625305-0.0041809-2.1333923,0.0856628-3.1980133,0.2740784
				C218.5816498,287.9078979,217.5232239,288.1948853,216.4855804,288.5849609"/>
			<path class="st1" d="M405.1149597,412.6237793c-1.1470642,0.4389038-2.2532349,0.9549866-3.3190613,1.5484619
				c-1.0659485,0.5935364-2.0915222,1.2644958-3.0772705,2.013092c-0.9858704,0.7487183-1.9319458,1.5750732-2.8387146,2.4793701
				c-0.9069214,0.9044189-1.7745361,1.8868103-2.6034241,2.9473877l-22.6092224,28.8216248
				c-0.7481995,0.9328308-1.3379517,1.8777466-1.7695618,2.8355103c-0.4316406,0.9578552-0.7050781,1.9285278-0.8205261,2.9126892
				c-0.1154785,0.984314-0.072937,1.9820862,0.1273499,2.9940186c0.2003174,1.012085,0.5584412,2.0383606,1.0740967,3.0794373
				c0.3867798,0.7809448,0.8356628,1.5153503,1.3463745,2.2027588c0.5107422,0.687439,1.0833435,1.3278198,1.7175598,1.9206848
				c0.6342773,0.592926,1.3301392,1.1382751,2.0873718,1.6355896c0.7572632,0.4973145,1.5758972,0.9465942,2.455658,1.3473206
				c0.8836365,0.4085083,1.7599182,0.7263489,2.6283264,0.9537048c0.8684082,0.2273865,1.7289429,0.3642578,2.5809937,0.4108887
				c0.8520813,0.0466003,1.6956787,0.0029602,2.5302734-0.1307678c0.8345642-0.133728,1.6600952-0.3575134,2.4760437-0.6711731
				c0.4963074-0.1907654,0.9733582-0.4151917,1.4324646-0.6732178c0.4590759-0.2580261,0.9002075-0.5496216,1.324707-0.8747253
				c0.4244385-0.3250732,0.8322449-0.6836548,1.2246704-1.0756531c0.3924255-0.3919678,0.7694397-0.8173218,1.1323853-1.2760315
				l12.5551147-16.119751l36.5774231,73.4533997l-18.3400574,7.0964355c-2.4290771,0.9399414-4.4389343,1.9960938-6.02948,3.1686401
				c-1.5908203,1.1727295-2.7621765,2.461853-3.5139771,3.8674316c-0.7519836,1.4058838-1.0842285,2.9282227-0.9966125,4.5671997
				c0.087616,1.6392822,0.5952454,3.3952637,1.5231018,5.2679443c0.9433899,1.9041138,2.0722351,3.4508057,3.3869324,4.6408081
				c1.3149109,1.1901245,2.8155823,2.0234375,4.5024719,2.5006104c1.6869202,0.4772339,3.5598755,0.5983276,5.6191711,0.3642578
				c2.0591431-0.2340088,4.3044434-0.8231812,6.736084-1.7662964l67.3837585-26.1359253
				c2.3947754-0.928833,4.3707275-1.9762573,5.9280396-3.1433105c1.5570068-1.1668091,2.6954956-2.4533081,3.4155579-3.8604736
				c0.7199097-1.4068604,1.0215759-2.9343262,0.9051819-4.5836182c-0.1163635-1.6488647-0.6506348-3.4193726-1.6025696-5.3126526
				c-0.9362488-1.86203-2.0531006-3.3756104-3.3511047-4.540741c-1.2978516-1.164978-2.7769165-1.98172-4.4378662-2.4501648
				c-1.6608887-0.4684143-3.5037842-0.588562-5.5293579-0.36026c-2.0257263,0.228302-4.2343445,0.8051147-6.6266174,1.7307739
				l-18.2444763,7.0594788l-45.495575-90.934082c-0.5215759-1.04245-1.1012268-1.9967346-1.7392578-2.8633728
				c-0.6379395-0.8665771-1.334259-1.6455078-2.0891418-2.3373718c-0.7548523-0.691803-1.5683289-1.2965393-2.4406433-1.8146973
				c-0.8722534-0.5181274-1.8034058-0.949707-2.7936707-1.2952576c-0.9902039-0.345459-1.990509-0.5964966-3.0014343-0.7528992
				s-2.0325012-0.2181702-3.0653076-0.1851196s-2.0768433,0.1609192-3.1326294,0.3838501
				C407.2626343,411.8925171,406.1949768,412.2105103,405.1149597,412.6237793"/>
			<path class="st1" d="M535.6835327,469.9309692c-1.4008179-2.769928-2.1132202-5.3931885-2.1375122-7.8686829
				c-0.024292-2.4746704,0.6389771-4.8017273,1.989502-6.9801331c1.3500977-2.1777039,3.3870239-4.2069092,6.1104126-6.0865173
				c2.7225342-1.8790588,6.1312256-3.6086731,10.225708-5.1877747c4.1016846-1.5818787,7.8638916-2.618042,11.2876587-3.1101074
				c3.4234009-0.4920044,6.5090332-0.4401855,9.2578735,0.1541443c2.7489014,0.5943298,5.161499,1.7312927,7.2384033,3.4097595
				c2.0773926,1.678772,3.8193359,3.8995056,5.2265625,6.661377c1.4115601,2.7703857,2.1362305,5.3916321,2.1728516,7.864502
				c0.0366211,2.4736938-0.6152344,4.7988586-1.956665,6.9762573c-1.3419189,2.1781006-3.3739014,4.208313-6.0970459,6.0914001
				c-2.723938,1.883667-6.1394043,3.6201172-10.2474365,5.210083c-4.1008911,1.5872192-7.8668823,2.6300964-11.2973022,3.1276855
				c-3.4307861,0.4976807-6.5252686,0.4498291-9.2828369-0.1441956c-2.7573853-0.5940247-5.1774292-1.7341003-7.2595825-3.4207153
				C538.8323364,474.941803,537.0887451,472.7095032,535.6835327,469.9309692 M512.1725464,414.6223145
				c-1.3339844-2.6362-2.0670471-5.1075745-2.1991577-7.414917c-0.1321106-2.3066101,0.3363342-4.4493408,1.405304-6.4289856
				c1.068634-1.9790649,2.7375183-3.795166,5.0066833-5.4490967c2.2685547-1.6535034,5.137146-3.1449585,8.605896-4.4751282
				c3.4761963-1.3330383,6.6814575-2.170929,9.6175537-2.513855c2.935791-0.342865,5.6028442-0.1908875,8.0028076,0.4559937
				c2.4000244,0.6469116,4.5332031,1.7889099,6.401001,3.4262085c1.8681641,1.6376648,3.4711914,3.7710876,4.8103027,6.4007874
				c1.3549805,2.6609497,2.1091919,5.1571045,2.2609863,7.4882812c0.1518555,2.3319397-0.2991333,4.4987183-1.3544312,6.5001831
				c-1.055603,2.0020142-2.7158813,3.838562-4.9822998,5.5094604c-2.2670898,1.6713562-5.140564,3.1769104-8.6219482,4.5164795
				c-3.473877,1.336731-6.6829224,2.1714783-9.6269531,2.5047302c-2.9443359,0.3332825-5.62323,0.1649475-8.0366211-0.504364
				c-2.413269-0.669281-4.56073-1.839386-6.4424438-3.5093994
				C515.1378174,419.4590149,513.5223389,417.289856,512.1725464,414.6223145 M514.3024902,369.7975769
				c-3.7894287,1.4498291-7.2845459,3.0126343-10.4860535,4.6893616c-3.2024231,1.6771851-6.1111755,3.4683533-8.7269592,5.3745117
				c-2.6165771,1.9067078-4.9400635,3.9284973-6.9711914,6.0662842c-2.0317688,2.1384888-3.7710266,4.3931274-5.2184448,6.7648926
				c-1.4396057,2.3693542-2.5346069,4.7679138-3.2853088,7.1959229c-0.7509766,2.4288635-1.1574402,4.8871765-1.2197266,7.3751526
				c-0.0623169,2.4888306,0.2197876,5.0073547,0.8459473,7.5557556c0.6264038,2.5492554,1.5970764,5.128418,2.9116821,7.7376709
				c0.8357544,1.658783,1.7626953,3.2216492,2.7819214,4.6880798c1.0194397,1.4667358,2.131134,2.8369751,3.3361511,4.11026
				c1.2052002,1.2734985,2.5037231,2.4500122,3.8965759,3.5290527c1.3930359,1.0791931,2.8804016,2.0608521,4.4631348,2.9445801
				c1.5745239,0.8870239,3.1997375,1.6567993,4.8764038,2.3084412c1.6768188,0.6516724,3.4050293,1.1851196,5.1853943,1.5995178
				c1.7804565,0.4143677,3.6130066,0.7096558,5.4984741,0.8849182c1.885437,0.175293,3.8236694,0.2305603,5.8154907,0.1649475
				c-1.7624512,1.2893982-3.3561401,2.6324158-4.7810059,4.0290222c-1.4252014,1.3969421-2.6815491,2.8475037-3.7689819,4.3517761
				c-1.0876465,1.5046082-2.0063477,3.0629272-2.756012,4.6750183c-0.7498474,1.6124573-1.3305969,3.2786865-1.7421875,4.9987793
				c-0.4161987,1.7313538-0.6560974,3.4909973-0.7196045,5.2800903c-0.0635681,1.7895508,0.0493469,3.6085815,0.3386841,5.4582825
				c0.2894287,1.8501587,0.7554016,3.7309875,1.3979797,5.6436768c0.6427307,1.9131775,1.4621277,3.8582458,2.4582214,5.8363647
				c1.4135132,2.8070679,3.0444641,5.3501892,4.8928528,7.6279602c1.848938,2.2783813,3.9152832,4.2910767,6.1990356,6.0367126
				c2.2843018,1.7459717,4.7858887,3.2246094,7.5047607,4.4346008c2.7191772,1.210144,5.6555176,2.1514893,8.8088379,2.8227844
				c3.1489258,0.6821899,6.4232178,1.0768433,9.8223267,1.1846313c3.3989868,0.1077576,6.9226074-0.0713196,10.5702515-0.5365295
				c3.6471558-0.4651489,7.4180908-1.2163391,11.3121948-2.2527466c3.8933105-1.0361938,7.9094849-2.3574219,12.0478516-3.9627991
				c4.137207-1.6049194,7.9492798-3.320343,11.4360962-5.146637c3.4857178-1.8257446,6.6463013-3.7622681,9.4816284-5.809967
				c2.8344116-2.0470581,5.343689-4.2051392,7.527771-6.4747009c2.1832886-2.2687683,4.0415649-4.6488647,5.574646-7.1406555
				c1.536377-2.4833069,2.6995239-5.0068359,3.4906006-7.5697632c0.7907715-2.5620422,1.2097168-5.1634521,1.2581177-7.8035278
				c0.0483398-2.6390991-0.2736206-5.3168335-0.9647217-8.0323792c-0.6907959-2.7145996-1.7504883-5.4670105-3.1777954-8.2564697
				c-0.9746704-1.9047852-2.0440674-3.6834106-3.2092285-5.3368225c-1.164978-1.6530457-2.4257202-3.1809082-3.7832031-4.5845032
				c-1.3572998-1.4033203-2.8114624-2.6824341-4.3634033-3.8381042c-1.5517578-1.1555481-3.201416-2.1877441-4.9499512-3.0974121
				c-1.7444458-0.9020081-3.5514526-1.6637268-5.4210205-2.2852173c-1.8694458-0.62146-3.8015137-1.1027222-5.7962646-1.4438171
				c-1.9946899-0.3410645-4.052124-0.5419922-6.1724243-0.6027832c-2.1203613-0.0607605-4.3035889,0.0186462-6.5498047,0.2381897
				c1.3909302-1.1358643,2.6448975-2.3348083,3.7616577-3.5961304c1.1165161-1.2610474,2.0958862-2.5844116,2.9377441-3.9693909
				c0.8417358-1.3847046,1.5460815-2.8309937,2.112854-4.3381348c0.5665894-1.5068054,0.9956055-3.0744324,1.2868042-4.7022095
				c0.2872925-1.6348877,0.4321899-3.2758789,0.434082-4.9227905c0.0019531-1.6465149-0.1389771-3.2989197-0.4232178-4.9570618
				c-0.2841797-1.6577454-0.7116089-3.321167-1.2827759-4.9901428c-0.5710449-1.6685791-1.2857666-3.3426514-2.1446533-5.0220337
				c-1.3421021-2.6243286-2.8858643-5.0028687-4.6307983-7.1361084c-1.7444458-2.1326599-3.6900635-4.0202942-5.8363037-5.6632996
				c-2.1459351-1.6427002-4.4925537-3.0409851-7.0395508-4.1951599c-2.5466919-1.1540527-5.2938232-2.0641479-8.2410889-2.7306213
				c-2.9471436-0.6664124-6.0031738-1.0656128-9.1680298-1.1982422c-3.164978-0.1326599-6.4390259,0.0012512-9.8220825,0.4010925
				c-3.3834229,0.3998718-6.8760986,1.0657349-10.4780273,1.9970703
				C521.8362427,367.1383057,518.1241455,368.3353882,514.3024902,369.7975769"/>
			<path class="st1" d="M647.0802002,357.5272522c-0.7099609,0.272583-1.3618774,0.5905762-1.9561768,0.953064
				c-0.5944214,0.3625183-1.1312256,0.7695007-1.6109619,1.2200623c-0.4797974,0.4505615-0.9024658,0.9447021-1.2686157,1.4814758
				c-0.3661499,0.5368347-0.6757202,1.116272-0.9291382,1.7374573c-0.2617188,0.6244202-0.4468994,1.2533875-0.5568237,1.8856506
				c-0.1099243,0.6323547-0.1445312,1.2679749-0.1051025,1.9057312c0.0394897,0.6377869,0.1530151,1.2776794,0.3393555,1.918457
				c0.1864014,0.6408386,0.4456177,1.2825623,0.7764893,1.9239502l12.8656616,24.9416809l-27.1304321,10.4550476
				c-0.7128906,0.2747498-1.3695679,0.5914001-1.9697266,0.9504395c-0.6002197,0.3590393-1.1439209,0.760498-1.6309204,1.2048645
				s-0.9172974,0.9316406-1.2905884,1.4622803c-0.373291,0.5307007-0.6896362,1.1047668-0.9487305,1.7227173
				c-0.2713623,0.6135864-0.4658813,1.23172-0.5841064,1.8545837c-0.1182251,0.6229248-0.1601562,1.2505798-0.1263428,1.8831787
				c0.0338745,0.6326599,0.1435547,1.2702332,0.3284912,1.9129333c0.1849365,0.6427612,0.4452515,1.2906799,0.7802734,1.9438782
				c0.335144,0.6532593,0.7167969,1.2567749,1.1455078,1.8103638c0.428772,0.5535889,0.9046021,1.0572205,1.4280396,1.5106506
				c0.5234985,0.4534607,1.0945435,0.8567505,1.7136841,1.2095947c0.6192017,0.3528748,1.286499,0.655304,2.0023804,0.907135
				c0.7115479,0.2626343,1.4228516,0.4570923,2.1342163,0.5837708c0.7113647,0.126709,1.4227905,0.1856689,2.1344604,0.1773376
				c0.7116699-0.0083008,1.4235229-0.0838928,2.1359253-0.2262878c0.7123413-0.142395,1.4251709-0.351593,2.1386719-0.6271057
				l27.1535034-10.4845886l12.937561,25.0809937c0.3338013,0.6471252,0.7150269,1.2462769,1.1433105,1.7958374
				c0.4284058,0.5495911,0.9039307,1.0495605,1.4263916,1.49823c0.5224609,0.4487305,1.0918579,0.8461609,1.7079468,1.1906738
				c0.6161499,0.3445129,1.2789917,0.6360779,1.9882202,0.8730469c0.7050171,0.2479553,1.4105225,0.4294128,2.1168213,0.5448608
				s1.413269,0.164856,2.1213379,0.1487732c0.7079468-0.0161133,1.4169312-0.0977478,2.1271362-0.2444153
				c0.710144-0.1466675,1.4215088-0.3583679,2.1342773-0.634613s1.3689575-0.5945129,1.9683228-0.9553223
				c0.5993042-0.3607788,1.1417847-0.7640686,1.6271362-1.2103882c0.4853516-0.4462585,0.9136353-0.9355164,1.2846069-1.4682312
				c0.3709106-0.5326843,0.6845093-1.1087952,0.9405518-1.7288513c0.2683105-0.615448,0.4587402-1.2372742,0.5724487-1.8641968
				c0.1137695-0.6268921,0.1509399-1.2588806,0.1127319-1.8947449c-0.038208-0.6358337-0.1517334-1.2755432-0.3393555-1.9178772
				c-0.187561-0.6422729-0.4491577-1.2872009-0.7835693-1.9335632l-12.9609985-25.0508728l27.0644531-10.4501953
				c0.7098389-0.2740784,1.3621826-0.5918274,1.9569092-0.9537659c0.5946655-0.361908,1.1316528-0.7679749,1.6107178-1.2186279
				c0.4790649-0.4506226,0.9002075-0.9458618,1.2631836-1.4861755c0.3629761-0.5402527,0.6677856-1.1255493,0.9142456-1.7563477
				c0.258606-0.6263428,0.4415894-1.2552185,0.5494385-1.8868408c0.1078491-0.6315308,0.140564-1.2658386,0.0986938-1.9030457
				c-0.0418091-0.637146-0.1582642-1.2772217-0.3486938-1.9204407c-0.1904297-0.643158-0.454895-1.2894287-0.7928467-1.9390259
				c-0.3379517-0.6495361-0.7208862-1.2476807-1.149353-1.7941895c-0.4284058-0.5464783-0.9024048-1.0413818-1.4223633-1.4844971
				c-0.5199585-0.4430542-1.0859985-0.8343811-1.6985474-1.1737061s-1.2716675-0.6266785-1.9778442-0.8618774
				c-0.7018433-0.2459412-1.4041138-0.4260559-2.1069946-0.5407715c-0.7028809-0.1147461-1.4064331-0.164093-2.1109009-0.1485596
				s-1.4098511,0.0959778-2.116394,0.2408447c-0.706543,0.1448975-1.4143066,0.3542175-2.1235352,0.6275024l-27.0415649,10.4208069
				l-12.8890381-24.9118347c-0.3314819-0.640625-0.7109985-1.2355957-1.1384888-1.7832947
				c-0.4273682-0.5476685-0.9026489-1.0481262-1.4256592-1.4997253c-0.5229492-0.4515686-1.0935669-0.8543396-1.7116089-1.206665
				c-0.618103-0.3523254-1.2836304-0.6542358-1.9963989-0.9041443c-0.7045288-0.2530212-1.4106445-0.4422302-2.1178589-0.5666809
				c-0.7072754-0.1244507-1.4156494-0.1841736-2.1246948-0.1781921s-1.4188232,0.0776367-2.1287231,0.2159729
				C648.5002441,357.0497437,647.7901001,357.2546997,647.0802002,357.5272522"/>
			<path class="st1" d="M509.7982788,166.232132c-0.1968689,0.0739288-0.3918762,0.151123-0.5849304,0.2315674
				s-0.3841553,0.1641388-0.5731506,0.2510376c-0.1890259,0.0868988-0.375946,0.177002-0.5606995,0.2702942
				c-0.1847229,0.0932922-0.3672791,0.1897583-0.5474854,0.2893677c-0.7210083,0.3986206-1.4057617,0.8475342-2.0482788,1.344635
				c-0.6425781,0.4971466-1.2429504,1.0424805-1.7950745,1.6338806c-0.5522156,0.5914612-1.0561829,1.2290039-1.5059814,1.9104919
				c-0.4497986,0.6815643-0.8454285,1.4071198-1.1808167,2.1744995c-0.1174622,0.2686462-0.227478,0.5423889-0.329834,0.8211517
				c-0.1023865,0.2787628-0.197113,0.5625458-0.2839355,0.8512878c-0.086853,0.2887421-0.165802,0.582428-0.2366333,0.8809967
				c-0.0708618,0.2985687-0.1335754,0.602005-0.1879578,0.9102478c-0.1489868,0.8347168-0.2290344,1.6650391-0.242218,2.4854889
				c-0.0131836,0.8205414,0.0404968,1.6312256,0.1589355,2.4266052c0.1184387,0.7954559,0.3016357,1.5756073,0.5474854,2.3349762
				c0.2458801,0.7594452,0.5543823,1.4981232,0.9234619,2.210556c0.5758057,1.111618,1.2989502,2.1593323,2.1612549,3.1224213
				c0.8624268,0.9632111,1.8640747,1.8417511,2.9967651,2.6148682c1.132782,0.7731781,2.3966064,1.4408875,3.7833252,1.9823914
				c1.3868103,0.5415344,2.8964539,0.9568176,4.5207214,1.2251129c0.2053833,0.0351715,0.4105835,0.0664825,0.6155396,0.0940552
				c0.2049561,0.0275574,0.409668,0.0513763,0.6140747,0.0715179c0.2044067,0.0201569,0.4085083,0.0366516,0.6122437,0.0495758
				c0.2036743,0.0129242,0.4069824,0.0222931,0.6098633,0.0281982c0.5654297,0.0163574,1.1273193,0.0054779,1.684082-0.0309906
				c0.5567627-0.0364838,1.1083374-0.0985413,1.6531982-0.1845551s1.0829468-0.1959686,1.612793-0.3282318
				c0.5297852-0.1322632,1.0512695-0.2868347,1.5629272-0.4620514c0.0463257-0.0158539,0.0926514-0.0318756,0.138855-0.0480652
				s0.0923462-0.032547,0.1384277-0.0490723c0.0460205-0.0165405,0.092041-0.0332336,0.1378784-0.0501099
				c0.0458984-0.016861,0.0916748-0.033905,0.1373291-0.0511017c0.0440063-0.016571,0.0878906-0.0332947,0.1316528-0.0501709
				c0.0438232-0.0168762,0.0875244-0.033905,0.1311646-0.0510864c0.0435791-0.0171814,0.0871582-0.0345154,0.1306152-0.0519867
				s0.086853-0.03508,0.130188-0.0528412c1.3428345-0.5508118,2.6054077-1.2438354,3.7567139-2.0463715
				c1.1511841-0.8024445,2.19104-1.7143402,3.088623-2.7030487c0.8974609-0.9885559,1.6526489-2.0538788,2.2346802-3.1633301
				c0.5819092-1.1092682,0.9906616-2.2626495,1.1953735-3.4275208c0.151062-0.8641815,0.2401123-1.7216187,0.2657471-2.5668488
				c0.0256958-0.8451385-0.0119629-1.6781006-0.1143799-2.4934235c-0.102356-0.8152313-0.2693481-1.6128387-0.5024414-2.3873749
				c-0.2330933-0.7744598-0.5321655-1.5258636-0.8986206-2.2487793c-0.5355835-1.0564728-1.2150879-2.052124-2.0427856-2.969986
				c-0.8276367-0.9177399-1.8034058-1.7577362-2.9317017-2.503006c-1.1282349-0.7452087-2.4089355-1.3957367-3.8464355-1.9346313
				c-1.437439-0.5388641-3.0316772-0.9661255-4.7871094-1.264801c-0.81427-0.1355286-1.6234741-0.224823-2.423584-0.2693329
				c-0.8001709-0.0444946-1.5912476-0.0441895-2.3694458-0.0005035c-0.7781982,0.0437012-1.5435181,0.1307983-2.2919312,0.2598724
				c-0.7484741,0.1290741-1.4801331,0.3001556-2.19104,0.5118103c-0.1016235,0.0302582-0.2027588,0.0613251-0.3034363,0.0932007
				c-0.1006775,0.0318909-0.2008972,0.0645905-0.3006592,0.0980988c-0.0997314,0.0335236-0.1990662,0.0678711-0.2979431,0.1030426
				C509.994812,166.159317,509.8963318,166.1953125,509.7982788,166.232132"/>
			<path class="st2" d="M111.763855,475.5708008c-3.078804,3.3085632-6.0452576,6.6095276-8.9027863,9.8927917
				c-2.8589478,3.2848511-5.6088333,6.552002-8.2530975,9.7913208c-2.645546,3.2408752-5.1853256,6.4538879-7.6227798,9.6289062
				c-2.4385986,3.1765442-4.7747345,6.3150024-7.0118332,9.405304l31.1737213,65.6115112
				c3.1312332-7.1908569,6.3262863-14.1218872,9.5780487-20.8047485c3.2486572-6.6764526,6.5541306-13.1057129,9.9093475-19.2994995
				c3.3522034-6.1881714,6.7542725-12.1416016,10.1991425-17.8718872
				c3.4419861-5.7255249,6.9268951-11.2285156,10.4476929-16.5205383l-6.0653381,2.3199463
				c-1.0480652,0.4008789-2.1168671,0.6955261-3.1924286,0.8894653c-1.075592,0.1939392-2.1579132,0.2871399-3.2329559,0.2850952
				s-2.1427917-0.0993347-3.189209-0.2863464c-1.0464172-0.1870422-2.0715027-0.4638367-3.0612335-0.8248291l-0.0636749-0.0487061
				l-0.0830231-0.0049133c-0.9774933-0.3565674-1.919632-0.7973633-2.811142-1.316803
				c-0.8914642-0.5194397-1.7322693-1.1174927-2.5071411-1.7886047c-0.7748184-0.671051-1.483696-1.4151001-2.1113663-2.226593
				c-0.6276016-0.8114319-1.1740036-1.6902161-1.6239319-2.6308289L111.763855,475.5708008"/>
			<path class="st2" d="M669.9569702,192.8517303c-0.5139771,0.3753815-1.0275879,0.7496338-1.5410156,1.1228943
				c-0.5134888,0.373291-1.0266724,0.7455902-1.5396729,1.1170349c-0.5130005,0.3714752-1.0258179,0.7420959-1.5384521,1.1120148
				c-0.5126953,0.3699341-1.0251465,0.739151-1.5374756,1.1078033c-1.2023926,0.8652649-2.4036255,1.7259521-3.6036377,2.582077
				c-1.2001953,0.8562317-2.3991699,1.7078857-3.5968628,2.5549469c-1.197937,0.8471832-2.3945312,1.6897736-3.5899048,2.5277557
				c-1.1954956,0.838089-2.3897095,1.6715851-3.5825806,2.5004425c-0.5682373,0.3948669-1.1364746,0.7890625-1.7045288,1.1824036
				c-0.5681763,0.3933716-1.1361694,0.7858887-1.7038574,1.1773834c-0.567688,0.39151-1.1351318,0.7820129-1.7020874,1.1713104
				c-0.5670166,0.3893127-1.1335449,0.7774353-1.6995239,1.1641846c-0.0817871,0.0559387-0.1630249,0.1113129-0.2439575,0.1663666
				c-0.0809326,0.055069-0.1615601,0.1098328-0.2421875,0.164566s-0.1611938,0.1094513-0.2421265,0.1644135
				s-0.1621094,0.1101837-0.2438965,0.1659546c-0.2844849,0.1939392-0.5697021,0.3882294-0.8552246,0.58255
				c-0.2855225,0.1943359-0.5713501,0.3887024-0.8571167,0.5828247s-0.5714111,0.3880005-0.8566284,0.5813293
				s-0.5700073,0.3861237-0.8538818,0.578064c-17.6922607,11.959549-35.0743408,22.9224548-52.0793457,32.9793854
				c-17.0335693,10.0738373-33.6842041,19.2359467-49.885498,27.578537
				c-16.2243652,8.3544617-31.9941406,15.8850098-47.2434692,22.6851501
				c-15.2675476,6.8082581-30.0101013,12.882843-44.1624756,18.3183289
				c-0.2574158,0.098877-0.5151062,0.1977234-0.7727966,0.2964478c-0.2577209,0.0987549-0.5154724,0.1973572-0.7730103,0.2957764
				c-0.2575378,0.0983887-0.5148926,0.1965942-0.7718201,0.2944946s-0.5134277,0.1954651-0.7693176,0.2926636l-0.000061,0.0000305
				l-0.000061,0.0000305c-0.0297852,0.011322-0.0596924,0.022644-0.0896912,0.0339966s-0.0600281,0.0227051-0.0900879,0.0340576
				s-0.0600891,0.0227051-0.0900574,0.0340271c-0.0299683,0.0113525-0.0598755,0.0226746-0.0896301,0.0339661
				c-4.9021912,1.8597717-9.730896,3.642334-14.4836731,5.3518066c-4.7542725,1.710022-9.4324646,3.3468933-14.032135,4.9147644
				c-4.6010132,1.5683289-9.1233826,3.0675659-13.5646362,4.5018921c-4.4424744,1.4347229-8.8037109,2.8044739-13.0812988,4.1134033
				c-0.7250366,0.2218323-1.4475403,0.441925-2.1675415,0.6602783c-0.7200317,0.2183838-1.437561,0.4350281-2.1526184,0.6499634
				c-0.7150879,0.2149658-1.4277344,0.4281921-2.1380005,0.63974s-1.4181213,0.4214172-2.1236572,0.6296082
				c-8.0109863,2.3611145-16.1998291,4.652771-24.5420227,6.9653015
				c-8.3460083,2.3135681-16.8455811,4.6480713-25.4744873,7.0940552
				c-8.6330566,2.4471436-17.395874,5.0059509-26.2645264,7.7672119c-8.8733215,2.7626953-17.8531189,5.7282104-26.915741,8.9876404
				l0.0447693,0.0909424l9.5469666,19.400116c0.1887817-0.0835876,0.3774414-0.1667786,0.56604-0.2496643
				s0.3771057-0.1654358,0.5656128-0.2477417c0.1884766-0.0823059,0.3769226-0.1643372,0.5653992-0.2462158
				c0.1884766-0.0818481,0.3769531-0.1634827,0.5654602-0.2450256c0.3995361-0.172821,0.7987061-0.3444214,1.1976318-0.5149231
				c0.3989258-0.1704712,0.7975769-0.3397827,1.1961365-0.5080261c0.3985291-0.1682129,0.796936-0.3353271,1.195343-0.5014038
				c0.3983765-0.1660461,0.7967529-0.3310242,1.1952209-0.4950256c0.3238525-0.1333313,0.6473694-0.2658997,0.9706726-0.3977051
				c0.3232727-0.1318359,0.6463318-0.2628784,0.9693298-0.39328c0.3229675-0.1303711,0.645874-0.2600403,0.9688416-0.3890686
				c0.322937-0.1290283,0.6459656-0.2574158,0.9691772-0.3851929c0.3021545-0.1194153,0.6045532-0.2383423,0.9070129-0.35672
				s0.605011-0.2362366,0.9075012-0.3534851s0.6049194-0.2339172,0.907135-0.3499451s0.604248-0.2314148,0.9059143-0.3461304
				l0.0006409-0.0002441l0.0006714-0.0002441c9.5574646-3.6340942,19.0613403-6.6905212,28.5712585-9.3312378
				c9.5050049-2.6393738,19.0171509-4.8637695,28.5953369-6.8345947c9.5740967-1.9699707,19.2148438-3.6867065,28.9804077-5.3111877
				c9.7618408-1.6239014,19.6486206-3.1556396,29.717804-4.7559204c0.5619202-0.0896606,1.1245728-0.1795959,1.6878662-0.2698059
				c0.563324-0.0902405,1.1272888-0.1807251,1.691864-0.2715149c0.5645447-0.0907593,1.1296692-0.1817932,1.695343-0.2731018
				c0.5656433-0.0913391,1.1318054-0.1828918,1.6983948-0.2747498c9.4968262-1.5401306,19.1643982-3.1734619,29.0491943-5.0318909
				c9.8806458-1.8576355,19.9776611-3.9400635,30.336853-6.3788147c10.3539124-2.4375,20.9686584-5.2307129,31.8892517-8.5107117
				c10.9136963-3.2779236,22.1312866-7.0415955,33.6970215-11.4213867c0.0961914-0.0364685,0.1925659-0.072876,0.2890015-0.109314
				s0.1929932-0.072876,0.2895508-0.1093445s0.1931763-0.0729675,0.2897339-0.1095581
				c0.0964966-0.0365906,0.1930542-0.0732727,0.2894287-0.1100464c0.0505981-0.0192871,0.1015625-0.0388184,0.15271-0.0585022
				s0.102478-0.0394897,0.1538696-0.0593262c0.0513306-0.0198059,0.1027222-0.0396423,0.1538696-0.0593567
				c0.0512085-0.0197144,0.1022339-0.0393372,0.152832-0.0587158c3.2163696-1.231781,6.4598389-2.5114441,9.7311401-3.8417053
				c3.2705688-1.3299561,6.5689087-2.7104797,9.895874-4.1443176c3.3261108-1.4335022,6.6807251-2.9202881,10.0646362-4.4630737
				c3.3829956-1.5423889,6.7952271-3.1407471,10.2373657-4.797821c11.5386353-5.5555115,22.399292-11.2807312,32.5927734-17.0645752
				c10.1835938-5.7782593,19.7012939-11.6150513,28.564209-17.3998108
				c8.8544922-5.7792969,17.0557861-11.5068665,24.6151733-17.0727844
				c7.5526123-5.5609131,14.4649658-10.9607849,20.7487183-16.0901947L669.9569702,192.8517303"/>
			<path class="st3" d="M546.90979,209.4044495l0.0001221-0.0000305c0.288147-0.1087799,0.578125-0.2108307,0.8696899-0.3061981
				c0.2915649-0.0953522,0.5847778-0.184021,0.8793945-0.266037c0.2945557-0.082016,0.5905762-0.1573639,0.8878174-0.2260895
				c0.2971802-0.0687256,0.5955811-0.1308289,0.8950195-0.1863251c1.5570679-0.288681,3.1408691-0.3995361,4.7214966-0.3382721
				c1.5805664,0.0612793,3.1581421,0.2946777,4.7026978,0.6945648c1.5446167,0.3998871,3.0563965,0.9662933,4.5053711,1.6935577
				c1.4490967,0.7273254,2.8355103,1.6155701,4.1292725,2.6591492c0.0498047,0.0401917,0.0994873,0.0805817,0.1489868,0.1212006
				c0.0495605,0.0406189,0.098877,0.0814514,0.1481323,0.1225281c0.0491943,0.0410614,0.0983276,0.0823517,0.1472778,0.1238708
				s0.0977173,0.0832825,0.1464233,0.1252899c0.6240845,0.539505,1.2036133,1.0837708,1.7398682,1.6317902
				c0.5362549,0.5480499,1.0292358,1.0998535,1.4802246,1.6544189c0.4509277,0.5545959,0.8598633,1.1119537,1.2280273,1.6710815
				c0.3681641,0.5591431,0.6954956,1.1200714,0.9833374,1.6817474c0.8635254,1.6852875,1.3710938,3.3775177,1.5565186,5.049881
				c0.1854248,1.6727448,0.048584,3.3256073-0.376709,4.9317322c-0.425354,1.6064758-1.1392822,3.1661835-2.1078491,4.6521912
				c-0.96875,1.4863586-2.1922607,2.8989563-3.6365967,4.2108765c-0.0320435,0.0291595-0.06427,0.058136-0.0967407,0.0869598
				c-0.0324707,0.0288086-0.0651245,0.0574799-0.0979614,0.0860138c-0.0328369,0.0285492-0.0658569,0.0569611-0.098999,0.0852814
				c-0.0332031,0.0283356-0.0664673,0.0565643-0.0999146,0.0847473c-0.2129517,0.1799164-0.4327393,0.3549042-0.6588745,0.5248718
				s-0.4586792,0.3349152-0.6972656,0.4947357c-0.2385864,0.1598358-0.4832153,0.3145447-0.7335815,0.4640503
				s-0.5064697,0.2937927-0.7679443,0.432785c-0.151123,0.0802917-0.3040161,0.1588593-0.4586792,0.235672
				c-0.1546021,0.0768127-0.3109741,0.1518707-0.4689331,0.2251434s-0.3175049,0.1447601-0.4785767,0.2144012
				c-0.1610107,0.0696564-0.3236084,0.1374817-0.4875488,0.2034607c-0.0327759,0.0131226-0.0656128,0.0262146-0.0985107,0.0392456
				c-0.032959,0.0130463-0.065918,0.0260162-0.098938,0.0389252c-0.0330811,0.0129089-0.0661621,0.0257568-0.0993042,0.0385132
				s-0.0662842,0.0254211-0.0994873,0.0380096h-0.000061l-0.000061,0.0000305
				c-0.1119385,0.0424194-0.2245483,0.0839996-0.3378296,0.1247559s-0.2271729,0.0806732-0.3416748,0.119751
				c-0.114502,0.0390625-0.2295532,0.077301-0.3451538,0.1146698s-0.2317505,0.0738831-0.3483887,0.1095276
				c-1.7506104,0.5347748-3.6229248,0.8765564-5.5390625,1.0083618s-3.8759766,0.0535736-5.8013306-0.2516632
				c-1.925354-0.3052216-3.8161621-0.8374481-5.5942993-1.6135864c-1.7780151-0.7760773-3.4432373-1.79599-4.9177246-3.0766144
				c-0.5592041-0.4862671-1.0819092-0.9842529-1.5686035-1.4922791c-0.4866333-0.5079803-0.9373169-1.0260162-1.352417-1.5524292
				c-0.4150391-0.5263824-0.7945557-1.0611267-1.1390991-1.6026001c-0.3444824-0.5414429-0.6539307-1.0895844-0.928833-1.6427917
				c-0.824646-1.6593933-1.338501-3.3642578-1.5550537-5.0698853c-0.2164307-1.7052307-0.1356812-3.4111938,0.2288818-5.0732422
				c0.364502-1.6616364,1.0127563-3.2793884,1.9312744-4.8086395c0.918335-1.5289001,2.1069336-2.9693604,3.5523682-4.2768402
				c0.0828857-0.0749512,0.1661987-0.1490021,0.2498779-0.2221985c0.0836182-0.0731964,0.1676636-0.1455231,0.2521362-0.2170563
				c0.0844116-0.0715179,0.1692505-0.1422272,0.2544556-0.2121735c0.0852661-0.0699615,0.1708984-0.1391449,0.256958-0.2076111
				c0.3649902-0.2906189,0.7366943-0.5667877,1.114563-0.8285675s0.7618408-0.509201,1.1513062-0.7423248
				c0.3894653-0.2331085,0.7844238-0.4519501,1.1842651-0.6565704c0.3998413-0.2046356,0.8045654-0.39505,1.213623-0.5713654
				c0.0720825-0.0310516,0.1444092-0.0617065,0.2169189-0.0919495c0.0724487-0.0302277,0.1451416-0.0600433,0.2178955-0.0894318
				s0.1456299-0.0583344,0.2186279-0.0868378c0.072998-0.0285187,0.1460571-0.0565796,0.2191772-0.0841675V209.4044495
				 M569.6716309,165.7942657l0.000061-0.0000305c0.0241089-0.009079,0.0482178-0.0178986,0.0723877-0.0265656
				c0.0241699-0.0086823,0.0483398-0.0171967,0.0725098-0.02565s0.0483398-0.0168457,0.0724487-0.0252533
				c0.0241699-0.0084076,0.0483398-0.0168457,0.0725098-0.0253906c1.4260254-0.5059357,2.8657227-0.791626,4.2987671-0.8770447
				s2.8595581,0.0294189,4.2592773,0.3245697c1.3997803,0.2951508,2.7728271,0.7706299,4.098938,1.4065247
				c1.3262329,0.6359406,2.6055908,1.4323425,3.8178101,2.3693085c0.0821533,0.0634766,0.1640015,0.1276245,0.2456055,0.1924286
				s0.1628418,0.1302643,0.2438354,0.1963501c0.0809326,0.0660858,0.1616211,0.1328125,0.2418823,0.2001648
				c0.0803223,0.067337,0.1602783,0.1352997,0.2398682,0.2038574c0.3393555,0.2922516,0.6633911,0.6024628,0.9714355,0.9286957
				s0.6000977,0.6684875,0.8754883,1.0248108c0.2754517,0.3563385,0.5342407,0.7267456,0.7757568,1.1092834
				c0.2415161,0.3825684,0.4657593,0.7772522,0.6721191,1.1821136c0.6741943,1.3227386,1.1571045,2.7541046,1.4261475,4.2259064
				c0.269104,1.4720917,0.3242188,2.9846802,0.1428223,4.4695129c-0.1814575,1.4851379-0.5996094,2.9425049-1.2770386,4.303772
				c-0.6775513,1.3615417-1.614563,2.6269226-2.8334961,3.7277222c-0.1462402,0.1327972-0.2938232,0.2624512-0.442749,0.3890381
				c-0.1489258,0.1265717-0.2990723,0.250061-0.4505615,0.3705292c-0.1514282,0.1204681-0.3040771,0.2378998-0.4579468,0.352356
				c-0.1538086,0.1144714-0.3088379,0.2259674-0.4649048,0.3345337c-0.0581055,0.040451-0.116394,0.0805206-0.1748047,0.120163
				c-0.0584717,0.0396576-0.1170654,0.0789032-0.1757812,0.1177216c-0.0587769,0.0388336-0.1176758,0.0772552-0.1766968,0.1152344
				c-0.059021,0.0379944-0.1181641,0.0755768-0.1774902,0.1127167c-0.2429199,0.1520996-0.4881592,0.297348-0.7355957,0.4357605
				c-0.2474365,0.1384277-0.4970093,0.2700195-0.7485962,0.3948212c-0.2515869,0.1247864-0.505127,0.2427673-0.760498,0.3539581
				c-0.2553101,0.1112061-0.5124512,0.2156219-0.7711792,0.3132629v0.0000153l-0.0001221,0.0000305
				c-0.0477295,0.0180206-0.0955811,0.0358276-0.1434937,0.053421c-0.0479736,0.0175781-0.0959473,0.0349579-0.144043,0.0520935
				c-0.0480347,0.0171356-0.0961914,0.0340576-0.1442871,0.0507355c-0.0481567,0.0166626-0.0963135,0.0331116-0.1444702,0.0493164
				c-0.9160156,0.3081207-1.8493652,0.5342102-2.7910767,0.6806641c-0.9417114,0.1464691-1.8917847,0.2133026-2.8411255,0.2029114
				c-0.9494019-0.0104065-1.8981323-0.0980377-2.8370972-0.2604675c-0.9389648-0.1624451-1.8682251-0.3996887-2.7788086-0.7093201
				c-0.505249-0.1717834-1.0046387-0.3659973-1.4967041-0.5821533c-0.4920654-0.2161407-0.9768066-0.4542236-1.4526978-0.7137451
				c-0.4758911-0.2595367-0.9429932-0.5404968-1.3997192-0.8424377c-0.4567871-0.3019257-0.9031982-0.6248169-1.3377686-0.9681854
				c-0.0601196-0.0475006-0.1200562-0.0952606-0.1798096-0.1433411c-0.0597534-0.0480652-0.1192627-0.0964661-0.1785889-0.1452332
				c-0.0592651-0.0487823-0.1183472-0.0979462-0.177124-0.1475677s-0.1173096-0.0997009-0.1755371-0.1503143
				c-0.425354-0.3659668-0.8252563-0.741394-1.1998291-1.1250763c-0.3746338-0.383667-0.723999-0.7755737-1.0484009-1.17453
				c-0.3243408-0.398941-0.6237183-0.8049164-0.8983154-1.2167053c-0.2745361-0.4117889-0.5244141-0.8293915-0.7496948-1.2516022
				c-0.7359009-1.3790588-1.2102051-2.807312-1.4314575-4.2425995c-0.2211914-1.4349823-0.1893921-2.8769836,0.086853-4.2838593
				c0.2762451-1.406601,0.796936-2.7780762,1.5535278-4.0723877c0.7564697-1.2940521,1.7487793-2.5109711,2.9685669-3.6087341
				c0.0300903-0.027298,0.0601807-0.0544739,0.090332-0.0815125c0.0300903-0.0270538,0.0602417-0.0539856,0.090332-0.0807953
				c0.0301514-0.0267944,0.0603027-0.0534821,0.0904541-0.0800629c0.0302124-0.0265656,0.0604248-0.0530243,0.0906982-0.079361
				c0.2722778-0.2365723,0.5463867-0.4629669,0.8219604-0.6793671c0.2756348-0.2164001,0.5528564-0.4227905,0.8314209-0.6193542
				s0.5585327-0.3832855,0.8396606-0.5603485c0.2811279-0.1770477,0.5635376-0.3444366,0.8468628-0.5023193
				c0.1574707-0.0876465,0.3153076-0.1723785,0.4733887-0.2542267c0.1580811-0.0818329,0.3164673-0.1607819,0.4750977-0.2368469
				c0.1586914-0.0760651,0.317627-0.1492615,0.4768066-0.2196045c0.1591187-0.0703278,0.3185425-0.1378174,0.4781494-0.2024536
				c0.0319214-0.01297,0.0639038-0.0258026,0.0958252-0.0385284c0.0319824-0.0127106,0.0639038-0.0252991,0.0958862-0.0377808
				s0.0639648-0.0248413,0.0959473-0.0370941c0.0320435-0.0122528,0.0640259-0.0243988,0.0960083-0.036438L569.6716309,165.7942657
				 M507.5320129,167.2743988c0.1802063-0.0996094,0.3627319-0.1960754,0.5474854-0.2893677
				c0.1847229-0.093277,0.3716431-0.1833801,0.5606384-0.2702789c0.1890259-0.0868988,0.3800964-0.170578,0.5731506-0.2510223
				s0.3880615-0.1576538,0.5849304-0.2315674l0.000061-0.0000305c0.098053-0.0368195,0.1965332-0.0728149,0.2954102-0.1079712
				c0.098877-0.0351715,0.1982117-0.069519,0.2979431-0.1030426c0.099762-0.0335083,0.1999817-0.0662079,0.3006592-0.0980988
				c0.1006775-0.0318756,0.2018127-0.0629425,0.3034363-0.0932007c0.710907-0.2116547,1.4425659-0.3827362,2.19104-0.5118103
				c0.7484131-0.1290741,1.5137329-0.2161713,2.2919312-0.2598724c0.7781982-0.0436859,1.5692749-0.0439911,2.3694458,0.0005035
				c0.8001099,0.0445099,1.609314,0.1338043,2.423584,0.2693329c1.7554321,0.2986755,3.3496704,0.7259369,4.7871094,1.264801
				c1.4375,0.5388947,2.7182007,1.1894226,3.8464355,1.9346313c1.1282959,0.7452698,2.1040649,1.5852661,2.9317017,2.503006
				c0.8276978,0.9178619,1.5072021,1.9135132,2.0427856,2.969986c0.3664551,0.7229156,0.6655273,1.4743195,0.8986206,2.2487793
				c0.2330933,0.7745361,0.4000854,1.5721436,0.5024414,2.3873749c0.102417,0.8153229,0.1400757,1.6482849,0.1143799,2.4934235
				c-0.0256348,0.8452301-0.1146851,1.7026672-0.2657471,2.5668488c-0.2047119,1.1648712-0.6134644,2.3182526-1.1953735,3.4275208
				c-0.5820312,1.1094513-1.3372192,2.1747742-2.2346802,3.1633301c-0.897583,0.9887085-1.937439,1.9006042-3.088623,2.7030487
				c-1.1513062,0.802536-2.4138794,1.4955597-3.7567139,2.0463715c-0.043335,0.0177612-0.086731,0.0353699-0.130188,0.0528412
				s-0.0869751,0.03479-0.1306152,0.0519714c-0.0435791,0.0171814-0.0872803,0.0342102-0.1311035,0.0510712
				c-0.0437622,0.0168762-0.0876465,0.0335999-0.1315918,0.0501709l-0.0001221,0.0000305
				c-0.0456543,0.0171967-0.0914307,0.0342407-0.1373291,0.0511017c-0.0458374,0.0168762-0.0918579,0.0335693-0.1378784,0.0501099
				c-0.0460815,0.0165253-0.0922241,0.0328827-0.1384277,0.0490723s-0.0925293,0.0322113-0.138855,0.0480652
				c-0.5117798,0.1752777-1.0333252,0.3298645-1.5630493,0.4621429c-0.5298462,0.1322632-1.0678711,0.242218-1.6126709,0.3282318
				c-0.5447998,0.0859985-1.0963135,0.1480408-1.6530151,0.184494c-0.5567627,0.0364532-1.1186523,0.0473175-1.6842651,0.0309601
				c-0.2028809-0.0059052-0.406189-0.015274-0.6098633-0.0281982c-0.2037354-0.0129242-0.4078369-0.0294189-0.6122437-0.0495758
				c-0.2044067-0.0201416-0.4091187-0.0439606-0.6140747-0.0715179c-0.2049561-0.0275726-0.4101562-0.0588837-0.6155396-0.0940552
				c-1.6242676-0.2682953-3.1339111-0.6835785-4.5207214-1.2251129c-1.3867188-0.5415039-2.6505432-1.2092133-3.7833252-1.9823914
				c-1.1326904-0.7731171-2.1343384-1.6516571-2.9967651-2.6148682c-0.8623047-0.963089-1.5854492-2.0108032-2.1612549-3.1224213
				c-0.3690796-0.7124329-0.6775818-1.4511108-0.9234619-2.210556c-0.2458496-0.7593689-0.4290466-1.5395203-0.5474854-2.3349762
				c-0.1184387-0.7953796-0.1721191-1.6060638-0.1589355-2.4266052c0.0131836-0.8204498,0.0932312-1.6507721,0.242218-2.4854889
				c0.0543518-0.3081055,0.1170959-0.6115112,0.1879578-0.9100952c0.0708618-0.2985535,0.1498413-0.5923004,0.2367249-0.8811035
				c0.086853-0.2887878,0.1816101-0.5726318,0.2839661-0.8514252c0.102356-0.2787781,0.2123413-0.5525055,0.3297119-0.8210602
				c0.3353882-0.7673798,0.7310181-1.4929352,1.1808167-2.1744995c0.4497986-0.681488,0.9537659-1.3190308,1.5059814-1.9104919
				c0.552124-0.5914001,1.1524963-1.136734,1.7950745-1.6338806
				C506.1262512,168.121933,506.8110046,167.6730194,507.5320129,167.2743988 M589.4226074,105.0390778L21.9323425,317.5216675
				c-4.1516876,1.5544739-7.750391,3.7855225-10.7034311,6.489624c-2.9542809,2.7052612-5.2626767,5.8842773-6.8319192,9.3332825
				c-1.5700264,3.4507141-2.4002385,7.1718445-2.3969827,10.9590149c0.0032578,3.7891235,0.8408506,7.6443481,2.6065516,11.3606262
				l75.3667984,158.6249084c2.2370987-3.0903015,4.5732346-6.2287598,7.0118332-9.405304
				c2.4374542-3.1750183,4.9772339-6.388031,7.6227798-9.6289062c2.6442642-3.2393188,5.3941498-6.5064697,8.2530975-9.7913208
				c2.8575287-3.2832642,5.8239822-6.5842285,8.9027863-9.8927917L58.3439903,363.8946533
				c-0.8877144-1.8558044-1.3123474-3.7826233-1.3198509-5.6776733c-0.0075035-1.8945618,0.4019051-3.7574158,1.1823006-5.4859619
				c0.7801971-1.7281189,1.9312134-3.3220825,3.4072151-4.6794128c1.4756927-1.3570557,3.2763138-2.4776917,5.3561783-3.2595825
				l149.5157471-56.2070618c1.0376434-0.3900757,2.0960693-0.677063,3.1607208-0.865509
				c1.064621-0.1884155,2.1354828-0.2782593,3.1980133-0.2740784c1.0625153,0.0042114,2.116745,0.1024475,3.1481018,0.2902527
				s2.0398712,0.4651794,3.0109406,0.8276062c0.9804993,0.3412476,1.9235992,0.7675476,2.8152771,1.2731628
				c0.8917236,0.5056152,1.7320557,1.0905457,2.5069885,1.7489624c0.7749939,0.6584778,1.4846039,1.3904724,2.1147919,2.190155
				c0.630249,0.7998047,1.1810913,1.6673279,1.638504,2.5968018l36.3857727,73.9382935
				c9.0626221-3.2594299,18.0424194-6.2249451,26.915741-8.9876404c8.8686523-2.761261,17.6314697-5.3200684,26.2645264-7.7672119
				c8.6289062-2.4459839,17.128479-4.7804871,25.4744873-7.0940552c8.3421936-2.3125305,16.5310364-4.604187,24.5420227-6.9653015
				c0.7055359-0.2081909,1.4133911-0.4180603,2.1236572-0.6296082s1.4229126-0.4247742,2.1380005-0.63974
				c0.7150574-0.2149353,1.4325867-0.4315796,2.1526184-0.6499634c0.7200012-0.2183533,1.4425049-0.438446,2.1675415-0.6602783
				c4.2763977-1.3085938,8.6374207-2.6783447,13.0801392-4.1131897c4.4415283-1.4344788,8.9646301-2.934021,13.5663147-4.5025635
				c4.6003723-1.5681152,9.2792053-3.2052002,14.0335388-4.9151917c4.7528687-1.7094727,9.5811157-3.4917908,14.4817505-5.3509216
				c0.0297546-0.0112915,0.0596619-0.0226135,0.0896301-0.0339661c0.0299683-0.011322,0.0599976-0.0226746,0.0900574-0.0340271
				s0.0600891-0.0227051,0.0900879-0.0340576s0.059906-0.0226746,0.0896912-0.0339966l0.000061-0.0000305
				c0.2558594-0.097168,0.5123596-0.1947632,0.7693176-0.2926636c0.2569275-0.0979004,0.5142822-0.196106,0.7718506-0.2945251
				c0.2575684-0.0983887,0.5153198-0.1970215,0.7730408-0.2957764c0.2576904-0.0987244,0.5153809-0.1975708,0.7727966-0.2964478
				c14.1523743-5.4354858,28.894928-11.5100708,44.1624756-18.3183289
				c15.2493286-6.8001404,31.019104-14.3306885,47.2434692-22.6851501
				c16.2012939-8.3425903,32.8519287-17.5046997,49.885498-27.578537
				c17.0050049-10.0569305,34.387085-21.0198364,52.0793457-32.9793854c0.2838745-0.1919403,0.5686646-0.3847351,0.8538818-0.578064
				s0.5708618-0.387207,0.8566284-0.5813293s0.5715942-0.3884888,0.8571167-0.5828247
				c0.2855225-0.1943207,0.5707397-0.3886108,0.8552246-0.58255c0.0817871-0.0557709,0.1629639-0.1109924,0.2438965-0.1659546
				s0.161499-0.1096802,0.2421265-0.1644135s0.1612549-0.1094971,0.2421875-0.164566
				c0.0809326-0.0550537,0.1621704-0.1104279,0.2439575-0.1663666c0.565979-0.3867493,1.1325073-0.7748718,1.6995239-1.1641846
				c0.5669556-0.3892975,1.1343994-0.7798004,1.7020874-1.1713104c0.567688-0.3914948,1.1356812-0.7840118,1.7038574-1.1773834
				c0.5680542-0.3933411,1.1362915-0.7875366,1.7045288-1.1824036c1.1928711-0.8288574,2.387085-1.6623535,3.5825806-2.5004425
				c1.1953735-0.8379822,2.3919678-1.6805725,3.5899048-2.5277557c1.1976929-0.8470612,2.3966675-1.6987152,3.5968628-2.5549469
				c1.2000122-0.8561249,2.4012451-1.7168121,3.6036377-2.582077c0.5123291-0.3686523,1.0247803-0.7378693,1.5374756-1.1078033
				c0.5126343-0.3699188,1.0254517-0.7405396,1.5384521-1.1120148c0.5130005-0.3714447,1.0261841-0.7437439,1.5396729-1.1170349
				c0.5134277-0.3732605,1.0270386-0.7475128,1.5410156-1.1228943l-38.0841064-72.7262344
				c-1.8756104-3.5817184-4.4697876-6.6890259-7.5548706-9.2417145c-3.0841675-2.551918-6.6594238-4.5499878-10.4986572-5.9138641
				c-3.8387451-1.3637009-7.9420776-2.0936203-12.083252-2.1091003
				C597.5946045,102.8453369,593.4145508,103.5443878,589.4226074,105.0390778"/>
			<path class="st3" d="M188.5540924,438.5491943l-0.0000763,0.0000305
				c-0.0744019,0.0283203-0.1489258,0.0567932-0.223465,0.0853882c-0.0745239,0.028595-0.1490784,0.057312-0.2235413,0.0861206
				c-0.0744476,0.0288086-0.148819,0.0577087-0.2229767,0.0866394c-0.0741577,0.0289612-0.1481171,0.0579529-0.221756,0.0869751
				c-9.3963776,3.6970825-17.2935944,8.7232056-23.8562164,14.18573
				c-6.568222,5.4671631-11.8000641,11.3718567-15.8578491,16.8174133
				c-4.0610657,5.4499817-6.9455109,10.4391479-8.815155,14.0670471c-1.870636,3.6297913-2.7246399,5.8954163-2.7246399,5.8954163
				s-0.0522766,0.0905457-0.1504059,0.2731628c-0.0981445,0.1826172-0.2421722,0.4573059-0.4256592,0.8256531
				c-0.1835022,0.3683777-0.4064941,0.8304138-0.6625671,1.3876648c-0.2561035,0.5572815-0.5452881,1.2098389-0.8612061,1.9591675
				l0.561203,1.1710815c0.1402893,0.2927551,0.3069153,0.5458374,0.4893951,0.7649841
				c0.1824799,0.2191162,0.3808136,0.4042969,0.5844879,0.5612488c0.2036896,0.1569214,0.412735,0.2855835,0.6166534,0.3917236
				c0.2039032,0.1061401,0.4026794,0.1896973,0.5858154,0.2564392c0.150238,0.0611267,0.336731,0.1243591,0.5532684,0.1766968
				c0.2165527,0.0523071,0.4631348,0.0937195,0.7335358,0.1112061c0.2703857,0.0175171,0.5645905,0.0110779,0.876358-0.0322266
				c0.3117523-0.043335,0.6410828-0.1235962,0.9817505-0.2537537l6.3347778-2.4203491l144.3071289-55.1365662
				c0.3371582-0.1288147,0.6260376-0.2845459,0.8732605-0.4538269c0.2471924-0.1692505,0.4526978-0.3520813,0.6230774-0.5350647
				c0.1703491-0.1829834,0.305603-0.3661499,0.4122925-0.5361328s0.1848145-0.3267517,0.2409363-0.4570007
				c0.0561218-0.1302795,0.1138611-0.2929077,0.1610413-0.4820862s0.0838318-0.4049377,0.0977173-0.641449
				c0.013916-0.2365417,0.005127-0.4938354-0.0385742-0.7661438c-0.0437012-0.2722778-0.1223145-0.5595703-0.2479553-0.8561096
				c-3.6570129-1.2319641-7.3669739-2.3890686-11.1173096-3.4506836c-3.7500305-1.0614929-7.5405579-2.0275574-11.3590088-2.877533
				c-3.8182678-0.8499451-7.6645813-1.5838623-11.5264587-2.1811218c-3.8617859-0.5972595-7.7392731-1.0578918-11.6199799-1.3612671
				c0,0-0.4937744-0.0787354-1.6825409-0.0758057c-1.188797,0.0028992-3.0726776,0.0874329-5.8530731,0.4139404
				c-2.7806396,0.3265381-6.4582367,0.8951416-11.234726,1.866333c-4.7775116,0.9713745-10.6550903,2.3456421-17.8356781,4.2836304
				c-1.2560425,0.3425293-2.5459747,0.697937-3.8738861,1.0694885c-1.3280029,0.371582-2.6940002,0.7593079-4.1020355,1.1664429
				c-1.4081573,0.4071655-2.8583832,0.8337402-4.3547516,1.282959c-1.4964905,0.4492798-3.0391541,0.9212036-4.6320648,1.4190369
				c-0.4542236,0.1398315-0.9051514,0.2827454-1.35289,0.4286804s-0.8922729,0.2948608-1.3336945,0.4467163
				c-0.4414368,0.151886-0.8797607,0.3067017-1.3150635,0.4644165c-0.435318,0.1576843-0.8675995,0.3182678-1.2969666,0.4816589
				c-0.0006104,0.0002441-0.0014191,0.0005493-0.0023346,0.000885c-0.0009003,0.0003662-0.0019226,0.0007324-0.0029297,0.0011292
				s-0.0020142,0.0007629-0.0029297,0.0011292C188.5555115,438.548645,188.5547028,438.5489502,188.5540924,438.5491943"/>
			<path class="st3" d="M157.6116638,349.0080261l-0.000061,0.0000305c-0.079422,0.0299377-0.1585083,0.0599976-0.2373352,0.0901489
				c-0.0788116,0.0301819-0.1573639,0.0604553-0.2357025,0.0908508c-0.0783234,0.030426-0.1564484,0.0609741-0.2344055,0.0917053
				c-0.0779572,0.0307007-0.1557617,0.0615845-0.2334747,0.0926514c-4.2577515,1.7028198-7.869873,3.8222046-10.86586,6.2755127
				c-2.9971466,2.4542847-5.3778992,5.2429199-7.1715698,8.2832031c-1.7944794,3.041626-3.0014343,6.3352661-3.6500549,9.7980042
				c-0.6489563,3.4644165-0.7390594,7.098175-0.2994995,10.8181458c0.0473022,0.4002991,0.1007843,0.8016357,0.1603851,1.2039185
				c0.0596161,0.4022827,0.1253357,0.805481,0.1971283,1.2094727c0.0717926,0.4040222,0.1496582,0.8088379,0.2335358,1.2143555
				c0.0838623,0.4055176,0.1737518,0.8117065,0.2695923,1.2184448c0.0358582,0.1522827,0.0724487,0.3045349,0.1098328,0.4567871
				c0.037384,0.1522827,0.0755463,0.3045959,0.1145325,0.4570007c0.0390015,0.1524048,0.0788422,0.3048706,0.1195831,0.457428
				c0.0407257,0.1525879,0.0823517,0.3052979,0.1249237,0.4581909c0.1138611,0.4095459,0.2383575,0.8179932,0.3731842,1.2250061
				c0.1348419,0.407074,0.2800293,0.8127441,0.4353027,1.2167664c0.1552734,0.4040833,0.3206329,0.806488,0.4958038,1.2070312
				c0.1751709,0.4005737,0.3601685,0.7992554,0.5547028,1.1958008c1.3621368,2.7766724,3.1923065,5.449585,5.3988037,7.9357605
				c2.2071686,2.4869385,4.790741,4.7868958,7.6587524,6.8168335c2.8686829,2.030426,6.021698,3.7905579,9.3668823,5.1972961
				c3.3456573,1.4069519,6.8831787,2.4602661,10.5202179,3.0769348c1.2860413,0.2155151,2.5865631,0.3781738,3.8966522,0.4830322
				s2.6297302,0.1519165,3.9540253,0.136261c1.3242645-0.015625,2.6531677-0.0939941,3.9817963-0.2399597
				c1.3285675-0.1459351,2.6568451-0.3595276,3.9799042-0.6455994c0.4491882-0.0968628,0.8937683-0.1987305,1.3338165-0.305481
				c0.440033-0.10672,0.8755341-0.2183228,1.3065338-0.3346558s0.8574982-0.2373657,1.2795563-0.3629456
				c0.4220428-0.1256104,0.8396454-0.2557373,1.2528381-0.3902893c0.1126099-0.0366821,0.2250519-0.0736084,0.3372192-0.1107788
				c0.1121826-0.0372009,0.2240906-0.0746765,0.3356628-0.1124878c0.1115875-0.0378113,0.2228241-0.0759583,0.3336487-0.1144714
				s0.2212219-0.0774231,0.3311462-0.1167297c0.073288-0.0262146,0.1464386-0.0525513,0.2194519-0.0790405
				s0.145874-0.0531311,0.2185822-0.0799255c0.0727234-0.0267944,0.1452789-0.0537415,0.2176819-0.0808411
				c0.0723877-0.0270691,0.1446228-0.0543213,0.2166901-0.0816956l0.0000763-0.0000305
				c0.3561249-0.1353455,0.7086029-0.274231,1.0573883-0.416626s0.6938934-0.288269,1.0352631-0.4375305
				c0.3413544-0.1492615,0.6789856-0.3019104,1.0128479-0.4578857c0.333847-0.1559448,0.6639099-0.3152161,0.9901581-0.4776917
				c2.563797-1.276825,4.894928-2.7553101,6.9850922-4.404541c2.0895996-1.6488037,3.9382782-3.4682312,5.5377502-5.4273376
				c1.5990143-1.9585266,2.9489288-4.0566101,4.0415344-6.2633972c1.0922546-2.2060852,1.9273376-4.520752,2.4971008-6.913208
				c0.0207062-0.0870056,0.0410614-0.1740723,0.0610657-0.2612305s0.0396576-0.174408,0.05896-0.2617188
				c0.0193176-0.0873413,0.038269-0.1747742,0.0568695-0.2622986c0.0186157-0.0875549,0.0368652-0.1752014,0.0547791-0.26297
				c0.2846985-1.3406677,0.4872284-2.7061768,0.60495-4.0903931c0.1177063-1.3839417,0.1506348-2.7866211,0.0961609-4.2019653
				c-0.0544739-1.4150391-0.1963043-2.8427429-0.4281464-4.2770386c-0.231781-1.4339905-0.5535431-2.8745728-0.9678955-4.3156738
				c-0.1662445-0.5840149-0.3445435-1.1601868-0.5345612-1.728363c-0.1900177-0.5681458-0.3917389-1.1282959-0.6048584-1.6803589
				c-0.2131042-0.5520325-0.4376068-1.0959778-0.6731873-1.6317139c-0.2355499-0.5357056-0.4821777-1.0632019-0.7395325-1.5823975
				c-2.0949249-4.2262878-4.9011841-7.9032288-8.2410126-10.9751587c-3.3386078-3.0707703-7.2109985-5.5375061-11.4399719-7.3442383
				c-4.2281952-1.8064575-8.8136597-2.9534912-13.5795288-3.3848572c-4.7659454-0.4313965-9.7132721-0.1471558-14.6652679,0.9093628
				c-0.7459106,0.1594543-1.4777069,0.3289795-2.1955414,0.5082092c-0.7178497,0.1792603-1.4217377,0.3682251-2.1118164,0.5666199
				c-0.6901093,0.1983948-1.3664093,0.4062195-2.0290527,0.6231689c-0.6626587,0.2169495-1.3116608,0.4430237-1.9471741,0.6779175
				c-0.0275116,0.0101318-0.0552368,0.0202332-0.0830688,0.030304c-0.0278473,0.0101013-0.0557709,0.0201721-0.0836792,0.0302734
				s-0.0557861,0.0202332-0.0835114,0.0303955C157.6665344,348.9875183,157.6389618,348.9977417,157.6116638,349.0080261"/>
			<path class="st4" d="M551.8716431,443.8078613c-4.0944824,1.5791016-7.5031738,3.3087158-10.225708,5.1877747
				c-2.7233887,1.8796082-4.7603149,3.9088135-6.1104126,6.0865173c-1.3505249,2.1784058-2.0137939,4.5054626-1.989502,6.9801331
				c0.024292,2.4754944,0.7366943,5.0987549,2.1375122,7.8686829c1.4052124,2.7785339,3.1488037,5.0108337,5.2305908,6.6970825
				c2.0821533,1.686615,4.5021973,2.8266907,7.2595825,3.4207153c2.7575684,0.5940247,5.8520508,0.6418762,9.2828369,0.1441956
				c3.4304199-0.4975891,7.1964111-1.5404663,11.2973022-3.1276855c4.1080322-1.5899658,7.5234985-3.326416,10.2474365-5.210083
				c2.7231445-1.8830872,4.755127-3.9132996,6.0970459-6.0914001c1.3414307-2.1773987,1.9932861-4.5025635,1.956665-6.9762573
				c-0.0366211-2.4728699-0.7612915-5.0941162-2.1728516-7.864502c-1.4072266-2.7618713-3.1491699-4.982605-5.2265625-6.661377
				c-2.0769043-1.6784668-4.489502-2.8154297-7.2384033-3.4097595c-2.7488403-0.5943298-5.8344727-0.6461487-9.2578735-0.1541443
				C559.7355347,441.1898193,555.9733276,442.2259827,551.8716431,443.8078613"/>
			<path class="st4" d="M641.7692261,370.5531006c-0.3308716-0.6413879-0.5900879-1.2831116-0.7764893-1.9239502
				c-0.1863403-0.6407776-0.2998657-1.2806702-0.3393555-1.918457c-0.0394287-0.6377563-0.0048218-1.2733765,0.1051025-1.9057312
				c0.1099243-0.6322632,0.295105-1.2612305,0.5568237-1.8856506c0.253418-0.6211853,0.5629883-1.2006226,0.9291382-1.7374573
				c0.3661499-0.5367737,0.7888184-1.0309143,1.2686157-1.4814758c0.4797363-0.4505615,1.0165405-0.8575439,1.6109619-1.2200623
				c0.5942993-0.3624878,1.2462158-0.680481,1.9561768-0.953064c0.7098999-0.2725525,1.4200439-0.4775085,2.1300049-0.6158142
				c0.7098999-0.1383362,1.4196777-0.2099915,2.1287231-0.2159729s1.4174194,0.0537415,2.1246948,0.1781921
				c0.7072144,0.1244507,1.4133301,0.3136597,2.1178589,0.5666809c0.7127686,0.2499084,1.3782959,0.5518188,1.9963989,0.9041443
				c0.618042,0.3523254,1.1886597,0.7550964,1.7116089,1.206665c0.5230103,0.4515991,0.998291,0.9520569,1.4256592,1.4997253
				c0.4274902,0.547699,0.8070068,1.1426697,1.1384888,1.7832947l12.8890381,24.9118347l27.0415649-10.4208069
				c0.7092285-0.2732849,1.4169922-0.482605,2.1235352-0.6275024c0.706543-0.1448669,1.4119263-0.2253113,2.116394-0.2408447
				s1.40802,0.0338135,2.1109009,0.1485596c0.7028809,0.1147156,1.4051514,0.2948303,2.1069946,0.5407715
				c0.7061768,0.235199,1.3652954,0.5225525,1.9778442,0.8618774s1.1785889,0.7306519,1.6985474,1.1737061
				c0.5199585,0.4431152,0.9939575,0.9380188,1.4223633,1.4844971c0.4284668,0.5465088,0.8114014,1.1446533,1.149353,1.7941895
				c0.3379517,0.6495972,0.602417,1.2958679,0.7928467,1.9390259c0.1904297,0.643219,0.3068848,1.2832947,0.3486938,1.9204407
				c0.0418701,0.637207,0.0091553,1.2715149-0.0986938,1.9030457c-0.1078491,0.6316223-0.2908325,1.260498-0.5494385,1.8868408
				c-0.24646,0.6307983-0.5512695,1.216095-0.9142456,1.7563477c-0.3629761,0.5403137-0.7841187,1.035553-1.2631836,1.4861755
				c-0.4790649,0.4506531-1.0160522,0.85672-1.6107178,1.2186279c-0.5947266,0.3619385-1.2470703,0.6796875-1.9569092,0.9537659
				l-27.0644531,10.4501953l12.9609985,25.0508728c0.3344116,0.6463623,0.5960083,1.2912903,0.7835693,1.9335632
				c0.1876221,0.642334,0.3011475,1.2820435,0.3393555,1.9178772c0.038208,0.6358643,0.0010376,1.2678528-0.1127319,1.8947449
				c-0.1137085,0.6269226-0.3041382,1.2487488-0.5724487,1.8641968c-0.2560425,0.6200562-0.5696411,1.196167-0.9405518,1.7288513
				c-0.3709717,0.5327148-0.7992554,1.0219727-1.2846069,1.4682312c-0.4853516,0.4463196-1.027832,0.8496094-1.6271362,1.2103882
				c-0.5993652,0.3608093-1.2555542,0.6790771-1.9683228,0.9553223s-1.4241333,0.4879456-2.1342773,0.634613
				c-0.7102051,0.1466675-1.4191895,0.228302-2.1271362,0.2444153c-0.7080688,0.0160828-1.4150391-0.0333252-2.1213379-0.1487732
				s-1.4118042-0.2969055-2.1168213-0.5448608c-0.7092285-0.236969-1.3720703-0.5285339-1.9882202-0.8730469
				c-0.6160889-0.3445129-1.1854858-0.7419434-1.7079468-1.1906738c-0.5224609-0.4486694-0.9979858-0.9486389-1.4263916-1.49823
				c-0.4282837-0.5495605-0.8095093-1.1487122-1.1433105-1.7958374l-12.937561-25.0809937l-27.1535034,10.4845886
				c-0.713501,0.2755127-1.4263306,0.4847107-2.1386719,0.6271057c-0.7124023,0.142395-1.4242554,0.2179871-2.1359253,0.2262878
				c-0.7116699,0.0083313-1.4230957-0.0506287-2.1344604-0.1773376c-0.7113647-0.1266785-1.4226685-0.3211365-2.1342163-0.5837708
				c-0.7158813-0.2518311-1.3831787-0.5542603-2.0023804-0.907135c-0.6191406-0.3528442-1.1901855-0.756134-1.7136841-1.2095947
				c-0.5234375-0.4534302-0.9992676-0.9570618-1.4280396-1.5106506c-0.4287109-0.5535889-0.8103638-1.1571045-1.1455078-1.8103638
				c-0.335022-0.6531982-0.5953369-1.3011169-0.7802734-1.9438782c-0.1849365-0.6427002-0.2946167-1.2802734-0.3284912-1.9129333
				c-0.0338135-0.6325989,0.0081177-1.2602539,0.1263428-1.8831787c0.1182251-0.6228638,0.3127441-1.2409973,0.5841064-1.8545837
				c0.2590942-0.6179504,0.5754395-1.1920166,0.9487305-1.7227173c0.373291-0.5306396,0.8035889-1.0179138,1.2905884-1.4622803
				s1.0307007-0.8458252,1.6309204-1.2048645c0.6001587-0.3590393,1.2568359-0.6756897,1.9697266-0.9504395l27.1304321-10.4550476
				L641.7692261,370.5531006 M369.2786255,462.2553711c-0.5156555-1.0410767-0.8737793-2.0673523-1.0740967-3.0794373
				c-0.2002869-1.0119324-0.2428284-2.0097046-0.1273499-2.9940186c0.115448-0.9841614,0.3888855-1.954834,0.8205261-2.9126892
				c0.4316101-0.9577637,1.0213623-1.9026794,1.7695618-2.8355103l22.6092224-28.8216248
				c0.8288879-1.0605774,1.6965027-2.0429688,2.6034241-2.9473877c0.9067688-0.9042969,1.8528442-1.7306519,2.8387146-2.4793701
				c0.9857483-0.7485962,2.011322-1.4195557,3.0772705-2.013092c1.0658264-0.5934753,2.1719971-1.1095581,3.3190613-1.5484619
				c1.0800171-0.413269,2.1476746-0.7312622,3.2035522-0.9541931c1.0557861-0.2229309,2.099823-0.3507996,3.1326294-0.3838501
				s2.0543823,0.028717,3.0653076,0.1851196s2.0112305,0.4074402,3.0014343,0.7528992
				c0.9902649,0.3455505,1.9214172,0.7771301,2.7936707,1.2952576c0.8723145,0.518158,1.685791,1.1228943,2.4406433,1.8146973
				c0.7548828,0.691864,1.4512024,1.4707947,2.0891418,2.3373718c0.638031,0.8666382,1.2176819,1.8209229,1.7392578,2.8633728
				l45.495575,90.934082l18.2444763-7.0594788c2.3922729-0.9256592,4.6008911-1.5024719,6.6266174-1.7307739
				c2.0255737-0.228302,3.8684692-0.1081543,5.5293579,0.36026c1.6609497,0.4684448,3.1400146,1.2851868,4.4378662,2.4501648
				c1.2980042,1.1651306,2.414856,2.6787109,3.3511047,4.540741c0.9519348,1.89328,1.4862061,3.6637878,1.6025696,5.3126526
				c0.116394,1.649292-0.1852722,3.1767578-0.9051819,4.5836182c-0.7200623,1.4071655-1.858551,2.6936646-3.4155579,3.8604736
				c-1.557312,1.1670532-3.5332642,2.2144775-5.9280396,3.1433105l-67.3837585,26.1359253
				c-2.4316406,0.9431152-4.6769409,1.5322876-6.736084,1.7662964c-2.0592957,0.2340698-3.932251,0.1129761-5.6191711-0.3642578
				c-1.6868896-0.4771729-3.187561-1.3104858-4.5024719-2.5006104c-1.3146973-1.1900024-2.4435425-2.7366943-3.3869324-4.6408081
				c-0.9278564-1.8726807-1.4354858-3.6286621-1.5231018-5.2679443c-0.087616-1.6389771,0.2446289-3.1613159,0.9966125-4.5671997
				c0.7518005-1.4055786,1.9231567-2.6947021,3.5139771-3.8674316c1.5905457-1.1725464,3.6004028-2.2286987,6.02948-3.1686401
				l18.3400574-7.0964355l-36.5774231-73.4533997l-12.5551147,16.119751
				c-0.3629456,0.4587097-0.7399597,0.8840637-1.1323853,1.2760315c-0.3924255,0.3919983-0.8002319,0.7505798-1.2246704,1.0756531
				c-0.4244995,0.3251038-0.8656311,0.6166992-1.324707,0.8747253c-0.4591064,0.2580261-0.9361572,0.4824524-1.4324646,0.6732178
				c-0.8159485,0.3136597-1.6414795,0.5374451-2.4760437,0.6711731c-0.8345947,0.133728-1.6781921,0.1773682-2.5302734,0.1307678
				c-0.8520508-0.0466309-1.7125854-0.1835022-2.5809937-0.4108887c-0.8684082-0.227356-1.7446899-0.5451965-2.6283264-0.9537048
				c-0.8797607-0.4007263-1.6983948-0.8500061-2.455658-1.3473206c-0.7572327-0.4973145-1.4530945-1.0426636-2.0873718-1.6355896
				c-0.6342163-0.592865-1.2068176-1.2332458-1.7175598-1.9206848
				C370.1142883,463.7707214,369.6654053,463.0363159,369.2786255,462.2553711 M482.1524353,422.5571289
				c-1.3146057-2.6092529-2.2852783-5.1884155-2.9116821-7.7376709c-0.6261597-2.5484009-0.9082642-5.066925-0.8459473-7.5557556
				c0.0622864-2.4879761,0.46875-4.9462891,1.2197266-7.3751526c0.7507019-2.428009,1.8457031-4.8265686,3.2853088-7.1959229
				c1.4474182-2.3717651,3.186676-4.6264038,5.2184448-6.7648926c2.0311279-2.1377869,4.3546143-4.1595764,6.9711914-6.0662842
				c2.6157837-1.9061584,5.5245361-3.6973267,8.7269592-5.3745117c3.2015076-1.6767273,6.6966248-3.2395325,10.4860535-4.6893616
				c3.8216553-1.4621887,7.5337524-2.6592712,11.1363525-3.5907593c3.6019287-0.9313354,7.0946045-1.5971985,10.4780273-1.9970703
				c3.3830566-0.3998413,6.6571045-0.5337524,9.8220825-0.4010925c3.164856,0.1326294,6.2208862,0.5318298,9.1680298,1.1982422
				c2.9472656,0.6664734,5.694397,1.5765686,8.2410889,2.7306213c2.5469971,1.1541748,4.8936157,2.5524597,7.0395508,4.1951599
				c2.1462402,1.6430054,4.0918579,3.5306396,5.8363037,5.6632996c1.7449341,2.1332397,3.2886963,4.5117798,4.6307983,7.1361084
				c0.8588867,1.6793823,1.5736084,3.3534546,2.1446533,5.0220337c0.571167,1.6689758,0.9985962,3.3323975,1.2827759,4.9901428
				c0.2842407,1.6581421,0.4251709,3.3105469,0.4232178,4.9570618c-0.0018921,1.6469116-0.1467896,3.2879028-0.434082,4.9227905
				c-0.2911987,1.6277771-0.7202148,3.1954041-1.2868042,4.7022095c-0.5667725,1.5071411-1.2711182,2.9534302-2.112854,4.3381348
				c-0.8418579,1.3849792-1.821228,2.7083435-2.9377441,3.9693909c-1.1167603,1.261322-2.3707275,2.4602661-3.7616577,3.5961304
				c2.2462158-0.2195435,4.4294434-0.2989502,6.5498047-0.2381897c2.1203003,0.060791,4.1777344,0.2617188,6.1724243,0.6027832
				c1.994751,0.341095,3.9268188,0.8223572,5.7962646,1.4438171c1.8695679,0.6214905,3.6765747,1.3832092,5.4210205,2.2852173
				c1.7485352,0.909668,3.3981934,1.941864,4.9499512,3.0974121c1.5519409,1.1556702,3.0061035,2.4347839,4.3634033,3.8381042
				c1.3574829,1.403595,2.6182251,2.9314575,3.7832031,4.5845032c1.1651611,1.6534119,2.2345581,3.4320374,3.2092285,5.3368225
				c1.4273071,2.7894592,2.4869995,5.5418701,3.1777954,8.2564697c0.6911011,2.7155457,1.0130615,5.39328,0.9647217,8.0323792
				c-0.0484009,2.6400757-0.4673462,5.2414856-1.2581177,7.8035278c-0.7910767,2.5629272-1.9542236,5.0864563-3.4906006,7.5697632
				c-1.5330811,2.4917908-3.3913574,4.8718872-5.574646,7.1406555c-2.184082,2.2695618-4.6933594,4.4276428-7.527771,6.4747009
				c-2.8353271,2.047699-5.9959106,3.9842224-9.4816284,5.809967c-3.4868164,1.8262939-7.2988892,3.5417175-11.4360962,5.146637
				c-4.1383667,1.6053772-8.154541,2.9266052-12.0478516,3.9627991c-3.894104,1.0364075-7.6650391,1.7875977-11.3121948,2.2527466
				c-3.647644,0.46521-7.1712646,0.6442871-10.5702515,0.5365295c-3.3991089-0.1077881-6.6734009-0.5024414-9.8223267-1.1846313
				c-3.1533203-0.6712952-6.0896606-1.6126404-8.8088379-2.8227844c-2.7188721-1.2099915-5.220459-2.6886292-7.5047607-4.4346008
				c-2.2837524-1.745636-4.3500977-3.7583313-6.1990356-6.0367126c-1.8483887-2.277771-3.4793396-4.8208923-4.8928528-7.6279602
				c-0.9960938-1.9781189-1.8154907-3.9231873-2.4582214-5.8363647c-0.6425781-1.9126892-1.108551-3.7935181-1.3979797-5.6436768
				c-0.2893372-1.8497009-0.4022522-3.6687317-0.3386841-5.4582825c0.0635071-1.789093,0.3034058-3.5487366,0.7196045-5.2800903
				c0.4115906-1.7200928,0.9923401-3.386322,1.7421875-4.9987793c0.7496643-1.6120911,1.6683655-3.1704102,2.756012-4.6750183
				c1.0874329-1.5042725,2.3437805-2.954834,3.7689819-4.3517761c1.4248657-1.3966064,3.0185547-2.739624,4.7810059-4.0290222
				c-1.9918213,0.0656128-3.9300537,0.0103455-5.8154907-0.1649475c-1.8854675-0.1752625-3.7180176-0.4705505-5.4984741-0.8849182
				c-1.780365-0.4143982-3.5085754-0.9478455-5.1853943-1.5995178c-1.6766663-0.6516418-3.3018799-1.4214172-4.8764038-2.3084412
				c-1.5827332-0.883728-3.0700989-1.865387-4.4631348-2.9445801c-1.3928528-1.0790405-2.6913757-2.2555542-3.8965759-3.5290527
				c-1.2050171-1.2732849-2.3167114-2.6435242-3.3361511-4.11026
				C483.9151306,425.7787781,482.9881897,424.2159119,482.1524353,422.5571289 M298.6101685,383.8216248l-0.0006714,0.0002441
				c-0.3023376,0.1149902-0.6045837,0.2304382-0.9067688,0.3464661s-0.6043701,0.2325745-0.9065857,0.3497314
				s-0.6044922,0.2348938-0.9069519,0.3532715c-0.3024292,0.1183472-0.6050415,0.2373657-0.9078979,0.3570557
				c-0.3226013,0.1275024-0.6454773,0.2557983-0.9685364,0.3848877c-0.3230286,0.1290588-0.6462402,0.2588806-0.9695129,0.3894043
				c-0.3233032,0.1305237-0.6466675,0.2617188-0.9700317,0.3935852c-0.3233643,0.1318359-0.646698,0.2643127-0.9699402,0.3973694
				c-0.398468,0.1640015-0.7968445,0.3289795-1.1952209,0.4950256c-0.398407,0.1660767-0.796814,0.3331909-1.195343,0.5014038
				c-0.3985596,0.1682434-0.7972107,0.3375549-1.1961365,0.5080261c-0.3989258,0.1705017-0.7980957,0.3421021-1.1976318,0.5149231
				c-0.1885376,0.081543-0.3770142,0.1631775-0.5654602,0.2450562c-0.1884766,0.0818481-0.3769226,0.1638794-0.5653992,0.2461853
				c-0.1885071,0.0823059-0.3770142,0.164856-0.5656128,0.2477417s-0.3772583,0.1660767-0.56604,0.2496643l0.0596619,0.1212158
				l20.1120911,40.8691101c0.4617615,0.9382935,0.8070374,1.8940125,1.041626,2.8547363
				c0.2345886,0.9608765,0.35849,1.9267883,0.3774109,2.8853455c0.0188904,0.9586487-0.0671997,1.9099426-0.252533,2.8414612
				c-0.1853638,0.9316406-0.4700012,1.8434448-0.8481445,2.723053c-0.3735046,0.868927-0.8414917,1.7037048-1.397644,2.4916992
				c-0.5562134,0.7880859-1.2006226,1.5293884-1.9269104,2.2112427c-0.7263794,0.6819153-1.534668,1.3043823-2.4185486,1.8547363
				c-0.8839417,0.550415-1.8434753,1.0286865-2.8722534,1.4222107l-144.3773346,55.2232361l-0.2725372,0.104248
				c-3.5207977,5.2920227-7.0057068,10.7950134-10.4476929,16.5205383
				c-3.44487,5.7302856-6.8469391,11.6837158-10.1991425,17.8718872c-3.355217,6.1937866-6.6606903,12.6230469-9.9093475,19.2994995
				c-3.2517624,6.6828613-6.4468155,13.6138916-9.5780487,20.8047485l46.864624,98.6362305
				c1.8411255,3.875,4.4533539,7.2349243,7.6009674,9.9923096c3.1486359,2.7582397,6.8324432,4.913147,10.815155,6.3773193
				c3.9832306,1.4644165,8.2646637,2.2376709,12.6076355,2.2329102c4.3426666-0.0047607,8.7459717-0.7874756,12.9731445-2.4345093
				l577.5351562-225.0248718c4.0606689-1.5821533,7.5314941-3.8485413,10.3308716-6.5916138
				c2.7981567-2.7419434,4.9250488-5.9598999,6.2996216-9.4467468c1.3738403-3.4851379,1.9960327-7.2387085,1.7857666-11.0541687
				c-0.210144-3.8134766-1.2518921-7.6888428-3.2058716-11.4201965l-100.3125-191.5590363
				c-6.2837524,5.1294098-13.196106,10.5292816-20.7487183,16.0901947
				c-7.5593872,5.565918-15.7606812,11.2934875-24.6151733,17.0727844
				c-8.862915,5.7847595-18.3806152,11.6215515-28.564209,17.3998108
				c-10.1934814,5.783844-21.0541382,11.5090637-32.5927734,17.0645752
				c-3.4421387,1.657074-6.8543701,3.2554321-10.2373657,4.797821c-3.3839111,1.5427856-6.7385254,3.0295715-10.0646362,4.4630737
				c-3.3269653,1.4338379-6.6253052,2.8143616-9.895874,4.1443176c-3.2713013,1.3302612-6.5147705,2.6099243-9.7311401,3.8417053
				c-0.0505981,0.0193787-0.1016235,0.0390015-0.152771,0.0587158c-0.0512085,0.0197144-0.1025391,0.0395508-0.1539307,0.0593567
				c-0.0513306,0.0198059-0.1026611,0.0396118-0.1538086,0.0592957s-0.1021118,0.0392151-0.15271,0.0585327h-0.000061
				c-0.0963745,0.0367737-0.1929321,0.0734558-0.2894287,0.1100464c-0.0965576,0.0365906-0.1931763,0.0730896-0.2897339,0.1095581
				s-0.1931152,0.0729065-0.2895508,0.1093445s-0.1928101,0.0728455-0.2890015,0.109314
				c-11.5669556,4.3805542-22.7849731,8.1445618-33.6986084,11.4225769
				c-10.9205933,3.2800903-21.5348816,6.0731506-31.8883362,8.510437
				c-10.3587036,2.4385071-20.4551392,4.5205994-30.3355713,6.3780518
				c-9.884552,1.8582153-19.5522156,3.4914551-29.0498047,5.0317383c-0.5665894,0.0918579-1.1327515,0.1834106-1.6983948,0.2747498
				c-0.5656738,0.0913086-1.1307983,0.1823425-1.695343,0.2731018c-0.5645752,0.0907898-1.12854,0.1812744-1.691864,0.2715149
				c-0.5632935,0.09021-1.125946,0.1801453-1.6878662,0.2698059c-10.0691833,1.6002808-19.9559631,3.132019-29.717804,4.7559204
				c-9.765564,1.6244812-19.406311,3.341217-28.9804077,5.3111877c-9.578186,1.9708252-19.090332,4.1952209-28.5953369,6.8345947
				C317.6715088,377.1311035,308.1676331,380.1875305,298.6101685,383.8216248"/>
			<path class="st4" d="M524.991272,390.854187c-3.46875,1.3301697-6.3373413,2.8216248-8.605896,4.4751282
				c-2.269165,1.6539307-3.9380493,3.4700317-5.0066833,5.4490967c-1.0689697,1.9796448-1.5374146,4.1223755-1.405304,6.4289856
				c0.1321106,2.3073425,0.8651733,4.778717,2.1991577,7.414917c1.3497925,2.6675415,2.965271,4.8367004,4.8466797,6.5063782
				c1.8817139,1.6700134,4.0291748,2.8401184,6.4424438,3.5093994c2.4133911,0.6693115,5.0922852,0.8376465,8.0366211,0.504364
				c2.9440308-0.333252,6.1530762-1.1679993,9.6269531-2.5047302c3.4813843-1.3395691,6.3548584-2.8451233,8.6219482-4.5164795
				c2.2664185-1.6708984,3.9266968-3.5074463,4.9822998-5.5094604c1.0552979-2.0014648,1.5062866-4.1682434,1.3544312-6.5001831
				c-0.1517944-2.3311768-0.9060059-4.8273315-2.2609863-7.4882812c-1.3391113-2.6296997-2.9421387-4.7631226-4.8103027-6.4007874
				c-1.8677979-1.6372986-4.0009766-2.7792969-6.401001-3.4262085c-2.3999634-0.6468811-5.0670166-0.7988586-8.0028076-0.4559937
				C531.6727295,388.6832581,528.4674683,389.5211487,524.991272,390.854187"/>
			<path class="st4" d="M546.9099121,209.4044189l-0.0001221,0.0000305
				c-0.0732422,0.0276489-0.1463623,0.0557251-0.2192993,0.0842285c-0.072998,0.0285034-0.145813,0.0574188-0.2185059,0.0867767
				c-0.0726929,0.0293732-0.1452637,0.0591583-0.2177124,0.089386c-0.0725098,0.0302277-0.1448364,0.0608978-0.2171021,0.0920105
				c-0.4090576,0.1763153-0.8137817,0.3667297-1.213623,0.5713654c-0.3998413,0.2046204-0.7947998,0.4234619-1.1842651,0.6565704
				c-0.3894653,0.2331238-0.7734375,0.480545-1.1513062,0.7423248s-0.7495728,0.5379486-1.114563,0.8285675
				c-0.0860596,0.0684662-0.1716919,0.1376495-0.256958,0.2076111c-0.0852051,0.0699463-0.1700439,0.1406555-0.2544556,0.2121735
				c-0.0844727,0.0715332-0.1685181,0.1438599-0.2521362,0.2170563c-0.0836792,0.0731964-0.1669922,0.1472473-0.2498779,0.2221985
				c-1.4454346,1.3074799-2.6340332,2.7479401-3.5523682,4.2768402c-0.9185181,1.5292511-1.5667725,3.1470032-1.9312744,4.8086395
				c-0.364563,1.6620483-0.4453125,3.3680115-0.2288818,5.0732422c0.2165527,1.7056274,0.7304077,3.4104919,1.5550537,5.0698853
				c0.2749023,0.5532074,0.5843506,1.1013489,0.928833,1.6427917c0.3445435,0.5414734,0.7240601,1.0762177,1.1390991,1.6026001
				c0.4151001,0.526413,0.8657837,1.0444489,1.352417,1.5524292c0.4866943,0.5080261,1.0093994,1.006012,1.5686035,1.4922791
				c1.4744873,1.2806244,3.1397095,2.3005371,4.9177246,3.0766144c1.7781372,0.7761383,3.6689453,1.3083649,5.5942993,1.6135864
				c1.925354,0.3052368,3.8851929,0.3834686,5.8013306,0.2516632s3.7884521-0.473587,5.5390625-1.0083618
				c0.1166382-0.0356445,0.2327881-0.0721588,0.3483887-0.1095276s0.2306519-0.0756073,0.3451538-0.1146698
				c0.114502-0.0390778,0.2283936-0.0789948,0.3416748-0.119751s0.2258911-0.0823364,0.3378296-0.1247559l0.000061-0.0000305
				c0.0333862-0.012619,0.0665894-0.0253143,0.0996704-0.0380707c0.0331421-0.0127411,0.0661621-0.0255585,0.0991211-0.0384369
				c0.03302-0.0128937,0.065918-0.0258484,0.0988159-0.0388794c0.0328979-0.0130157,0.0657959-0.026123,0.0986938-0.0393066
				c0.1639404-0.065979,0.3265381-0.1338043,0.4875488-0.2034607c0.1610718-0.0696411,0.3206177-0.1411285,0.4785767-0.2144012
				s0.3143311-0.1483307,0.4689331-0.2251434c0.1546631-0.0768127,0.3075562-0.1553802,0.4586792-0.235672
				c0.2614746-0.1389923,0.5175781-0.2832794,0.7679443-0.432785s0.4949951-0.3042145,0.7335815-0.4640503
				c0.2385864-0.1598206,0.4711304-0.3247681,0.6972656-0.4947357s0.4459229-0.3449554,0.6588745-0.5248718
				c0.0334473-0.028183,0.0667114-0.0564117,0.0999146-0.0847473c0.0331421-0.0283203,0.0661621-0.0567322,0.098999-0.0852814
				c0.0328369-0.0285339,0.0654907-0.0572052,0.0979614-0.0860138c0.0324707-0.0288239,0.0646973-0.0578003,0.0967407-0.0869598
				c1.4443359-1.3119202,2.6678467-2.7245178,3.6365967-4.2108765c0.9685669-1.4860077,1.6824951-3.0457153,2.1078491-4.6521912
				c0.425293-1.6061249,0.5621338-3.2589874,0.376709-4.9317322c-0.1854248-1.6723633-0.6929932-3.3645935-1.5565186-5.049881
				c-0.2878418-0.561676-0.6151733-1.1226044-0.9833374-1.6817474c-0.3681641-0.5591278-0.7770996-1.1164856-1.2280273-1.6710815
				c-0.4509888-0.5545654-0.9439697-1.106369-1.4802246-1.6544189c-0.5362549-0.5480194-1.1157837-1.0922852-1.7398682-1.6317902
				c-0.0487061-0.0420074-0.0974731-0.0837708-0.1464233-0.1252899s-0.0980835-0.0828094-0.1472778-0.1238708
				c-0.0492554-0.0410767-0.0985718-0.0819092-0.1481323-0.1225281c-0.0494995-0.0406189-0.0991821-0.0810089-0.1489868-0.1212006
				c-1.2936401-1.0434418-2.6799927-1.9315948-4.1291504-2.658844c-1.4489746-0.7271881-2.9608154-1.2935333-4.5054932-1.6934204
				c-1.5446167-0.3998718-3.1222534-0.6333008-4.7028809-0.6946411c-1.5806274-0.0613556-3.1643677,0.0493927-4.7213135,0.3379059
				c-0.2994385,0.0554962-0.5978394,0.1175995-0.8950195,0.1863251c-0.2972412,0.0687256-0.5932617,0.1440735-0.8878174,0.2260895
				c-0.2946167,0.082016-0.5878296,0.1706848-0.8793945,0.266037
				C547.4880371,209.1935883,547.1980591,209.295639,546.9099121,209.4044189"/>
			<path class="st5" d="M569.6716919,165.7942352l-0.000061,0.0000305c-0.0320435,0.0120392-0.0640259,0.0241852-0.0960083,0.036438
				s-0.0639648,0.0246277-0.0959473,0.0370941c-0.0319824,0.0124817-0.0639648,0.0250854-0.0959473,0.037796
				c-0.0319214,0.0127258-0.0639038,0.0255585-0.0958252,0.0385284c-0.1596069,0.0646362-0.3190308,0.1321259-0.4781494,0.2024536
				c-0.1591797,0.070343-0.3181152,0.1435394-0.4768066,0.2196045c-0.1586304,0.0760651-0.3170166,0.155014-0.4750977,0.2368469
				c-0.1580811,0.0818481-0.315918,0.1665802-0.4733887,0.2542267c-0.2835083,0.1578827-0.565918,0.3252411-0.8470459,0.5022583
				s-0.5610352,0.3637085-0.8395386,0.5602417s-0.555603,0.4029236-0.8312378,0.619339
				c-0.2755737,0.2164154-0.5496826,0.4428864-0.8220825,0.6795502c-0.0302734,0.0263367-0.0604858,0.0527954-0.0906982,0.079361
				c-0.0301514,0.0265808-0.0603027,0.0532684-0.0904541,0.0800629c-0.0300903,0.0268097-0.0602417,0.0537415-0.090332,0.0807953
				c-0.0301514,0.0270386-0.0602417,0.0542145-0.090332,0.0815125c-1.2197876,1.0977631-2.2120972,2.314682-2.9685669,3.6087341
				c-0.7565918,1.2943115-1.2772827,2.6657867-1.5535278,4.0723877c-0.2762451,1.4068756-0.3080444,2.848877-0.086853,4.2838593
				c0.2212524,1.4352875,0.6955566,2.8635406,1.4314575,4.2425995c0.2252808,0.4222107,0.4751587,0.8398132,0.7496948,1.2516022
				c0.2745972,0.4117889,0.5739746,0.8177643,0.8983154,1.2167053c0.3244019,0.3989563,0.6737671,0.790863,1.0484009,1.17453
				c0.3745728,0.3836823,0.7744751,0.7591095,1.1998291,1.1250763c0.0582275,0.0506134,0.1167603,0.1006927,0.1755371,0.1503143
				s0.1178589,0.0987854,0.177124,0.1475677c0.0593262,0.0487671,0.1188354,0.097168,0.1785889,0.1452332
				c0.0597534,0.0480804,0.1196899,0.0958405,0.1798096,0.1433411c0.4345703,0.3433685,0.8809814,0.6662598,1.3377686,0.9681854
				c0.4567261,0.3019409,0.9238281,0.582901,1.3997192,0.8424377c0.4758911,0.2595215,0.9606323,0.4976044,1.4526978,0.7137451
				c0.4920654,0.216156,0.9914551,0.4103699,1.4967041,0.5821533c0.9105835,0.3096313,1.8398438,0.546875,2.7788086,0.7093201
				c0.9389648,0.1624298,1.8876953,0.250061,2.8370972,0.2604675c0.9493408,0.0103912,1.8994141-0.0564423,2.8411255-0.2029114
				c0.9417114-0.1464539,1.875061-0.3725433,2.7910767-0.6806641c0.0481567-0.0162048,0.0963135-0.0326538,0.1444702-0.0493164
				c0.0480957-0.0166779,0.0962524-0.0335999,0.1442871-0.0507355c0.0480957-0.0171356,0.0960693-0.0345154,0.144043-0.0520935
				c0.0479126-0.0175934,0.0957642-0.0354004,0.1434937-0.053421l0.0001221-0.0000305
				c0.2588501-0.097641,0.5159912-0.2020264,0.7713623-0.3132172c0.2553101-0.1111908,0.5087891-0.2291565,0.7603149-0.3539429
				c0.2515259-0.1247711,0.5010376-0.2563782,0.7484741-0.3948059c0.2473755-0.138443,0.4926758-0.2837067,0.7357178-0.4358521
				c0.0593262-0.0371399,0.1184692-0.0747223,0.1774902-0.1127167c0.059021-0.0379791,0.1179199-0.0764008,0.1766968-0.1152344
				c0.0587158-0.0388184,0.1173096-0.078064,0.1757812-0.1177216c0.0584106-0.0396423,0.1166992-0.0797119,0.1748047-0.120163
				c0.1560669-0.1085663,0.3110962-0.2200623,0.4649048-0.3345337c0.1538696-0.1144562,0.3065186-0.2318878,0.4579468-0.352356
				c0.1514893-0.1204681,0.3016357-0.2439575,0.4505615-0.3705292c0.1489258-0.1265869,0.2965088-0.2562408,0.442749-0.3890381
				c1.2189331-1.1007996,2.1559448-2.3661804,2.8334961-3.7277222c0.6774292-1.3612671,1.0955811-2.818634,1.2770386-4.303772
				c0.1813965-1.4848328,0.1262817-2.9974213-0.1428223-4.4695129c-0.269043-1.4718018-0.7519531-2.9031677-1.4261475-4.2259064
				c-0.2063599-0.4048615-0.430603-0.7995453-0.6721191-1.1821136c-0.2415161-0.3825378-0.5003052-0.7529449-0.7757568-1.1092834
				c-0.2753906-0.3563232-0.5674438-0.6985779-0.8754883-1.0248108s-0.6320801-0.6364441-0.9714355-0.9286957
				c-0.0795898-0.0685577-0.1595459-0.1365204-0.2398682-0.2038574c-0.0802612-0.0673523-0.1609497-0.134079-0.2418823-0.2001648
				c-0.0809937-0.0660858-0.1622314-0.131546-0.2438354-0.1963501s-0.1634521-0.128952-0.2456055-0.1924286
				c-1.2120972-0.9368896-2.491394-1.7332001-3.817627-2.3690491c-1.3261719-0.6358185-2.6992798-1.1112366-4.0991211-1.4063416
				c-1.3997803-0.2951202-2.826355-0.4099579-4.2593994-0.3246002s-2.8727417,0.3709106-4.298645,0.8766327
				c-0.0241699,0.0085449-0.0483398,0.016983-0.0725098,0.0253906c-0.0241089,0.0084076-0.0482788,0.0167999-0.0724487,0.0252533
				s-0.0483398,0.0169678-0.0725098,0.02565C569.7199097,165.7763367,569.6958008,165.7851562,569.6716919,165.7942352"/>
		</g>
	</g>
</g>
</svg>
